<svg width="256" height="256" viewBox="0 0 256 256" fill="none" xmlns="http://www.w3.org/2000/svg"><g clip-path="url(#a)"><path d="M86.1 113.401c-7.3-1.45-14.1 4.45-14.1 11.9v25.2c0 5.1 3.55 9.2 8.35 11 9.1 3.4 15.65 12.2 15.65 22.5 0 13.25-10.75 24-24 24s-24-10.75-24-24v-124c0-6.65-5.35-12-12-12H12A11.97 11.97 0 0 0 0 60v124c0 44.75 41.05 80.1 87.5 70.35 27.2-5.7 49.15-27.7 54.85-54.85 8.7-41.45-18.5-78.6-56.25-86.1zM104.5.001C99.9-.25 96 3.4 96 8v15.8c0 4.25 3.3 7.75 7.5 7.95 64.7 3.5 116.7 56 120.45 120.75.25 4.2 3.75 7.5 7.95 7.5h16.05c4.6 0 8.25-3.9 8-8.5C251.7 69.9 186.1 4.3 104.5 0zm.15 48C100 47.65 96 51.35 96 56.05V72.1c0 4.2 3.25 7.65 7.4 7.95 38.4 3.15 69 34.1 72.45 72.6.4 4.15 3.8 7.35 7.95 7.35h16.1c4.65 0 8.4-4 8.05-8.65-4.2-55.05-48.25-99.1-103.3-103.35z" fill="#F7931A"/></g><defs><clipPath id="a"><path fill="#fff" d="M0 0h256v256H0z"/></clipPath></defs></svg>