<svg xmlns="http://www.w3.org/2000/svg" xmlns:vectornator="http://vectornator.io" viewBox="0 0 1134 357.21" clip-rule="evenodd" stroke-linecap="round" stroke-linejoin="round"><path d="M.026-1.122H1138.99V357.24H.026V-1.122z" fill="#fff" vectornator:layerName="White_bg" visibility="hidden"/><g vectornator:layerName="Logo_Circle" visibility="hidden" stroke="#f7931a" stroke-opacity="0" stroke-width="9.076" stroke-linecap="butt" stroke-linejoin="miter"><path d="M176.266 0h4.678C278.293 0 357.21 79.964 357.21 178.605c0 98.641-78.917 178.605-176.266 178.605h-4.678C78.917 357.21 0 277.246 0 178.605 0 79.965 78.917 0 176.266 0z" fill="#f7931a"/><path d="M176.415 11.34h4.38c91.168 0 165.075 74.887 165.075 167.265 0 92.378-73.907 167.265-165.075 167.265h-4.38c-91.168 0-165.075-74.887-165.075-167.265 0-92.378 73.907-167.265 165.075-167.265z"/></g><g vectornator:layerName="Logo_Circle copy" visibility="hidden" stroke="#f7931a" stroke-opacity="0" stroke-width="9.076" stroke-linecap="butt" stroke-linejoin="miter"><path d="M176.266 0h4.678C278.293 0 357.21 79.964 357.21 178.605c0 98.641-78.917 178.605-176.266 178.605h-4.678C78.917 357.21 0 277.246 0 178.605 0 79.965 78.917 0 176.266 0z"/><path d="M176.415 11.34h4.38c91.168 0 165.075 74.887 165.075 167.265 0 92.378-73.907 167.265-165.075 167.265h-4.38c-91.168 0-165.075-74.887-165.075-167.265 0-92.378 73.907-167.265 165.075-167.265z" fill="#f7931a"/></g><path d="M155.574 36.383h15.27v266.631h-15.27V36.382zm33.784 0h15.27v266.631h-15.27V36.382z" vectornator:layerName="Layer 2 copy" visibility="hidden" stroke="#000" stroke-width="9.076" stroke-linecap="butt" stroke-linejoin="miter"/><path stroke="#000" stroke-opacity="0" stroke-width="9.076" d="M160.618 46.324h35.345v266.631h-35.345V46.324z" stroke-linecap="butt" stroke-linejoin="miter" vectornator:layerName="Layer 2 copy copy" visibility="hidden"/><path stroke="#000" stroke-opacity="0" stroke-width="9.076" d="M160.618 46.324h35.345v266.631h-35.345V46.324z" fill="#fff" stroke-linecap="butt" stroke-linejoin="miter" vectornator:layerName="Layer 2 copy copy copy" visibility="hidden"/><path d="M155.574 36.383h15.27v266.631h-15.27V36.382zm33.784 0h15.27v266.631h-15.27V36.382z" vectornator:layerName="Layer 2 copy copy" visibility="hidden" stroke="#f7931a" stroke-width="9.076" fill="#f7931a" stroke-linecap="butt" stroke-linejoin="miter"/><path d="M60.46 199.584c0-2.297-.258-2.879 2.079-5.197 20.529-20.364 41.304-40.484 62.37-60.291 4.622-4.347 10.497-7.135 15.592-10.915 15.033-11.154 31.18-19.998 48.337-27.547 12.906-5.679 25.84-8.702 39.501-11.434 2.653-.531 5.618.3 8.316 0 2.764-.308 5.199-1.214 7.796-2.08 1.659-.552 5.825-.303 4.678-2.598M56.302 252.599c-2.943 0 .29-5.039 1.04-6.237 3.215-5.146 6.845-10.552 10.914-15.073 3.395-3.773 7.7-6.481 11.434-9.875 4.248-3.862 7.63-8.631 11.955-12.474 5.393-4.795 11.884-7.821 17.671-11.955 5.866-4.19 11.121-8.973 17.152-12.993 3.026-2.018 6.231-3.843 9.355-5.718 3.66-2.195 6.533-6.181 10.915-7.276 11.439-2.86 23.012-7.655 33.264-13.514 14.459-8.262 28.584-15.461 44.179-21.309 2.757-1.034 5.081-3.321 7.796-4.678 8.806-4.403 17.79-9.01 27.027-12.474 5.548-2.081 11.54-2.807 17.152-4.678 5.706-1.902 11.435-4.574 17.152-5.717 3.291-.658 7.928-.586 10.914-2.079M106.717 269.75c-3.195 0 1.053-3.707 1.56-4.158 4.8-4.267 10.12-7.876 15.072-11.954 3.32-2.734 6.052-6.132 9.356-8.836 9.505-7.776 20.697-14.856 31.185-21.309 14.92-9.182 30.687-17.204 46.777-23.909 5.636-2.348 11.174-5.587 16.632-8.316 5.346-2.673 11.212-3.549 16.632-5.717 8.784-3.514 17.728-6.766 27.027-8.316 3.323-.554 6.428-3.064 9.876-3.638 4.973-.829 9.717-2.152 14.553-3.119 1.117-.223 4.818.08 5.717-.52 1.323-.882.625-1.039 2.599-1.039" vectornator:layerName="Layer 1" visibility="hidden" stroke="#fff" stroke-width="9.076" fill="#fff" stroke-linecap="butt" stroke-linejoin="miter"/><path d="M60.46 199.584c0-2.297-.258-2.879 2.079-5.197 20.529-20.364 41.304-40.484 62.37-60.291 4.622-4.347 10.497-7.135 15.592-10.915 15.033-11.154 31.18-19.998 48.337-27.547 12.906-5.679 25.84-8.702 39.501-11.434 2.653-.531 5.618.3 8.316 0 2.764-.308 5.199-1.214 7.796-2.08 1.659-.552 5.825-.303 4.678-2.598M56.302 252.599c-2.943 0 .29-5.039 1.04-6.237 3.215-5.146 6.845-10.552 10.914-15.073 3.395-3.773 7.7-6.481 11.434-9.875 4.248-3.862 7.63-8.631 11.955-12.474 5.393-4.795 11.884-7.821 17.671-11.955 5.866-4.19 11.121-8.973 17.152-12.993 3.026-2.018 6.231-3.843 9.355-5.718 3.66-2.195 6.533-6.181 10.915-7.276 11.439-2.86 23.012-7.655 33.264-13.514 14.459-8.262 28.584-15.461 44.179-21.309 2.757-1.034 5.081-3.321 7.796-4.678 8.806-4.403 17.79-9.01 27.027-12.474 5.548-2.081 11.54-2.807 17.152-4.678 5.706-1.902 11.435-4.574 17.152-5.717 3.291-.658 7.928-.586 10.914-2.079M106.717 269.75c-3.195 0 1.053-3.707 1.56-4.158 4.8-4.267 10.12-7.876 15.072-11.954 3.32-2.734 6.052-6.132 9.356-8.836 9.505-7.776 20.697-14.856 31.185-21.309 14.92-9.182 30.687-17.204 46.777-23.909 5.636-2.348 11.174-5.587 16.632-8.316 5.346-2.673 11.212-3.549 16.632-5.717 8.784-3.514 17.728-6.766 27.027-8.316 3.323-.554 6.428-3.064 9.876-3.638 4.973-.829 9.717-2.152 14.553-3.119 1.117-.223 4.818.08 5.717-.52 1.323-.882.625-1.039 2.599-1.039" vectornator:layerName="Layer 1 copy" visibility="hidden" stroke="#000" stroke-width="9.076" stroke-linecap="butt" stroke-linejoin="miter"/><g vectornator:layerName="BetterScratch_big" visibility="hidden"><path d="M474.113 170.285c1.885-11.678-7.727-17.955-20.87-22.143l4.263-15.818-10.412-2.399-4.151 15.401a461.327 461.327 0 0 0-8.338-1.816l4.181-15.502-10.404-2.4-4.266 15.813a364.845 364.845 0 0 1-6.648-1.446l.012-.049-14.356-3.315-2.769 10.284s7.723 1.637 7.56 1.738c4.216.974 4.981 3.554 4.851 5.6l-4.857 18.021c.291.068.668.167 1.083.32l-1.097-.252-6.811 25.244c-.516 1.185-1.823 2.962-4.77 2.287.103.14-7.567-1.747-7.567-1.747l-5.168 11.025 13.55 3.123c2.52.584 4.99 1.196 7.418 1.772l-4.308 16.002 10.398 2.399 4.27-15.829c2.837.713 5.594 1.371 8.292 1.991l-4.251 15.755 10.409 2.4 4.308-15.969c17.751 3.107 31.102 1.854 36.715-12.994 4.527-11.956-.223-18.854-9.562-23.354 6.802-1.456 11.925-5.594 13.292-14.142h.003zm-23.788 30.849c-3.22 11.957-24.982 5.496-32.041 3.872L424 183.81c7.056 1.629 29.682 4.854 26.328 17.324h-.003zm3.217-31.022c-2.935 10.876-21.051 5.35-26.93 3.995l5.183-19.224c5.879 1.355 24.807 3.883 21.747 15.229zm53.104 30.457c-3.223 0-5.721 1.009-7.495 3.027-1.775 2.018-2.889 4.753-3.345 8.203h21.631c-.228-3.678-1.343-6.47-3.345-8.374-2.002-1.904-4.484-2.856-7.446-2.856zm0-11.475c4.427 0 8.414.83 11.963 2.49 3.548 1.66 6.477 4.281 8.789 7.862 2.083 3.157 3.434 6.819 4.052 10.986.358 2.441.505 5.957.44 10.547h-36.426c.195 5.338 1.872 9.082 5.029 11.23 1.921 1.335 4.232 2.002 6.934 2.002 2.865 0 5.192-.814 6.982-2.441.977-.879 1.84-2.1 2.588-3.662h14.209c-.358 3.157-2.002 6.364-4.931 9.619-4.558 5.176-10.938 7.764-19.141 7.764-6.771 0-12.744-2.181-17.92-6.543-5.176-4.362-7.764-11.459-7.764-21.289 0-9.213 2.336-16.277 7.007-21.192 4.671-4.915 10.734-7.373 18.189-7.373zm29.15 11.816v-9.912h7.422v-14.843h13.769v14.843h8.643v9.912h-8.643v28.125c0 2.181.277 3.54.831 4.078.553.537 2.246.805 5.078.805a39.686 39.686 0 0 0 2.734-.097v10.4l-6.592.244c-6.575.228-11.067-.911-13.476-3.418-1.563-1.595-2.344-4.053-2.344-7.373V200.91h-7.422zm33.301 0v-9.912h7.422v-14.843h13.769v14.843h8.643v9.912h-8.643v28.125c0 2.181.277 3.54.83 4.078.554.537 2.246.805 5.078.805a39.698 39.698 0 0 0 2.735-.097v10.4l-6.592.244c-6.575.228-11.068-.911-13.477-3.418-1.562-1.595-2.343-4.053-2.343-7.373V200.91h-7.422zm59.765-.341c-3.222 0-5.721 1.009-7.495 3.027-1.774 2.018-2.889 4.753-3.344 8.203h21.631c-.228-3.678-1.343-6.47-3.345-8.374-2.002-1.904-4.484-2.856-7.447-2.856zm0-11.475c4.428 0 8.415.83 11.963 2.49 3.549 1.66 6.478 4.281 8.789 7.862 2.084 3.157 3.435 6.819 4.053 10.986.358 2.441.505 5.957.44 10.547h-36.426c.195 5.338 1.872 9.082 5.029 11.23 1.921 1.335 4.232 2.002 6.934 2.002 2.864 0 5.192-.814 6.982-2.441.977-.879 1.839-2.1 2.588-3.662h14.209c-.358 3.157-2.002 6.364-4.932 9.619-4.557 5.176-10.937 7.764-19.14 7.764-6.771 0-12.744-2.181-17.92-6.543-5.176-4.362-7.764-11.459-7.764-21.289 0-9.213 2.336-16.277 7.007-21.192 4.671-4.915 10.734-7.373 18.188-7.373zm63.526.147c.26 0 .48.008.659.024.179.016.578.041 1.196.073v14.258a37.068 37.068 0 0 0-4.004-.244c-5.599 0-9.358 1.823-11.279 5.469-1.074 2.05-1.611 5.208-1.611 9.472v25.44h-14.014V190.51h13.281v9.277c2.149-3.548 4.021-5.973 5.616-7.275 2.604-2.181 5.989-3.271 10.156-3.271zm152.93 20.361c-.261-1.986-.928-3.776-2.002-5.371-1.563-2.149-3.988-3.223-7.276-3.223-4.687 0-7.894 2.328-9.619 6.983-.911 2.473-1.367 5.761-1.367 9.863 0 3.906.456 7.047 1.367 9.424 1.66 4.427 4.785 6.64 9.375 6.64 3.255 0 5.566-.879 6.934-2.636 1.367-1.758 2.197-4.037 2.49-6.836h14.209c-.326 4.231-1.856 8.235-4.59 12.011-4.362 6.088-10.824 9.131-19.385 9.131-8.561 0-14.86-2.539-18.896-7.617-4.037-5.078-6.055-11.67-6.055-19.775 0-9.148 2.23-16.26 6.69-21.338 4.459-5.078 10.612-7.617 18.457-7.617 6.673 0 12.133 1.497 16.381 4.492 4.248 2.995 6.763 8.284 7.544 15.869h-14.257zm52.734-20.361c.26 0 .48.008.659.024.179.016.578.041 1.196.073v14.258a37.007 37.007 0 0 0-4.003-.244c-5.599 0-9.359 1.823-11.28 5.469-1.074 2.05-1.611 5.208-1.611 9.472v25.44h-14.014V190.51h13.281v9.277c2.149-3.548 4.021-5.973 5.616-7.275 2.604-2.181 5.989-3.271 10.156-3.271zm39.355 28.613a15.138 15.138 0 0 1-2.661 1.343c-.895.341-2.124.659-3.686.952l-3.125.586c-2.93.521-5.03 1.155-6.299 1.904-2.149 1.27-3.223 3.239-3.223 5.908 0 2.376.659 4.094 1.978 5.152 1.318 1.057 2.921 1.586 4.809 1.586 2.995 0 5.754-.878 8.277-2.636 2.523-1.758 3.833-4.964 3.93-9.619v-5.176zm-8.447-6.494c2.572-.326 4.411-.733 5.518-1.221 1.985-.846 2.978-2.165 2.978-3.955 0-2.181-.757-3.687-2.27-4.517-1.514-.83-3.736-1.245-6.665-1.245-3.288 0-5.616.814-6.983 2.442-.976 1.204-1.627 2.832-1.953 4.882h-13.428c.293-4.655 1.595-8.479 3.907-11.474 3.678-4.688 9.993-7.031 18.945-7.031 5.827 0 11.003 1.155 15.527 3.466 4.525 2.312 6.787 6.674 6.787 13.086v24.414c0 1.693.033 3.744.098 6.153.098 1.823.374 3.06.83 3.711.456.651 1.139 1.188 2.051 1.611v2.051h-15.137c-.423-1.074-.716-2.084-.879-3.028a36.557 36.557 0 0 1-.39-3.222 28.604 28.604 0 0 1-6.641 5.322c-2.995 1.725-6.38 2.588-10.156 2.588-4.818 0-8.797-1.375-11.939-4.126-3.141-2.751-4.712-6.649-4.712-11.694 0-6.543 2.523-11.28 7.569-14.209 2.767-1.595 6.836-2.735 12.207-3.418l4.736-.586zm29.248-10.45v-9.912h7.422v-14.843h13.77v14.843h8.642v9.912H979.4v28.125c0 2.181.276 3.54.83 4.078.553.537 2.246.805 5.078.805a39.743 39.743 0 0 0 2.734-.097v10.4l-6.592.244c-6.575.228-11.067-.911-13.476-3.418-1.563-1.595-2.344-4.053-2.344-7.373V200.91h-7.422zm70.552 8.692c-.26-1.986-.92-3.776-2-5.371-1.56-2.149-3.98-3.223-7.27-3.223-4.69 0-7.9 2.328-9.62 6.983-.91 2.473-1.37 5.761-1.37 9.863 0 3.906.46 7.047 1.37 9.424 1.66 4.427 4.78 6.64 9.37 6.64 3.26 0 5.57-.879 6.94-2.636 1.36-1.758 2.19-4.037 2.49-6.836h14.21c-.33 4.231-1.86 8.235-4.59 12.011-4.37 6.088-10.83 9.131-19.39 9.131s-14.86-2.539-18.89-7.617c-4.041-5.078-6.06-11.67-6.06-19.775 0-9.148 2.23-16.26 6.69-21.338 4.46-5.078 10.61-7.617 18.46-7.617 6.67 0 12.13 1.497 16.38 4.492 4.25 2.995 6.76 8.284 7.54 15.869h-14.26zm53.18-20.459c3.29 0 6.27.57 8.96 1.709 2.68 1.139 4.89 2.881 6.61 5.224 1.47 1.986 2.36 4.029 2.69 6.128.33 2.1.49 5.526.49 10.279v31.25h-14.21V211.36c0-2.865-.49-5.176-1.47-6.934-1.26-2.474-3.67-3.711-7.22-3.711-3.68 0-6.47 1.229-8.38 3.687-1.9 2.457-2.85 5.965-2.85 10.522v28.809h-13.87v-71.729h13.87v25.44c2.02-3.093 4.35-5.249 7-6.47a19.847 19.847 0 0 1 8.38-1.831zm-315.316-.343c-6.769-5.216-11.025-9.835-12.769-13.856-1.743-4.022-1.8-8.741-.169-14.158 2.096-6.961 5.971-11.758 11.625-14.394 5.655-2.635 12.374-2.782 20.157-.438a49.576 49.576 0 0 1 10.231 4.398c3.289 1.869 6.428 4.113 9.416 6.733l-4.459 14.812c-2.566-3.278-5.348-6.023-8.347-8.234-2.999-2.212-6.144-3.813-9.436-4.804-3.669-1.105-6.702-1.214-9.1-.328-2.398.886-4.01 2.701-4.836 5.444-.64 2.125-.458 4.097.547 5.914 1.005 1.817 3.517 4.247 7.538 7.289l5.788 4.435c5.491 4.121 9.13 8.489 10.92 13.104 1.789 4.614 1.827 9.768.113 15.459-2.332 7.749-6.363 12.846-12.091 15.291-5.728 2.445-13.221 2.274-22.479-.513a51.527 51.527 0 0 1-11.033-4.808 53.396 53.396 0 0 1-9.868-7.374l4.723-15.686c3.178 4.098 6.451 7.42 9.816 9.967 3.366 2.546 6.9 4.377 10.603 5.491 3.737 1.126 6.89 1.149 9.458.071 2.568-1.078 4.312-3.142 5.23-6.194.692-2.297.613-4.518-.238-6.662-.85-2.145-2.428-4.106-4.735-5.885l-6.605-5.074z"/><path d="M772.933 132.021l10.142 3.041-4.328 18.951-10.142-3.041 4.328-18.951zm17.099 5.011l10.141 3.04-4.327 18.952-10.142-3.041 4.328-18.951zm-40.225 77.947l10.142 3.041-4.328 18.951-10.142-3.04 4.328-18.952zm17.099 5.011l10.141 3.041-4.327 18.951-10.142-3.041 4.328-18.951z"/></g><g vectornator:layerName="BetterScratch_big copy"><path d="M466.69 238.506c1.368-8.387-5.604-12.896-15.137-15.904l3.092-11.362-7.552-1.724-3.011 11.063a332.261 332.261 0 0 0-6.047-1.304l3.032-11.136-7.546-1.723-3.094 11.358a280.458 280.458 0 0 1-4.822-1.038l.009-.036-10.413-2.381-2.009 7.387s5.602 1.176 5.484 1.248c3.058.7 3.613 2.553 3.518 4.023l-3.522 12.944c.211.049.484.12.785.23l-.796-.181-4.94 18.133c-.374.851-1.322 2.127-3.46 1.642.076.101-5.488-1.254-5.488-1.254l-3.748 7.919 9.828 2.243c1.828.42 3.619.859 5.38 1.273l-3.124 11.494 7.541 1.723 3.097-11.37c2.058.513 4.058.985 6.015 1.431l-3.084 11.316 7.551 1.724 3.124-11.47c12.875 2.231 22.559 1.331 26.63-9.334 3.284-8.588-.161-13.542-6.936-16.775 4.934-1.046 8.65-4.018 9.641-10.159h.002zm-17.253 22.159c-2.336 8.589-18.12 3.948-23.241 2.782l4.147-15.225c5.118 1.17 21.528 3.486 19.096 12.443h-.002zm2.333-22.283c-2.129 7.813-15.268 3.844-19.533 2.87l3.759-13.808c4.265.973 17.993 2.789 15.774 10.938zm47.176 13.831c-.42-1.774-1.283-3.197-2.59-4.27-1.306-1.074-2.893-1.61-4.76-1.61-1.96 0-3.558.513-4.795 1.54-1.236 1.026-2.018 2.473-2.345 4.34h14.49zm-14.84 7.35c0 5.46 2.567 8.19 7.7 8.19 2.754 0 4.83-1.12 6.23-3.36h12.25c-2.473 8.213-8.656 12.32-18.55 12.32-3.033 0-5.81-.455-8.33-1.365-2.52-.91-4.678-2.205-6.475-3.885-1.796-1.68-3.185-3.687-4.165-6.02-.98-2.334-1.47-4.947-1.47-7.84 0-2.987.467-5.682 1.4-8.085.934-2.404 2.264-4.445 3.99-6.125 1.727-1.68 3.815-2.975 6.265-3.885 2.45-.91 5.215-1.365 8.295-1.365 3.034 0 5.764.455 8.19 1.365 2.427.91 4.48 2.228 6.16 3.955 1.68 1.726 2.964 3.838 3.85 6.335.887 2.496 1.33 5.308 1.33 8.435v1.33h-26.67zm48.02-9.52v25.34h-12.67v-25.34h-4.2v-10.57h4.2v-10.78h12.67v10.78h7.21v10.57h-7.21zm26.11 0v25.34h-12.67v-25.34h-4.2v-10.57h4.2v-10.78h12.67v10.78h7.21v10.57h-7.21zm38.22 2.17c-.42-1.774-1.283-3.197-2.59-4.27-1.306-1.074-2.893-1.61-4.76-1.61-1.96 0-3.558.513-4.795 1.54-1.236 1.026-2.018 2.473-2.345 4.34h14.49zm-14.84 7.35c0 5.46 2.567 8.19 7.7 8.19 2.754 0 4.83-1.12 6.23-3.36h12.25c-2.473 8.213-8.656 12.32-18.55 12.32-3.033 0-5.81-.455-8.33-1.365-2.52-.91-4.678-2.205-6.475-3.885-1.796-1.68-3.185-3.687-4.165-6.02-.98-2.334-1.47-4.947-1.47-7.84 0-2.987.467-5.682 1.4-8.085.934-2.404 2.264-4.445 3.99-6.125 1.727-1.68 3.815-2.975 6.265-3.885 2.45-.91 5.215-1.365 8.295-1.365 3.034 0 5.764.455 8.19 1.365 2.427.91 4.48 2.228 6.16 3.955 1.68 1.726 2.964 3.838 3.85 6.335.887 2.496 1.33 5.308 1.33 8.435v1.33h-26.67zm33.88-20.09h12.67v5.88c1.354-2.147 3.01-3.792 4.97-4.935 1.96-1.144 4.247-1.715 6.86-1.715h1.085c.397 0 .852.046 1.365.14v12.11c-1.68-.84-3.5-1.26-5.46-1.26-2.94 0-5.145.875-6.615 2.625-1.47 1.75-2.205 4.305-2.205 7.665v15.4h-12.67v-35.91zm131.04 11.62c-2.193-1.494-4.41-2.24-6.65-2.24-1.213 0-2.345.21-3.395.63a8.421 8.421 0 0 0-2.765 1.785 8.224 8.224 0 0 0-1.855 2.73c-.443 1.05-.665 2.228-.665 3.535 0 1.26.222 2.415.665 3.465a8.491 8.491 0 0 0 1.82 2.73 7.96 7.96 0 0 0 2.765 1.785c1.074.42 2.217.63 3.43.63 2.38 0 4.597-.817 6.65-2.45v10.78c-3.126 1.353-6.09 2.03-8.89 2.03-2.613 0-5.098-.444-7.455-1.33-2.356-.887-4.433-2.159-6.23-3.815-1.796-1.657-3.231-3.64-4.305-5.95-1.073-2.31-1.61-4.889-1.61-7.735 0-2.847.514-5.449 1.54-7.805 1.027-2.357 2.427-4.387 4.2-6.09 1.774-1.704 3.885-3.034 6.335-3.99 2.45-.957 5.075-1.435 7.875-1.435 3.08 0 5.927.653 8.54 1.96v10.78zm7.21-11.62h12.67v5.88c1.354-2.147 3.01-3.792 4.97-4.935 1.96-1.144 4.247-1.715 6.86-1.715h1.085c.397 0 .852.046 1.365.14v12.11c-1.68-.84-3.5-1.26-5.46-1.26-2.94 0-5.145.875-6.615 2.625-1.47 1.75-2.205 4.305-2.205 7.665v15.4h-12.67v-35.91zm44.31 17.85c0 1.166.21 2.251.63 3.255a8.397 8.397 0 0 0 1.715 2.625 7.718 7.718 0 0 0 2.59 1.75c1.004.42 2.089.63 3.255.63 1.12 0 2.182-.21 3.185-.63a7.699 7.699 0 0 0 2.59-1.75 9.033 9.033 0 0 0 1.75-2.59c.444-.98.665-2.03.665-3.15s-.221-2.182-.665-3.185a8.871 8.871 0 0 0-1.75-2.625 7.684 7.684 0 0 0-2.59-1.75 8.164 8.164 0 0 0-3.185-.63c-1.166 0-2.251.21-3.255.63a7.704 7.704 0 0 0-2.59 1.75 8.62 8.62 0 0 0-1.715 2.555c-.42.956-.63 1.995-.63 3.115zm15.96-17.85h12.74v35.91h-12.74v-3.99c-2.706 3.406-6.37 5.11-10.99 5.11-2.613 0-5.016-.479-7.21-1.435a17.413 17.413 0 0 1-5.74-4.025c-1.633-1.727-2.905-3.757-3.815-6.09-.91-2.334-1.365-4.877-1.365-7.63 0-2.567.444-5.005 1.33-7.315.887-2.31 2.124-4.329 3.71-6.055 1.587-1.727 3.477-3.092 5.67-4.095 2.194-1.004 4.62-1.505 7.28-1.505 4.48 0 8.19 1.563 11.13 4.69v-3.57zm35.49 10.57v25.34h-12.67v-25.34h-4.2v-10.57h4.2v-10.78h12.67v10.78h7.21v10.57h-7.21zm39.06 1.05c-2.193-1.494-4.41-2.24-6.65-2.24-1.213 0-2.345.21-3.395.63a8.421 8.421 0 0 0-2.765 1.785 8.224 8.224 0 0 0-1.855 2.73c-.443 1.05-.665 2.228-.665 3.535 0 1.26.222 2.415.665 3.465a8.491 8.491 0 0 0 1.82 2.73 7.96 7.96 0 0 0 2.765 1.785c1.074.42 2.217.63 3.43.63 2.38 0 4.597-.817 6.65-2.45v10.78c-3.126 1.353-6.09 2.03-8.89 2.03-2.613 0-5.098-.444-7.455-1.33-2.356-.887-4.433-2.159-6.23-3.815-1.796-1.657-3.231-3.64-4.305-5.95-1.073-2.31-1.61-4.889-1.61-7.735 0-2.847.514-5.449 1.54-7.805 1.027-2.357 2.427-4.387 4.2-6.09 1.774-1.704 3.885-3.034 6.335-3.99 2.45-.957 5.075-1.435 7.875-1.435 3.08 0 5.927.653 8.54 1.96v10.78zm7.21-33.81h12.67v26.74c1.727-2.1 3.477-3.512 5.25-4.235 1.774-.724 3.85-1.085 6.23-1.085 4.527 0 7.945 1.248 10.255 3.745 2.31 2.496 3.465 5.868 3.465 10.115v22.82h-12.67v-18.13c0-1.82-.14-3.29-.42-4.41-.28-1.12-.746-1.984-1.4-2.59-1.12-.98-2.473-1.47-4.06-1.47-2.146 0-3.791.641-4.935 1.925-1.143 1.283-1.715 3.115-1.715 5.495v19.18h-12.67v-58.1zM688.393 248.68c-4.923-3.793-8.018-7.152-9.286-10.077-1.269-2.925-1.309-6.357-.123-10.297 1.524-5.062 4.342-8.551 8.454-10.468 4.113-1.917 8.999-2.023 14.66-.319a36.086 36.086 0 0 1 7.441 3.199 41.373 41.373 0 0 1 6.847 4.897l-3.243 10.772c-1.866-2.384-3.889-4.38-6.07-5.988-2.181-1.609-4.469-2.773-6.862-3.494-2.669-.803-4.875-.883-6.619-.238-1.744.644-2.916 1.963-3.517 3.958-.465 1.546-.333 2.98.398 4.302.731 1.321 2.558 3.088 5.482 5.301l4.21 3.226c3.993 2.997 6.64 6.173 7.941 9.529 1.302 3.356 1.329 7.104.083 11.244-1.697 5.635-4.628 9.342-8.794 11.12-4.166 1.778-9.615 1.654-16.348-.373a37.49 37.49 0 0 1-8.024-3.496 38.87 38.87 0 0 1-7.177-5.363l3.435-11.409c2.312 2.981 4.691 5.397 7.139 7.249 2.448 1.852 5.018 3.183 7.711 3.994 2.718.818 5.011.835 6.879.051 1.868-.783 3.136-2.285 3.804-4.504.503-1.671.445-3.286-.173-4.846-.619-1.559-1.767-2.986-3.444-4.28l-4.804-3.69z"/><path d="M691.389 205.645l7.788 2.359-3.323 14.7-7.788-2.359 3.323-14.7zm12.13 3.887l7.788 2.358-3.323 14.701-7.788-2.359 3.323-14.7zm-28.889 58.464l7.788 2.359-3.323 14.701-7.788-2.359 3.323-14.701zm12.13 3.887l7.788 2.359-3.323 14.701-7.788-2.359 3.323-14.701zM432.872 86.231V176.7h-13.653V86.231h13.653zm46.699 12.832V176.7h-13.652V99.063h-20.801V86.231h55.195v12.832h-20.742zm99.785-7.969v16.172c-7.89-6.601-16.055-9.902-24.492-9.902-9.297 0-17.129 3.34-23.496 10.019-6.406 6.641-9.609 14.766-9.609 24.375 0 9.493 3.203 17.5 9.609 24.024 6.406 6.523 14.258 9.785 23.555 9.785 4.804 0 8.886-.781 12.246-2.344 1.875-.781 3.818-1.836 5.83-3.164 2.011-1.328 4.131-2.93 6.357-4.805v16.465c-7.812 4.414-16.015 6.621-24.609 6.621-12.93 0-23.965-4.511-33.106-13.535-9.101-9.101-13.652-20.078-13.652-32.929 0-11.524 3.809-21.797 11.426-30.821 9.375-11.054 21.504-16.582 36.386-16.582 8.125 0 15.977 2.207 23.555 6.621zm30.879 30.528h39.024V86.231h13.652V176.7h-13.652v-42.246h-39.024V176.7h-13.652V86.231h13.652v35.391zm92.637 15.996l-29.531-51.387h15.703l20.683 36.152 20.742-36.152h15.704l-29.649 51.387V176.7h-13.652v-39.082zm104.883-37.91l-11.075 6.562c-2.07-3.594-4.043-5.937-5.918-7.031-1.953-1.25-4.472-1.875-7.558-1.875-3.789 0-6.934 1.074-9.434 3.223-2.5 2.109-3.75 4.765-3.75 7.968 0 4.414 3.281 7.969 9.844 10.664l9.023 3.692c7.344 2.968 12.715 6.592 16.114 10.869 3.398 4.277 5.097 9.521 5.097 15.732 0 8.321-2.773 15.196-8.32 20.625-5.586 5.469-12.519 8.203-20.801 8.203-7.851 0-14.336-2.324-19.453-6.972-5.039-4.649-8.183-11.192-9.433-19.629l13.828-3.047c.625 5.312 1.718 8.984 3.281 11.016 2.812 3.906 6.914 5.859 12.305 5.859 4.257 0 7.793-1.426 10.605-4.277 2.813-2.852 4.219-6.465 4.219-10.84 0-1.758-.244-3.369-.733-4.834a12.257 12.257 0 0 0-2.285-4.043c-1.035-1.231-2.373-2.383-4.013-3.457-1.641-1.074-3.594-2.1-5.86-3.076l-8.73-3.633c-12.383-5.235-18.574-12.891-18.574-22.969 0-6.797 2.597-12.48 7.792-17.05 5.196-4.61 11.661-6.915 19.395-6.915 10.43 0 18.574 5.078 24.434 15.235zm71.953 55.019h-38.731L830.899 176.7h-14.707l44.766-96.153 43.183 96.153H889.2l-9.492-21.973zm-5.567-12.832l-13.418-30.762-14.062 30.762h27.48zm66.27-42.832V176.7h-13.652V99.063h-20.801V86.231h55.195v12.832h-20.742zm84.079.645l-11.07 6.562c-2.07-3.594-4.04-5.937-5.92-7.031-1.95-1.25-4.47-1.875-7.558-1.875-3.789 0-6.933 1.074-9.433 3.223-2.5 2.109-3.75 4.765-3.75 7.968 0 4.414 3.281 7.969 9.843 10.664l9.028 3.692c7.34 2.968 12.71 6.592 16.11 10.869 3.4 4.277 5.1 9.521 5.1 15.732 0 8.321-2.78 15.196-8.32 20.625-5.59 5.469-12.52 8.203-20.804 8.203-7.852 0-14.336-2.324-19.454-6.972-5.039-4.649-8.183-11.192-9.433-19.629l13.828-3.047c.625 5.312 1.719 8.984 3.281 11.016 2.813 3.906 6.914 5.859 12.305 5.859 4.257 0 7.797-1.426 10.607-4.277 2.81-2.852 4.22-6.465 4.22-10.84 0-1.758-.25-3.369-.74-4.834-.48-1.465-1.25-2.813-2.28-4.043-1.04-1.231-2.37-2.383-4.01-3.457-1.64-1.074-3.6-2.1-5.86-3.076l-8.734-3.633c-12.383-5.235-18.574-12.891-18.574-22.969 0-6.797 2.597-12.48 7.793-17.05 5.195-4.61 11.66-6.915 19.395-6.915 10.43 0 18.57 5.078 24.43 15.235z"/><path stroke="#f7931a" stroke-opacity="0" stroke-width="9.076" d="M176.266 0h4.678C278.293 0 357.21 79.964 357.21 178.605c0 98.641-78.917 178.605-176.266 178.605h-4.678C78.917 357.21 0 277.246 0 178.605 0 79.965 78.917 0 176.266 0z" fill="#f7931a" stroke-linecap="butt" stroke-linejoin="miter"/><path stroke="#f7931a" stroke-opacity="0" stroke-width="9.076" d="M176.415 11.34h4.38c91.168 0 165.075 74.887 165.075 167.265 0 92.378-73.907 167.265-165.075 167.265h-4.38c-91.168 0-165.075-74.887-165.075-167.265 0-92.378 73.907-167.265 165.075-167.265z" stroke-linecap="butt" stroke-linejoin="miter"/><path d="M274.971 153.046c4.484-27.403-18.374-42.134-49.63-51.962l10.139-37.12-24.763-5.632-9.871 36.143c-6.5-1.48-13.184-2.877-19.826-4.26l9.941-36.381-24.741-5.632-10.146 37.109c-5.386-1.12-10.674-2.227-15.807-3.392l.028-.116-34.14-7.78-6.585 24.133s18.367 3.842 17.979 4.08c10.026 2.285 11.845 8.341 11.535 13.142l-11.549 42.289c.691.16 1.586.392 2.574.753l-2.609-.593-16.196 59.241c-1.227 2.78-4.336 6.95-11.344 5.367.246.328-17.994-4.099-17.994-4.099l-12.29 25.871 32.223 7.33c5.993 1.371 11.866 2.806 17.641 4.157l-10.245 37.553 24.727 5.631 10.153-37.147a999.009 999.009 0 0 0 19.721 4.672l-10.111 36.973 24.755 5.631 10.245-37.474c42.212 7.291 73.962 4.35 87.309-30.492 10.766-28.06-.529-44.246-22.739-54.807 16.175-3.417 28.358-13.128 31.609-33.188h.007zm-56.568 72.394c-7.657 28.06-59.41 12.898-76.197 9.088l13.593-49.742c16.781 3.823 70.585 11.392 62.611 40.654h-.007zm7.65-72.8c-6.98 25.524-50.06 12.556-64.042 9.377l12.325-45.114c13.981 3.179 58.993 9.113 51.717 35.737z" fill-opacity=".499" fill="#f7931a"/><path stroke="#000" stroke-width="9.076" d="M60.46 199.584c0-2.297-.258-2.879 2.079-5.197 20.529-20.364 41.304-40.484 62.37-60.291 4.622-4.347 10.497-7.135 15.592-10.915 15.033-11.154 31.18-19.998 48.337-27.547 12.906-5.679 25.84-8.702 39.501-11.434 2.653-.531 5.618.3 8.316 0 2.764-.308 5.199-1.214 7.796-2.08 1.659-.552 5.825-.303 4.678-2.598M56.302 252.599c-2.943 0 .29-5.039 1.04-6.237 3.215-5.146 6.845-10.552 10.914-15.073 3.395-3.773 7.7-6.481 11.434-9.875 4.248-3.862 7.63-8.631 11.955-12.474 5.393-4.795 11.884-7.821 17.671-11.955 5.866-4.19 11.121-8.973 17.152-12.993 3.026-2.018 6.231-3.843 9.355-5.718 3.66-2.195 6.533-6.181 10.915-7.276 11.439-2.86 23.012-7.655 33.264-13.514 14.459-8.262 28.584-15.461 44.179-21.309 2.757-1.034 5.081-3.321 7.796-4.678 8.806-4.403 17.79-9.01 27.027-12.474 5.548-2.081 11.54-2.807 17.152-4.678 5.706-1.902 11.435-4.574 17.152-5.717 3.291-.658 7.928-.586 10.914-2.079M106.717 269.75c-3.195 0 1.053-3.707 1.56-4.158 4.8-4.267 10.12-7.876 15.072-11.954 3.32-2.734 6.052-6.132 9.356-8.836 9.505-7.776 20.697-14.856 31.185-21.309 14.92-9.182 30.687-17.204 46.777-23.909 5.636-2.348 11.174-5.587 16.632-8.316 5.346-2.673 11.212-3.549 16.632-5.717 8.784-3.514 17.728-6.766 27.027-8.316 3.323-.554 6.428-3.064 9.876-3.638 4.973-.829 9.717-2.152 14.553-3.119 1.117-.223 4.818.08 5.717-.52 1.323-.882.625-1.039 2.599-1.039" stroke-linecap="butt" stroke-linejoin="miter"/><path stroke="#fff" stroke-width="9.076" d="M60.46 199.584c0-2.297-.258-2.879 2.079-5.197 20.529-20.364 41.304-40.484 62.37-60.291 4.622-4.347 10.497-7.135 15.592-10.915 15.033-11.154 31.18-19.998 48.337-27.547 12.906-5.679 25.84-8.702 39.501-11.434 2.653-.531 5.618.3 8.316 0 2.764-.308 5.199-1.214 7.796-2.08 1.659-.552 5.825-.303 4.678-2.598M56.302 252.599c-2.943 0 .29-5.039 1.04-6.237 3.215-5.146 6.845-10.552 10.914-15.073 3.395-3.773 7.7-6.481 11.434-9.875 4.248-3.862 7.63-8.631 11.955-12.474 5.393-4.795 11.884-7.821 17.671-11.955 5.866-4.19 11.121-8.973 17.152-12.993 3.026-2.018 6.231-3.843 9.355-5.718 3.66-2.195 6.533-6.181 10.915-7.276 11.439-2.86 23.012-7.655 33.264-13.514 14.459-8.262 28.584-15.461 44.179-21.309 2.757-1.034 5.081-3.321 7.796-4.678 8.806-4.403 17.79-9.01 27.027-12.474 5.548-2.081 11.54-2.807 17.152-4.678 5.706-1.902 11.435-4.574 17.152-5.717 3.291-.658 7.928-.586 10.914-2.079M106.717 269.75c-3.195 0 1.053-3.707 1.56-4.158 4.8-4.267 10.12-7.876 15.072-11.954 3.32-2.734 6.052-6.132 9.356-8.836 9.505-7.776 20.697-14.856 31.185-21.309 14.92-9.182 30.687-17.204 46.777-23.909 5.636-2.348 11.174-5.587 16.632-8.316 5.346-2.673 11.212-3.549 16.632-5.717 8.784-3.514 17.728-6.766 27.027-8.316 3.323-.554 6.428-3.064 9.876-3.638 4.973-.829 9.717-2.152 14.553-3.119 1.117-.223 4.818.08 5.717-.52 1.323-.882.625-1.039 2.599-1.039" fill="#fff" stroke-linecap="butt" stroke-linejoin="miter"/></g><path stroke="#fff" stroke-width="9.076" d="M162.85 31.185h32.745v266.632H162.85V31.185z" fill="#fff" stroke-linecap="butt" stroke-linejoin="miter" vectornator:layerName="Layer 2" visibility="hidden"/></svg>