<svg xmlns:xlink="http://www.w3.org/1999/xlink" xmlns="http://www.w3.org/2000/svg" xmlns:vectornator="http://vectornator.io" viewBox="0 0 357.21 357.21" clip-rule="evenodd" stroke-linecap="round" stroke-linejoin="round"><defs><path d="M278.935 149.534c4.484-27.403-18.374-42.134-49.63-51.961l10.139-37.121-24.762-5.632-9.871 36.143c-6.501-1.48-13.185-2.877-19.827-4.26l9.942-36.381-24.741-5.631-10.146 37.108c-5.387-1.12-10.675-2.227-15.808-3.392l.028-.116-34.14-7.78-6.585 24.133s18.367 3.842 17.979 4.08c10.026 2.285 11.846 8.341 11.535 13.142l-11.549 42.289c.691.161 1.587.392 2.574.753l-2.609-.592-16.196 59.24c-1.226 2.78-4.336 6.95-11.344 5.367.247.328-17.994-4.099-17.994-4.099l-12.289 25.871 32.222 7.33c5.993 1.371 11.866 2.806 17.641 4.158l-10.245 37.552 24.727 5.631 10.153-37.147a1002.534 1002.534 0 0 0 19.721 4.673l-10.111 36.972 24.755 5.632 10.245-37.475c42.213 7.291 73.962 4.35 87.309-30.492 10.767-28.06-.529-44.245-22.739-54.806 16.175-3.418 28.358-13.129 31.609-33.189h.007zm-56.568 72.395c-7.657 28.059-59.409 12.897-76.197 9.087l13.594-49.741c16.78 3.822 70.584 11.391 62.61 40.654h-.007zm7.65-72.801c-6.98 25.524-50.06 12.556-64.042 9.377l12.325-45.114c13.981 3.18 58.993 9.113 51.717 35.737z" id="a"/></defs><g vectornator:layerName="Layer 3 copy"><path d="M176.266 0h4.678C278.293 0 357.21 79.964 357.21 178.605c0 98.641-78.917 178.605-176.266 178.605h-4.678C78.917 357.21 0 277.246 0 178.605 0 79.965 78.917 0 176.266 0z" fill="#f7931a"/><path d="M176.415 11.34h4.38c91.168 0 165.075 74.887 165.075 167.265 0 92.378-73.907 167.265-165.075 167.265h-4.38c-91.168 0-165.075-74.887-165.075-167.265 0-92.378 73.907-167.265 165.075-167.265z"/></g><path stroke="#f7931a" stroke-width="9.076" d="M162.85 36.185h32.745v266.632H162.85V36.185z" fill="#f7931a" stroke-linecap="butt" stroke-linejoin="miter" vectornator:layerName="Layer 2 copy" visibility="hidden"/><path d="M155.574 36.383h15.27v266.631h-15.27V36.382zm33.784 0h15.27v266.631h-15.27V36.382z" vectornator:layerName="Layer 2 copy" visibility="hidden" stroke="#6878ff" stroke-width="9.076" fill="#6878ff" stroke-linecap="butt" stroke-linejoin="miter"/><path d="M155.574 36.383h15.27v266.631h-15.27V36.382zm33.784 0h15.27v266.631h-15.27V36.382z" vectornator:layerName="Layer 2 copy copy" visibility="hidden" stroke="#f7931a" stroke-width="9.076" fill="#f7931a" stroke-linecap="butt" stroke-linejoin="miter"/><g vectornator:layerName="Layer 2 copy copy copy" visibility="hidden"><path d="M173.055 55.172h20.04v238.963h-20.04V55.172z" fill="#f7931a"/><path d="M279.818 126.2c-2.843-25.975-28.593-33.983-61.115-35.552l.044-36.144-25.204.716-.042 35.192c-6.618.186-13.389.492-20.116.799l.048-35.425-25.183.711-.055 36.135c-5.455.251-10.813.49-16.036.641l-.004-.111-34.752.971-.023 23.498s18.607-.836 18.297-.528c10.207-.286 13.529 4.792 14.482 9.231l-.049 41.176a22.977 22.977 0 0 1 2.663.078l-2.655.077-.085 57.685c-.451 2.817-2.345 7.342-9.476 7.554.322.241-18.316.514-18.316.514l-5.038 26.422 32.797-.93c6.103-.166 12.106-.245 17.994-.377l-.033 36.561 25.17-.708.051-36.171c6.904-.069 13.592-.21 20.121-.4l-.056 36.004 25.197-.715.054-36.491c42.364-3.319 72.031-13.477 75.745-48.306 3.007-28.053-12.038-40.108-36.08-44.477 14.613-6.919 23.761-18.622 21.649-37.629l.006-.001zm-35.356 79.163c-.027 27.319-53.587 25.73-70.672 26.223l.067-48.435c17.082-.479 70.629-6.279 70.612 22.21l-.007.002zm-11.64-68.002c-.039 24.855-44.714 23.217-58.945 23.622l.057-43.928c14.23-.405 58.924-5.619 58.888 20.306z" fill-opacity=".29" fill="#fff"/></g><path d="M274.971 153.046c4.484-27.403-18.374-42.134-49.63-51.962l10.139-37.12-24.763-5.632-9.871 36.143c-6.5-1.48-13.184-2.877-19.826-4.26l9.941-36.381-24.741-5.632-10.146 37.109c-5.386-1.12-10.674-2.227-15.807-3.392l.028-.116-34.14-7.78-6.585 24.133s18.367 3.842 17.979 4.08c10.026 2.285 11.845 8.341 11.535 13.142l-11.549 42.289c.691.16 1.586.392 2.574.753l-2.609-.593-16.196 59.241c-1.227 2.78-4.336 6.95-11.344 5.367.246.328-17.994-4.099-17.994-4.099l-12.29 25.871 32.223 7.33c5.993 1.371 11.866 2.806 17.641 4.157l-10.245 37.553 24.727 5.631 10.153-37.147a999.009 999.009 0 0 0 19.721 4.672l-10.111 36.973 24.755 5.631 10.245-37.474c42.212 7.291 73.962 4.35 87.309-30.492 10.766-28.06-.529-44.246-22.739-54.807 16.175-3.417 28.358-13.128 31.609-33.188h.007zm-56.568 72.394c-7.657 28.06-59.41 12.898-76.197 9.088l13.593-49.742c16.781 3.823 70.585 11.392 62.611 40.654h-.007zm7.65-72.8c-6.98 25.524-50.06 12.556-64.042 9.377l12.325-45.114c13.981 3.179 58.993 9.113 51.717 35.737z" fill-opacity=".499" fill="#f7931a" vectornator:layerName="Layer 2 copy copy copy copy"/><path d="M168.686 34.454l20.04.02-.202 289.789-20.04-.02.202-289.789z" fill="#f7931a" vectornator:layerName="Layer 2 copy copy copy copy copy" visibility="hidden"/><path d="M277.971 151.046c4.484-27.403-18.374-42.134-49.63-51.962l10.139-37.12-24.763-5.632-9.871 36.143c-6.5-1.48-13.184-2.877-19.826-4.26l9.941-36.381-24.741-5.632-10.146 37.109c-5.386-1.12-10.674-2.227-15.807-3.392l.028-.116-34.14-7.78-6.585 24.133s18.367 3.842 17.979 4.08c10.026 2.285 11.845 8.341 11.535 13.142l-11.549 42.289c.691.16 1.586.392 2.574.753l-2.609-.593-16.196 59.241c-1.227 2.78-4.336 6.95-11.344 5.367.246.328-17.994-4.099-17.994-4.099l-12.29 25.871 32.223 7.33c5.993 1.371 11.866 2.806 17.641 4.157l-10.245 37.553 24.727 5.631 10.153-37.147a999.009 999.009 0 0 0 19.721 4.672l-10.111 36.973 24.755 5.631 10.245-37.474c42.212 7.291 73.962 4.35 87.309-30.492 10.766-28.06-.529-44.246-22.739-54.807 16.175-3.417 28.358-13.128 31.609-33.188h.007zm-56.568 72.394c-7.657 28.06-59.41 12.898-76.197 9.088l13.593-49.742c16.781 3.823 70.585 11.392 62.611 40.654h-.007zm7.65-72.8c-6.98 25.524-50.06 12.556-64.042 9.377l12.325-45.114c13.981 3.179 58.993 9.113 51.717 35.737z" fill="#f7931a" vectornator:layerName="Layer 2 copy copy copy copy copy" visibility="hidden"/><path d="M80.89 79.75l-.795 26.098s19.218-.411 18.888-.076c10.545-.072 13.874 5.618 14.72 10.578l-1.388 45.824c.728-.002 1.673-.022 2.744.109l-2.741.044-1.852 64.168c-.554 3.122-2.63 8.077-9.998 8.141.325.275-18.963.155-18.963.155l-5.999 29.251.077-.002 137.901-2.241c36.695-4.079 62.643-15.752 67.047-50.343 3.98-31.126-11.248-44.842-35.93-50.281 15.301-7.343 25.136-20.162 23.549-41.351-2.125-28.957-28.458-38.505-61.982-41.035l-.001-.077-125.261 2.036-.016-.997zm93.972 27.013c19.185-.02 45.054 2.742 44.42 24.366-.816 27.641-46.894 24.677-61.597 24.784l1.492-48.818c3.675-.027 9.289-.325 15.685-.332zm.965 73.482c23.001-.016 54.051 2.989 53.371 26.751-.88 30.383-56.088 27.302-73.741 27.437l1.563-53.806c4.412-.03 11.14-.377 18.807-.382z" fill-opacity=".501" fill="#f7931a" vectornator:layerName="Layer 4" visibility="hidden"/><path d="M115.922 59.092l-8.363 24.734s18.504 5.205 18.091 5.43c10.109 3.003 11.635 9.416 11 14.407l-14.677 43.432c.697.21 1.607.466 2.593.903l-2.635-.756-20.464 60.845c-1.44 2.826-4.87 6.961-11.936 4.876.23.358-18.186-5.376-18.186-5.376l-14.26 26.234.074.021 132.573 38.029c36.291 6.788 64.515 3.18 78.804-28.628 12.875-28.617 2.304-46.174-19.724-58.567 16.777-2.567 29.92-11.965 34.574-32.698 6.403-28.319-16.006-45.124-47.339-57.31l.021-.074L115.647 60.05l.275-.959zm82.027 53.216c18.359 5.569 42.302 15.748 35.395 36.249-8.832 26.204-52.048 9.947-66.145 5.765l15.648-46.266c3.525 1.046 8.982 2.396 15.102 4.252zm-20.483 70.576c22.008 6.685 50.836 18.605 43.263 41.139-9.693 28.809-61.609 9.778-78.535 4.765l17.17-51.017c4.229 1.257 10.766 2.885 18.102 5.113z" fill-opacity=".501" fill="#f7931a" vectornator:layerName="Layer 4 copy" visibility="hidden"/><path d="M60.46 199.584c0-2.297-.258-2.879 2.079-5.197 20.529-20.364 41.304-40.484 62.37-60.291 4.622-4.347 10.497-7.135 15.592-10.915 15.033-11.154 31.18-19.998 48.337-27.547 12.906-5.679 25.84-8.702 39.501-11.434 2.653-.531 5.618.3 8.316 0 2.764-.308 5.199-1.214 7.796-2.08 1.659-.552 5.825-.303 4.678-2.598M56.302 252.599c-2.943 0 .29-5.039 1.04-6.237 3.215-5.146 6.845-10.552 10.914-15.073 3.395-3.773 7.7-6.481 11.434-9.875 4.248-3.862 7.63-8.631 11.955-12.474 5.393-4.795 11.884-7.821 17.671-11.955 5.866-4.19 11.121-8.973 17.152-12.993 3.026-2.018 6.231-3.843 9.355-5.718 3.66-2.195 6.533-6.181 10.915-7.276 11.439-2.86 23.012-7.655 33.264-13.514 14.459-8.262 28.584-15.461 44.179-21.309 2.757-1.034 5.081-3.321 7.796-4.678 8.806-4.403 17.79-9.01 27.027-12.474 5.548-2.081 11.54-2.807 17.152-4.678 5.706-1.902 11.435-4.574 17.152-5.717 3.291-.658 7.928-.586 10.914-2.079M106.717 269.75c-3.195 0 1.053-3.707 1.56-4.158 4.8-4.267 10.12-7.876 15.072-11.954 3.32-2.734 6.052-6.132 9.356-8.836 9.505-7.776 20.697-14.856 31.185-21.309 14.92-9.182 30.687-17.204 46.777-23.909 5.636-2.348 11.174-5.587 16.632-8.316 5.346-2.673 11.212-3.549 16.632-5.717 8.784-3.514 17.728-6.766 27.027-8.316 3.323-.554 6.428-3.064 9.876-3.638 4.973-.829 9.717-2.152 14.553-3.119 1.117-.223 4.818.08 5.717-.52 1.323-.882.625-1.039 2.599-1.039" vectornator:layerName="Layer 1" stroke="#000" stroke-width="9.076" stroke-linecap="butt" stroke-linejoin="miter"/><path d="M60.46 199.584c0-2.297-.258-2.879 2.079-5.197 20.529-20.364 41.304-40.484 62.37-60.291 4.622-4.347 10.497-7.135 15.592-10.915 15.033-11.154 31.18-19.998 48.337-27.547 12.906-5.679 25.84-8.702 39.501-11.434 2.653-.531 5.618.3 8.316 0 2.764-.308 5.199-1.214 7.796-2.08 1.659-.552 5.825-.303 4.678-2.598M56.302 252.599c-2.943 0 .29-5.039 1.04-6.237 3.215-5.146 6.845-10.552 10.914-15.073 3.395-3.773 7.7-6.481 11.434-9.875 4.248-3.862 7.63-8.631 11.955-12.474 5.393-4.795 11.884-7.821 17.671-11.955 5.866-4.19 11.121-8.973 17.152-12.993 3.026-2.018 6.231-3.843 9.355-5.718 3.66-2.195 6.533-6.181 10.915-7.276 11.439-2.86 23.012-7.655 33.264-13.514 14.459-8.262 28.584-15.461 44.179-21.309 2.757-1.034 5.081-3.321 7.796-4.678 8.806-4.403 17.79-9.01 27.027-12.474 5.548-2.081 11.54-2.807 17.152-4.678 5.706-1.902 11.435-4.574 17.152-5.717 3.291-.658 7.928-.586 10.914-2.079M106.717 269.75c-3.195 0 1.053-3.707 1.56-4.158 4.8-4.267 10.12-7.876 15.072-11.954 3.32-2.734 6.052-6.132 9.356-8.836 9.505-7.776 20.697-14.856 31.185-21.309 14.92-9.182 30.687-17.204 46.777-23.909 5.636-2.348 11.174-5.587 16.632-8.316 5.346-2.673 11.212-3.549 16.632-5.717 8.784-3.514 17.728-6.766 27.027-8.316 3.323-.554 6.428-3.064 9.876-3.638 4.973-.829 9.717-2.152 14.553-3.119 1.117-.223 4.818.08 5.717-.52 1.323-.882.625-1.039 2.599-1.039" vectornator:layerName="Layer 1 copy" stroke="#fff" stroke-width="9.076" fill="#fff" stroke-linecap="butt" stroke-linejoin="miter"/><g vectornator:mask="#Mask" vectornator:layerName="Layer 1 copy" visibility="hidden"><use xlink:href="#a" fill="#fff"/><clipPath id="b"><use xlink:href="#a" fill="none" overflow="visible"/></clipPath><g clip-path="url(#b)" stroke="#52c8bc" stroke-width="9.076" fill="#52c8bc" stroke-linecap="butt" stroke-linejoin="miter"><path d="M60.46 199.584c0-2.297-.258-2.879 2.079-5.197 20.529-20.364 41.304-40.484 62.37-60.291 4.622-4.347 10.497-7.135 15.592-10.915 15.033-11.154 31.18-19.998 48.337-27.547 12.906-5.679 25.84-8.702 39.501-11.434 2.653-.531 5.618.3 8.316 0 2.764-.308 5.199-1.214 7.796-2.08 1.659-.552 5.825-.303 4.678-2.598M56.302 252.599c-2.943 0 .29-5.039 1.04-6.237 3.215-5.146 6.845-10.552 10.914-15.073 3.395-3.773 7.7-6.481 11.434-9.875 4.248-3.862 7.63-8.631 11.955-12.474 5.393-4.795 11.884-7.821 17.671-11.955 5.866-4.19 11.121-8.973 17.152-12.993 3.026-2.018 6.231-3.843 9.355-5.718 3.66-2.195 6.533-6.181 10.915-7.276 11.439-2.86 23.012-7.655 33.264-13.514 14.459-8.262 28.584-15.461 44.179-21.309 2.757-1.034 5.081-3.321 7.796-4.678 8.806-4.403 17.79-9.01 27.027-12.474 5.548-2.081 11.54-2.807 17.152-4.678 5.706-1.902 11.435-4.574 17.152-5.717 3.291-.658 7.928-.586 10.914-2.079M106.717 269.75c-3.195 0 1.053-3.707 1.56-4.158 4.8-4.267 10.12-7.876 15.072-11.954 3.32-2.734 6.052-6.132 9.356-8.836 9.505-7.776 20.697-14.856 31.185-21.309 14.92-9.182 30.687-17.204 46.777-23.909 5.636-2.348 11.174-5.587 16.632-8.316 5.346-2.673 11.212-3.549 16.632-5.717 8.784-3.514 17.728-6.766 27.027-8.316 3.323-.554 6.428-3.064 9.876-3.638 4.973-.829 9.717-2.152 14.553-3.119 1.117-.223 4.818.08 5.717-.52 1.323-.882.625-1.039 2.599-1.039"/></g></g></svg>