<svg width="437" height="152" viewBox="0 0 437 152" fill="none" xmlns="http://www.w3.org/2000/svg"><path d="M198.364 101.382c.581-3.565-2.382-5.482-6.434-6.76l1.314-4.83-3.21-.732-1.28 4.702c-.842-.193-1.709-.375-2.57-.554l1.289-4.734-3.207-.732-1.315 4.828c-.699-.146-1.384-.29-2.05-.442l.004-.015-4.426-1.012-.854 3.14s2.381.5 2.331.53c1.3.298 1.536 1.085 1.495 1.71l-1.497 5.502c.09.021.206.051.334.098l-.339-.077-2.099 7.707c-.159.362-.562.904-1.471.698.032.043-2.333-.533-2.333-.533l-1.593 3.366 4.178.953c.777.179 1.538.366 2.286.542l-1.327 4.885 3.205.732 1.316-4.832c.875.218 1.725.418 2.557.608l-1.311 4.81 3.21.732 1.327-4.875c5.473.948 9.589.566 11.319-3.967 1.396-3.65-.068-5.756-2.948-7.13 2.097-.445 3.677-1.708 4.098-4.318h.001zm-7.333 9.418c-.993 3.651-7.702 1.678-9.879 1.183l1.763-6.472c2.175.498 9.15 1.482 8.116 5.289zm.991-9.471c-.905 3.321-6.489 1.634-8.302 1.22l1.598-5.87c1.812.414 7.647 1.186 6.704 4.65zm20.051 5.882c-.178-.754-.545-1.359-1.1-1.815-.556-.456-1.23-.684-2.024-.684-.833 0-1.512.218-2.038.654-.525.436-.857 1.051-.996 1.845h6.158zm-6.307 3.124c0 2.321 1.091 3.481 3.273 3.481 1.17 0 2.053-.476 2.648-1.428h5.206c-1.051 3.491-3.679 5.237-7.884 5.237-1.289 0-2.47-.194-3.541-.581-1.071-.386-1.988-.937-2.752-1.651a7.359 7.359 0 0 1-1.77-2.559c-.417-.992-.625-2.102-.625-3.332 0-1.27.198-2.415.595-3.437.397-1.021.962-1.889 1.696-2.603.734-.714 1.621-1.264 2.663-1.651 1.041-.387 2.216-.58 3.526-.58 1.289 0 2.45.193 3.481.58 1.031.387 1.904.947 2.618 1.681.714.733 1.26 1.631 1.636 2.692.377 1.061.566 2.257.566 3.586v.565h-11.336zm20.41-4.045v10.77h-5.385v-10.77h-1.785v-4.493h1.785v-4.582h5.385v4.582h3.065v4.493h-3.065zm11.098 0v10.77h-5.385v-10.77h-1.785v-4.493h1.785v-4.582h5.385v4.582h3.065v4.493h-3.065zm16.247.921c-.179-.754-.545-1.359-1.101-1.815-.555-.456-1.23-.684-2.023-.684-.833 0-1.512.218-2.038.654-.526.436-.858 1.051-.997 1.845h6.159zm-6.308 3.124c0 2.321 1.091 3.481 3.273 3.481 1.171 0 2.053-.476 2.648-1.428h5.207c-1.051 3.491-3.679 5.237-7.885 5.237-1.289 0-2.469-.194-3.54-.581-1.071-.386-1.989-.937-2.752-1.651a7.361 7.361 0 0 1-1.771-2.559c-.416-.992-.625-2.102-.625-3.332 0-1.27.199-2.415.596-3.437.397-1.021.962-1.889 1.695-2.603.735-.714 1.622-1.264 2.663-1.651 1.042-.387 2.217-.58 3.526-.58 1.29 0 2.45.193 3.481.58 1.032.387 1.904.947 2.618 1.681.715.733 1.26 1.631 1.637 2.692.377 1.061.565 2.257.565 3.586v.565h-11.336zm14.399-8.542h5.385v2.499c.576-.912 1.279-1.611 2.112-2.097.834-.486 1.806-.729 2.916-.729h.461c.169 0 .363.019.581.059v5.148a5.119 5.119 0 0 0-2.321-.536c-1.25 0-2.187.372-2.812 1.116-.625.744-.937 1.83-.937 3.258v6.546h-5.385v-15.264zm55.697 4.941c-.932-.635-1.874-.952-2.827-.952-.515 0-.996.089-1.443.268a3.581 3.581 0 0 0-1.175.758c-.337.328-.6.714-.788 1.161a3.816 3.816 0 0 0-.283 1.502c0 .536.094 1.027.283 1.473a3.6 3.6 0 0 0 .773 1.16c.328.328.72.581 1.176.759.456.179.942.268 1.457.268 1.012 0 1.954-.347 2.827-1.042v4.582c-1.329.576-2.588.863-3.779.863a8.92 8.92 0 0 1-3.168-.565 8.038 8.038 0 0 1-2.648-1.622 7.951 7.951 0 0 1-1.83-2.529c-.456-.981-.684-2.078-.684-3.287 0-1.21.218-2.316.654-3.318a7.96 7.96 0 0 1 1.785-2.588 8.061 8.061 0 0 1 2.693-1.696 9.11 9.11 0 0 1 3.347-.61c1.309 0 2.519.277 3.63.833v4.582zm3.067-4.941h5.385v2.499c.576-.912 1.28-1.611 2.113-2.097s1.805-.729 2.915-.729h.462c.168 0 .362.019.58.059v5.148a5.119 5.119 0 0 0-2.321-.536c-1.25 0-2.187.372-2.812 1.116-.624.744-.937 1.83-.937 3.258v6.546h-5.385v-15.264zm18.832 7.589c0 .496.089.957.268 1.383.178.427.421.799.729 1.116.307.317.674.566 1.101.744.426.179.888.268 1.383.268.476 0 .928-.089 1.354-.268a3.271 3.271 0 0 0 1.101-.744c.308-.317.555-.684.744-1.101.188-.416.282-.862.282-1.339 0-.476-.094-.927-.282-1.353a3.776 3.776 0 0 0-.744-1.116 3.271 3.271 0 0 0-1.101-.744 3.48 3.48 0 0 0-1.354-.268c-.495 0-.957.09-1.383.268a3.261 3.261 0 0 0-1.101.744 3.637 3.637 0 0 0-.729 1.086 3.247 3.247 0 0 0-.268 1.324zm6.784-7.587h5.415v15.263h-5.415v-1.696c-1.15 1.448-2.708 2.172-4.671 2.172-1.111 0-2.133-.203-3.065-.61a7.404 7.404 0 0 1-2.44-1.71 7.888 7.888 0 0 1-1.621-2.589c-.387-.992-.581-2.073-.581-3.243 0-1.091.189-2.127.566-3.109a8.005 8.005 0 0 1 1.577-2.574 7.424 7.424 0 0 1 2.41-1.74c.932-.427 1.963-.64 3.094-.64 1.904 0 3.481.664 4.731 1.993v-1.517zm15.085 4.495v10.77h-5.385v-10.77h-1.786v-4.493h1.786v-4.582h5.385v4.582h3.064v4.493h-3.064zm16.603.444c-.932-.635-1.874-.952-2.826-.952-.516 0-.997.089-1.443.268a3.56 3.56 0 0 0-1.175.758 3.49 3.49 0 0 0-.789 1.161 3.834 3.834 0 0 0-.283 1.502c0 .536.095 1.027.283 1.473.189.446.446.833.774 1.16.327.328.719.581 1.175.759.456.179.942.268 1.458.268 1.011 0 1.954-.347 2.826-1.042v4.582c-1.328.576-2.588.863-3.778.863a8.922 8.922 0 0 1-3.169-.565 8.058 8.058 0 0 1-2.648-1.622 7.982 7.982 0 0 1-1.83-2.529c-.456-.981-.684-2.078-.684-3.287 0-1.21.218-2.316.654-3.318a7.947 7.947 0 0 1 1.786-2.588 8.057 8.057 0 0 1 2.692-1.696 9.115 9.115 0 0 1 3.347-.61c1.31 0 2.52.277 3.63.833v4.582zm3.064-14.374h5.385v11.366c.734-.892 1.478-1.492 2.231-1.8.754-.307 1.637-.461 2.648-.461 1.925 0 3.377.531 4.359 1.592.982 1.061 1.473 2.494 1.473 4.299v9.7h-5.385v-7.706c0-.774-.06-1.399-.179-1.875s-.317-.843-.595-1.101c-.476-.416-1.051-.624-1.726-.624-.912 0-1.611.272-2.097.818-.486.545-.729 1.324-.729 2.335v8.153h-5.385V92.361zm-88.147 13.345c-2.093-1.612-3.408-3.04-3.947-4.283-.54-1.243-.557-2.702-.052-4.377.647-2.151 1.845-3.634 3.593-4.45 1.748-.814 3.825-.859 6.231-.135 1.092.329 2.146.782 3.163 1.36a17.628 17.628 0 0 1 2.91 2.081l-1.378 4.579c-.794-1.013-1.653-1.862-2.58-2.545a9.536 9.536 0 0 0-2.917-1.485c-1.134-.342-2.072-.376-2.813-.101-.742.273-1.24.834-1.495 1.682-.198.657-.142 1.266.169 1.828s1.087 1.313 2.33 2.254l1.789 1.371c1.698 1.274 2.823 2.624 3.376 4.05.553 1.426.565 3.02.035 4.779-.721 2.395-1.967 3.971-3.738 4.727-1.771.755-4.087.703-6.949-.159a15.953 15.953 0 0 1-3.41-1.486 16.53 16.53 0 0 1-3.051-2.279l1.46-4.85c.983 1.267 1.994 2.294 3.035 3.082 1.04.787 2.133 1.352 3.277 1.697 1.156.348 2.13.355 2.924.022.794-.333 1.333-.971 1.617-1.915a3.053 3.053 0 0 0-.073-2.059c-.264-.663-.752-1.27-1.464-1.82l-2.042-1.568z" fill="#F7931A"/><path d="M293.87 87.404l3.31 1.002-1.412 6.249-3.31-1.003 1.412-6.248zm5.156 1.662l3.31 1.002-1.413 6.249-3.31-1.003 1.413-6.248zm-12.279 24.844l3.31 1.003-1.412 6.248-3.311-1.002 1.413-6.249zm5.155 1.648l3.311 1.002-1.413 6.249-3.31-1.003 1.412-6.248zM183.99 36.641v38.454h-5.803V36.64h5.803zm19.851 5.455v32.999h-5.803v-33h-8.841v-5.454h23.46v5.455h-8.816zm42.41-3.39v6.873c-3.354-2.805-6.824-4.209-10.41-4.209-3.952 0-7.281 1.42-9.987 4.26-2.723 2.822-4.084 6.275-4.084 10.36 0 4.035 1.361 7.438 4.084 10.21 2.723 2.773 6.06 4.16 10.012 4.16 2.042 0 3.777-.332 5.205-.996.797-.332 1.623-.78 2.478-1.345a29.256 29.256 0 0 0 2.702-2.043v6.999c-3.321 1.876-6.807 2.814-10.46 2.814-5.496 0-10.186-1.918-14.072-5.753-3.868-3.868-5.802-8.534-5.802-13.996 0-4.898 1.619-9.265 4.856-13.1 3.985-4.7 9.14-7.049 15.466-7.049 3.453 0 6.791.939 10.012 2.815zm13.125 12.978h16.587V36.641h5.802v38.454h-5.802V57.138h-16.587v17.957h-5.803V36.64h5.803v15.043zm39.375 6.799l-12.552-21.842h6.674l8.791 15.367 8.817-15.367h6.674l-12.602 21.842v16.612h-5.802V58.483zm44.582-16.116l-4.707 2.789c-.88-1.528-1.719-2.523-2.516-2.989-.83-.53-1.9-.797-3.212-.797-1.61 0-2.947.457-4.01 1.37-1.062.897-1.594 2.026-1.594 3.387 0 1.876 1.395 3.387 4.184 4.533l3.836 1.57c3.121 1.26 5.404 2.801 6.849 4.619 1.444 1.818 2.166 4.047 2.166 6.687 0 3.537-1.179 6.459-3.536 8.766-2.375 2.325-5.321 3.487-8.842 3.487-3.337 0-6.093-.988-8.268-2.963-2.142-1.976-3.478-4.758-4.009-8.344l5.877-1.295c.266 2.258.73 3.819 1.395 4.683 1.195 1.66 2.938 2.49 5.23 2.49 1.809 0 3.312-.606 4.507-1.818 1.196-1.212 1.794-2.748 1.794-4.608a6.45 6.45 0 0 0-.312-2.054 5.2 5.2 0 0 0-.971-1.719c-.44-.523-1.009-1.013-1.706-1.469a16.335 16.335 0 0 0-2.491-1.307l-3.71-1.545c-5.263-2.225-7.895-5.479-7.895-9.763 0-2.889 1.104-5.304 3.312-7.247 2.209-1.959 4.956-2.939 8.244-2.939 4.433 0 7.894 2.159 10.385 6.476zm30.583 23.392h-16.462l-4.284 9.34h-6.251l19.028-40.87 18.355 40.87h-6.351l-4.035-9.34zm-2.366-5.455l-5.703-13.075-5.977 13.075h11.68zm28.166-18.208v32.999h-5.803v-33h-8.841v-5.454h23.46v5.455h-8.816zm35.738.271l-4.705 2.789c-.88-1.528-1.718-2.523-2.517-2.989-.828-.53-1.9-.797-3.212-.797-1.611 0-2.947.457-4.01 1.37-1.062.897-1.594 2.026-1.594 3.387 0 1.876 1.395 3.387 4.184 4.533l3.838 1.57c3.119 1.26 5.402 2.801 6.847 4.619 1.445 1.818 2.168 4.047 2.168 6.687 0 3.537-1.182 6.459-3.537 8.766-2.376 2.325-5.321 3.487-8.842 3.487-3.338 0-6.094-.988-8.269-2.963-2.142-1.976-3.478-4.758-4.01-8.344l5.878-1.295c.266 2.258.731 3.819 1.395 4.683 1.195 1.66 2.938 2.49 5.23 2.49 1.809 0 3.314-.606 4.508-1.818 1.195-1.212 1.794-2.748 1.794-4.608 0-.747-.106-1.431-.315-2.054a5.177 5.177 0 0 0-.969-1.719c-.442-.523-1.007-1.013-1.704-1.469-.697-.456-1.53-.893-2.491-1.307l-3.712-1.545c-5.264-2.225-7.895-5.479-7.895-9.763 0-2.889 1.104-5.304 3.312-7.247 2.208-1.959 4.956-2.939 8.244-2.939 4.433 0 7.893 2.159 10.384 6.476zM74.92 0h1.99c41.377 0 74.92 33.988 74.92 75.915 0 41.927-33.543 75.915-74.92 75.915h-1.99C33.544 151.83 0 117.842 0 75.915 0 33.988 33.543 0 74.92 0z" fill="#F7931A"/><path d="M74.985 4.825h1.862c38.75 0 70.164 31.83 70.164 71.095 0 39.264-31.414 71.095-70.164 71.095h-1.862c-38.75 0-70.164-31.831-70.164-71.095 0-39.265 31.413-71.095 70.164-71.095z" fill="#000"/><path d="M116.876 65.053c1.906-11.647-7.81-17.908-21.095-22.086l4.31-15.778-10.526-2.393-4.195 15.362a469.426 469.426 0 0 0-8.427-1.81l4.225-15.464-10.516-2.394-4.313 15.773a383.484 383.484 0 0 1-6.718-1.442l.012-.049-14.511-3.307-2.8 10.258s7.808 1.633 7.643 1.734c4.261.971 5.034 3.545 4.903 5.586l-4.91 17.974c.294.069.675.167 1.095.32l-1.11-.252-6.883 25.18c-.522 1.182-1.843 2.955-4.822 2.282.105.14-7.648-1.742-7.648-1.742L25.366 103.8l13.696 3.115c2.547.583 5.044 1.193 7.498 1.767l-4.354 15.962 10.51 2.393 4.316-15.789c2.867.711 5.654 1.368 8.382 1.986l-4.298 15.715 10.522 2.394 4.355-15.928c17.942 3.099 31.437 1.849 37.11-12.961 4.576-11.927-.225-18.806-9.665-23.295 6.875-1.453 12.053-5.58 13.435-14.107h.003zM92.832 95.824c-3.254 11.927-25.252 5.482-32.387 3.863l5.778-21.143c7.132 1.625 30.001 4.842 26.612 17.28h-.003zm3.252-30.943c-2.967 10.849-21.278 5.337-27.221 3.986l5.239-19.176c5.942 1.351 25.074 3.873 21.982 15.19z" fill="#F7931A" fill-opacity=".499"/><path d="M25.697 84.834c0-.976-.11-1.224.884-2.209A1378.06 1378.06 0 0 1 53.091 57c1.965-1.848 4.462-3.033 6.627-4.64 6.39-4.74 13.253-8.5 20.546-11.708 5.486-2.414 10.983-3.7 16.79-4.86 1.127-.226 2.387.127 3.534 0 1.175-.13 2.21-.516 3.314-.884.705-.235 2.476-.13 1.988-1.105" fill="#000"/><path d="M25.697 84.834c0-.976-.11-1.224.884-2.209A1378.06 1378.06 0 0 1 53.091 57c1.965-1.848 4.462-3.033 6.627-4.64 6.39-4.74 13.253-8.5 20.546-11.708 5.486-2.414 10.983-3.7 16.79-4.86 1.127-.226 2.387.127 3.534 0 1.175-.13 2.21-.516 3.314-.884.705-.235 2.476-.13 1.988-1.105" stroke="#000" stroke-width=".008"/><path d="M23.93 107.368c-1.25 0 .124-2.142.442-2.651 1.367-2.187 2.91-4.485 4.64-6.406 1.442-1.604 3.272-2.755 4.86-4.198 1.805-1.641 3.243-3.668 5.08-5.302 2.293-2.038 5.052-3.324 7.512-5.081 2.493-1.781 4.727-3.814 7.29-5.523 1.286-.858 2.648-1.633 3.976-2.43 1.556-.933 2.777-2.627 4.64-3.093 4.862-1.215 9.78-3.254 14.138-5.744 6.146-3.512 12.15-6.572 18.778-9.057 1.172-.44 2.16-1.412 3.314-1.989 3.743-1.871 7.561-3.83 11.488-5.301 2.358-.885 4.905-1.194 7.29-1.989 2.425-.808 4.86-1.944 7.29-2.43 1.399-.28 3.37-.249 4.639-.883" fill="#000"/><path d="M23.93 107.368c-1.25 0 .124-2.142.442-2.651 1.367-2.187 2.91-4.485 4.64-6.406 1.442-1.604 3.272-2.755 4.86-4.198 1.805-1.641 3.243-3.668 5.08-5.302 2.293-2.038 5.052-3.324 7.512-5.081 2.493-1.781 4.727-3.814 7.29-5.523 1.286-.858 2.648-1.633 3.976-2.43 1.556-.933 2.777-2.627 4.64-3.093 4.862-1.215 9.78-3.254 14.138-5.744 6.146-3.512 12.15-6.572 18.778-9.057 1.172-.44 2.16-1.412 3.314-1.989 3.743-1.871 7.561-3.83 11.488-5.301 2.358-.885 4.905-1.194 7.29-1.989 2.425-.808 4.86-1.944 7.29-2.43 1.399-.28 3.37-.249 4.639-.883" stroke="#000" stroke-width=".008"/><path d="M45.358 114.655c-1.358 0 .448-1.576.663-1.768 2.04-1.813 4.302-3.347 6.407-5.081 1.41-1.162 2.572-2.606 3.976-3.755 4.04-3.306 8.797-6.315 13.255-9.058a143.012 143.012 0 0 1 19.883-10.162c2.395-.998 4.749-2.375 7.069-3.535 2.272-1.136 4.766-1.508 7.069-2.43 3.734-1.493 7.535-2.876 11.488-3.534 1.412-.236 2.732-1.303 4.198-1.547 2.113-.352 4.13-.914 6.185-1.325.475-.095 2.048.034 2.43-.221.563-.375.266-.442 1.105-.442" fill="#000"/><path d="M45.358 114.655c-1.358 0 .448-1.576.663-1.768 2.04-1.813 4.302-3.347 6.407-5.081 1.41-1.162 2.572-2.606 3.976-3.755 4.04-3.306 8.797-6.315 13.255-9.058a143.012 143.012 0 0 1 19.883-10.162c2.395-.998 4.749-2.375 7.069-3.535 2.272-1.136 4.766-1.508 7.069-2.43 3.734-1.493 7.535-2.876 11.488-3.534 1.412-.236 2.732-1.303 4.198-1.547 2.113-.352 4.13-.914 6.185-1.325.475-.095 2.048.034 2.43-.221.563-.375.266-.442 1.105-.442" stroke="#000" stroke-width=".008"/><path d="M25.697 84.834c0-.976-.11-1.224.884-2.209A1378.06 1378.06 0 0 1 53.091 57c1.965-1.848 4.462-3.033 6.627-4.64 6.39-4.74 13.253-8.5 20.546-11.708 5.486-2.414 10.983-3.7 16.79-4.86 1.127-.226 2.387.127 3.534 0 1.175-.13 2.21-.516 3.314-.884.705-.235 2.476-.13 1.988-1.105" fill="#fff"/><path d="M25.697 84.834c0-.976-.11-1.224.884-2.209A1378.06 1378.06 0 0 1 53.091 57c1.965-1.848 4.462-3.033 6.627-4.64 6.39-4.74 13.253-8.5 20.546-11.708 5.486-2.414 10.983-3.7 16.79-4.86 1.127-.226 2.387.127 3.534 0 1.175-.13 2.21-.516 3.314-.884.705-.235 2.476-.13 1.988-1.105" stroke="#fff" stroke-width=".008"/><path d="M23.93 107.368c-1.25 0 .124-2.142.442-2.651 1.367-2.187 2.91-4.485 4.64-6.406 1.442-1.604 3.272-2.755 4.86-4.198 1.805-1.641 3.243-3.668 5.08-5.302 2.293-2.038 5.052-3.324 7.512-5.081 2.493-1.781 4.727-3.814 7.29-5.523 1.286-.858 2.648-1.633 3.976-2.43 1.556-.933 2.777-2.627 4.64-3.093 4.862-1.215 9.78-3.254 14.138-5.744 6.146-3.512 12.15-6.572 18.778-9.057 1.172-.44 2.16-1.412 3.314-1.989 3.743-1.871 7.561-3.83 11.488-5.301 2.358-.885 4.905-1.194 7.29-1.989 2.425-.808 4.86-1.944 7.29-2.43 1.399-.28 3.37-.249 4.639-.883" fill="#fff"/><path d="M23.93 107.368c-1.25 0 .124-2.142.442-2.651 1.367-2.187 2.91-4.485 4.64-6.406 1.442-1.604 3.272-2.755 4.86-4.198 1.805-1.641 3.243-3.668 5.08-5.302 2.293-2.038 5.052-3.324 7.512-5.081 2.493-1.781 4.727-3.814 7.29-5.523 1.286-.858 2.648-1.633 3.976-2.43 1.556-.933 2.777-2.627 4.64-3.093 4.862-1.215 9.78-3.254 14.138-5.744 6.146-3.512 12.15-6.572 18.778-9.057 1.172-.44 2.16-1.412 3.314-1.989 3.743-1.871 7.561-3.83 11.488-5.301 2.358-.885 4.905-1.194 7.29-1.989 2.425-.808 4.86-1.944 7.29-2.43 1.399-.28 3.37-.249 4.639-.883" stroke="#fff" stroke-width=".008"/><path d="M45.358 114.655c-1.358 0 .448-1.576.663-1.768 2.04-1.813 4.302-3.347 6.407-5.081 1.41-1.162 2.572-2.606 3.976-3.755 4.04-3.306 8.797-6.315 13.255-9.058a143.012 143.012 0 0 1 19.883-10.162c2.395-.998 4.749-2.375 7.069-3.535 2.272-1.136 4.766-1.508 7.069-2.43 3.734-1.493 7.535-2.876 11.488-3.534 1.412-.236 2.732-1.303 4.198-1.547 2.113-.352 4.13-.914 6.185-1.325.475-.095 2.048.034 2.43-.221.563-.375.266-.442 1.105-.442" fill="#fff"/><path d="M45.358 114.655c-1.358 0 .448-1.576.663-1.768 2.04-1.813 4.302-3.347 6.407-5.081 1.41-1.162 2.572-2.606 3.976-3.755 4.04-3.306 8.797-6.315 13.255-9.058a143.012 143.012 0 0 1 19.883-10.162c2.395-.998 4.749-2.375 7.069-3.535 2.272-1.136 4.766-1.508 7.069-2.43 3.734-1.493 7.535-2.876 11.488-3.534 1.412-.236 2.732-1.303 4.198-1.547 2.113-.352 4.13-.914 6.185-1.325.475-.095 2.048.034 2.43-.221.563-.375.266-.442 1.105-.442" stroke="#fff" stroke-width=".008"/></svg>