<svg xmlns:xlink="http://www.w3.org/1999/xlink" xmlns="http://www.w3.org/2000/svg" xmlns:vectornator="http://vectornator.io" viewBox="0 0 1134 357.21" clip-rule="evenodd" stroke-linecap="round" stroke-linejoin="round"><defs><path d="M278.935 149.534c4.484-27.403-18.374-42.134-49.63-51.961l10.139-37.121-24.762-5.632-9.871 36.143c-6.501-1.48-13.185-2.877-19.827-4.26l9.942-36.381-24.741-5.631-10.146 37.108c-5.387-1.12-10.675-2.227-15.808-3.392l.028-.116-34.14-7.78-6.585 24.133s18.367 3.842 17.979 4.08c10.026 2.285 11.846 8.341 11.535 13.142l-11.549 42.289c.691.161 1.587.392 2.574.753l-2.609-.592-16.196 59.24c-1.226 2.78-4.336 6.95-11.344 5.367.247.328-17.994-4.099-17.994-4.099l-12.289 25.871 32.222 7.33c5.993 1.371 11.866 2.806 17.641 4.158l-10.245 37.552 24.727 5.631 10.153-37.147a1002.534 1002.534 0 0 0 19.721 4.673l-10.111 36.972 24.755 5.632 10.245-37.475c42.213 7.291 73.962 4.35 87.309-30.492 10.767-28.06-.529-44.245-22.739-54.806 16.175-3.418 28.358-13.129 31.609-33.189h.007zm-56.568 72.395c-7.657 28.059-59.409 12.897-76.197 9.087l13.594-49.741c16.78 3.822 70.584 11.391 62.61 40.654h-.007zm7.65-72.801c-6.98 25.524-50.06 12.556-64.042 9.377l12.325-45.114c13.981 3.18 58.993 9.113 51.717 35.737z" id="a"/></defs><path d="M.026-1.122H1138.99V357.24H.026V-1.122z" fill="#fff" vectornator:layerName="White_bg" visibility="hidden"/><g vectornator:layerName="Layer 3"><path stroke="#f7931a" stroke-opacity="0" stroke-width="9.076" d="M176.266 0h4.678C278.293 0 357.21 79.964 357.21 178.605c0 98.641-78.917 178.605-176.266 178.605h-4.678C78.917 357.21 0 277.246 0 178.605 0 79.965 78.917 0 176.266 0z" stroke-linecap="butt" stroke-linejoin="miter"/><path stroke="#f7931a" stroke-opacity="0" stroke-width="9.076" d="M176.415 11.34h4.38c91.168 0 165.075 74.887 165.075 167.265 0 92.378-73.907 167.265-165.075 167.265h-4.38c-91.168 0-165.075-74.887-165.075-167.265 0-92.378 73.907-167.265 165.075-167.265z" fill="#f7931a" stroke-linecap="butt" stroke-linejoin="miter"/><path stroke="#000" stroke-width="9.076" d="M60.46 199.584c0-2.297-.258-2.879 2.079-5.197 20.529-20.364 41.304-40.484 62.37-60.291 4.622-4.347 10.497-7.135 15.592-10.915 15.033-11.154 31.18-19.998 48.337-27.547 12.906-5.679 25.84-8.702 39.501-11.434 2.653-.531 5.618.3 8.316 0 2.764-.308 5.199-1.214 7.796-2.08 1.659-.552 5.825-.303 4.678-2.598M56.302 252.599c-2.943 0 .29-5.039 1.04-6.237 3.215-5.146 6.845-10.552 10.914-15.073 3.395-3.773 7.7-6.481 11.434-9.875 4.248-3.862 7.63-8.631 11.955-12.474 5.393-4.795 11.884-7.821 17.671-11.955 5.866-4.19 11.121-8.973 17.152-12.993 3.026-2.018 6.231-3.843 9.355-5.718 3.66-2.195 6.533-6.181 10.915-7.276 11.439-2.86 23.012-7.655 33.264-13.514 14.459-8.262 28.584-15.461 44.179-21.309 2.757-1.034 5.081-3.321 7.796-4.678 8.806-4.403 17.79-9.01 27.027-12.474 5.548-2.081 11.54-2.807 17.152-4.678 5.706-1.902 11.435-4.574 17.152-5.717 3.291-.658 7.928-.586 10.914-2.079M106.717 269.75c-3.195 0 1.053-3.707 1.56-4.158 4.8-4.267 10.12-7.876 15.072-11.954 3.32-2.734 6.052-6.132 9.356-8.836 9.505-7.776 20.697-14.856 31.185-21.309 14.92-9.182 30.687-17.204 46.777-23.909 5.636-2.348 11.174-5.587 16.632-8.316 5.346-2.673 11.212-3.549 16.632-5.717 8.784-3.514 17.728-6.766 27.027-8.316 3.323-.554 6.428-3.064 9.876-3.638 4.973-.829 9.717-2.152 14.553-3.119 1.117-.223 4.818.08 5.717-.52 1.323-.882.625-1.039 2.599-1.039" stroke-linecap="butt" stroke-linejoin="miter"/><g vectornator:mask="#Mask"><use xlink:href="#a" fill="#fff"/><clipPath id="b"><use xlink:href="#a" fill="none" overflow="visible"/></clipPath><g clip-path="url(#b)" stroke="#52c8bc" stroke-width="9.076" fill="#52c8bc" stroke-linecap="butt" stroke-linejoin="miter"><path d="M60.46 199.584c0-2.297-.258-2.879 2.079-5.197 20.529-20.364 41.304-40.484 62.37-60.291 4.622-4.347 10.497-7.135 15.592-10.915 15.033-11.154 31.18-19.998 48.337-27.547 12.906-5.679 25.84-8.702 39.501-11.434 2.653-.531 5.618.3 8.316 0 2.764-.308 5.199-1.214 7.796-2.08 1.659-.552 5.825-.303 4.678-2.598M56.302 252.599c-2.943 0 .29-5.039 1.04-6.237 3.215-5.146 6.845-10.552 10.914-15.073 3.395-3.773 7.7-6.481 11.434-9.875 4.248-3.862 7.63-8.631 11.955-12.474 5.393-4.795 11.884-7.821 17.671-11.955 5.866-4.19 11.121-8.973 17.152-12.993 3.026-2.018 6.231-3.843 9.355-5.718 3.66-2.195 6.533-6.181 10.915-7.276 11.439-2.86 23.012-7.655 33.264-13.514 14.459-8.262 28.584-15.461 44.179-21.309 2.757-1.034 5.081-3.321 7.796-4.678 8.806-4.403 17.79-9.01 27.027-12.474 5.548-2.081 11.54-2.807 17.152-4.678 5.706-1.902 11.435-4.574 17.152-5.717 3.291-.658 7.928-.586 10.914-2.079M106.717 269.75c-3.195 0 1.053-3.707 1.56-4.158 4.8-4.267 10.12-7.876 15.072-11.954 3.32-2.734 6.052-6.132 9.356-8.836 9.505-7.776 20.697-14.856 31.185-21.309 14.92-9.182 30.687-17.204 46.777-23.909 5.636-2.348 11.174-5.587 16.632-8.316 5.346-2.673 11.212-3.549 16.632-5.717 8.784-3.514 17.728-6.766 27.027-8.316 3.323-.554 6.428-3.064 9.876-3.638 4.973-.829 9.717-2.152 14.553-3.119 1.117-.223 4.818.08 5.717-.52 1.323-.882.625-1.039 2.599-1.039"/></g></g></g><g vectornator:layerName="Logo_Circle" visibility="hidden" stroke="#f7931a" stroke-opacity="0" stroke-width="9.076" stroke-linecap="butt" stroke-linejoin="miter"><path d="M176.266 0h4.678C278.293 0 357.21 79.964 357.21 178.605c0 98.641-78.917 178.605-176.266 178.605h-4.678C78.917 357.21 0 277.246 0 178.605 0 79.965 78.917 0 176.266 0z" fill="#f7931a"/><path d="M176.415 11.34h4.38c91.168 0 165.075 74.887 165.075 167.265 0 92.378-73.907 167.265-165.075 167.265h-4.38c-91.168 0-165.075-74.887-165.075-167.265 0-92.378 73.907-167.265 165.075-167.265z"/></g><g vectornator:layerName="Logo_Circle copy" visibility="hidden" stroke="#f7931a" stroke-opacity="0" stroke-width="9.076" stroke-linecap="butt" stroke-linejoin="miter"><path d="M176.266 0h4.678C278.293 0 357.21 79.964 357.21 178.605c0 98.641-78.917 178.605-176.266 178.605h-4.678C78.917 357.21 0 277.246 0 178.605 0 79.965 78.917 0 176.266 0z"/><path d="M176.415 11.34h4.38c91.168 0 165.075 74.887 165.075 167.265 0 92.378-73.907 167.265-165.075 167.265h-4.38c-91.168 0-165.075-74.887-165.075-167.265 0-92.378 73.907-167.265 165.075-167.265z" fill="#f7931a"/></g><path d="M155.574 36.383h15.27v266.631h-15.27V36.382zm33.784 0h15.27v266.631h-15.27V36.382z" vectornator:layerName="Layer 2 copy" visibility="hidden" stroke="#000" stroke-width="9.076" stroke-linecap="butt" stroke-linejoin="miter"/><path stroke="#000" stroke-opacity="0" stroke-width="9.076" d="M160.618 46.324h35.345v266.631h-35.345V46.324z" stroke-linecap="butt" stroke-linejoin="miter" vectornator:layerName="Layer 2 copy copy" visibility="hidden"/><path stroke="#000" stroke-opacity="0" stroke-width="9.076" d="M160.618 46.324h35.345v266.631h-35.345V46.324z" fill="#fff" stroke-linecap="butt" stroke-linejoin="miter" vectornator:layerName="Layer 2 copy copy copy" visibility="hidden"/><path d="M155.574 36.383h15.27v266.631h-15.27V36.382zm33.784 0h15.27v266.631h-15.27V36.382z" vectornator:layerName="Layer 2 copy copy" visibility="hidden" stroke="#f7931a" stroke-width="9.076" fill="#f7931a" stroke-linecap="butt" stroke-linejoin="miter"/><path d="M60.46 199.584c0-2.297-.258-2.879 2.079-5.197 20.529-20.364 41.304-40.484 62.37-60.291 4.622-4.347 10.497-7.135 15.592-10.915 15.033-11.154 31.18-19.998 48.337-27.547 12.906-5.679 25.84-8.702 39.501-11.434 2.653-.531 5.618.3 8.316 0 2.764-.308 5.199-1.214 7.796-2.08 1.659-.552 5.825-.303 4.678-2.598M56.302 252.599c-2.943 0 .29-5.039 1.04-6.237 3.215-5.146 6.845-10.552 10.914-15.073 3.395-3.773 7.7-6.481 11.434-9.875 4.248-3.862 7.63-8.631 11.955-12.474 5.393-4.795 11.884-7.821 17.671-11.955 5.866-4.19 11.121-8.973 17.152-12.993 3.026-2.018 6.231-3.843 9.355-5.718 3.66-2.195 6.533-6.181 10.915-7.276 11.439-2.86 23.012-7.655 33.264-13.514 14.459-8.262 28.584-15.461 44.179-21.309 2.757-1.034 5.081-3.321 7.796-4.678 8.806-4.403 17.79-9.01 27.027-12.474 5.548-2.081 11.54-2.807 17.152-4.678 5.706-1.902 11.435-4.574 17.152-5.717 3.291-.658 7.928-.586 10.914-2.079M106.717 269.75c-3.195 0 1.053-3.707 1.56-4.158 4.8-4.267 10.12-7.876 15.072-11.954 3.32-2.734 6.052-6.132 9.356-8.836 9.505-7.776 20.697-14.856 31.185-21.309 14.92-9.182 30.687-17.204 46.777-23.909 5.636-2.348 11.174-5.587 16.632-8.316 5.346-2.673 11.212-3.549 16.632-5.717 8.784-3.514 17.728-6.766 27.027-8.316 3.323-.554 6.428-3.064 9.876-3.638 4.973-.829 9.717-2.152 14.553-3.119 1.117-.223 4.818.08 5.717-.52 1.323-.882.625-1.039 2.599-1.039" vectornator:layerName="Layer 1" visibility="hidden" stroke="#fff" stroke-width="9.076" fill="#fff" stroke-linecap="butt" stroke-linejoin="miter"/><path d="M60.46 199.584c0-2.297-.258-2.879 2.079-5.197 20.529-20.364 41.304-40.484 62.37-60.291 4.622-4.347 10.497-7.135 15.592-10.915 15.033-11.154 31.18-19.998 48.337-27.547 12.906-5.679 25.84-8.702 39.501-11.434 2.653-.531 5.618.3 8.316 0 2.764-.308 5.199-1.214 7.796-2.08 1.659-.552 5.825-.303 4.678-2.598M56.302 252.599c-2.943 0 .29-5.039 1.04-6.237 3.215-5.146 6.845-10.552 10.914-15.073 3.395-3.773 7.7-6.481 11.434-9.875 4.248-3.862 7.63-8.631 11.955-12.474 5.393-4.795 11.884-7.821 17.671-11.955 5.866-4.19 11.121-8.973 17.152-12.993 3.026-2.018 6.231-3.843 9.355-5.718 3.66-2.195 6.533-6.181 10.915-7.276 11.439-2.86 23.012-7.655 33.264-13.514 14.459-8.262 28.584-15.461 44.179-21.309 2.757-1.034 5.081-3.321 7.796-4.678 8.806-4.403 17.79-9.01 27.027-12.474 5.548-2.081 11.54-2.807 17.152-4.678 5.706-1.902 11.435-4.574 17.152-5.717 3.291-.658 7.928-.586 10.914-2.079M106.717 269.75c-3.195 0 1.053-3.707 1.56-4.158 4.8-4.267 10.12-7.876 15.072-11.954 3.32-2.734 6.052-6.132 9.356-8.836 9.505-7.776 20.697-14.856 31.185-21.309 14.92-9.182 30.687-17.204 46.777-23.909 5.636-2.348 11.174-5.587 16.632-8.316 5.346-2.673 11.212-3.549 16.632-5.717 8.784-3.514 17.728-6.766 27.027-8.316 3.323-.554 6.428-3.064 9.876-3.638 4.973-.829 9.717-2.152 14.553-3.119 1.117-.223 4.818.08 5.717-.52 1.323-.882.625-1.039 2.599-1.039" vectornator:layerName="Layer 1 copy" visibility="hidden" stroke="#000" stroke-width="9.076" stroke-linecap="butt" stroke-linejoin="miter"/><g vectornator:layerName="BetterScratch_big" visibility="hidden"><path d="M474.113 170.285c1.885-11.678-7.727-17.955-20.87-22.143l4.263-15.818-10.412-2.399-4.151 15.401a461.327 461.327 0 0 0-8.338-1.816l4.181-15.502-10.404-2.4-4.266 15.813a364.845 364.845 0 0 1-6.648-1.446l.012-.049-14.356-3.315-2.769 10.284s7.723 1.637 7.56 1.738c4.216.974 4.981 3.554 4.851 5.6l-4.857 18.021c.291.068.668.167 1.083.32l-1.097-.252-6.811 25.244c-.516 1.185-1.823 2.962-4.77 2.287.103.14-7.567-1.747-7.567-1.747l-5.168 11.025 13.55 3.123c2.52.584 4.99 1.196 7.418 1.772l-4.308 16.002 10.398 2.399 4.27-15.829c2.837.713 5.594 1.371 8.292 1.991l-4.251 15.755 10.409 2.4 4.308-15.969c17.751 3.107 31.102 1.854 36.715-12.994 4.527-11.956-.223-18.854-9.562-23.354 6.802-1.456 11.925-5.594 13.292-14.142h.003zm-23.788 30.849c-3.22 11.957-24.982 5.496-32.041 3.872L424 183.81c7.056 1.629 29.682 4.854 26.328 17.324h-.003zm3.217-31.022c-2.935 10.876-21.051 5.35-26.93 3.995l5.183-19.224c5.879 1.355 24.807 3.883 21.747 15.229zm53.104 30.457c-3.223 0-5.721 1.009-7.495 3.027-1.775 2.018-2.889 4.753-3.345 8.203h21.631c-.228-3.678-1.343-6.47-3.345-8.374-2.002-1.904-4.484-2.856-7.446-2.856zm0-11.475c4.427 0 8.414.83 11.963 2.49 3.548 1.66 6.477 4.281 8.789 7.862 2.083 3.157 3.434 6.819 4.052 10.986.358 2.441.505 5.957.44 10.547h-36.426c.195 5.338 1.872 9.082 5.029 11.23 1.921 1.335 4.232 2.002 6.934 2.002 2.865 0 5.192-.814 6.982-2.441.977-.879 1.84-2.1 2.588-3.662h14.209c-.358 3.157-2.002 6.364-4.931 9.619-4.558 5.176-10.938 7.764-19.141 7.764-6.771 0-12.744-2.181-17.92-6.543-5.176-4.362-7.764-11.459-7.764-21.289 0-9.213 2.336-16.277 7.007-21.192 4.671-4.915 10.734-7.373 18.189-7.373zm29.15 11.816v-9.912h7.422v-14.843h13.769v14.843h8.643v9.912h-8.643v28.125c0 2.181.277 3.54.831 4.078.553.537 2.246.805 5.078.805a39.686 39.686 0 0 0 2.734-.097v10.4l-6.592.244c-6.575.228-11.067-.911-13.476-3.418-1.563-1.595-2.344-4.053-2.344-7.373V200.91h-7.422zm33.301 0v-9.912h7.422v-14.843h13.769v14.843h8.643v9.912h-8.643v28.125c0 2.181.277 3.54.83 4.078.554.537 2.246.805 5.078.805a39.698 39.698 0 0 0 2.735-.097v10.4l-6.592.244c-6.575.228-11.068-.911-13.477-3.418-1.562-1.595-2.343-4.053-2.343-7.373V200.91h-7.422zm59.765-.341c-3.222 0-5.721 1.009-7.495 3.027-1.774 2.018-2.889 4.753-3.344 8.203h21.631c-.228-3.678-1.343-6.47-3.345-8.374-2.002-1.904-4.484-2.856-7.447-2.856zm0-11.475c4.428 0 8.415.83 11.963 2.49 3.549 1.66 6.478 4.281 8.789 7.862 2.084 3.157 3.435 6.819 4.053 10.986.358 2.441.505 5.957.44 10.547h-36.426c.195 5.338 1.872 9.082 5.029 11.23 1.921 1.335 4.232 2.002 6.934 2.002 2.864 0 5.192-.814 6.982-2.441.977-.879 1.839-2.1 2.588-3.662h14.209c-.358 3.157-2.002 6.364-4.932 9.619-4.557 5.176-10.937 7.764-19.14 7.764-6.771 0-12.744-2.181-17.92-6.543-5.176-4.362-7.764-11.459-7.764-21.289 0-9.213 2.336-16.277 7.007-21.192 4.671-4.915 10.734-7.373 18.188-7.373zm63.526.147c.26 0 .48.008.659.024.179.016.578.041 1.196.073v14.258a37.068 37.068 0 0 0-4.004-.244c-5.599 0-9.358 1.823-11.279 5.469-1.074 2.05-1.611 5.208-1.611 9.472v25.44h-14.014V190.51h13.281v9.277c2.149-3.548 4.021-5.973 5.616-7.275 2.604-2.181 5.989-3.271 10.156-3.271zm152.93 20.361c-.261-1.986-.928-3.776-2.002-5.371-1.563-2.149-3.988-3.223-7.276-3.223-4.687 0-7.894 2.328-9.619 6.983-.911 2.473-1.367 5.761-1.367 9.863 0 3.906.456 7.047 1.367 9.424 1.66 4.427 4.785 6.64 9.375 6.64 3.255 0 5.566-.879 6.934-2.636 1.367-1.758 2.197-4.037 2.49-6.836h14.209c-.326 4.231-1.856 8.235-4.59 12.011-4.362 6.088-10.824 9.131-19.385 9.131-8.561 0-14.86-2.539-18.896-7.617-4.037-5.078-6.055-11.67-6.055-19.775 0-9.148 2.23-16.26 6.69-21.338 4.459-5.078 10.612-7.617 18.457-7.617 6.673 0 12.133 1.497 16.381 4.492 4.248 2.995 6.763 8.284 7.544 15.869h-14.257zm52.734-20.361c.26 0 .48.008.659.024.179.016.578.041 1.196.073v14.258a37.007 37.007 0 0 0-4.003-.244c-5.599 0-9.359 1.823-11.28 5.469-1.074 2.05-1.611 5.208-1.611 9.472v25.44h-14.014V190.51h13.281v9.277c2.149-3.548 4.021-5.973 5.616-7.275 2.604-2.181 5.989-3.271 10.156-3.271zm39.355 28.613a15.138 15.138 0 0 1-2.661 1.343c-.895.341-2.124.659-3.686.952l-3.125.586c-2.93.521-5.03 1.155-6.299 1.904-2.149 1.27-3.223 3.239-3.223 5.908 0 2.376.659 4.094 1.978 5.152 1.318 1.057 2.921 1.586 4.809 1.586 2.995 0 5.754-.878 8.277-2.636 2.523-1.758 3.833-4.964 3.93-9.619v-5.176zm-8.447-6.494c2.572-.326 4.411-.733 5.518-1.221 1.985-.846 2.978-2.165 2.978-3.955 0-2.181-.757-3.687-2.27-4.517-1.514-.83-3.736-1.245-6.665-1.245-3.288 0-5.616.814-6.983 2.442-.976 1.204-1.627 2.832-1.953 4.882h-13.428c.293-4.655 1.595-8.479 3.907-11.474 3.678-4.688 9.993-7.031 18.945-7.031 5.827 0 11.003 1.155 15.527 3.466 4.525 2.312 6.787 6.674 6.787 13.086v24.414c0 1.693.033 3.744.098 6.153.098 1.823.374 3.06.83 3.711.456.651 1.139 1.188 2.051 1.611v2.051h-15.137c-.423-1.074-.716-2.084-.879-3.028a36.557 36.557 0 0 1-.39-3.222 28.604 28.604 0 0 1-6.641 5.322c-2.995 1.725-6.38 2.588-10.156 2.588-4.818 0-8.797-1.375-11.939-4.126-3.141-2.751-4.712-6.649-4.712-11.694 0-6.543 2.523-11.28 7.569-14.209 2.767-1.595 6.836-2.735 12.207-3.418l4.736-.586zm29.248-10.45v-9.912h7.422v-14.843h13.77v14.843h8.642v9.912H979.4v28.125c0 2.181.276 3.54.83 4.078.553.537 2.246.805 5.078.805a39.743 39.743 0 0 0 2.734-.097v10.4l-6.592.244c-6.575.228-11.067-.911-13.476-3.418-1.563-1.595-2.344-4.053-2.344-7.373V200.91h-7.422zm70.552 8.692c-.26-1.986-.92-3.776-2-5.371-1.56-2.149-3.98-3.223-7.27-3.223-4.69 0-7.9 2.328-9.62 6.983-.91 2.473-1.37 5.761-1.37 9.863 0 3.906.46 7.047 1.37 9.424 1.66 4.427 4.78 6.64 9.37 6.64 3.26 0 5.57-.879 6.94-2.636 1.36-1.758 2.19-4.037 2.49-6.836h14.21c-.33 4.231-1.86 8.235-4.59 12.011-4.37 6.088-10.83 9.131-19.39 9.131s-14.86-2.539-18.89-7.617c-4.041-5.078-6.06-11.67-6.06-19.775 0-9.148 2.23-16.26 6.69-21.338 4.46-5.078 10.61-7.617 18.46-7.617 6.67 0 12.13 1.497 16.38 4.492 4.25 2.995 6.76 8.284 7.54 15.869h-14.26zm53.18-20.459c3.29 0 6.27.57 8.96 1.709 2.68 1.139 4.89 2.881 6.61 5.224 1.47 1.986 2.36 4.029 2.69 6.128.33 2.1.49 5.526.49 10.279v31.25h-14.21V211.36c0-2.865-.49-5.176-1.47-6.934-1.26-2.474-3.67-3.711-7.22-3.711-3.68 0-6.47 1.229-8.38 3.687-1.9 2.457-2.85 5.965-2.85 10.522v28.809h-13.87v-71.729h13.87v25.44c2.02-3.093 4.35-5.249 7-6.47a19.847 19.847 0 0 1 8.38-1.831zm-315.316-.343c-6.769-5.216-11.025-9.835-12.769-13.856-1.743-4.022-1.8-8.741-.169-14.158 2.096-6.961 5.971-11.758 11.625-14.394 5.655-2.635 12.374-2.782 20.157-.438a49.576 49.576 0 0 1 10.231 4.398c3.289 1.869 6.428 4.113 9.416 6.733l-4.459 14.812c-2.566-3.278-5.348-6.023-8.347-8.234-2.999-2.212-6.144-3.813-9.436-4.804-3.669-1.105-6.702-1.214-9.1-.328-2.398.886-4.01 2.701-4.836 5.444-.64 2.125-.458 4.097.547 5.914 1.005 1.817 3.517 4.247 7.538 7.289l5.788 4.435c5.491 4.121 9.13 8.489 10.92 13.104 1.789 4.614 1.827 9.768.113 15.459-2.332 7.749-6.363 12.846-12.091 15.291-5.728 2.445-13.221 2.274-22.479-.513a51.527 51.527 0 0 1-11.033-4.808 53.396 53.396 0 0 1-9.868-7.374l4.723-15.686c3.178 4.098 6.451 7.42 9.816 9.967 3.366 2.546 6.9 4.377 10.603 5.491 3.737 1.126 6.89 1.149 9.458.071 2.568-1.078 4.312-3.142 5.23-6.194.692-2.297.613-4.518-.238-6.662-.85-2.145-2.428-4.106-4.735-5.885l-6.605-5.074z"/><path d="M772.933 132.021l10.142 3.041-4.328 18.951-10.142-3.041 4.328-18.951zm17.099 5.011l10.141 3.04-4.327 18.952-10.142-3.041 4.328-18.951zm-40.225 77.947l10.142 3.041-4.328 18.951-10.142-3.04 4.328-18.952zm17.099 5.011l10.141 3.041-4.327 18.951-10.142-3.041 4.328-18.951z"/></g><g vectornator:layerName="BetterScratch_big copy"><path d="M462.69 232.506c1.368-8.387-5.604-12.896-15.137-15.904l3.092-11.362-7.552-1.724-3.011 11.063a332.261 332.261 0 0 0-6.047-1.304l3.032-11.136-7.546-1.723-3.094 11.358a280.458 280.458 0 0 1-4.822-1.038l.009-.036-10.413-2.381-2.009 7.387s5.602 1.176 5.484 1.248c3.058.7 3.613 2.553 3.518 4.023l-3.522 12.944c.211.049.484.12.785.23l-.796-.181-4.94 18.133c-.374.851-1.322 2.127-3.46 1.642.076.101-5.488-1.254-5.488-1.254l-3.748 7.919 9.828 2.243c1.828.42 3.619.859 5.38 1.273l-3.124 11.494 7.541 1.723 3.097-11.37c2.058.513 4.058.985 6.015 1.431l-3.084 11.316 7.551 1.724 3.124-11.47c12.875 2.231 22.559 1.331 26.63-9.334 3.284-8.588-.161-13.542-6.936-16.775 4.934-1.046 8.65-4.018 9.641-10.159h.002zm-17.253 22.159c-2.336 8.589-18.12 3.948-23.241 2.782l4.147-15.225c5.118 1.17 21.528 3.486 19.096 12.443h-.002zm2.333-22.283c-2.129 7.813-15.268 3.844-19.533 2.87l3.759-13.808c4.265.973 17.993 2.789 15.774 10.938zm39.83 7.786c-2.256 0-4.005.706-5.247 2.119-1.242 1.413-2.022 3.327-2.341 5.742h15.141c-.159-2.575-.94-4.529-2.341-5.862-1.401-1.333-3.139-1.999-5.212-1.999zm0-8.032c3.099 0 5.89.581 8.374 1.743 2.483 1.162 4.534 2.996 6.152 5.503 1.458 2.21 2.404 4.774 2.837 7.69.251 1.709.353 4.17.308 7.383h-25.498c.136 3.737 1.31 6.358 3.52 7.861 1.344.935 2.962 1.402 4.854 1.402 2.005 0 3.634-.57 4.887-1.709.684-.615 1.288-1.47 1.812-2.564h9.946c-.251 2.211-1.401 4.455-3.452 6.734-3.19 3.623-7.656 5.434-13.399 5.434-4.739 0-8.92-1.526-12.543-4.58-3.624-3.053-5.435-8.021-5.435-14.902 0-6.449 1.635-11.393 4.905-14.834 3.27-3.441 7.514-5.161 12.732-5.161zm20.405 8.271v-6.938h5.195v-10.391h9.639v10.391h6.05v6.938h-6.05v19.688c0 1.526.194 2.478.581 2.854.387.376 1.572.564 3.555.564a28.404 28.404 0 0 0 1.914-.069v7.281l-4.615.171c-4.602.159-7.747-.639-9.433-2.393-1.094-1.117-1.641-2.837-1.641-5.161v-22.935h-5.195zm23.31 0v-6.938h5.196v-10.391h9.638v10.391h6.05v6.938h-6.05v19.688c0 1.526.194 2.478.582 2.854.387.376 1.572.564 3.554.564a28.356 28.356 0 0 0 1.914-.069v7.281l-4.614.171c-4.603.159-7.747-.639-9.434-2.393-1.093-1.117-1.64-2.837-1.64-5.161v-22.935h-5.196zm41.836-.239c-2.255 0-4.004.706-5.246 2.119-1.242 1.413-2.022 3.327-2.341 5.742h15.141c-.159-2.575-.94-4.529-2.341-5.862-1.402-1.333-3.139-1.999-5.213-1.999zm0-8.032c3.099 0 5.891.581 8.374 1.743 2.484 1.162 4.535 2.996 6.153 5.503 1.458 2.21 2.404 4.774 2.837 7.69.25 1.709.353 4.17.307 7.383h-25.498c.137 3.737 1.31 6.358 3.521 7.861 1.344.935 2.962 1.402 4.853 1.402 2.005 0 3.635-.57 4.888-1.709.684-.615 1.287-1.47 1.812-2.564h9.946c-.251 2.211-1.402 4.455-3.452 6.734-3.19 3.623-7.657 5.434-13.399 5.434-4.739 0-8.921-1.526-12.544-4.58-3.623-3.053-5.434-8.021-5.434-14.902 0-6.449 1.635-11.393 4.904-14.834 3.27-3.441 7.514-5.161 12.732-5.161zm44.468.102c.182 0 .336.006.462.017.125.012.404.029.837.052v9.98a26.856 26.856 0 0 0-2.803-.171c-3.919 0-6.551 1.276-7.895 3.828-.752 1.436-1.128 3.646-1.128 6.631v17.808h-9.81v-37.256h9.297v6.494c1.504-2.484 2.814-4.181 3.931-5.093 1.823-1.526 4.193-2.29 7.109-2.29zm107.051 14.253a8.643 8.643 0 0 0-1.401-3.76c-1.094-1.503-2.792-2.255-5.093-2.255-3.281 0-5.526 1.629-6.734 4.887-.638 1.732-.957 4.033-.957 6.905 0 2.734.319 4.933.957 6.596 1.163 3.099 3.35 4.649 6.563 4.649 2.279 0 3.896-.616 4.853-1.846.957-1.23 1.539-2.826 1.744-4.785h9.946c-.228 2.962-1.299 5.765-3.213 8.408-3.053 4.261-7.576 6.392-13.569 6.392-5.993 0-10.402-1.778-13.228-5.332-2.825-3.555-4.238-8.169-4.238-13.843 0-6.403 1.561-11.382 4.682-14.937 3.122-3.554 7.429-5.332 12.92-5.332 4.672 0 8.494 1.048 11.468 3.145 2.973 2.096 4.734 5.799 5.28 11.108h-9.98zm36.914-14.253c.182 0 .336.006.461.017.126.012.405.029.838.052v9.98a26.856 26.856 0 0 0-2.803-.171c-3.919 0-6.551 1.276-7.895 3.828-.752 1.436-1.128 3.646-1.128 6.631v17.808h-9.81v-37.256h9.297v6.494c1.504-2.484 2.814-4.181 3.931-5.093 1.823-1.526 4.192-2.29 7.109-2.29zm27.549 20.03c-.615.387-1.236.7-1.863.94-.627.239-1.487.461-2.581.666l-2.187.41c-2.051.365-3.521.809-4.409 1.333-1.504.889-2.256 2.267-2.256 4.136 0 1.663.461 2.865 1.384 3.606.923.74 2.045 1.111 3.367 1.111 2.096 0 4.027-.616 5.793-1.846s2.683-3.475 2.752-6.733v-3.623zm-5.913-4.546c1.8-.228 3.087-.513 3.862-.855 1.39-.592 2.085-1.515 2.085-2.768 0-1.527-.53-2.581-1.589-3.162-1.06-.581-2.615-.872-4.666-.872-2.301 0-3.931.57-4.888 1.709-.683.844-1.139 1.983-1.367 3.418h-9.399c.205-3.258 1.116-5.935 2.734-8.032 2.575-3.281 6.996-4.922 13.262-4.922 4.079 0 7.702.809 10.869 2.427 3.167 1.618 4.751 4.671 4.751 9.16v17.09c0 1.185.023 2.62.068 4.307.069 1.276.262 2.142.581 2.597.319.456.798.832 1.436 1.128v1.436h-10.596a10.884 10.884 0 0 1-.615-2.119 25.417 25.417 0 0 1-.273-2.256 20.016 20.016 0 0 1-4.649 3.725c-2.096 1.208-4.466 1.812-7.109 1.812-3.373 0-6.158-.963-8.357-2.888-2.199-1.926-3.298-4.654-3.298-8.186 0-4.58 1.766-7.896 5.297-9.947 1.937-1.116 4.786-1.914 8.545-2.392l3.316-.41zm20.473-7.315v-6.938h5.196v-10.391h9.638v10.391h6.05v6.938h-6.05v19.688c0 1.526.194 2.478.581 2.854.388.376 1.573.564 3.555.564a28.356 28.356 0 0 0 1.914-.069v7.281l-4.614.171c-4.603.159-7.747-.639-9.434-2.393-1.093-1.117-1.64-2.837-1.64-5.161v-22.935h-5.196zm49.39 6.084a8.643 8.643 0 0 0-1.401-3.76c-1.094-1.503-2.792-2.255-5.093-2.255-3.281 0-5.526 1.629-6.733 4.887-.639 1.732-.958 4.033-.958 6.905 0 2.734.319 4.933.958 6.596 1.162 3.099 3.349 4.649 6.562 4.649 2.279 0 3.896-.616 4.854-1.846.957-1.23 1.538-2.826 1.743-4.785h9.946c-.228 2.962-1.299 5.765-3.213 8.408-3.053 4.261-7.576 6.392-13.569 6.392-5.993 0-10.402-1.778-13.228-5.332-2.825-3.555-4.238-8.169-4.238-13.843 0-6.403 1.561-11.382 4.683-14.937 3.121-3.554 7.428-5.332 12.919-5.332 4.672 0 8.494 1.048 11.468 3.145 2.973 2.096 4.734 5.799 5.281 11.108h-9.981zm37.222-14.321c2.301 0 4.392.399 6.272 1.196a10.976 10.976 0 0 1 4.631 3.657c1.025 1.39 1.652 2.82 1.88 4.29.228 1.47.342 3.868.342 7.195v21.875h-9.947v-22.661c0-2.006-.341-3.623-1.025-4.854-.889-1.732-2.575-2.597-5.059-2.597-2.574 0-4.528.86-5.861 2.58-1.333 1.72-2 4.176-2 7.366v20.166h-9.707v-50.21h9.707v17.807c1.413-2.164 3.048-3.674 4.905-4.528a13.854 13.854 0 0 1 5.862-1.282zm-217.912 9.51c-4.923-3.793-8.018-7.152-9.286-10.077-1.269-2.925-1.309-6.357-.123-10.297 1.524-5.062 4.342-8.551 8.454-10.468 4.113-1.917 8.999-2.023 14.66-.319a36.086 36.086 0 0 1 7.441 3.199 41.373 41.373 0 0 1 6.847 4.897l-3.243 10.772c-1.866-2.384-3.889-4.38-6.07-5.988-2.181-1.609-4.469-2.773-6.862-3.494-2.669-.803-4.875-.883-6.619-.238-1.744.644-2.916 1.963-3.517 3.958-.465 1.546-.333 2.98.398 4.302.731 1.321 2.558 3.088 5.482 5.301l4.21 3.226c3.993 2.997 6.64 6.173 7.941 9.529 1.302 3.356 1.329 7.104.083 11.244-1.697 5.635-4.628 9.342-8.794 11.12-4.166 1.778-9.615 1.654-16.348-.373a37.49 37.49 0 0 1-8.024-3.496 38.87 38.87 0 0 1-7.177-5.363l3.435-11.409c2.312 2.981 4.691 5.397 7.139 7.249 2.448 1.852 5.018 3.183 7.711 3.994 2.718.818 5.011.835 6.879.051 1.868-.783 3.136-2.285 3.804-4.504.503-1.671.445-3.286-.173-4.846-.619-1.559-1.767-2.986-3.444-4.28l-4.804-3.69z"/><path d="M675.389 197.645l7.788 2.359-3.323 14.7-7.788-2.359 3.323-14.7zm12.13 3.887l7.788 2.358-3.323 14.701-7.788-2.359 3.323-14.7zm-28.889 58.464l7.788 2.359-3.323 14.701-7.788-2.359 3.323-14.701zm12.13 3.887l7.788 2.359-3.323 14.701-7.788-2.359 3.323-14.701zM434.044 179.7h-17.93V93.333h17.93V179.7zm79.57-86.367v15.293h-25.84V179.7H469.61v-71.074h-25.957V93.333h69.961zm6.797 43.886c0-15.078 4.043-26.699 12.129-34.863 7.031-7.11 15.976-10.664 26.836-10.664 14.531 0 25.156 4.766 31.875 14.297 3.711 5.351 5.703 10.723 5.976 16.113H579.18c-1.171-4.14-2.675-7.265-4.511-9.375-3.282-3.75-8.145-5.625-14.59-5.625-6.563 0-11.738 2.647-15.528 7.94-3.789 5.293-5.683 12.783-5.683 22.47 0 9.688 2.002 16.944 6.006 21.768 4.004 4.824 9.092 7.236 15.263 7.236 6.329 0 11.153-2.07 14.473-6.211 1.836-2.226 3.359-5.566 4.57-10.019h17.871c-1.562 9.414-5.556 17.07-11.982 22.968-6.426 5.899-14.658 8.848-24.697 8.848-12.422 0-22.188-3.984-29.297-11.953-7.109-8.008-10.664-18.984-10.664-32.93zm90.293 42.481V93.333h17.871v32.929h33.75v-32.93h17.93V179.7h-17.93v-38.555h-33.75V179.7h-17.871zm136.055-86.367h20.449l-28.887 53.906V179.7h-18.047v-32.461l-29.883-53.906h21.27l17.93 37.617 17.168-37.617zm43.828 59.707c.547 3.945 1.621 6.894 3.222 8.847 2.93 3.555 7.95 5.332 15.059 5.332 4.258 0 7.715-.468 10.371-1.406 5.039-1.797 7.559-5.137 7.559-10.019 0-2.852-1.25-5.059-3.75-6.622-2.5-1.523-6.426-2.871-11.778-4.043l-9.14-2.05c-8.985-2.032-15.196-4.239-18.633-6.621-5.821-3.985-8.731-10.215-8.731-18.692 0-7.734 2.813-14.16 8.438-19.277 5.625-5.117 13.887-7.676 24.785-7.676 9.102 0 16.865 2.412 23.291 7.236 6.426 4.825 9.795 11.827 10.107 21.006h-17.343c-.313-5.195-2.578-8.886-6.797-11.074-2.813-1.445-6.309-2.168-10.488-2.168-4.649 0-8.36.938-11.133 2.813-2.774 1.875-4.16 4.492-4.16 7.851 0 3.086 1.367 5.391 4.101 6.914 1.758 1.016 5.508 2.207 11.25 3.574l14.883 3.575c6.523 1.562 11.445 3.652 14.766 6.269 5.156 4.063 7.734 9.942 7.734 17.637 0 7.891-3.018 14.443-9.053 19.658-6.035 5.215-14.56 7.822-25.576 7.822-11.25 0-20.098-2.568-26.543-7.705-6.445-5.136-9.668-12.197-9.668-21.181h17.227zm90.586-5.977h21.914l-10.782-33.984-11.132 33.984zm1.113-53.73h20.39l30.586 86.367h-19.57l-5.566-17.754h-31.817l-5.976 17.754h-18.867l30.82-86.367zm124.684 0v15.293h-25.836V179.7h-18.165v-71.074h-25.957V93.333h69.958zm23.62 59.707c.54 3.945 1.62 6.894 3.22 8.847 2.93 3.555 7.95 5.332 15.06 5.332 4.26 0 7.71-.468 10.37-1.406 5.04-1.797 7.56-5.137 7.56-10.019 0-2.852-1.25-5.059-3.75-6.622-2.5-1.523-6.43-2.871-11.78-4.043l-9.14-2.05c-8.98-2.032-15.2-4.239-18.63-6.621-5.82-3.985-8.73-10.215-8.73-18.692 0-7.734 2.81-14.16 8.43-19.277 5.63-5.117 13.89-7.676 24.79-7.676 9.1 0 16.86 2.412 23.29 7.236 6.43 4.825 9.79 11.827 10.11 21.006h-17.35c-.31-5.195-2.57-8.886-6.79-11.074-2.82-1.445-6.31-2.168-10.49-2.168-4.65 0-8.36.938-11.13 2.813-2.78 1.875-4.16 4.492-4.16 7.851 0 3.086 1.36 5.391 4.1 6.914 1.75 1.016 5.5 2.207 11.25 3.574l14.88 3.575c6.52 1.562 11.45 3.652 14.77 6.269 5.15 4.063 7.73 9.942 7.73 17.637 0 7.891-3.02 14.443-9.05 19.658-6.04 5.215-14.56 7.822-25.58 7.822-11.25 0-20.1-2.568-26.54-7.705-6.45-5.136-9.67-12.197-9.67-21.181h17.23z"/></g><path stroke="#fff" stroke-width="9.076" d="M162.85 31.185h32.745v266.632H162.85V31.185z" fill="#fff" stroke-linecap="butt" stroke-linejoin="miter" vectornator:layerName="Layer 2" visibility="hidden"/></svg>