<svg width="800" height="743" viewBox="0 0 800 743" fill="none" xmlns="http://www.w3.org/2000/svg"><path fill="#1D2026" d="M0 0h800v743H0z"/><path d="M195.876 231.247a5.119 5.119 0 0 0-3.629 1.482l-13.136 13.187v-62.662a5.111 5.111 0 1 0-10.222 0v62.662l-13.136-13.136a5.128 5.128 0 0 0-3.618-1.528 5.127 5.127 0 0 0-3.639 1.477 5.134 5.134 0 0 0-.052 7.258L174 265.542l25.556-25.555a5.118 5.118 0 0 0 1.121-5.589 5.112 5.112 0 0 0-4.75-3.151h-.051zm-12.318-109.276c4.649.003 9.27.727 13.698 2.147a38.076 38.076 0 0 1 2.555-9.916 55.143 55.143 0 0 0-16.253-2.453 53.515 53.515 0 0 0-49.067 31.178 49.32 49.32 0 0 0-29.268 83.357 49.32 49.32 0 0 0 32.437 14.827 15.336 15.336 0 0 1 0-10.222 39.1 39.1 0 0 1 .562-77.995h3.425l1.175-3.22a43.09 43.09 0 0 1 40.736-27.703zm56.478 44.723a36.457 36.457 0 0 1-13.443-.716v1.176l-.409 3.68 3.323 1.533a30.664 30.664 0 0 1 17.146 34.347 30.668 30.668 0 0 1-29.822 24.175h-6.593a15.336 15.336 0 0 1 0 10.222h6.542a40.89 40.89 0 0 0 23.204-74.673l.052.256zm-4.703-12.472c14.114 0 25.556-11.441 25.556-25.555 0-14.114-11.442-25.556-25.556-25.556s-25.555 11.442-25.555 25.556 11.441 25.555 25.555 25.555z" fill="#F7931A"/><path d="M245.437 76h1.126C270 76 289 95.252 289 119s-19 43-42.437 43h-1.126C222 162 203 142.748 203 119s19-43 42.437-43z" fill="#F7931A"/><path d="M245.473 78.73h1.054c21.949 0 39.743 18.029 39.743 40.269 0 22.241-17.794 40.27-39.743 40.27h-1.054c-21.949 0-39.743-18.029-39.743-40.27 0-22.24 17.794-40.27 39.743-40.27z" fill="#000"/><path d="M269.2 112.847c1.08-6.597-4.423-10.144-11.948-12.51l2.441-8.937-5.962-1.356-2.377 8.702a266.367 266.367 0 0 0-4.773-1.026l2.393-8.759-5.956-1.355-2.443 8.934a223.53 223.53 0 0 1-3.805-.817l.006-.028-8.219-1.873-1.585 5.81s4.422.925 4.328.982c2.414.551 2.852 2.009 2.777 3.164l-2.78 10.182c.166.038.382.094.62.181l-.629-.143-3.899 14.263c-.295.669-1.044 1.673-2.731 1.292.059.079-4.332-.987-4.332-.987l-2.959 6.229 7.758 1.764c1.443.33 2.857.676 4.247 1.001l-2.467 9.041 5.954 1.356 2.444-8.943c1.624.402 3.203.774 4.748 1.124l-2.434 8.902 5.96 1.356 2.466-9.023c10.163 1.756 17.807 1.048 21.02-7.341 2.592-6.755-.127-10.652-5.474-13.195 3.894-.822 6.827-3.16 7.61-7.99h.001zm-13.619 17.429c-1.843 6.756-14.303 3.106-18.345 2.188l3.273-11.975c4.04.92 16.994 2.742 15.074 9.787h-.002zm1.842-17.527c-1.68 6.145-12.052 3.023-15.418 2.258l2.967-10.861c3.366.765 14.203 2.194 12.451 8.603z" fill="#F7931A" fill-opacity=".499"/><path d="M217.556 124.051c0-.553-.063-.693.5-1.251a778.674 778.674 0 0 1 15.016-14.515c1.113-1.047 2.527-1.718 3.754-2.628 3.619-2.685 7.507-4.815 11.637-6.632 3.107-1.367 6.221-2.095 9.51-2.753.639-.128 1.353.072 2.002 0 .666-.074 1.252-.292 1.877-.5.4-.134 1.403-.074 1.127-.626" fill="#000"/><path d="M217.556 124.051c0-.553-.063-.693.5-1.251a778.674 778.674 0 0 1 15.016-14.515c1.113-1.047 2.527-1.718 3.754-2.628 3.619-2.685 7.507-4.815 11.637-6.632 3.107-1.367 6.221-2.095 9.51-2.753.639-.128 1.353.072 2.002 0 .666-.074 1.252-.292 1.877-.5.4-.134 1.403-.074 1.127-.626" stroke="#000" stroke-width=".025"/><path d="M216.555 136.814c-.709 0 .07-1.213.25-1.501.774-1.239 1.648-2.541 2.628-3.629.817-.909 1.854-1.561 2.753-2.378 1.022-.93 1.837-2.078 2.878-3.003 1.298-1.154 2.861-1.883 4.254-2.878 1.412-1.009 2.678-2.16 4.13-3.128.728-.486 1.5-.926 2.252-1.377.881-.528 1.573-1.488 2.628-1.752 2.754-.688 5.54-1.843 8.008-3.253 3.481-1.989 6.882-3.723 10.636-5.13.664-.249 1.224-.8 1.877-1.127 2.12-1.06 4.283-2.169 6.507-3.003 1.336-.501 2.779-.676 4.13-1.126 1.373-.458 2.753-1.101 4.129-1.377.792-.158 1.909-.141 2.628-.5" fill="#000"/><path d="M216.555 136.814c-.709 0 .07-1.213.25-1.501.774-1.239 1.648-2.541 2.628-3.629.817-.909 1.854-1.561 2.753-2.378 1.022-.93 1.837-2.078 2.878-3.003 1.298-1.154 2.861-1.883 4.254-2.878 1.412-1.009 2.678-2.16 4.13-3.128.728-.486 1.5-.926 2.252-1.377.881-.528 1.573-1.488 2.628-1.752 2.754-.688 5.54-1.843 8.008-3.253 3.481-1.989 6.882-3.723 10.636-5.13.664-.249 1.224-.8 1.877-1.127 2.12-1.06 4.283-2.169 6.507-3.003 1.336-.501 2.779-.676 4.13-1.126 1.373-.458 2.753-1.101 4.129-1.377.792-.158 1.909-.141 2.628-.5" stroke="#000" stroke-width=".025"/><path d="M228.693 140.945c-.77 0 .253-.893.375-1.001 1.156-1.027 2.437-1.896 3.629-2.878.799-.658 1.457-1.476 2.252-2.127 2.289-1.873 4.983-3.577 7.508-5.131a81.031 81.031 0 0 1 11.262-5.756c1.357-.565 2.69-1.345 4.004-2.002 1.287-.644 2.7-.854 4.005-1.376 2.114-.846 4.268-1.629 6.506-2.002.8-.134 1.548-.738 2.378-.876 1.197-.2 2.34-.518 3.504-.751.269-.054 1.16.019 1.376-.125.319-.213.151-.251.626-.251" fill="#000"/><path d="M228.693 140.945c-.77 0 .253-.893.375-1.001 1.156-1.027 2.437-1.896 3.629-2.878.799-.658 1.457-1.476 2.252-2.127 2.289-1.873 4.983-3.577 7.508-5.131a81.031 81.031 0 0 1 11.262-5.756c1.357-.565 2.69-1.345 4.004-2.002 1.287-.644 2.7-.854 4.005-1.376 2.114-.846 4.268-1.629 6.506-2.002.8-.134 1.548-.738 2.378-.876 1.197-.2 2.34-.518 3.504-.751.269-.054 1.16.019 1.376-.125.319-.213.151-.251.626-.251" stroke="#000" stroke-width=".025"/><path d="M217.556 124.051c0-.553-.063-.693.5-1.251a778.674 778.674 0 0 1 15.016-14.515c1.113-1.047 2.527-1.718 3.754-2.628 3.619-2.685 7.507-4.815 11.637-6.632 3.107-1.367 6.221-2.095 9.51-2.753.639-.128 1.353.072 2.002 0 .666-.074 1.252-.292 1.877-.5.4-.134 1.403-.074 1.127-.626" fill="#fff"/><path d="M217.556 124.051c0-.553-.063-.693.5-1.251a778.674 778.674 0 0 1 15.016-14.515c1.113-1.047 2.527-1.718 3.754-2.628 3.619-2.685 7.507-4.815 11.637-6.632 3.107-1.367 6.221-2.095 9.51-2.753.639-.128 1.353.072 2.002 0 .666-.074 1.252-.292 1.877-.5.4-.134 1.403-.074 1.127-.626" stroke="#fff" stroke-width=".025"/><path d="M216.555 136.814c-.709 0 .07-1.213.25-1.501.774-1.239 1.648-2.541 2.628-3.629.817-.909 1.854-1.561 2.753-2.378 1.022-.93 1.837-2.078 2.878-3.003 1.298-1.154 2.861-1.883 4.254-2.878 1.412-1.009 2.678-2.16 4.13-3.128.728-.486 1.5-.926 2.252-1.377.881-.528 1.573-1.488 2.628-1.752 2.754-.688 5.54-1.843 8.008-3.253 3.481-1.989 6.882-3.723 10.636-5.13.664-.249 1.224-.8 1.877-1.127 2.12-1.06 4.283-2.169 6.507-3.003 1.336-.501 2.779-.676 4.13-1.126 1.373-.458 2.753-1.101 4.129-1.377.792-.158 1.909-.141 2.628-.5" fill="#fff"/><path d="M216.555 136.814c-.709 0 .07-1.213.25-1.501.774-1.239 1.648-2.541 2.628-3.629.817-.909 1.854-1.561 2.753-2.378 1.022-.93 1.837-2.078 2.878-3.003 1.298-1.154 2.861-1.883 4.254-2.878 1.412-1.009 2.678-2.16 4.13-3.128.728-.486 1.5-.926 2.252-1.377.881-.528 1.573-1.488 2.628-1.752 2.754-.688 5.54-1.843 8.008-3.253 3.481-1.989 6.882-3.723 10.636-5.13.664-.249 1.224-.8 1.877-1.127 2.12-1.06 4.283-2.169 6.507-3.003 1.336-.501 2.779-.676 4.13-1.126 1.373-.458 2.753-1.101 4.129-1.377.792-.158 1.909-.141 2.628-.5" stroke="#fff" stroke-width=".025"/><path d="M228.693 140.945c-.77 0 .253-.893.375-1.001 1.156-1.027 2.437-1.896 3.629-2.878.799-.658 1.457-1.476 2.252-2.127 2.289-1.873 4.983-3.577 7.508-5.131a81.031 81.031 0 0 1 11.262-5.756c1.357-.565 2.69-1.345 4.004-2.002 1.287-.644 2.7-.854 4.005-1.376 2.114-.846 4.268-1.629 6.506-2.002.8-.134 1.548-.738 2.378-.876 1.197-.2 2.34-.518 3.504-.751.269-.054 1.16.019 1.376-.125.319-.213.151-.251.626-.251" fill="#fff"/><path d="M228.693 140.945c-.77 0 .253-.893.375-1.001 1.156-1.027 2.437-1.896 3.629-2.878.799-.658 1.457-1.476 2.252-2.127 2.289-1.873 4.983-3.577 7.508-5.131a81.031 81.031 0 0 1 11.262-5.756c1.357-.565 2.69-1.345 4.004-2.002 1.287-.644 2.7-.854 4.005-1.376 2.114-.846 4.268-1.629 6.506-2.002.8-.134 1.548-.738 2.378-.876 1.197-.2 2.34-.518 3.504-.751.269-.054 1.16.019 1.376-.125.319-.213.151-.251.626-.251" stroke="#fff" stroke-width=".025"/><path stroke="#fff" d="M37 314.5h726"/><path d="M475.595 103.757v26.802h35.439V97.884l-35.439 5.873zm0 59.579l35.439 5.77V136.45h-35.439v26.886zm-37.453-32.786h29.957v-25.819l-29.957 4.963v20.856zm0 26.941l29.957 4.88V136.45h-29.957v21.041zm292.402-29.501c-2.737 6.009-4.046 8.696-7.561 14.006-4.911 7.416-11.845 16.67-20.418 16.733-7.625.064-9.593-4.933-19.941-4.851-10.349.049-12.505 4.942-20.139 4.865-8.572-.077-15.136-8.415-20.051-15.817-13.745-20.763-15.196-45.098-6.701-58.047 6.01-9.181 15.52-14.573 24.45-14.573 9.094 0 14.811 4.956 22.331 4.956 7.295 0 11.74-4.97 22.257-4.97 7.955 0 16.367 4.299 22.377 11.715-19.663 10.683-16.468 38.531 3.396 45.983zm-33.755-65.984c3.826-4.87 6.728-11.742 5.676-18.749-6.243.422-13.544 4.375-17.809 9.495-3.863 4.66-7.067 11.586-5.818 18.285 6.811.218 13.859-3.808 17.951-9.032zM520.835 477.367c-1.495 3.31-2.21 4.79-4.13 7.715-2.683 4.085-6.47 9.183-11.153 9.218-4.165.035-5.24-2.718-10.892-2.673-5.653.028-6.83 2.723-11 2.68-4.683-.042-8.268-4.635-10.953-8.712-7.507-11.438-8.3-24.843-3.66-31.975 3.283-5.058 8.478-8.028 13.355-8.028 4.968 0 8.09 2.73 12.198 2.73 3.985 0 6.412-2.737 12.157-2.737 4.345 0 8.94 2.367 12.223 6.452-10.74 5.885-8.995 21.225 1.855 25.33zm-18.438-36.347c2.09-2.683 3.675-6.468 3.1-10.328-3.41.233-7.397 2.41-9.727 5.23-2.11 2.568-3.86 6.383-3.178 10.073 3.72.12 7.57-2.098 9.805-4.975z" fill="#fff"/><g clip-path="url(#a)"><path d="M571.587 117c-.956 0-1.934.051-2.945.124-25.885 2.053-19.018 29.451-19.404 38.588-.477 6.674-1.837 11.962-6.431 18.499-5.434 6.435-13.042 16.845-16.652 27.677-1.695 5.094-2.513 10.34-1.746 15.27a2.4 2.4 0 0 0-.694.808c-1.58 1.654-2.756 3.689-4.047 5.145-1.217 1.217-2.963 1.631-4.883 2.444-1.911.831-4.042 1.649-5.287 4.185a8.09 8.09 0 0 0-.813 3.689c0 1.194.17 2.439.335 3.275.363 2.439.717 4.451.239 5.935-1.53 4.157-1.695 7.006-.643 9.091 1.07 2.058 3.275 2.871 5.737 3.689 4.98 1.217 11.701.831 17.016 3.657 5.664 2.871 11.434 4.115 16.027 2.898a10.933 10.933 0 0 0 7.392-5.788c3.587-.023 7.533-1.654 13.831-2.058 4.282-.363 9.643 1.649 15.789 1.217.165.841.381 1.218.717 2.058v.023c2.388 4.759 6.817 6.914 11.558 6.556 4.708-.382 9.734-3.276 13.799-8.012 3.877-4.667 10.313-6.633 14.572-9.187 2.131-1.227 3.854-2.871 3.973-5.242.143-2.439-1.217-4.975-4.355-8.42v-.602l-.023-.023c-1.052-1.217-1.529-3.275-2.081-5.664-.528-2.467-1.102-4.81-3.013-6.413-.386-.335-.767-.409-1.172-.813a2.233 2.233 0 0 0-1.153-.404c2.633-7.828 1.604-15.601-1.079-22.615-3.252-8.637-8.972-16.17-13.304-21.338-4.883-6.151-9.665-11.985-9.568-20.622.165-13.188 1.456-37.563-21.701-37.613l.009-.014zm3.229 20.86h.097c1.291 0 2.412.386 3.565 1.199 1.171.832 2.035 2.035 2.678 3.276.647 1.58.987 2.797 1.029 4.423 0-.115.023-.239.023-.353v.643c0-.051-.023-.092-.023-.143l-.023-.147c0 1.489-.308 2.972-.905 4.332a5.637 5.637 0 0 1-1.319 2.058c-.165-.092-.335-.188-.528-.262-.643-.289-1.217-.381-1.746-.808a8.236 8.236 0 0 0-1.341-.409c.29-.354.887-.813 1.126-1.217.312-.767.477-1.604.528-2.463v-.124a7.2 7.2 0 0 0-.386-2.439c-.262-.813-.593-1.226-1.098-2.035-.528-.409-1.029-.813-1.654-.813h-.092c-.574 0-1.079.165-1.603.813a4.948 4.948 0 0 0-1.245 2.035 6.79 6.79 0 0 0-.551 2.439v.124c0 .547.051 1.098.115 1.65-1.194-.405-2.678-.841-3.73-1.245a9.93 9.93 0 0 1-.097-1.218v-.124a10.98 10.98 0 0 1 .914-4.708 6.492 6.492 0 0 1 2.633-3.257 6.043 6.043 0 0 1 3.633-1.218v-.009zm-18.136.363h.216c.864 0 1.654.29 2.444.813a8.246 8.246 0 0 1 2.109 2.844c.551 1.226.859 2.467.955 4.093v.023c.023.813.023 1.249-.023 1.631v.5l-.501.143c-.932.335-1.672.813-2.421 1.226a7.136 7.136 0 0 0 .023-1.631v-.096c-.068-.809-.238-1.217-.5-2.035a3.845 3.845 0 0 0-1.029-1.649 1.532 1.532 0 0 0-1.098-.386h-.147c-.427.023-.79.239-1.121.813a3.12 3.12 0 0 0-.74 1.654 5.677 5.677 0 0 0-.147 2.035v.069c.074.84.216 1.249.501 2.058a3.661 3.661 0 0 0 1.006 1.63c.074.074.124.124.216.143-.427.363-.717.436-1.07.84-.244.17-.501.386-.813.437a15.402 15.402 0 0 1-1.677-2.467 10.706 10.706 0 0 1-.956-4.093 11.34 11.34 0 0 1 .478-4.093c.363-1.194.937-2.32 1.746-3.275.79-.813 1.58-1.218 2.558-1.218l-.009-.009zm8.398 10.455c2.035 0 4.479.382 7.441 2.44 1.797 1.226 3.212 1.654 6.464 2.848 1.58.841 2.485 1.654 2.94 2.467v-.813a3.494 3.494 0 0 1 .096 2.866c-.767 1.916-3.16 3.951-6.527 5.168v.023c-1.631.813-3.064 2.035-4.741 2.848-1.695.813-3.615 1.796-6.197 1.631a7.318 7.318 0 0 1-2.752-.409 17.13 17.13 0 0 1-1.961-1.217c-1.195-.813-2.224-2.035-3.753-2.848v-.023h-.023c-2.467-1.507-3.781-3.138-4.213-4.355-.404-1.649-.023-2.867 1.199-3.68 1.36-.813 2.315-1.653 2.94-2.058.643-.455.887-.624 1.08-.79h.023v-.023c1.029-1.245 2.65-2.871 5.145-3.689a11.316 11.316 0 0 1 2.843-.381l-.004-.005zm17.13 13.106c2.205 8.687 7.35 21.297 10.653 27.398 1.745 3.275 5.236 10.166 6.743 18.522.956-.023 2.008.114 3.138.404 3.969-10.24-3.326-21.246-6.652-24.31-1.364-1.218-1.433-2.035-.767-2.035 3.615 3.252 8.347 9.624 10.069 16.868.79 3.275.988 6.776.147 10.239.405.166.813.382 1.245.405 6.317 3.284 8.659 5.746 7.534 9.426v-.262c-.354-.018-.74 0-1.098 0h-.096c.937-2.866-1.121-5.071-6.528-7.511-5.6-2.439-10.074-2.058-10.841 2.849a5.045 5.045 0 0 0-.092.84c-.437.143-.864.308-1.291.381-2.632 1.654-4.047 4.116-4.856 7.277-.79 3.275-1.029 7.079-1.245 11.461-.147 2.058-1.052 5.141-1.966 8.274-9.187 6.578-21.939 9.426-32.749 2.058a16.78 16.78 0 0 0-2.466-3.276 8.808 8.808 0 0 0-1.695-2.035c1.12 0 2.081-.188 2.848-.408a3.942 3.942 0 0 0 1.934-2.054c.647-1.631 0-4.263-2.132-7.134-2.099-2.844-5.692-6.078-10.933-9.302-3.873-2.44-6.05-5.334-7.056-8.545-1.006-3.275-.864-6.651-.096-10.069 1.506-6.555 5.36-12.941 7.827-16.942.643-.381.216.841-2.512 5.986-2.421 4.593-6.988 15.288-.749 23.589a49.756 49.756 0 0 1 3.973-17.608c3.441-7.823 10.672-21.458 11.246-32.271.289.239 1.318.84 1.768 1.245 1.319.813 2.32 2.035 3.616 2.848 1.291 1.217 2.917 2.058 5.361 2.058a6.7 6.7 0 0 0 .666.023c2.512 0 4.479-.813 6.1-1.631 1.769-.841 3.211-2.058 4.543-2.462h.023c2.849-.813 5.122-2.467 6.39-4.286l-.004-.01zm13.4 54.868c.239 3.68 2.108 7.63 5.407 8.439 3.587.813 8.778-2.035 10.956-4.686l1.29-.05c1.934-.051 3.542.05 5.187 1.631l.023.023c1.268 1.217 1.869 3.252 2.393 5.36.528 2.463.933 4.783 2.513 6.528 2.963 3.23 3.946 5.549 3.9 6.987-.096 1.599-1.153 2.412-3.064 3.634-3.854 2.467-10.694 4.355-15.049 9.624-3.785 4.52-8.398 6.982-12.472 7.295-4.066.335-7.584-1.218-9.642-5.499l-.023-.023c-1.291-2.444-.74-6.27.335-10.341 1.079-4.093 2.632-8.25 2.848-11.626.216-4.378.455-8.182 1.171-11.131.74-2.848 1.893-4.883 3.951-6.004l.262-.147.014-.014zm-66.251.308h.073c.335 0 .648.023.956.096 2.296.336 4.332 2.035 6.27 4.594l5.572 10.194.023.023c1.484 3.252 4.617 6.504 7.272 10.028 2.66 3.656 4.718 6.932 4.479 9.615v.05c-.363 4.543-2.945 7.006-6.891 7.92-3.95.813-9.311 0-14.667-2.848-5.931-3.276-12.992-2.871-17.512-3.689-2.246-.404-3.73-1.245-4.428-2.462-.666-1.218-.694-3.689.767-7.539v-.018c.717-2.058.198-4.617-.165-6.868-.336-2.444-.501-4.336.261-5.747.979-2.058 2.44-2.439 4.231-3.275 1.796-.813 3.928-1.217 5.6-2.871h.023v-.023c1.557-1.622 2.733-3.657 4.093-5.122 1.153-1.245 2.32-2.058 4.043-2.058zm43.861-55.58c-2.66 1.218-5.793 3.276-9.119 3.276-3.326 0-5.935-1.622-7.823-2.849-.956-.831-1.723-1.649-2.297-2.058-1.006-.808-.886-2.053-.455-2.053.666.092.79.832 1.218 1.245.601.404 1.318 1.217 2.2 2.035 1.796 1.217 4.19 2.866 7.153 2.866 2.972 0 6.463-1.649 8.567-2.866 1.194-.813 2.724-2.035 3.969-2.848.955-.841.914-1.654 1.695-1.654.79.097.22.813-.882 2.035-1.125.841-2.848 2.058-4.231 2.871h.005zm-6.629-9.711v-.115c-.023-.124.069-.262.188-.312.428-.262 1.098-.17 1.581.023.381 0 .978.404.932.831-.05.29-.528.409-.841.409-.33 0-.574-.262-.859-.427-.312-.097-.914-.051-1.006-.409h.005zm-3.376 0c-.124.363-.699.312-1.006.409-.29.165-.529.427-.864.427-.312 0-.813-.124-.841-.427-.041-.409.529-.813.914-.813.501-.198 1.121-.29 1.599-.023.096.05.221.188.17.312v.115h.028z" fill="#fff"/></g><path d="M635.936 479.254a2.83 2.83 0 0 0 2.829 2.822h3.234v7.995c0 2.025 1.627 3.679 3.626 3.679 2.005 0 3.626-1.647 3.626-3.679v-8.002h5.644v7.995c0 2.026 1.627 3.679 3.626 3.679 2.006 0 3.626-1.647 3.626-3.679v-7.995h3.234a2.83 2.83 0 0 0 2.829-2.822v-26.244h-32.274v26.251zm23.714-39.851l2.982-4.316c.172-.253.132-.591-.1-.757-.232-.16-.564-.08-.737.172l-3.095 4.489a18.27 18.27 0 0 0-6.693-1.248c-2.384 0-4.655.445-6.694 1.248l-3.095-4.482c-.172-.252-.504-.339-.737-.173-.232.16-.272.492-.099.757l2.981 4.317c-4.741 2.204-8.061 6.381-8.486 11.262h32.273c-.438-4.887-3.765-9.064-8.5-11.269zm-14.457 6.807a1.788 1.788 0 0 1-1.752-2.135 1.786 1.786 0 1 1 1.752 2.135zm13.839 0a1.788 1.788 0 0 1-1.752-2.135 1.786 1.786 0 1 1 1.752 2.135zm14.836 6.687c-2.006 0-3.626 1.647-3.626 3.679v14.37c0 2.025 1.627 3.679 3.626 3.679 2.005 0 3.625-1.647 3.625-3.679v-14.377c.007-2.032-1.613-3.672-3.625-3.672zm-43.736 0c-2.005 0-3.625 1.647-3.625 3.679v14.37c0 2.025 1.627 3.679 3.625 3.679 2.006 0 3.626-1.647 3.626-3.679v-14.377c0-2.032-1.627-3.672-3.626-3.672z" fill="#fff"/><path d="M243.25 428.5l-36-36V415h-94.5v27h94.5v22.5l36-36zM124 527.5c-7.443 0-13.5-6.408-13.5-14.283h6.75c0 3.674 3.028 6.671 6.75 6.671s6.75-2.997 6.75-6.671c0-3.674-3.028-6.662-6.75-6.662-7.443 0-13.5-6.404-13.5-14.279 0-7.868 6.057-14.276 13.5-14.276s13.5 6.408 13.5 14.279h-6.75c0-3.675-3.028-6.667-6.75-6.667s-6.75 2.992-6.75 6.667c0 3.674 3.028 6.666 6.75 6.666 7.443 0 13.5 6.404 13.5 14.274 0 7.873-6.057 14.281-13.5 14.281zm36 0c-7.443 0-13.5-6.408-13.5-14.283v-20.941c0-7.868 6.057-14.276 13.5-14.276s13.5 6.408 13.5 14.279v20.94c0 7.873-6.057 14.281-13.5 14.281zm0-41.888c-3.722 0-6.75 2.992-6.75 6.667v20.94c0 3.675 3.028 6.671 6.75 6.671s6.75-2.996 6.75-6.671v-20.94c0-3.675-3.028-6.667-6.75-6.667zm36 41.888c-7.443 0-13.5-6.408-13.5-14.283v-20.941c0-7.868 6.057-14.276 13.5-14.276s13.5 6.408 13.5 14.279v20.94c0 7.873-6.057 14.281-13.5 14.281zm0-41.888c-3.722 0-6.75 2.992-6.75 6.667v20.94c0 3.675 3.028 6.671 6.75 6.671s6.75-2.996 6.75-6.671v-20.94c0-3.675-3.028-6.667-6.75-6.667zm29.25 9.72l13.158 32.168h7.092V478h-6.75v32.164L225.592 478H218.5v49.5h6.75v-32.168z" fill="#F7931A"/><path d="M249.667 450a3.666 3.666 0 0 0-3.667 3.667v14.666a3.666 3.666 0 0 0 3.667 3.667h22a3.663 3.663 0 0 0 3.666-3.667v-14.666a3.666 3.666 0 0 0-3.666-3.667h-22zm6.041 7.324v9.176h-2.184v-9.176h-3.117V455.5h8.426v1.822h-3.125v.002zm6.227 1.861v7.315h-1.941v-10.998h2.216l3.135 7.139h.072l3.135-7.139h2.198V466.5h-1.965v-7.315h-.105l-2.603 5.938h-1.417l-2.618-5.942h-.107v.004z" fill="#fff"/><g clip-path="url(#b)" fill="#F8F8F8"><path d="M596.375 408.125a8.122 8.122 0 0 1 8.125 8.125v97.5a8.122 8.122 0 0 1-8.125 8.125h-48.75a8.122 8.122 0 0 1-8.125-8.125v-97.5a8.122 8.122 0 0 1 8.125-8.125h48.75zM547.625 400c-4.31 0-8.443 1.712-11.49 4.76a16.246 16.246 0 0 0-4.76 11.49v97.5c0 4.31 1.712 8.443 4.76 11.49a16.246 16.246 0 0 0 11.49 4.76h48.75c4.31 0 8.443-1.712 11.49-4.76a16.246 16.246 0 0 0 4.76-11.49v-97.5c0-4.31-1.712-8.443-4.76-11.49a16.246 16.246 0 0 0-11.49-4.76h-48.75z"/><path d="M572 513.75a8.122 8.122 0 0 0 8.125-8.125A8.122 8.122 0 0 0 572 497.5a8.122 8.122 0 0 0-8.125 8.125A8.122 8.122 0 0 0 572 513.75z"/></g><path fill="url(#c)" d="M0 635h800v18H0z"/><path d="M458.5 644.18c0 32.434-25.994 58.68-58 58.68s-58-26.246-58-58.68c0-32.435 25.994-58.68 58-58.68s58 26.245 58 58.68z" fill="#1D2026" stroke="#F7931A" stroke-width="5"/><path d="M404.266 669h-6.539v-43.348l-13.113 4.817v-5.907l18.633-6.996h1.019V669z" fill="#F8F8F8" filter="url(#d)"/><defs><filter id="d" x="380.614" y="617.566" width="27.652" height="59.434" filterUnits="userSpaceOnUse" color-interpolation-filters="sRGB"><feFlood flood-opacity="0" result="BackgroundImageFix"/><feColorMatrix in="SourceAlpha" values="0 0 0 0 0 0 0 0 0 0 0 0 0 0 0 0 0 0 127 0" result="hardAlpha"/><feOffset dy="4"/><feGaussianBlur stdDeviation="2"/><feComposite in2="hardAlpha" operator="out"/><feColorMatrix values="0 0 0 0 0 0 0 0 0 0 0 0 0 0 0 0 0 0 0.25 0"/><feBlend in2="BackgroundImageFix" result="effect1_dropShadow"/><feBlend in="SourceGraphic" in2="effect1_dropShadow" result="shape"/></filter><radialGradient id="c" cx="0" cy="0" r="1" gradientUnits="userSpaceOnUse" gradientTransform="matrix(0 9 -400 0 400 644)"><stop stop-color="#F7931A"/><stop offset="1" stop-color="#F7931A" stop-opacity="0"/></radialGradient><clipPath id="a"><path fill="#fff" transform="translate(495 117)" d="M0 0h147v147H0z"/></clipPath><clipPath id="b"><path fill="#fff" transform="translate(507 400)" d="M0 0h130v130H0z"/></clipPath></defs></svg>