<svg width="800" height="743" viewBox="0 0 800 743" fill="none" xmlns="http://www.w3.org/2000/svg"><path fill="#1D2026" d="M0 0h800v743H0z"/><path d="M69.422 222.875A31.875 31.875 0 0 1 101.297 191h127.5a31.874 31.874 0 0 1 31.875 31.875v191.25A31.878 31.878 0 0 1 228.797 446h-127.5a31.874 31.874 0 0 1-31.875-31.875v-191.25zm31.875 7.969v31.875a7.969 7.969 0 0 0 7.969 7.969h111.562a7.973 7.973 0 0 0 7.969-7.969v-31.875a7.97 7.97 0 0 0-7.969-7.969H109.266a7.97 7.97 0 0 0-7.969 7.969zm0 63.75v15.937a7.965 7.965 0 0 0 7.969 7.969h15.937a7.973 7.973 0 0 0 7.969-7.969v-15.937a7.97 7.97 0 0 0-7.969-7.969h-15.937a7.97 7.97 0 0 0-7.969 7.969zm7.969 39.844a7.968 7.968 0 0 0-7.969 7.968v15.938a7.969 7.969 0 0 0 7.969 7.968h15.937c2.113 0 4.14-.839 5.635-2.333a7.973 7.973 0 0 0 2.334-5.635v-15.938c0-2.113-.84-4.14-2.334-5.635a7.972 7.972 0 0 0-5.635-2.333h-15.937zm-7.969 55.781v15.937a7.965 7.965 0 0 0 7.969 7.969h15.937a7.973 7.973 0 0 0 7.969-7.969v-15.937a7.97 7.97 0 0 0-7.969-7.969h-15.937a7.97 7.97 0 0 0-7.969 7.969zm55.781-103.594a7.973 7.973 0 0 0-7.969 7.969v15.937a7.97 7.97 0 0 0 7.969 7.969h15.938a7.969 7.969 0 0 0 7.968-7.969v-15.937a7.965 7.965 0 0 0-7.968-7.969h-15.938zm-7.969 55.781v15.938c0 2.113.84 4.14 2.334 5.635a7.972 7.972 0 0 0 5.635 2.333h15.938a7.968 7.968 0 0 0 7.968-7.968v-15.938a7.969 7.969 0 0 0-7.968-7.968h-15.938c-2.113 0-4.14.839-5.635 2.333a7.973 7.973 0 0 0-2.334 5.635zm7.969 39.844a7.973 7.973 0 0 0-7.969 7.969v15.937a7.97 7.97 0 0 0 7.969 7.969h15.938a7.969 7.969 0 0 0 7.968-7.969v-15.937a7.965 7.965 0 0 0-7.968-7.969h-15.938zm39.844-87.656v15.937a7.965 7.965 0 0 0 7.969 7.969h15.937a7.973 7.973 0 0 0 7.969-7.969v-15.937a7.97 7.97 0 0 0-7.969-7.969h-15.937a7.97 7.97 0 0 0-7.969 7.969zm7.969 39.844a7.968 7.968 0 0 0-7.969 7.968v63.75a7.965 7.965 0 0 0 7.969 7.969h15.937a7.973 7.973 0 0 0 7.969-7.969v-63.75c0-2.113-.84-4.14-2.334-5.635a7.972 7.972 0 0 0-5.635-2.333h-15.937z" fill="#fff"/><path d="M132.011 250.823c-.132 1.836-.812 3.282-2.039 4.336-1.218 1.055-2.828 1.582-4.828 1.582-2.187 0-3.91-.734-5.168-2.203-1.25-1.476-1.875-3.5-1.875-6.07v-1.043c0-1.641.289-3.086.867-4.336.579-1.25 1.403-2.207 2.473-2.871 1.078-.672 2.328-1.008 3.75-1.008 1.969 0 3.555.528 4.758 1.582 1.203 1.055 1.898 2.535 2.086 4.442h-3.516c-.086-1.102-.394-1.899-.926-2.391-.523-.5-1.324-.75-2.402-.75-1.172 0-2.051.422-2.637 1.266-.578.836-.875 2.136-.89 3.902v1.289c0 1.844.277 3.191.832 4.043.562.852 1.445 1.277 2.648 1.277 1.086 0 1.895-.246 2.426-.738.539-.5.848-1.269.926-2.309h3.515zm1.559-.773c0-1.258.242-2.379.727-3.363.484-.985 1.179-1.746 2.085-2.285.915-.539 1.973-.809 3.176-.809 1.711 0 3.106.523 4.184 1.57 1.086 1.047 1.691 2.469 1.816 4.266l.024.867c0 1.945-.543 3.508-1.629 4.688-1.086 1.172-2.543 1.757-4.371 1.757-1.828 0-3.289-.585-4.383-1.757-1.086-1.172-1.629-2.766-1.629-4.782v-.152zm3.387.246c0 1.203.226 2.125.679 2.766.454.633 1.102.949 1.946.949.82 0 1.461-.313 1.922-.938.461-.632.691-1.64.691-3.023 0-1.18-.23-2.094-.691-2.742-.461-.649-1.11-.973-1.946-.973-.828 0-1.468.324-1.922.973-.453.64-.679 1.637-.679 2.988zm14.285 6.211h-3.399v-18h3.399v18zm2.273-6.434c0-1.976.442-3.55 1.325-4.722.89-1.172 2.105-1.758 3.644-1.758 1.234 0 2.254.461 3.059 1.383v-6.469h3.398v18h-3.059l-.164-1.348c-.843 1.055-1.929 1.582-3.257 1.582-1.493 0-2.692-.585-3.598-1.757-.898-1.18-1.348-2.817-1.348-4.911zm3.387.247c0 1.187.207 2.097.621 2.73.414.633 1.016.949 1.805.949 1.047 0 1.785-.441 2.215-1.324v-5.004c-.422-.883-1.153-1.324-2.192-1.324-1.633 0-2.449 1.324-2.449 3.973zm15.938 3.691c.625 0 1.132-.172 1.523-.516.391-.343.594-.8.609-1.371h3.176a4.37 4.37 0 0 1-.703 2.367c-.461.711-1.094 1.266-1.898 1.665-.797.39-1.68.585-2.649.585-1.812 0-3.242-.574-4.289-1.722-1.047-1.156-1.57-2.75-1.57-4.781v-.223c0-1.953.519-3.512 1.558-4.676 1.039-1.164 2.465-1.746 4.278-1.746 1.586 0 2.855.453 3.808 1.359.961.899 1.449 2.098 1.465 3.598h-3.176c-.015-.656-.218-1.187-.609-1.594-.391-.414-.906-.621-1.547-.621-.789 0-1.387.289-1.793.867-.398.571-.598 1.5-.598 2.789v.352c0 1.305.2 2.242.598 2.813.399.57 1.004.855 1.817.855zm14.589 2.496c-.156-.305-.269-.684-.339-1.137-.821.914-1.887 1.371-3.2 1.371-1.242 0-2.273-.359-3.093-1.078-.813-.718-1.219-1.625-1.219-2.718 0-1.344.496-2.375 1.488-3.094 1-.719 2.441-1.082 4.324-1.09h1.559v-.727c0-.586-.152-1.054-.457-1.406-.297-.351-.77-.527-1.418-.527-.57 0-1.02.137-1.348.41-.32.273-.48.648-.48 1.125h-3.387c0-.734.227-1.414.68-2.039.453-.625 1.093-1.113 1.922-1.465.828-.359 1.757-.539 2.789-.539 1.562 0 2.8.395 3.715 1.184.921.781 1.382 1.882 1.382 3.304v5.496c.008 1.204.176 2.114.504 2.731v.199h-3.422zm-2.8-2.355c.5 0 .961-.11 1.382-.329.422-.226.735-.527.938-.902v-2.18h-1.266c-1.695 0-2.597.586-2.707 1.758l-.011.199c0 .422.148.77.445 1.043.297.274.703.411 1.219.411zm15.445-7.149a9.29 9.29 0 0 0-1.219-.094c-1.281 0-2.121.434-2.519 1.301v8.297h-3.387v-12.68h3.199l.094 1.512c.68-1.164 1.621-1.746 2.824-1.746.375 0 .727.051 1.055.152l-.047 3.258zm.879 3.07c0-1.976.441-3.55 1.324-4.722.891-1.172 2.105-1.758 3.645-1.758 1.234 0 2.253.461 3.058 1.383v-6.469h3.399v18h-3.059l-.164-1.348c-.844 1.055-1.93 1.582-3.258 1.582-1.492 0-2.691-.585-3.598-1.757-.898-1.18-1.347-2.817-1.347-4.911zm3.387.247c0 1.187.207 2.097.621 2.73.414.633 1.015.949 1.804.949 1.047 0 1.785-.441 2.215-1.324v-5.004c-.422-.883-1.152-1.324-2.191-1.324-1.633 0-2.449 1.324-2.449 3.973z" fill="#fff"/><path d="M381.458 346.122H293v-8.846h88.458v8.846zm-87.308-22.866l12.517-12.517-12.517-12.517 6.236-6.236 12.517 12.516 12.517-12.516 6.236 6.236-12.517 12.517 12.517 12.517-6.236 6.236-12.517-12.517-12.517 12.517-6.236-6.236z" fill="#F7931A"/><path d="M518.997 341.75l-52.5-30.311v60.622l52.5-30.311zM293 347h178.747v-10.5H293V347zm124-94.236a34.877 34.877 0 0 1 10.137-24.576A34.528 34.528 0 0 1 451.591 218c18.991 0 34.591 14.962 34.591 34.233a34.87 34.87 0 0 1-10.138 24.576 34.523 34.523 0 0 1-24.453 10.189c-2.804 0-5.572-.404-8.196-1.083a6.648 6.648 0 0 1-2.014 4.53 6.579 6.579 0 0 1-4.577 1.86h-9.242v9.288c0 3.662-2.958 6.635-6.601 6.635h-9.242v6.634a9.314 9.314 0 0 1-2.707 6.568 9.22 9.22 0 0 1-6.535 2.72h-13.203a9.217 9.217 0 0 1-6.535-2.72 9.314 9.314 0 0 1-2.707-6.568v-11.528c0-3.874 1.532-7.584 4.257-10.318l32.922-33.097a1.465 1.465 0 0 0 .37-1.295 33.991 33.991 0 0 1-.581-5.86zm49.114-8.492a6.652 6.652 0 0 0-1.934-4.691 6.585 6.585 0 0 0-4.667-1.943c-1.751 0-3.43.699-4.668 1.943a6.652 6.652 0 0 0 0 9.382 6.582 6.582 0 0 0 4.668 1.944c1.75 0 3.429-.699 4.667-1.944a6.65 6.65 0 0 0 1.934-4.691z" fill="#F7931A"/><path d="M625.167 226.844V153h111.458c7.412 0 13.375 5.81 13.375 13.031v251.938c0 7.221-5.963 13.031-13.375 13.031h-187.25c-7.412 0-13.375-5.81-13.375-13.031V239.875h75.792c7.356 0 13.375-5.864 13.375-13.031zm89.166-34.75c0-2.4-1.995-4.344-4.458-4.344h-44.583c-2.464 0-4.459 1.944-4.459 4.344v8.687c0 2.4 1.995 4.344 4.459 4.344h44.583c2.463 0 4.458-1.944 4.458-4.344v-8.687zm0 34.75c0-2.4-1.995-4.344-4.458-4.344h-44.583c-2.464 0-4.459 1.944-4.459 4.344v8.687c0 2.4 1.995 4.344 4.459 4.344h44.583c2.463 0 4.458-1.944 4.458-4.344v-8.687zM606.882 361.5h-26.299c-4.926 0-8.916 3.888-8.916 8.688 0 4.799 3.99 8.687 8.916 8.687h26.299c9.167 0 17.426-4.963 21.534-12.955 1.644-3.215 4.508-3.54 5.667-3.54 1.159 0 4.024.32 5.584 3.361l4.275 8.329a8.765 8.765 0 0 0 3.287 3.504 9.085 9.085 0 0 0 4.688 1.296c.211 0 .418-.011.635-.028 3.595-.244 6.687-2.579 7.819-5.913l9.379-27.398 5.913 17.31c3.282 9.589 12.472 16.034 22.849 16.034h6.905c4.926 0 8.916-3.888 8.916-8.687 0-4.8-3.99-8.688-8.916-8.688h-6.905c-2.692 0-5.077-1.672-5.93-4.159l-10.137-29.668c-1.839-5.326-6.933-8.91-12.695-8.91-5.762 0-10.856 3.578-12.69 8.91l-7.735 22.609c-11.017-8.79-30.121-5.267-36.781 7.689-1.126 2.204-3.321 3.529-5.662 3.529zm-66.981-151.488l54.559-53.211c2.508-2.444 5.907-3.801 9.474-3.801h3.399v69.5H536v-3.312c0-3.421 1.393-6.733 3.901-9.176z" fill="#F8F8F8"/><path fill="#F8F8F8" d="M554 289h182v107H554z"/><path d="M639.512 302v-18.34h-3.34v-2.793h3.34v-2.168c0-2.265.605-4.017 1.816-5.254 1.211-1.237 2.923-1.855 5.137-1.855.833 0 1.66.111 2.48.332l-.195 2.93a10.31 10.31 0 0 0-1.953-.176c-1.172 0-2.077.345-2.715 1.035-.638.677-.957 1.654-.957 2.93v2.226h4.512v2.793h-4.512V302h-3.613zm25.176-2.09c-1.407 1.654-3.471 2.481-6.192 2.481-2.253 0-3.971-.651-5.156-1.953-1.172-1.316-1.764-3.256-1.778-5.821v-13.75h3.614v13.653c0 3.203 1.302 4.804 3.906 4.804 2.76 0 4.596-1.028 5.508-3.086v-15.371h3.613V302h-3.437l-.078-2.09zm12.441-19.043l.117 2.656c1.615-2.031 3.724-3.046 6.328-3.046 4.466 0 6.719 2.519 6.758 7.558V302h-3.613v-13.984c-.013-1.524-.365-2.65-1.055-3.379-.677-.729-1.738-1.094-3.184-1.094-1.171 0-2.2.312-3.085.937a6.37 6.37 0 0 0-2.071 2.461V302h-3.613v-21.133h3.418zm17.773 10.391c0-3.242.769-5.847 2.305-7.813 1.536-1.979 3.548-2.968 6.035-2.968 2.474 0 4.434.846 5.879 2.539V272h3.613v30h-3.32l-.176-2.266c-1.445 1.771-3.457 2.657-6.035 2.657-2.448 0-4.446-1.003-5.996-3.008-1.536-2.005-2.305-4.623-2.305-7.852v-.273zm3.614.41c0 2.396.494 4.271 1.484 5.625s2.357 2.031 4.102 2.031c2.291 0 3.964-1.028 5.019-3.086v-9.707c-1.081-1.992-2.741-2.988-4.98-2.988-1.771 0-3.151.684-4.141 2.051-.99 1.367-1.484 3.392-1.484 6.074z" fill="#1D2026"/><rect x="559" y="282" width="46" height="17" rx="4" fill="#1D2026"/><rect x="559" y="341" width="31" height="17" rx="4" fill="#1D2026"/><path fill="url(#a)" d="M0 635h800v18H0z"/><path d="M458.5 644.18c0 32.434-25.994 58.68-58 58.68s-58-26.246-58-58.68c0-32.435 25.994-58.68 58-58.68s58 26.245 58 58.68z" fill="#1D2026" stroke="#F7931A" stroke-width="5"/><path d="M392.348 640.242h4.887c3.07-.047 5.485-.855 7.242-2.426 1.758-1.57 2.637-3.691 2.637-6.363 0-6-2.988-9-8.965-9-2.812 0-5.062.809-6.75 2.426-1.664 1.594-2.496 3.715-2.496 6.363h-6.504c0-4.054 1.477-7.418 4.43-10.09 2.976-2.695 6.75-4.043 11.32-4.043 4.828 0 8.613 1.278 11.356 3.832 2.742 2.555 4.113 6.106 4.113 10.653 0 2.226-.727 4.383-2.18 6.468-1.429 2.086-3.386 3.645-5.871 4.676 2.813.891 4.981 2.367 6.504 4.43 1.547 2.062 2.32 4.582 2.32 7.559 0 4.593-1.5 8.238-4.5 10.933-3 2.695-6.902 4.043-11.707 4.043-4.804 0-8.718-1.301-11.742-3.902-3-2.602-4.5-6.035-4.5-10.301h6.539c0 2.695.879 4.852 2.637 6.469s4.113 2.426 7.066 2.426c3.141 0 5.543-.821 7.207-2.461 1.664-1.641 2.496-3.996 2.496-7.067 0-2.976-.914-5.262-2.742-6.855-1.828-1.594-4.465-2.414-7.91-2.461h-4.887v-5.309z" fill="#F8F8F8" filter="url(#b)"/><defs><filter id="b" x="377.942" y="617.109" width="40.449" height="60.594" filterUnits="userSpaceOnUse" color-interpolation-filters="sRGB"><feFlood flood-opacity="0" result="BackgroundImageFix"/><feColorMatrix in="SourceAlpha" values="0 0 0 0 0 0 0 0 0 0 0 0 0 0 0 0 0 0 127 0" result="hardAlpha"/><feOffset dy="4"/><feGaussianBlur stdDeviation="2"/><feComposite in2="hardAlpha" operator="out"/><feColorMatrix values="0 0 0 0 0 0 0 0 0 0 0 0 0 0 0 0 0 0 0.25 0"/><feBlend in2="BackgroundImageFix" result="effect1_dropShadow"/><feBlend in="SourceGraphic" in2="effect1_dropShadow" result="shape"/></filter><radialGradient id="a" cx="0" cy="0" r="1" gradientUnits="userSpaceOnUse" gradientTransform="matrix(0 9 -400 0 400 644)"><stop stop-color="#F7931A"/><stop offset="1" stop-color="#F7931A" stop-opacity="0"/></radialGradient></defs></svg>