<svg width="800" height="743" viewBox="0 0 800 743" fill="none" xmlns="http://www.w3.org/2000/svg"><path fill="#1D2026" d="M0 0h800v743H0z"/><path stroke="#C4C4C4" stroke-width="2" d="M144.055 336.674l41-119m46.951 276.439l-32-281M408.152 384.47l132-211M359.226 385.634l-145-177m42.793 287.174l69-353"/><path d="M570 454l14.434-25h-28.868L570 454zm0-268l-14.434 25h28.868L570 186zm2.5 245.5v-223h-5v223h5z" fill="#C4C4C4"/><path stroke="#C4C4C4" stroke-width="2" d="M539.139 466.508l-194-329m37.88 240.688l-48-240"/><path d="M189 131.833A44.74 44.74 0 0 0 144.833 176a44.167 44.167 0 0 0 17.667 34.98v.353h.442a42.84 42.84 0 0 0 52.116 0h.442v-.353A44.162 44.162 0 0 0 233.167 176 44.742 44.742 0 0 0 189 131.833zm-17.358 74.775a13.252 13.252 0 0 1 12.941-10.424h8.834a13.25 13.25 0 0 1 12.94 10.424 34.227 34.227 0 0 1-34.715 0zm42.135-5.698a22.076 22.076 0 0 0-20.36-13.559h-8.834a22.075 22.075 0 0 0-12.229 3.703 22.078 22.078 0 0 0-8.132 9.856A35.329 35.329 0 0 1 153.667 176 35.777 35.777 0 0 1 189 140.667 35.777 35.777 0 0 1 224.333 176a35.337 35.337 0 0 1-10.556 24.91z" fill="#F7931A"/><path d="M189 149.5a17.27 17.27 0 0 0-17.667 17.667A17.266 17.266 0 0 0 189 184.833a17.253 17.253 0 0 0 12.613-5.053 17.266 17.266 0 0 0 5.054-12.613A17.276 17.276 0 0 0 189 149.5zm0 26.5a8.427 8.427 0 0 1-6.372-2.461 8.434 8.434 0 0 1-2.461-6.372 8.433 8.433 0 0 1 8.833-8.834 8.444 8.444 0 0 1 8.277 5.387 8.433 8.433 0 0 1 .556 3.447 8.426 8.426 0 0 1-2.461 6.372A8.427 8.427 0 0 1 189 176z" fill="#F7931A"/><path d="M136.101 145h.798C153.524 145 167 158.655 167 175.5S153.524 206 136.899 206h-.798C119.477 206 106 192.345 106 175.5s13.477-30.5 30.101-30.5z" fill="#F8F8F8"/><path d="M136.126 146.936h.748c15.569 0 28.19 12.788 28.19 28.564 0 15.775-12.621 28.563-28.19 28.563h-.748c-15.569 0-28.189-12.788-28.189-28.563 0-15.776 12.62-28.564 28.189-28.564z" fill="#000" fill-opacity=".88"/><path d="M152.956 171.136c.766-4.68-3.138-7.195-8.475-8.874l1.731-6.339-4.229-.961-1.685 6.172c-1.11-.253-2.252-.492-3.386-.728l1.698-6.212-4.225-.962-1.733 6.337c-.92-.191-1.823-.38-2.699-.579l.005-.02-5.83-1.329-1.125 4.121s3.137.656 3.07.697c1.713.39 2.023 1.424 1.97 2.244l-1.972 7.222c.118.027.271.067.44.129l-.446-.102-2.766 10.117c-.209.474-.74 1.187-1.937.916.042.056-3.073-.7-3.073-.7l-2.098 4.418 5.502 1.252c1.024.234 2.027.479 3.013.71l-1.75 6.413 4.223.961 1.734-6.343c1.152.285 2.271.549 3.367.798l-1.726 6.313 4.227.962 1.75-6.399c7.208 1.245 12.63.742 14.909-5.207 1.839-4.792-.09-7.556-3.883-9.36 2.762-.583 4.843-2.242 5.398-5.667h.001zm-9.66 12.362c-1.308 4.792-10.145 2.203-13.012 1.552l2.321-8.494c2.866.653 12.054 1.945 10.692 6.942h-.001zm1.306-12.432c-1.192 4.359-8.548 2.145-10.936 1.602l2.105-7.704c2.387.543 10.074 1.556 8.831 6.102z" fill="#F7931A" fill-opacity=".499"/><path d="M116.324 179.083c0-.392-.044-.492.355-.888A556.034 556.034 0 0 1 127.33 167.9c.79-.743 1.793-1.219 2.663-1.864 2.567-1.905 5.324-3.415 8.254-4.704 2.204-.97 4.413-1.486 6.746-1.953.453-.091.959.051 1.42 0 .472-.053.888-.207 1.331-.355.284-.094.995-.052.799-.444" fill="#000" fill-opacity=".88"/><path d="M116.324 179.083c0-.392-.044-.492.355-.888A556.034 556.034 0 0 1 127.33 167.9c.79-.743 1.793-1.219 2.663-1.864 2.567-1.905 5.324-3.415 8.254-4.704 2.204-.97 4.413-1.486 6.746-1.953.453-.091.959.051 1.42 0 .472-.053.888-.207 1.331-.355.284-.094.995-.052.799-.444" stroke="#000" stroke-opacity=".88" stroke-width=".025"/><path d="M115.614 188.136c-.502 0 .05-.861.178-1.065.549-.879 1.169-1.802 1.864-2.574.58-.645 1.315-1.107 1.952-1.687.726-.659 1.303-1.474 2.042-2.13.921-.819 2.029-1.336 3.018-2.041 1.001-.716 1.899-1.533 2.929-2.219.516-.345 1.064-.657 1.597-.977.625-.375 1.116-1.055 1.864-1.242 1.953-.489 3.93-1.307 5.68-2.308 2.47-1.411 4.882-2.64 7.545-3.639.471-.176.867-.567 1.331-.799 1.504-.752 3.038-1.538 4.615-2.13.948-.355 1.971-.479 2.929-.799.975-.325 1.953-.781 2.929-.976.562-.112 1.354-.1 1.864-.355" fill="#000" fill-opacity=".88"/><path d="M115.614 188.136c-.502 0 .05-.861.178-1.065.549-.879 1.169-1.802 1.864-2.574.58-.645 1.315-1.107 1.952-1.687.726-.659 1.303-1.474 2.042-2.13.921-.819 2.029-1.336 3.018-2.041 1.001-.716 1.899-1.533 2.929-2.219.516-.345 1.064-.657 1.597-.977.625-.375 1.116-1.055 1.864-1.242 1.953-.489 3.93-1.307 5.68-2.308 2.47-1.411 4.882-2.64 7.545-3.639.471-.176.867-.567 1.331-.799 1.504-.752 3.038-1.538 4.615-2.13.948-.355 1.971-.479 2.929-.799.975-.325 1.953-.781 2.929-.976.562-.112 1.354-.1 1.864-.355" stroke="#000" stroke-opacity=".88" stroke-width=".025"/><path d="M124.224 191.066c-.546 0 .18-.633.266-.71.82-.729 1.728-1.345 2.574-2.042.567-.467 1.033-1.047 1.598-1.509 1.623-1.328 3.534-2.537 5.325-3.639a57.449 57.449 0 0 1 7.988-4.083c.963-.4 1.908-.954 2.84-1.42.913-.456 1.915-.606 2.841-.976 1.5-.6 3.027-1.155 4.615-1.42.567-.095 1.098-.523 1.686-.621.85-.142 1.66-.368 2.486-.533.19-.038.822.014.976-.089.226-.15.107-.177.444-.177" fill="#000" fill-opacity=".88"/><path d="M124.224 191.066c-.546 0 .18-.633.266-.71.82-.729 1.728-1.345 2.574-2.042.567-.467 1.033-1.047 1.598-1.509 1.623-1.328 3.534-2.537 5.325-3.639a57.449 57.449 0 0 1 7.988-4.083c.963-.4 1.908-.954 2.84-1.42.913-.456 1.915-.606 2.841-.976 1.5-.6 3.027-1.155 4.615-1.42.567-.095 1.098-.523 1.686-.621.85-.142 1.66-.368 2.486-.533.19-.038.822.014.976-.089.226-.15.107-.177.444-.177" stroke="#000" stroke-opacity=".88" stroke-width=".025"/><path d="M116.324 179.083c0-.392-.044-.492.355-.888A556.034 556.034 0 0 1 127.33 167.9c.79-.743 1.793-1.219 2.663-1.864 2.567-1.905 5.324-3.415 8.254-4.704 2.204-.97 4.413-1.486 6.746-1.953.453-.091.959.051 1.42 0 .472-.053.888-.207 1.331-.355.284-.094.995-.052.799-.444" fill="#fff"/><path d="M116.324 179.083c0-.392-.044-.492.355-.888A556.034 556.034 0 0 1 127.33 167.9c.79-.743 1.793-1.219 2.663-1.864 2.567-1.905 5.324-3.415 8.254-4.704 2.204-.97 4.413-1.486 6.746-1.953.453-.091.959.051 1.42 0 .472-.053.888-.207 1.331-.355.284-.094.995-.052.799-.444" stroke="#fff" stroke-width=".025"/><path d="M115.614 188.136c-.502 0 .05-.861.178-1.065.549-.879 1.169-1.802 1.864-2.574.58-.645 1.315-1.107 1.952-1.687.726-.659 1.303-1.474 2.042-2.13.921-.819 2.029-1.336 3.018-2.041 1.001-.716 1.899-1.533 2.929-2.219.516-.345 1.064-.657 1.597-.977.625-.375 1.116-1.055 1.864-1.242 1.953-.489 3.93-1.307 5.68-2.308 2.47-1.411 4.882-2.64 7.545-3.639.471-.176.867-.567 1.331-.799 1.504-.752 3.038-1.538 4.615-2.13.948-.355 1.971-.479 2.929-.799.975-.325 1.953-.781 2.929-.976.562-.112 1.354-.1 1.864-.355" fill="#fff"/><path d="M115.614 188.136c-.502 0 .05-.861.178-1.065.549-.879 1.169-1.802 1.864-2.574.58-.645 1.315-1.107 1.952-1.687.726-.659 1.303-1.474 2.042-2.13.921-.819 2.029-1.336 3.018-2.041 1.001-.716 1.899-1.533 2.929-2.219.516-.345 1.064-.657 1.597-.977.625-.375 1.116-1.055 1.864-1.242 1.953-.489 3.93-1.307 5.68-2.308 2.47-1.411 4.882-2.64 7.545-3.639.471-.176.867-.567 1.331-.799 1.504-.752 3.038-1.538 4.615-2.13.948-.355 1.971-.479 2.929-.799.975-.325 1.953-.781 2.929-.976.562-.112 1.354-.1 1.864-.355" stroke="#fff" stroke-width=".025"/><path d="M124.224 191.066c-.546 0 .18-.633.266-.71.82-.729 1.728-1.345 2.574-2.042.567-.467 1.033-1.047 1.598-1.509 1.623-1.328 3.534-2.537 5.325-3.639a57.449 57.449 0 0 1 7.988-4.083c.963-.4 1.908-.954 2.84-1.42.913-.456 1.915-.606 2.841-.976 1.5-.6 3.027-1.155 4.615-1.42.567-.095 1.098-.523 1.686-.621.85-.142 1.66-.368 2.486-.533.19-.038.822.014.976-.089.226-.15.107-.177.444-.177" fill="#fff"/><path d="M124.224 191.066c-.546 0 .18-.633.266-.71.82-.729 1.728-1.345 2.574-2.042.567-.467 1.033-1.047 1.598-1.509 1.623-1.328 3.534-2.537 5.325-3.639a57.449 57.449 0 0 1 7.988-4.083c.963-.4 1.908-.954 2.84-1.42.913-.456 1.915-.606 2.841-.976 1.5-.6 3.027-1.155 4.615-1.42.567-.095 1.098-.523 1.686-.621.85-.142 1.66-.368 2.486-.533.19-.038.822.014.976-.089.226-.15.107-.177.444-.177" stroke="#fff" stroke-width=".025"/><path d="M336 54.833A44.74 44.74 0 0 0 291.833 99a44.167 44.167 0 0 0 17.667 34.98v.353h.442a42.84 42.84 0 0 0 52.116 0h.442v-.353A44.162 44.162 0 0 0 380.167 99 44.741 44.741 0 0 0 336 54.833zm-17.358 74.775a13.252 13.252 0 0 1 12.941-10.424h8.834a13.25 13.25 0 0 1 12.94 10.424 34.227 34.227 0 0 1-34.715 0zm42.135-5.698a22.076 22.076 0 0 0-20.36-13.559h-8.834a22.075 22.075 0 0 0-12.229 3.703 22.078 22.078 0 0 0-8.132 9.856A35.329 35.329 0 0 1 300.667 99 35.775 35.775 0 0 1 336 63.667 35.777 35.777 0 0 1 371.333 99a35.337 35.337 0 0 1-10.556 24.91z" fill="#F7931A"/><path d="M336 72.5a17.27 17.27 0 0 0-17.667 17.667 17.265 17.265 0 0 0 10.842 16.432 17.253 17.253 0 0 0 6.825 1.234 17.253 17.253 0 0 0 12.613-5.053 17.265 17.265 0 0 0 5.054-12.613A17.27 17.27 0 0 0 336 72.5zm0 26.5a8.433 8.433 0 0 1-8.833-8.833 8.429 8.429 0 0 1 5.387-8.277 8.433 8.433 0 0 1 3.446-.557 8.433 8.433 0 0 1 8.833 8.834 8.43 8.43 0 0 1-5.387 8.276A8.433 8.433 0 0 1 336 99z" fill="#F7931A"/><path d="M278.101 66h.798C295.524 66 309 79.655 309 96.5S295.524 127 278.899 127h-.798C261.477 127 248 113.345 248 96.5S261.477 66 278.101 66z" fill="#F8F8F8"/><path d="M278.126 67.936h.748c15.569 0 28.19 12.788 28.19 28.563 0 15.776-12.621 28.564-28.19 28.564h-.748c-15.569 0-28.189-12.788-28.189-28.564 0-15.775 12.62-28.563 28.189-28.563z" fill="#000" fill-opacity=".88"/><path d="M294.956 92.136c.766-4.68-3.138-7.195-8.475-8.874l1.731-6.339-4.229-.961-1.685 6.172c-1.11-.253-2.252-.492-3.386-.728l1.698-6.213-4.225-.961-1.733 6.337c-.92-.192-1.823-.38-2.699-.58l.005-.02-5.83-1.328-1.125 4.121s3.137.656 3.07.697c1.713.39 2.023 1.424 1.97 2.244l-1.972 7.222c.118.027.271.067.44.129l-.446-.102-2.766 10.117c-.209.474-.74 1.187-1.937.916.042.056-3.073-.7-3.073-.7l-2.098 4.418 5.502 1.252c1.024.234 2.027.479 3.013.71l-1.75 6.413 4.223.961 1.734-6.343c1.152.285 2.271.549 3.367.798l-1.726 6.313 4.227.962 1.75-6.399c7.208 1.245 12.63.742 14.909-5.207 1.839-4.792-.09-7.556-3.883-9.36 2.762-.583 4.843-2.242 5.398-5.667h.001zm-9.66 12.362c-1.308 4.792-10.145 2.203-13.012 1.552l2.321-8.494c2.866.653 12.054 1.945 10.692 6.942h-.001zm1.306-12.431c-1.192 4.358-8.548 2.144-10.936 1.6l2.105-7.703c2.387.543 10.074 1.556 8.831 6.103z" fill="#F7931A" fill-opacity=".499"/><path d="M258.324 100.083c0-.392-.044-.492.355-.888A555.767 555.767 0 0 1 269.33 88.9c.79-.743 1.793-1.219 2.663-1.864 2.567-1.905 5.324-3.415 8.254-4.704 2.204-.97 4.413-1.486 6.746-1.953.453-.09.959.051 1.42 0 .472-.053.888-.207 1.331-.355.284-.094.995-.052.799-.444" fill="#000" fill-opacity=".88"/><path d="M258.324 100.083c0-.392-.044-.492.355-.888A555.767 555.767 0 0 1 269.33 88.9c.79-.743 1.793-1.219 2.663-1.864 2.567-1.905 5.324-3.415 8.254-4.704 2.204-.97 4.413-1.486 6.746-1.953.453-.09.959.051 1.42 0 .472-.053.888-.207 1.331-.355.284-.094.995-.052.799-.444" stroke="#000" stroke-opacity=".88" stroke-width=".025"/><path d="M257.614 109.136c-.502 0 .05-.861.178-1.065.549-.879 1.169-1.802 1.864-2.574.58-.645 1.315-1.107 1.952-1.687.726-.659 1.303-1.474 2.042-2.13.921-.819 2.029-1.336 3.018-2.042 1.001-.715 1.899-1.532 2.929-2.218.516-.345 1.064-.657 1.597-.977.625-.374 1.116-1.055 1.864-1.242 1.953-.489 3.93-1.307 5.68-2.308 2.47-1.41 4.882-2.64 7.545-3.639.471-.176.867-.567 1.331-.799 1.504-.752 3.038-1.538 4.615-2.13.948-.355 1.971-.48 2.929-.799.975-.325 1.953-.78 2.929-.976.562-.112 1.354-.1 1.864-.355" fill="#000" fill-opacity=".88"/><path d="M257.614 109.136c-.502 0 .05-.861.178-1.065.549-.879 1.169-1.802 1.864-2.574.58-.645 1.315-1.107 1.952-1.687.726-.659 1.303-1.474 2.042-2.13.921-.819 2.029-1.336 3.018-2.042 1.001-.715 1.899-1.532 2.929-2.218.516-.345 1.064-.657 1.597-.977.625-.374 1.116-1.055 1.864-1.242 1.953-.489 3.93-1.307 5.68-2.308 2.47-1.41 4.882-2.64 7.545-3.639.471-.176.867-.567 1.331-.799 1.504-.752 3.038-1.538 4.615-2.13.948-.355 1.971-.48 2.929-.799.975-.325 1.953-.78 2.929-.976.562-.112 1.354-.1 1.864-.355" stroke="#000" stroke-opacity=".88" stroke-width=".025"/><path d="M266.224 112.066c-.546 0 .18-.633.266-.71.82-.729 1.728-1.345 2.574-2.042.567-.467 1.033-1.047 1.598-1.509 1.623-1.328 3.534-2.537 5.325-3.639a57.449 57.449 0 0 1 7.988-4.083c.963-.4 1.908-.954 2.84-1.42.913-.456 1.915-.606 2.841-.976 1.5-.6 3.027-1.155 4.615-1.42.567-.095 1.098-.523 1.686-.621.85-.142 1.66-.368 2.486-.533.19-.038.822.014.976-.089.226-.15.107-.177.444-.177" fill="#000" fill-opacity=".88"/><path d="M266.224 112.066c-.546 0 .18-.633.266-.71.82-.729 1.728-1.345 2.574-2.042.567-.467 1.033-1.047 1.598-1.509 1.623-1.328 3.534-2.537 5.325-3.639a57.449 57.449 0 0 1 7.988-4.083c.963-.4 1.908-.954 2.84-1.42.913-.456 1.915-.606 2.841-.976 1.5-.6 3.027-1.155 4.615-1.42.567-.095 1.098-.523 1.686-.621.85-.142 1.66-.368 2.486-.533.19-.038.822.014.976-.089.226-.15.107-.177.444-.177" stroke="#000" stroke-opacity=".88" stroke-width=".025"/><path d="M258.324 100.083c0-.392-.044-.492.355-.888A555.767 555.767 0 0 1 269.33 88.9c.79-.743 1.793-1.219 2.663-1.864 2.567-1.905 5.324-3.415 8.254-4.704 2.204-.97 4.413-1.486 6.746-1.953.453-.09.959.051 1.42 0 .472-.053.888-.207 1.331-.355.284-.094.995-.052.799-.444" fill="#fff"/><path d="M258.324 100.083c0-.392-.044-.492.355-.888A555.767 555.767 0 0 1 269.33 88.9c.79-.743 1.793-1.219 2.663-1.864 2.567-1.905 5.324-3.415 8.254-4.704 2.204-.97 4.413-1.486 6.746-1.953.453-.09.959.051 1.42 0 .472-.053.888-.207 1.331-.355.284-.094.995-.052.799-.444" stroke="#fff" stroke-width=".025"/><path d="M257.614 109.136c-.502 0 .05-.861.178-1.065.549-.879 1.169-1.802 1.864-2.574.58-.645 1.315-1.107 1.952-1.687.726-.659 1.303-1.474 2.042-2.13.921-.819 2.029-1.336 3.018-2.042 1.001-.715 1.899-1.532 2.929-2.218.516-.345 1.064-.657 1.597-.977.625-.374 1.116-1.055 1.864-1.242 1.953-.489 3.93-1.307 5.68-2.308 2.47-1.41 4.882-2.64 7.545-3.639.471-.176.867-.567 1.331-.799 1.504-.752 3.038-1.538 4.615-2.13.948-.355 1.971-.48 2.929-.799.975-.325 1.953-.78 2.929-.976.562-.112 1.354-.1 1.864-.355" fill="#fff"/><path d="M257.614 109.136c-.502 0 .05-.861.178-1.065.549-.879 1.169-1.802 1.864-2.574.58-.645 1.315-1.107 1.952-1.687.726-.659 1.303-1.474 2.042-2.13.921-.819 2.029-1.336 3.018-2.042 1.001-.715 1.899-1.532 2.929-2.218.516-.345 1.064-.657 1.597-.977.625-.374 1.116-1.055 1.864-1.242 1.953-.489 3.93-1.307 5.68-2.308 2.47-1.41 4.882-2.64 7.545-3.639.471-.176.867-.567 1.331-.799 1.504-.752 3.038-1.538 4.615-2.13.948-.355 1.971-.48 2.929-.799.975-.325 1.953-.78 2.929-.976.562-.112 1.354-.1 1.864-.355" stroke="#fff" stroke-width=".025"/><path d="M266.224 112.066c-.546 0 .18-.633.266-.71.82-.729 1.728-1.345 2.574-2.042.567-.467 1.033-1.047 1.598-1.509 1.623-1.328 3.534-2.537 5.325-3.639a57.449 57.449 0 0 1 7.988-4.083c.963-.4 1.908-.954 2.84-1.42.913-.456 1.915-.606 2.841-.976 1.5-.6 3.027-1.155 4.615-1.42.567-.095 1.098-.523 1.686-.621.85-.142 1.66-.368 2.486-.533.19-.038.822.014.976-.089.226-.15.107-.177.444-.177" fill="#fff"/><path d="M266.224 112.066c-.546 0 .18-.633.266-.71.82-.729 1.728-1.345 2.574-2.042.567-.467 1.033-1.047 1.598-1.509 1.623-1.328 3.534-2.537 5.325-3.639a57.449 57.449 0 0 1 7.988-4.083c.963-.4 1.908-.954 2.84-1.42.913-.456 1.915-.606 2.841-.976 1.5-.6 3.027-1.155 4.615-1.42.567-.095 1.098-.523 1.686-.621.85-.142 1.66-.368 2.486-.533.19-.038.822.014.976-.089.226-.15.107-.177.444-.177" stroke="#fff" stroke-width=".025"/><path d="M570.053 74.158a56.516 56.516 0 0 0-55.79 55.789 55.802 55.802 0 0 0 5.989 24.704 55.807 55.807 0 0 0 16.327 19.482v.446h.558a54.112 54.112 0 0 0 65.831 0h.558v-.446a55.788 55.788 0 0 0 22.316-44.186 56.515 56.515 0 0 0-55.789-55.79zm-21.926 94.451a16.739 16.739 0 0 1 16.347-13.166h11.158a16.735 16.735 0 0 1 16.346 13.166 43.234 43.234 0 0 1-43.851 0zm53.224-7.196a27.898 27.898 0 0 0-25.719-17.128h-11.158a27.9 27.9 0 0 0-25.719 17.128 44.63 44.63 0 0 1-13.334-31.466 45.19 45.19 0 0 1 44.632-44.631 45.19 45.19 0 0 1 44.631 44.631 44.62 44.62 0 0 1-13.333 31.466z" fill="#F7931A"/><path d="M570.052 96.474a21.81 21.81 0 0 0-20.757 13.695 21.807 21.807 0 0 0-1.558 8.62 21.812 21.812 0 0 0 22.315 22.316 21.812 21.812 0 0 0 22.316-22.316 21.805 21.805 0 0 0-13.695-20.757 21.815 21.815 0 0 0-8.621-1.558zm0 33.473a10.65 10.65 0 0 1-11.157-11.158 10.65 10.65 0 0 1 11.157-11.157 10.65 10.65 0 0 1 11.158 11.157 10.65 10.65 0 0 1-11.158 11.158z" fill="#F7931A"/><g clip-path="url(#a)"><path d="M505.022 90.526h1.009c20.999 0 38.022 17.249 38.022 38.527 0 21.277-17.023 38.526-38.022 38.526h-1.009c-20.999 0-38.022-17.249-38.022-38.526 0-21.278 17.023-38.527 38.022-38.527z" fill="#F8F8F8"/><path d="M505.054 92.972h.945c19.665 0 35.607 16.153 35.607 36.08s-15.942 36.08-35.607 36.08h-.945c-19.666 0-35.608-16.153-35.608-36.08s15.942-36.08 35.608-36.08z" fill="#000" fill-opacity=".88"/><path d="M526.313 123.54c.967-5.911-3.964-9.089-10.706-11.209l2.187-8.007-5.341-1.214-2.13 7.796a227.54 227.54 0 0 0-4.276-.919l2.144-7.848-5.337-1.215-2.188 8.005c-1.162-.242-2.303-.48-3.41-.732l.006-.025-7.364-1.678-1.42 5.206s3.961.829 3.878.88c2.162.493 2.555 1.799 2.488 2.835l-2.491 9.122c.149.034.342.084.555.162l-.563-.128-3.493 12.779c-.265.6-.936 1.499-2.447 1.158.053.07-3.882-.885-3.882-.885l-2.651 5.581 6.951 1.581c1.293.296 2.559.605 3.805.897l-2.21 8.1 5.334 1.215 2.19-8.013c1.455.361 2.87.694 4.254 1.008l-2.181 7.975 5.34 1.215 2.21-8.084c9.105 1.573 15.954.939 18.833-6.577 2.322-6.053-.114-9.544-4.905-11.822 3.489-.737 6.117-2.832 6.818-7.159h.002zm-12.202 15.616c-1.652 6.053-12.816 2.782-16.437 1.96l2.933-10.73c3.619.825 15.225 2.458 13.505 8.77h-.001zm1.65-15.704c-1.506 5.506-10.798 2.709-13.815 2.023l2.659-9.731c3.016.685 12.725 1.965 11.156 7.708z" fill="#F7931A" fill-opacity=".499"/><path d="M480.041 133.578c0-.495-.055-.621.449-1.121a699.428 699.428 0 0 1 13.454-13.005c.997-.937 2.264-1.539 3.363-2.354 3.243-2.406 6.726-4.314 10.426-5.942 2.784-1.225 5.574-1.877 8.521-2.467.572-.114 1.212.065 1.794 0 .596-.066 1.121-.262 1.682-.448.357-.12 1.256-.066 1.009-.561" fill="#000" fill-opacity=".88"/><path d="M480.041 133.578c0-.495-.055-.621.449-1.121a699.428 699.428 0 0 1 13.454-13.005c.997-.937 2.264-1.539 3.363-2.354 3.243-2.406 6.726-4.314 10.426-5.942 2.784-1.225 5.574-1.877 8.521-2.467.572-.114 1.212.065 1.794 0 .596-.066 1.121-.262 1.682-.448.357-.12 1.256-.066 1.009-.561" stroke="#000" stroke-opacity=".88" stroke-width=".025"/><path d="M479.145 145.013c-.635 0 .062-1.087.224-1.345.694-1.11 1.477-2.276 2.354-3.251.733-.814 1.661-1.398 2.467-2.13.916-.833 1.646-1.862 2.578-2.691 1.164-1.034 2.564-1.687 3.812-2.579 1.265-.904 2.399-1.935 3.7-2.803.653-.435 1.344-.829 2.018-1.233.789-.473 1.409-1.333 2.354-1.569 2.468-.617 4.964-1.652 7.176-2.916 3.118-1.782 6.165-3.335 9.529-4.596.595-.223 1.096-.716 1.682-1.009 1.899-.95 3.837-1.944 5.83-2.691 1.197-.449 2.489-.605 3.7-1.009 1.23-.41 2.466-.987 3.699-1.233.71-.142 1.711-.127 2.355-.449" fill="#000" fill-opacity=".88"/><path d="M479.145 145.013c-.635 0 .062-1.087.224-1.345.694-1.11 1.477-2.276 2.354-3.251.733-.814 1.661-1.398 2.467-2.13.916-.833 1.646-1.862 2.578-2.691 1.164-1.034 2.564-1.687 3.812-2.579 1.265-.904 2.399-1.935 3.7-2.803.653-.435 1.344-.829 2.018-1.233.789-.473 1.409-1.333 2.354-1.569 2.468-.617 4.964-1.652 7.176-2.916 3.118-1.782 6.165-3.335 9.529-4.596.595-.223 1.096-.716 1.682-1.009 1.899-.95 3.837-1.944 5.83-2.691 1.197-.449 2.489-.605 3.7-1.009 1.23-.41 2.466-.987 3.699-1.233.71-.142 1.711-.127 2.355-.449" stroke="#000" stroke-opacity=".88" stroke-width=".025"/><path d="M490.02 148.714c-.689 0 .227-.799.336-.896 1.036-.921 2.183-1.699 3.251-2.579.717-.59 1.306-1.323 2.019-1.906 2.05-1.677 4.464-3.205 6.726-4.597a72.688 72.688 0 0 1 10.09-5.157c1.216-.506 2.411-1.205 3.588-1.794 1.153-.576 2.419-.765 3.588-1.233 1.895-.758 3.824-1.459 5.83-1.794.716-.119 1.386-.661 2.13-.784 1.073-.179 2.096-.465 3.139-.673.241-.048 1.039.017 1.233-.112.286-.191.135-.224.561-.224" fill="#000" fill-opacity=".88"/><path d="M490.02 148.714c-.689 0 .227-.799.336-.896 1.036-.921 2.183-1.699 3.251-2.579.717-.59 1.306-1.323 2.019-1.906 2.05-1.677 4.464-3.205 6.726-4.597a72.688 72.688 0 0 1 10.09-5.157c1.216-.506 2.411-1.205 3.588-1.794 1.153-.576 2.419-.765 3.588-1.233 1.895-.758 3.824-1.459 5.83-1.794.716-.119 1.386-.661 2.13-.784 1.073-.179 2.096-.465 3.139-.673.241-.048 1.039.017 1.233-.112.286-.191.135-.224.561-.224" stroke="#000" stroke-opacity=".88" stroke-width=".025"/><path d="M480.041 133.578c0-.495-.055-.621.449-1.121a699.428 699.428 0 0 1 13.454-13.005c.997-.937 2.264-1.539 3.363-2.354 3.243-2.406 6.726-4.314 10.426-5.942 2.784-1.225 5.574-1.877 8.521-2.467.572-.114 1.212.065 1.794 0 .596-.066 1.121-.262 1.682-.448.357-.12 1.256-.066 1.009-.561" fill="#fff"/><path d="M480.041 133.578c0-.495-.055-.621.449-1.121a699.428 699.428 0 0 1 13.454-13.005c.997-.937 2.264-1.539 3.363-2.354 3.243-2.406 6.726-4.314 10.426-5.942 2.784-1.225 5.574-1.877 8.521-2.467.572-.114 1.212.065 1.794 0 .596-.066 1.121-.262 1.682-.448.357-.12 1.256-.066 1.009-.561" stroke="#fff" stroke-width=".025"/><path d="M479.145 145.013c-.635 0 .062-1.087.224-1.345.694-1.11 1.477-2.276 2.354-3.251.733-.814 1.661-1.398 2.467-2.13.916-.833 1.646-1.862 2.578-2.691 1.164-1.034 2.564-1.687 3.812-2.579 1.265-.904 2.399-1.935 3.7-2.803.653-.435 1.344-.829 2.018-1.233.789-.473 1.409-1.333 2.354-1.569 2.468-.617 4.964-1.652 7.176-2.916 3.118-1.782 6.165-3.335 9.529-4.596.595-.223 1.096-.716 1.682-1.009 1.899-.95 3.837-1.944 5.83-2.691 1.197-.449 2.489-.605 3.7-1.009 1.23-.41 2.466-.987 3.699-1.233.71-.142 1.711-.127 2.355-.449" fill="#fff"/><path d="M479.145 145.013c-.635 0 .062-1.087.224-1.345.694-1.11 1.477-2.276 2.354-3.251.733-.814 1.661-1.398 2.467-2.13.916-.833 1.646-1.862 2.578-2.691 1.164-1.034 2.564-1.687 3.812-2.579 1.265-.904 2.399-1.935 3.7-2.803.653-.435 1.344-.829 2.018-1.233.789-.473 1.409-1.333 2.354-1.569 2.468-.617 4.964-1.652 7.176-2.916 3.118-1.782 6.165-3.335 9.529-4.596.595-.223 1.096-.716 1.682-1.009 1.899-.95 3.837-1.944 5.83-2.691 1.197-.449 2.489-.605 3.7-1.009 1.23-.41 2.466-.987 3.699-1.233.71-.142 1.711-.127 2.355-.449" stroke="#fff" stroke-width=".025"/><path d="M490.02 148.714c-.689 0 .227-.799.336-.896 1.036-.921 2.183-1.699 3.251-2.579.717-.59 1.306-1.323 2.019-1.906 2.05-1.677 4.464-3.205 6.726-4.597a72.688 72.688 0 0 1 10.09-5.157c1.216-.506 2.411-1.205 3.588-1.794 1.153-.576 2.419-.765 3.588-1.233 1.895-.758 3.824-1.459 5.83-1.794.716-.119 1.386-.661 2.13-.784 1.073-.179 2.096-.465 3.139-.673.241-.048 1.039.017 1.233-.112.286-.191.135-.224.561-.224" fill="#fff"/><path d="M490.02 148.714c-.689 0 .227-.799.336-.896 1.036-.921 2.183-1.699 3.251-2.579.717-.59 1.306-1.323 2.019-1.906 2.05-1.677 4.464-3.205 6.726-4.597a72.688 72.688 0 0 1 10.09-5.157c1.216-.506 2.411-1.205 3.588-1.794 1.153-.576 2.419-.765 3.588-1.233 1.895-.758 3.824-1.459 5.83-1.794.716-.119 1.386-.661 2.13-.784 1.073-.179 2.096-.465 3.139-.673.241-.048 1.039.017 1.233-.112.286-.191.135-.224.561-.224" stroke="#fff" stroke-width=".025"/></g><path d="M136 336.833A44.74 44.74 0 0 0 91.833 381a44.17 44.17 0 0 0 17.667 34.98v.353h.442a42.84 42.84 0 0 0 52.116 0h.442v-.353A44.162 44.162 0 0 0 180.167 381 44.742 44.742 0 0 0 136 336.833zm-17.358 74.774a13.253 13.253 0 0 1 12.941-10.423h8.834a13.25 13.25 0 0 1 12.94 10.423 34.218 34.218 0 0 1-34.715 0zm42.135-5.697a22.076 22.076 0 0 0-20.36-13.559h-8.834a22.075 22.075 0 0 0-12.229 3.703 22.078 22.078 0 0 0-8.132 9.856A35.34 35.34 0 0 1 100.667 381 35.777 35.777 0 0 1 136 345.667 35.777 35.777 0 0 1 171.333 381a35.337 35.337 0 0 1-10.556 24.91z" fill="#F8F8F8"/><path d="M136 354.5a17.27 17.27 0 0 0-17.667 17.667A17.266 17.266 0 0 0 136 389.833a17.253 17.253 0 0 0 12.613-5.053 17.266 17.266 0 0 0 5.054-12.613A17.276 17.276 0 0 0 136 354.5zm0 26.5a8.427 8.427 0 0 1-6.372-2.461 8.434 8.434 0 0 1-2.461-6.372 8.433 8.433 0 0 1 8.833-8.834 8.444 8.444 0 0 1 8.277 5.387 8.433 8.433 0 0 1 .556 3.447 8.426 8.426 0 0 1-2.461 6.372A8.427 8.427 0 0 1 136 381z" fill="#F8F8F8"/><path d="M82.1 348h.8c16.623 0 30.1 13.655 30.1 30.5S99.523 409 82.9 409h-.8C65.478 409 52 395.345 52 378.5S65.477 348 82.1 348z" fill="#F7931A"/><path d="M82.126 349.936h.748c15.569 0 28.19 12.788 28.19 28.564 0 15.775-12.621 28.563-28.19 28.563h-.748c-15.569 0-28.19-12.788-28.19-28.563 0-15.776 12.621-28.564 28.19-28.564z" fill="#000"/><path d="M98.956 374.136c.766-4.68-3.138-7.195-8.475-8.874l1.731-6.339-4.228-.961-1.686 6.172a184.15 184.15 0 0 0-3.386-.728l1.698-6.212-4.225-.962-1.733 6.337a160.24 160.24 0 0 1-2.7-.579l.006-.02-5.83-1.329-1.125 4.121s3.137.656 3.07.697c1.713.39 2.023 1.424 1.97 2.244l-1.972 7.222c.118.027.27.067.44.128l-.446-.101-2.766 10.117c-.21.474-.74 1.187-1.937.916.042.056-3.073-.7-3.073-.7l-2.098 4.418 5.502 1.252c1.024.234 2.026.479 3.013.71l-1.75 6.413 4.223.961 1.734-6.343c1.152.285 2.272.549 3.367.798l-1.726 6.313 4.227.962 1.75-6.399c7.208 1.245 12.63.742 14.91-5.207 1.838-4.792-.091-7.556-3.884-9.36 2.762-.583 4.843-2.242 5.398-5.667h.001zm-9.66 12.362c-1.308 4.792-10.145 2.203-13.012 1.552l2.321-8.494c2.866.653 12.054 1.945 10.692 6.942h-.001zm1.306-12.432c-1.192 4.359-8.548 2.145-10.936 1.602l2.105-7.704c2.387.543 10.074 1.556 8.831 6.102z" fill="#F7931A" fill-opacity=".499"/><path d="M62.324 382.083c0-.392-.044-.492.355-.888A553.98 553.98 0 0 1 73.33 370.9c.79-.743 1.793-1.219 2.663-1.864 2.567-1.905 5.324-3.415 8.254-4.704 2.204-.97 4.413-1.486 6.746-1.953.453-.091.96.051 1.42 0 .472-.053.888-.207 1.331-.355.283-.094.995-.052.799-.444" fill="#000"/><path d="M62.324 382.083c0-.392-.044-.492.355-.888A553.98 553.98 0 0 1 73.33 370.9c.79-.743 1.793-1.219 2.663-1.864 2.567-1.905 5.324-3.415 8.254-4.704 2.204-.97 4.413-1.486 6.746-1.953.453-.091.96.051 1.42 0 .472-.053.888-.207 1.331-.355.283-.094.995-.052.799-.444" stroke="#000" stroke-width=".025"/><path d="M61.614 391.136c-.502 0 .05-.861.178-1.065.55-.879 1.169-1.802 1.864-2.574.58-.645 1.315-1.107 1.953-1.687.725-.659 1.303-1.474 2.04-2.13.922-.819 2.03-1.336 3.019-2.041 1.001-.716 1.899-1.533 2.929-2.219.516-.345 1.064-.657 1.597-.977.625-.375 1.116-1.055 1.864-1.242 1.953-.489 3.93-1.307 5.68-2.308 2.47-1.411 4.882-2.64 7.545-3.639.47-.176.867-.567 1.331-.799 1.504-.752 3.038-1.538 4.615-2.13.948-.355 1.971-.479 2.93-.799.974-.325 1.952-.781 2.928-.976.562-.112 1.354-.1 1.864-.355" fill="#000"/><path d="M61.614 391.136c-.502 0 .05-.861.178-1.065.55-.879 1.169-1.802 1.864-2.574.58-.645 1.315-1.107 1.953-1.687.725-.659 1.303-1.474 2.04-2.13.922-.819 2.03-1.336 3.019-2.041 1.001-.716 1.899-1.533 2.929-2.219.516-.345 1.064-.657 1.597-.977.625-.375 1.116-1.055 1.864-1.242 1.953-.489 3.93-1.307 5.68-2.308 2.47-1.411 4.882-2.64 7.545-3.639.47-.176.867-.567 1.331-.799 1.504-.752 3.038-1.538 4.615-2.13.948-.355 1.971-.479 2.93-.799.974-.325 1.952-.781 2.928-.976.562-.112 1.354-.1 1.864-.355" stroke="#000" stroke-width=".025"/><path d="M70.224 394.066c-.546 0 .18-.633.266-.71.82-.729 1.729-1.345 2.574-2.042.567-.467 1.034-1.047 1.598-1.509 1.623-1.328 3.534-2.537 5.325-3.639a57.46 57.46 0 0 1 7.988-4.082c.963-.401 1.908-.955 2.84-1.421.913-.456 1.915-.606 2.84-.976 1.5-.6 3.028-1.155 4.616-1.42.567-.095 1.098-.523 1.686-.621.85-.142 1.66-.368 2.486-.533.19-.038.822.014.976-.089.226-.15.107-.177.444-.177" fill="#000"/><path d="M70.224 394.066c-.546 0 .18-.633.266-.71.82-.729 1.729-1.345 2.574-2.042.567-.467 1.034-1.047 1.598-1.509 1.623-1.328 3.534-2.537 5.325-3.639a57.46 57.46 0 0 1 7.988-4.082c.963-.401 1.908-.955 2.84-1.421.913-.456 1.915-.606 2.84-.976 1.5-.6 3.028-1.155 4.616-1.42.567-.095 1.098-.523 1.686-.621.85-.142 1.66-.368 2.486-.533.19-.038.822.014.976-.089.226-.15.107-.177.444-.177" stroke="#000" stroke-width=".025"/><path d="M62.324 382.083c0-.392-.044-.492.355-.888A553.98 553.98 0 0 1 73.33 370.9c.79-.743 1.793-1.219 2.663-1.864 2.567-1.905 5.324-3.415 8.254-4.704 2.204-.97 4.413-1.486 6.746-1.953.453-.091.96.051 1.42 0 .472-.053.888-.207 1.331-.355.283-.094.995-.052.799-.444" fill="#fff"/><path d="M62.324 382.083c0-.392-.044-.492.355-.888A553.98 553.98 0 0 1 73.33 370.9c.79-.743 1.793-1.219 2.663-1.864 2.567-1.905 5.324-3.415 8.254-4.704 2.204-.97 4.413-1.486 6.746-1.953.453-.091.96.051 1.42 0 .472-.053.888-.207 1.331-.355.283-.094.995-.052.799-.444" stroke="#fff" stroke-width=".025"/><path d="M61.614 391.136c-.502 0 .05-.861.178-1.065.55-.879 1.169-1.802 1.864-2.574.58-.645 1.315-1.107 1.953-1.687.725-.659 1.303-1.474 2.04-2.13.922-.819 2.03-1.336 3.019-2.041 1.001-.716 1.899-1.533 2.929-2.219.516-.345 1.064-.657 1.597-.977.625-.375 1.116-1.055 1.864-1.242 1.953-.489 3.93-1.307 5.68-2.308 2.47-1.411 4.882-2.64 7.545-3.639.47-.176.867-.567 1.331-.799 1.504-.752 3.038-1.538 4.615-2.13.948-.355 1.971-.479 2.93-.799.974-.325 1.952-.781 2.928-.976.562-.112 1.354-.1 1.864-.355" fill="#fff"/><path d="M61.614 391.136c-.502 0 .05-.861.178-1.065.55-.879 1.169-1.802 1.864-2.574.58-.645 1.315-1.107 1.953-1.687.725-.659 1.303-1.474 2.04-2.13.922-.819 2.03-1.336 3.019-2.041 1.001-.716 1.899-1.533 2.929-2.219.516-.345 1.064-.657 1.597-.977.625-.375 1.116-1.055 1.864-1.242 1.953-.489 3.93-1.307 5.68-2.308 2.47-1.411 4.882-2.64 7.545-3.639.47-.176.867-.567 1.331-.799 1.504-.752 3.038-1.538 4.615-2.13.948-.355 1.971-.479 2.93-.799.974-.325 1.952-.781 2.928-.976.562-.112 1.354-.1 1.864-.355" stroke="#fff" stroke-width=".025"/><path d="M70.224 394.066c-.546 0 .18-.633.266-.71.82-.729 1.729-1.345 2.574-2.042.567-.467 1.034-1.047 1.598-1.509 1.623-1.328 3.534-2.537 5.325-3.639a57.46 57.46 0 0 1 7.988-4.082c.963-.401 1.908-.955 2.84-1.421.913-.456 1.915-.606 2.84-.976 1.5-.6 3.028-1.155 4.616-1.42.567-.095 1.098-.523 1.686-.621.85-.142 1.66-.368 2.486-.533.19-.038.822.014.976-.089.226-.15.107-.177.444-.177" fill="#fff"/><path d="M70.224 394.066c-.546 0 .18-.633.266-.71.82-.729 1.729-1.345 2.574-2.042.567-.467 1.034-1.047 1.598-1.509 1.623-1.328 3.534-2.537 5.325-3.639a57.46 57.46 0 0 1 7.988-4.082c.963-.401 1.908-.955 2.84-1.421.913-.456 1.915-.606 2.84-.976 1.5-.6 3.028-1.155 4.616-1.42.567-.095 1.098-.523 1.686-.621.85-.142 1.66-.368 2.486-.533.19-.038.822.014.976-.089.226-.15.107-.177.444-.177" stroke="#fff" stroke-width=".025"/><path d="M387 374.833A44.74 44.74 0 0 0 342.833 419a44.167 44.167 0 0 0 17.667 34.98v.353h.442a42.84 42.84 0 0 0 52.116 0h.442v-.353A44.162 44.162 0 0 0 431.167 419 44.742 44.742 0 0 0 387 374.833zm-17.358 74.774a13.253 13.253 0 0 1 12.941-10.423h8.834a13.25 13.25 0 0 1 12.94 10.423 34.218 34.218 0 0 1-34.715 0zm42.135-5.697a22.076 22.076 0 0 0-20.36-13.559h-8.834a22.075 22.075 0 0 0-12.229 3.703 22.078 22.078 0 0 0-8.132 9.856A35.34 35.34 0 0 1 351.667 419 35.777 35.777 0 0 1 387 383.667 35.777 35.777 0 0 1 422.333 419a35.337 35.337 0 0 1-10.556 24.91z" fill="#F8F8F8"/><path d="M387 392.5a17.27 17.27 0 0 0-17.667 17.667A17.266 17.266 0 0 0 387 427.833a17.253 17.253 0 0 0 12.613-5.053 17.266 17.266 0 0 0 5.054-12.613A17.276 17.276 0 0 0 387 392.5zm0 26.5a8.427 8.427 0 0 1-6.372-2.461 8.434 8.434 0 0 1-2.461-6.372 8.433 8.433 0 0 1 8.833-8.834 8.444 8.444 0 0 1 8.277 5.387 8.433 8.433 0 0 1 .556 3.447 8.426 8.426 0 0 1-2.461 6.372A8.427 8.427 0 0 1 387 419z" fill="#F8F8F8"/><path d="M333.101 388h.798C350.524 388 364 401.655 364 418.5S350.524 449 333.899 449h-.798C316.477 449 303 435.345 303 418.5s13.477-30.5 30.101-30.5z" fill="#F7931A"/><path d="M333.126 389.936h.748c15.569 0 28.19 12.788 28.19 28.564 0 15.775-12.621 28.563-28.19 28.563h-.748c-15.569 0-28.189-12.788-28.189-28.563 0-15.776 12.62-28.564 28.189-28.564z" fill="#000"/><path d="M349.956 414.136c.766-4.68-3.138-7.195-8.475-8.874l1.731-6.339-4.229-.961-1.685 6.172c-1.11-.253-2.252-.492-3.386-.728l1.698-6.212-4.225-.962-1.733 6.337c-.92-.191-1.823-.381-2.699-.579l.005-.02-5.83-1.329-1.125 4.121s3.137.656 3.07.697c1.713.39 2.023 1.424 1.97 2.244l-1.972 7.222c.118.027.271.067.44.128l-.446-.101-2.766 10.117c-.209.474-.74 1.187-1.937.916.042.056-3.073-.7-3.073-.7l-2.098 4.418 5.502 1.252c1.024.234 2.027.479 3.013.71l-1.75 6.413 4.223.961 1.734-6.343c1.152.285 2.271.549 3.367.798l-1.726 6.313 4.227.962 1.75-6.399c7.208 1.245 12.63.742 14.909-5.207 1.839-4.792-.09-7.556-3.883-9.36 2.762-.583 4.843-2.242 5.398-5.667h.001zm-9.66 12.362c-1.308 4.792-10.145 2.203-13.012 1.552l2.321-8.494c2.866.653 12.054 1.945 10.692 6.942h-.001zm1.306-12.432c-1.192 4.359-8.548 2.145-10.936 1.602l2.105-7.704c2.387.543 10.074 1.556 8.831 6.102z" fill="#F7931A" fill-opacity=".499"/><path d="M313.324 422.083c0-.392-.044-.492.355-.888A556.034 556.034 0 0 1 324.33 410.9c.79-.743 1.793-1.219 2.663-1.864 2.567-1.905 5.324-3.415 8.254-4.704 2.204-.97 4.413-1.486 6.746-1.953.453-.091.959.051 1.42 0 .472-.053.888-.207 1.331-.355.284-.094.995-.052.799-.444" fill="#000"/><path d="M313.324 422.083c0-.392-.044-.492.355-.888A556.034 556.034 0 0 1 324.33 410.9c.79-.743 1.793-1.219 2.663-1.864 2.567-1.905 5.324-3.415 8.254-4.704 2.204-.97 4.413-1.486 6.746-1.953.453-.091.959.051 1.42 0 .472-.053.888-.207 1.331-.355.284-.094.995-.052.799-.444" stroke="#000" stroke-width=".025"/><path d="M312.614 431.136c-.502 0 .05-.861.178-1.065.549-.879 1.169-1.802 1.864-2.574.58-.645 1.315-1.107 1.952-1.687.726-.659 1.303-1.474 2.042-2.13.921-.819 2.029-1.336 3.018-2.041 1.001-.716 1.899-1.533 2.929-2.219.516-.345 1.064-.657 1.597-.977.625-.375 1.116-1.055 1.864-1.242 1.953-.489 3.93-1.307 5.68-2.308 2.47-1.411 4.882-2.64 7.545-3.639.471-.176.867-.567 1.331-.799 1.504-.752 3.038-1.538 4.615-2.13.948-.355 1.971-.479 2.929-.799.975-.325 1.953-.781 2.929-.976.562-.112 1.354-.1 1.864-.355" fill="#000"/><path d="M312.614 431.136c-.502 0 .05-.861.178-1.065.549-.879 1.169-1.802 1.864-2.574.58-.645 1.315-1.107 1.952-1.687.726-.659 1.303-1.474 2.042-2.13.921-.819 2.029-1.336 3.018-2.041 1.001-.716 1.899-1.533 2.929-2.219.516-.345 1.064-.657 1.597-.977.625-.375 1.116-1.055 1.864-1.242 1.953-.489 3.93-1.307 5.68-2.308 2.47-1.411 4.882-2.64 7.545-3.639.471-.176.867-.567 1.331-.799 1.504-.752 3.038-1.538 4.615-2.13.948-.355 1.971-.479 2.929-.799.975-.325 1.953-.781 2.929-.976.562-.112 1.354-.1 1.864-.355" stroke="#000" stroke-width=".025"/><path d="M321.224 434.066c-.546 0 .18-.633.266-.71.82-.729 1.728-1.345 2.574-2.042.567-.467 1.033-1.047 1.598-1.509 1.623-1.328 3.534-2.537 5.325-3.639a57.443 57.443 0 0 1 7.988-4.082c.963-.401 1.908-.955 2.84-1.421.913-.456 1.915-.606 2.841-.976 1.5-.6 3.027-1.155 4.615-1.42.567-.095 1.098-.523 1.686-.621.85-.142 1.66-.368 2.486-.533.19-.038.822.014.976-.089.226-.15.107-.177.444-.177" fill="#000"/><path d="M321.224 434.066c-.546 0 .18-.633.266-.71.82-.729 1.728-1.345 2.574-2.042.567-.467 1.033-1.047 1.598-1.509 1.623-1.328 3.534-2.537 5.325-3.639a57.443 57.443 0 0 1 7.988-4.082c.963-.401 1.908-.955 2.84-1.421.913-.456 1.915-.606 2.841-.976 1.5-.6 3.027-1.155 4.615-1.42.567-.095 1.098-.523 1.686-.621.85-.142 1.66-.368 2.486-.533.19-.038.822.014.976-.089.226-.15.107-.177.444-.177" stroke="#000" stroke-width=".025"/><path d="M313.324 422.083c0-.392-.044-.492.355-.888A556.034 556.034 0 0 1 324.33 410.9c.79-.743 1.793-1.219 2.663-1.864 2.567-1.905 5.324-3.415 8.254-4.704 2.204-.97 4.413-1.486 6.746-1.953.453-.091.959.051 1.42 0 .472-.053.888-.207 1.331-.355.284-.094.995-.052.799-.444" fill="#fff"/><path d="M313.324 422.083c0-.392-.044-.492.355-.888A556.034 556.034 0 0 1 324.33 410.9c.79-.743 1.793-1.219 2.663-1.864 2.567-1.905 5.324-3.415 8.254-4.704 2.204-.97 4.413-1.486 6.746-1.953.453-.091.959.051 1.42 0 .472-.053.888-.207 1.331-.355.284-.094.995-.052.799-.444" stroke="#fff" stroke-width=".025"/><path d="M312.614 431.136c-.502 0 .05-.861.178-1.065.549-.879 1.169-1.802 1.864-2.574.58-.645 1.315-1.107 1.952-1.687.726-.659 1.303-1.474 2.042-2.13.921-.819 2.029-1.336 3.018-2.041 1.001-.716 1.899-1.533 2.929-2.219.516-.345 1.064-.657 1.597-.977.625-.375 1.116-1.055 1.864-1.242 1.953-.489 3.93-1.307 5.68-2.308 2.47-1.411 4.882-2.64 7.545-3.639.471-.176.867-.567 1.331-.799 1.504-.752 3.038-1.538 4.615-2.13.948-.355 1.971-.479 2.929-.799.975-.325 1.953-.781 2.929-.976.562-.112 1.354-.1 1.864-.355" fill="#fff"/><path d="M312.614 431.136c-.502 0 .05-.861.178-1.065.549-.879 1.169-1.802 1.864-2.574.58-.645 1.315-1.107 1.952-1.687.726-.659 1.303-1.474 2.042-2.13.921-.819 2.029-1.336 3.018-2.041 1.001-.716 1.899-1.533 2.929-2.219.516-.345 1.064-.657 1.597-.977.625-.375 1.116-1.055 1.864-1.242 1.953-.489 3.93-1.307 5.68-2.308 2.47-1.411 4.882-2.64 7.545-3.639.471-.176.867-.567 1.331-.799 1.504-.752 3.038-1.538 4.615-2.13.948-.355 1.971-.479 2.929-.799.975-.325 1.953-.781 2.929-.976.562-.112 1.354-.1 1.864-.355" stroke="#fff" stroke-width=".025"/><path d="M321.224 434.066c-.546 0 .18-.633.266-.71.82-.729 1.728-1.345 2.574-2.042.567-.467 1.033-1.047 1.598-1.509 1.623-1.328 3.534-2.537 5.325-3.639a57.443 57.443 0 0 1 7.988-4.082c.963-.401 1.908-.955 2.84-1.421.913-.456 1.915-.606 2.841-.976 1.5-.6 3.027-1.155 4.615-1.42.567-.095 1.098-.523 1.686-.621.85-.142 1.66-.368 2.486-.533.19-.038.822.014.976-.089.226-.15.107-.177.444-.177" fill="#fff"/><path d="M321.224 434.066c-.546 0 .18-.633.266-.71.82-.729 1.728-1.345 2.574-2.042.567-.467 1.033-1.047 1.598-1.509 1.623-1.328 3.534-2.537 5.325-3.639a57.443 57.443 0 0 1 7.988-4.082c.963-.401 1.908-.955 2.84-1.421.913-.456 1.915-.606 2.841-.976 1.5-.6 3.027-1.155 4.615-1.42.567-.095 1.098-.523 1.686-.621.85-.142 1.66-.368 2.486-.533.19-.038.822.014.976-.089.226-.15.107-.177.444-.177" stroke="#fff" stroke-width=".025"/><path d="M239 489.833A44.74 44.74 0 0 0 194.833 534a44.167 44.167 0 0 0 17.667 34.98v.353h.442a42.84 42.84 0 0 0 52.116 0h.442v-.353A44.162 44.162 0 0 0 283.167 534 44.742 44.742 0 0 0 239 489.833zm-17.358 74.774a13.253 13.253 0 0 1 12.941-10.423h8.834a13.25 13.25 0 0 1 12.94 10.423 34.218 34.218 0 0 1-34.715 0zm42.135-5.697a22.076 22.076 0 0 0-20.36-13.559h-8.834a22.075 22.075 0 0 0-12.229 3.703 22.078 22.078 0 0 0-8.132 9.856A35.34 35.34 0 0 1 203.667 534 35.777 35.777 0 0 1 239 498.667 35.777 35.777 0 0 1 274.333 534a35.337 35.337 0 0 1-10.556 24.91z" fill="#F8F8F8"/><path d="M239 507.5a17.27 17.27 0 0 0-17.667 17.667A17.266 17.266 0 0 0 239 542.833a17.253 17.253 0 0 0 12.613-5.053 17.266 17.266 0 0 0 5.054-12.613A17.276 17.276 0 0 0 239 507.5zm0 26.5a8.427 8.427 0 0 1-6.372-2.461 8.434 8.434 0 0 1-2.461-6.372 8.433 8.433 0 0 1 8.833-8.834 8.444 8.444 0 0 1 8.277 5.387 8.433 8.433 0 0 1 .556 3.447 8.426 8.426 0 0 1-2.461 6.372A8.427 8.427 0 0 1 239 534z" fill="#F8F8F8"/><path d="M184.101 500h.798C201.524 500 215 513.655 215 530.5S201.524 561 184.899 561h-.798C167.477 561 154 547.345 154 530.5s13.477-30.5 30.101-30.5z" fill="#F7931A"/><path d="M184.126 501.936h.748c15.569 0 28.19 12.788 28.19 28.564 0 15.775-12.621 28.563-28.19 28.563h-.748c-15.569 0-28.189-12.788-28.189-28.563 0-15.776 12.62-28.564 28.189-28.564z" fill="#000"/><path d="M200.956 526.136c.766-4.68-3.138-7.195-8.475-8.874l1.731-6.339-4.229-.961-1.685 6.172c-1.11-.253-2.252-.492-3.386-.728l1.698-6.212-4.225-.962-1.733 6.337c-.92-.191-1.823-.381-2.699-.579l.005-.02-5.83-1.329-1.125 4.121s3.137.656 3.07.697c1.713.39 2.023 1.424 1.97 2.244l-1.972 7.222c.118.027.271.067.44.128l-.446-.101-2.766 10.117c-.209.474-.74 1.187-1.937.916.042.056-3.073-.7-3.073-.7l-2.098 4.418 5.502 1.252c1.024.234 2.027.479 3.013.71l-1.75 6.413 4.223.961 1.734-6.343c1.152.285 2.271.549 3.367.798l-1.726 6.313 4.227.962 1.75-6.399c7.208 1.245 12.63.742 14.909-5.207 1.839-4.792-.09-7.556-3.883-9.36 2.762-.583 4.843-2.242 5.398-5.667h.001zm-9.66 12.362c-1.308 4.792-10.145 2.203-13.012 1.552l2.321-8.494c2.866.653 12.054 1.945 10.692 6.942h-.001zm1.306-12.432c-1.192 4.359-8.548 2.145-10.936 1.602l2.105-7.704c2.387.543 10.074 1.556 8.831 6.102z" fill="#F7931A" fill-opacity=".499"/><path d="M164.324 534.083c0-.392-.044-.492.355-.888A556.034 556.034 0 0 1 175.33 522.9c.79-.743 1.793-1.219 2.663-1.864 2.567-1.905 5.324-3.415 8.254-4.704 2.204-.97 4.413-1.486 6.746-1.953.453-.091.959.051 1.42 0 .472-.053.888-.207 1.331-.355.284-.094.995-.052.799-.444" fill="#000"/><path d="M164.324 534.083c0-.392-.044-.492.355-.888A556.034 556.034 0 0 1 175.33 522.9c.79-.743 1.793-1.219 2.663-1.864 2.567-1.905 5.324-3.415 8.254-4.704 2.204-.97 4.413-1.486 6.746-1.953.453-.091.959.051 1.42 0 .472-.053.888-.207 1.331-.355.284-.094.995-.052.799-.444" stroke="#000" stroke-width=".025"/><path d="M163.614 543.136c-.502 0 .05-.861.178-1.065.549-.879 1.169-1.802 1.864-2.574.58-.645 1.315-1.107 1.952-1.687.726-.659 1.303-1.474 2.042-2.13.921-.819 2.029-1.336 3.018-2.041 1.001-.716 1.899-1.533 2.929-2.219.516-.345 1.064-.657 1.597-.977.625-.375 1.116-1.055 1.864-1.242 1.953-.489 3.93-1.307 5.68-2.308 2.47-1.411 4.882-2.64 7.545-3.639.471-.176.867-.567 1.331-.799 1.504-.752 3.038-1.538 4.615-2.13.948-.355 1.971-.479 2.929-.799.975-.325 1.953-.781 2.929-.976.562-.112 1.354-.1 1.864-.355" fill="#000"/><path d="M163.614 543.136c-.502 0 .05-.861.178-1.065.549-.879 1.169-1.802 1.864-2.574.58-.645 1.315-1.107 1.952-1.687.726-.659 1.303-1.474 2.042-2.13.921-.819 2.029-1.336 3.018-2.041 1.001-.716 1.899-1.533 2.929-2.219.516-.345 1.064-.657 1.597-.977.625-.375 1.116-1.055 1.864-1.242 1.953-.489 3.93-1.307 5.68-2.308 2.47-1.411 4.882-2.64 7.545-3.639.471-.176.867-.567 1.331-.799 1.504-.752 3.038-1.538 4.615-2.13.948-.355 1.971-.479 2.929-.799.975-.325 1.953-.781 2.929-.976.562-.112 1.354-.1 1.864-.355" stroke="#000" stroke-width=".025"/><path d="M172.224 546.066c-.546 0 .18-.633.266-.71.82-.729 1.728-1.345 2.574-2.042.567-.467 1.033-1.047 1.598-1.509 1.623-1.328 3.534-2.537 5.325-3.639a57.443 57.443 0 0 1 7.988-4.082c.963-.401 1.908-.955 2.84-1.421.913-.456 1.915-.606 2.841-.976 1.5-.6 3.027-1.155 4.615-1.42.567-.095 1.098-.523 1.686-.621.85-.142 1.66-.368 2.486-.533.19-.038.822.014.976-.089.226-.15.107-.177.444-.177" fill="#000"/><path d="M172.224 546.066c-.546 0 .18-.633.266-.71.82-.729 1.728-1.345 2.574-2.042.567-.467 1.033-1.047 1.598-1.509 1.623-1.328 3.534-2.537 5.325-3.639a57.443 57.443 0 0 1 7.988-4.082c.963-.401 1.908-.955 2.84-1.421.913-.456 1.915-.606 2.841-.976 1.5-.6 3.027-1.155 4.615-1.42.567-.095 1.098-.523 1.686-.621.85-.142 1.66-.368 2.486-.533.19-.038.822.014.976-.089.226-.15.107-.177.444-.177" stroke="#000" stroke-width=".025"/><path d="M164.324 534.083c0-.392-.044-.492.355-.888A556.034 556.034 0 0 1 175.33 522.9c.79-.743 1.793-1.219 2.663-1.864 2.567-1.905 5.324-3.415 8.254-4.704 2.204-.97 4.413-1.486 6.746-1.953.453-.091.959.051 1.42 0 .472-.053.888-.207 1.331-.355.284-.094.995-.052.799-.444" fill="#fff"/><path d="M164.324 534.083c0-.392-.044-.492.355-.888A556.034 556.034 0 0 1 175.33 522.9c.79-.743 1.793-1.219 2.663-1.864 2.567-1.905 5.324-3.415 8.254-4.704 2.204-.97 4.413-1.486 6.746-1.953.453-.091.959.051 1.42 0 .472-.053.888-.207 1.331-.355.284-.094.995-.052.799-.444" stroke="#fff" stroke-width=".025"/><path d="M163.614 543.136c-.502 0 .05-.861.178-1.065.549-.879 1.169-1.802 1.864-2.574.58-.645 1.315-1.107 1.952-1.687.726-.659 1.303-1.474 2.042-2.13.921-.819 2.029-1.336 3.018-2.041 1.001-.716 1.899-1.533 2.929-2.219.516-.345 1.064-.657 1.597-.977.625-.375 1.116-1.055 1.864-1.242 1.953-.489 3.93-1.307 5.68-2.308 2.47-1.411 4.882-2.64 7.545-3.639.471-.176.867-.567 1.331-.799 1.504-.752 3.038-1.538 4.615-2.13.948-.355 1.971-.479 2.929-.799.975-.325 1.953-.781 2.929-.976.562-.112 1.354-.1 1.864-.355" fill="#fff"/><path d="M163.614 543.136c-.502 0 .05-.861.178-1.065.549-.879 1.169-1.802 1.864-2.574.58-.645 1.315-1.107 1.952-1.687.726-.659 1.303-1.474 2.042-2.13.921-.819 2.029-1.336 3.018-2.041 1.001-.716 1.899-1.533 2.929-2.219.516-.345 1.064-.657 1.597-.977.625-.375 1.116-1.055 1.864-1.242 1.953-.489 3.93-1.307 5.68-2.308 2.47-1.411 4.882-2.64 7.545-3.639.471-.176.867-.567 1.331-.799 1.504-.752 3.038-1.538 4.615-2.13.948-.355 1.971-.479 2.929-.799.975-.325 1.953-.781 2.929-.976.562-.112 1.354-.1 1.864-.355" stroke="#fff" stroke-width=".025"/><path d="M172.224 546.066c-.546 0 .18-.633.266-.71.82-.729 1.728-1.345 2.574-2.042.567-.467 1.033-1.047 1.598-1.509 1.623-1.328 3.534-2.537 5.325-3.639a57.443 57.443 0 0 1 7.988-4.082c.963-.401 1.908-.955 2.84-1.421.913-.456 1.915-.606 2.841-.976 1.5-.6 3.027-1.155 4.615-1.42.567-.095 1.098-.523 1.686-.621.85-.142 1.66-.368 2.486-.533.19-.038.822.014.976-.089.226-.15.107-.177.444-.177" fill="#fff"/><path d="M172.224 546.066c-.546 0 .18-.633.266-.71.82-.729 1.728-1.345 2.574-2.042.567-.467 1.033-1.047 1.598-1.509 1.623-1.328 3.534-2.537 5.325-3.639a57.443 57.443 0 0 1 7.988-4.082c.963-.401 1.908-.955 2.84-1.421.913-.456 1.915-.606 2.841-.976 1.5-.6 3.027-1.155 4.615-1.42.567-.095 1.098-.523 1.686-.621.85-.142 1.66-.368 2.486-.533.19-.038.822.014.976-.089.226-.15.107-.177.444-.177" stroke="#fff" stroke-width=".025"/><path d="M570.053 453.947a56.513 56.513 0 0 0-55.79 55.79 55.789 55.789 0 0 0 22.316 44.185v.446h.558a54.113 54.113 0 0 0 65.831 0h.558v-.446a55.789 55.789 0 0 0 22.316-44.185 56.514 56.514 0 0 0-55.789-55.79zm-21.926 94.452a16.741 16.741 0 0 1 16.347-13.166h11.158a16.734 16.734 0 0 1 16.346 13.166 43.233 43.233 0 0 1-43.851 0zm53.224-7.197a27.902 27.902 0 0 0-25.719-17.127h-11.158a27.891 27.891 0 0 0-25.719 17.127 44.63 44.63 0 0 1-13.334-31.465 45.188 45.188 0 0 1 44.632-44.632 45.19 45.19 0 0 1 44.631 44.632 44.643 44.643 0 0 1-13.333 31.465z" fill="#F8F8F8"/><path d="M570.052 476.263a21.808 21.808 0 0 0-15.932 6.383 21.818 21.818 0 0 0-6.383 15.933 21.807 21.807 0 0 0 13.695 20.757 21.826 21.826 0 0 0 8.62 1.559 21.831 21.831 0 0 0 15.933-6.383 21.807 21.807 0 0 0 6.383-15.933 21.816 21.816 0 0 0-6.383-15.933 21.815 21.815 0 0 0-15.933-6.383zm0 33.474a10.656 10.656 0 0 1-11.157-11.158 10.64 10.64 0 0 1 .703-4.353 10.653 10.653 0 0 1 10.454-6.805 10.658 10.658 0 0 1 11.158 11.158 10.64 10.64 0 0 1-.703 4.353 10.642 10.642 0 0 1-6.101 6.102 10.658 10.658 0 0 1-4.354.703z" fill="#F8F8F8"/><g clip-path="url(#b)"><path d="M505.022 473h1.009c20.999 0 38.022 17.249 38.022 38.526 0 21.278-17.023 38.527-38.022 38.527h-1.009c-20.999 0-38.022-17.249-38.022-38.527C467 490.249 484.023 473 505.022 473z" fill="#F7931A"/><path d="M505.054 475.445h.945c19.665 0 35.607 16.154 35.607 36.081 0 19.926-15.942 36.08-35.607 36.08h-.945c-19.666 0-35.608-16.154-35.608-36.08 0-19.927 15.942-36.081 35.608-36.081z" fill="#000"/><path d="M526.313 506.014c.967-5.911-3.963-9.089-10.706-11.209l2.188-8.007-5.342-1.215-2.129 7.796c-1.402-.319-2.844-.62-4.277-.919l2.144-7.847-5.336-1.215-2.189 8.005a201.371 201.371 0 0 1-3.41-.732l.006-.025-7.364-1.678-1.42 5.206s3.962.828 3.878.88c2.163.492 2.555 1.799 2.488 2.834l-2.491 9.122c.149.035.342.085.555.163l-.563-.128-3.493 12.779c-.265.599-.935 1.499-2.447 1.157.053.071-3.882-.884-3.882-.884l-2.65 5.581 6.95 1.581c1.293.296 2.56.605 3.805.897l-2.21 8.1 5.334 1.215 2.19-8.013c1.456.361 2.87.694 4.254 1.008l-2.181 7.975 5.34 1.215 2.21-8.084c9.105 1.573 15.954.938 18.833-6.577 2.322-6.053-.114-9.544-4.905-11.822 3.489-.738 6.117-2.832 6.818-7.159h.002zm-12.202 15.616c-1.652 6.052-12.815 2.782-16.436 1.96l2.932-10.73c3.62.825 15.225 2.458 13.505 8.77h-.001zm1.65-15.704c-1.506 5.506-10.798 2.708-13.814 2.023l2.658-9.732c3.016.686 12.726 1.966 11.156 7.709z" fill="#F7931A" fill-opacity=".499"/><path d="M480.041 516.052c0-.495-.055-.621.449-1.121a693.453 693.453 0 0 1 13.454-13.005c.997-.938 2.264-1.539 3.363-2.355 3.243-2.406 6.726-4.313 10.426-5.942 2.784-1.225 5.574-1.877 8.521-2.466.572-.115 1.212.065 1.794 0 .596-.066 1.121-.262 1.682-.449.357-.119 1.256-.065 1.009-.56" fill="#000"/><path d="M480.041 516.052c0-.495-.055-.621.449-1.121a693.453 693.453 0 0 1 13.454-13.005c.997-.938 2.264-1.539 3.363-2.355 3.243-2.406 6.726-4.313 10.426-5.942 2.784-1.225 5.574-1.877 8.521-2.466.572-.115 1.212.065 1.794 0 .596-.066 1.121-.262 1.682-.449.357-.119 1.256-.065 1.009-.56" stroke="#000" stroke-width=".025"/><path d="M479.145 527.487c-.635 0 .062-1.087.224-1.345.694-1.11 1.477-2.276 2.354-3.252.733-.813 1.661-1.398 2.467-2.13.916-.833 1.646-1.861 2.578-2.69 1.164-1.035 2.564-1.687 3.812-2.579 1.265-.904 2.399-1.936 3.7-2.803.653-.435 1.344-.829 2.018-1.233.789-.474 1.409-1.334 2.354-1.57 2.468-.617 4.964-1.651 7.176-2.915 3.118-1.782 6.165-3.335 9.529-4.596.595-.223 1.096-.717 1.682-1.009 1.899-.95 3.837-1.944 5.83-2.691 1.197-.449 2.489-.606 3.7-1.009 1.23-.41 2.466-.987 3.699-1.233.71-.142 1.711-.127 2.355-.449" fill="#000"/><path d="M479.145 527.487c-.635 0 .062-1.087.224-1.345.694-1.11 1.477-2.276 2.354-3.252.733-.813 1.661-1.398 2.467-2.13.916-.833 1.646-1.861 2.578-2.69 1.164-1.035 2.564-1.687 3.812-2.579 1.265-.904 2.399-1.936 3.7-2.803.653-.435 1.344-.829 2.018-1.233.789-.474 1.409-1.334 2.354-1.57 2.468-.617 4.964-1.651 7.176-2.915 3.118-1.782 6.165-3.335 9.529-4.596.595-.223 1.096-.717 1.682-1.009 1.899-.95 3.837-1.944 5.83-2.691 1.197-.449 2.489-.606 3.7-1.009 1.23-.41 2.466-.987 3.699-1.233.71-.142 1.711-.127 2.355-.449" stroke="#000" stroke-width=".025"/><path d="M490.02 531.188c-.689 0 .227-.8.336-.897 1.036-.92 2.183-1.699 3.251-2.578.717-.59 1.306-1.323 2.019-1.906 2.05-1.678 4.464-3.205 6.726-4.597a72.688 72.688 0 0 1 10.09-5.157c1.216-.507 2.411-1.205 3.588-1.794 1.153-.577 2.419-.766 3.588-1.233 1.895-.758 3.824-1.46 5.83-1.794.716-.12 1.386-.661 2.13-.785 1.073-.179 2.096-.464 3.139-.673.241-.048 1.039.018 1.233-.112.286-.19.135-.224.561-.224" fill="#000"/><path d="M490.02 531.188c-.689 0 .227-.8.336-.897 1.036-.92 2.183-1.699 3.251-2.578.717-.59 1.306-1.323 2.019-1.906 2.05-1.678 4.464-3.205 6.726-4.597a72.688 72.688 0 0 1 10.09-5.157c1.216-.507 2.411-1.205 3.588-1.794 1.153-.577 2.419-.766 3.588-1.233 1.895-.758 3.824-1.46 5.83-1.794.716-.12 1.386-.661 2.13-.785 1.073-.179 2.096-.464 3.139-.673.241-.048 1.039.018 1.233-.112.286-.19.135-.224.561-.224" stroke="#000" stroke-width=".025"/><path d="M480.041 516.052c0-.495-.055-.621.449-1.121a693.453 693.453 0 0 1 13.454-13.005c.997-.938 2.264-1.539 3.363-2.355 3.243-2.406 6.726-4.313 10.426-5.942 2.784-1.225 5.574-1.877 8.521-2.466.572-.115 1.212.065 1.794 0 .596-.066 1.121-.262 1.682-.449.357-.119 1.256-.065 1.009-.56" fill="#fff"/><path d="M480.041 516.052c0-.495-.055-.621.449-1.121a693.453 693.453 0 0 1 13.454-13.005c.997-.938 2.264-1.539 3.363-2.355 3.243-2.406 6.726-4.313 10.426-5.942 2.784-1.225 5.574-1.877 8.521-2.466.572-.115 1.212.065 1.794 0 .596-.066 1.121-.262 1.682-.449.357-.119 1.256-.065 1.009-.56" stroke="#fff" stroke-width=".025"/><path d="M479.145 527.487c-.635 0 .062-1.087.224-1.345.694-1.11 1.477-2.276 2.354-3.252.733-.813 1.661-1.398 2.467-2.13.916-.833 1.646-1.861 2.578-2.69 1.164-1.035 2.564-1.687 3.812-2.579 1.265-.904 2.399-1.936 3.7-2.803.653-.435 1.344-.829 2.018-1.233.789-.474 1.409-1.334 2.354-1.57 2.468-.617 4.964-1.651 7.176-2.915 3.118-1.782 6.165-3.335 9.529-4.596.595-.223 1.096-.717 1.682-1.009 1.899-.95 3.837-1.944 5.83-2.691 1.197-.449 2.489-.606 3.7-1.009 1.23-.41 2.466-.987 3.699-1.233.71-.142 1.711-.127 2.355-.449" fill="#fff"/><path d="M479.145 527.487c-.635 0 .062-1.087.224-1.345.694-1.11 1.477-2.276 2.354-3.252.733-.813 1.661-1.398 2.467-2.13.916-.833 1.646-1.861 2.578-2.69 1.164-1.035 2.564-1.687 3.812-2.579 1.265-.904 2.399-1.936 3.7-2.803.653-.435 1.344-.829 2.018-1.233.789-.474 1.409-1.334 2.354-1.57 2.468-.617 4.964-1.651 7.176-2.915 3.118-1.782 6.165-3.335 9.529-4.596.595-.223 1.096-.717 1.682-1.009 1.899-.95 3.837-1.944 5.83-2.691 1.197-.449 2.489-.606 3.7-1.009 1.23-.41 2.466-.987 3.699-1.233.71-.142 1.711-.127 2.355-.449" stroke="#fff" stroke-width=".025"/><path d="M490.02 531.188c-.689 0 .227-.8.336-.897 1.036-.92 2.183-1.699 3.251-2.578.717-.59 1.306-1.323 2.019-1.906 2.05-1.678 4.464-3.205 6.726-4.597a72.688 72.688 0 0 1 10.09-5.157c1.216-.507 2.411-1.205 3.588-1.794 1.153-.577 2.419-.766 3.588-1.233 1.895-.758 3.824-1.46 5.83-1.794.716-.12 1.386-.661 2.13-.785 1.073-.179 2.096-.464 3.139-.673.241-.048 1.039.018 1.233-.112.286-.19.135-.224.561-.224" fill="#fff"/><path d="M490.02 531.188c-.689 0 .227-.8.336-.897 1.036-.92 2.183-1.699 3.251-2.578.717-.59 1.306-1.323 2.019-1.906 2.05-1.678 4.464-3.205 6.726-4.597a72.688 72.688 0 0 1 10.09-5.157c1.216-.507 2.411-1.205 3.588-1.794 1.153-.577 2.419-.766 3.588-1.233 1.895-.758 3.824-1.46 5.83-1.794.716-.12 1.386-.661 2.13-.785 1.073-.179 2.096-.464 3.139-.673.241-.048 1.039.018 1.233-.112.286-.19.135-.224.561-.224" stroke="#fff" stroke-width=".025"/></g><path fill="url(#c)" d="M0 635h800v18H0z"/><path d="M458.5 644.18c0 32.434-25.994 58.68-58 58.68s-58-26.246-58-58.68c0-32.435 25.994-58.68 58-58.68s58 26.245 58 58.68z" fill="#1D2026" stroke="#F7931A" stroke-width="5"/><path d="M392.348 640.242h4.887c3.07-.047 5.485-.855 7.242-2.426 1.758-1.57 2.637-3.691 2.637-6.363 0-6-2.988-9-8.965-9-2.812 0-5.062.809-6.75 2.426-1.664 1.594-2.496 3.715-2.496 6.363h-6.504c0-4.054 1.477-7.418 4.43-10.09 2.976-2.695 6.75-4.043 11.32-4.043 4.828 0 8.613 1.278 11.356 3.832 2.742 2.555 4.113 6.106 4.113 10.653 0 2.226-.727 4.383-2.18 6.468-1.429 2.086-3.386 3.645-5.871 4.676 2.813.891 4.981 2.367 6.504 4.43 1.547 2.062 2.32 4.582 2.32 7.559 0 4.593-1.5 8.238-4.5 10.933-3 2.695-6.902 4.043-11.707 4.043-4.804 0-8.718-1.301-11.742-3.902-3-2.602-4.5-6.035-4.5-10.301h6.539c0 2.695.879 4.852 2.637 6.469s4.113 2.426 7.066 2.426c3.141 0 5.543-.821 7.207-2.461 1.664-1.641 2.496-3.996 2.496-7.067 0-2.976-.914-5.262-2.742-6.855-1.828-1.594-4.465-2.414-7.91-2.461h-4.887v-5.309z" fill="#F8F8F8" filter="url(#d)"/><path d="M658.25 280.25V242h57.812c3.845 0 6.938 3.009 6.938 6.75v130.5c0 3.741-3.093 6.75-6.938 6.75h-97.124c-3.845 0-6.938-3.009-6.938-6.75V287h39.312c3.816 0 6.938-3.038 6.938-6.75zm46.25-18c0-1.243-1.035-2.25-2.312-2.25h-23.126c-1.277 0-2.312 1.007-2.312 2.25v4.5c0 1.243 1.035 2.25 2.312 2.25h23.126c1.277 0 2.312-1.007 2.312-2.25v-4.5zm0 18c0-1.243-1.035-2.25-2.312-2.25h-23.126c-1.277 0-2.312 1.007-2.312 2.25v4.5c0 1.243 1.035 2.25 2.312 2.25h23.126c1.277 0 2.312-1.007 2.312-2.25v-4.5zM648.766 350h-13.641c-2.555 0-4.625 2.014-4.625 4.5s2.07 4.5 4.625 4.5h13.641c4.755 0 9.039-2.571 11.169-6.711.853-1.665 2.339-1.833 2.94-1.833s2.087.166 2.896 1.741l2.218 4.314a4.537 4.537 0 0 0 1.705 1.815 4.71 4.71 0 0 0 2.761.657c1.864-.126 3.468-1.336 4.055-3.063l4.865-14.192 3.067 8.967c1.703 4.967 6.469 8.305 11.852 8.305h3.581c2.555 0 4.625-2.014 4.625-4.5s-2.07-4.5-4.625-4.5h-3.581c-1.397 0-2.634-.866-3.076-2.154l-5.258-15.368c-.954-2.759-3.596-4.615-6.585-4.615s-5.631 1.853-6.582 4.615l-4.012 11.711c-5.715-4.553-15.624-2.728-19.078 3.983-.584 1.142-1.723 1.828-2.937 1.828zm-34.743-78.469l28.3-27.562c1.3-1.266 3.064-1.969 4.914-1.969H649v36h-37v-1.716a6.64 6.64 0 0 1 2.023-4.753z" fill="#F8F8F8"/><path fill="#F8F8F8" d="M621.336 312.446h94.402v55.425h-94.402z"/><rect x="623.93" y="339.381" width="16.079" height="8.806" rx="4" fill="#1D2026"/><rect x="623.93" y="307.784" width="23.86" height="8.806" rx="4" fill="#1D2026"/><path d="M654.627 423.755a13.8 13.8 0 0 1 4.011-9.724 13.659 13.659 0 0 1 9.675-4.031c7.514 0 13.687 5.92 13.687 13.545a13.8 13.8 0 0 1-4.011 9.724 13.66 13.66 0 0 1-9.676 4.031c-1.109 0-2.204-.16-3.243-.428a2.627 2.627 0 0 1-.796 1.792 2.607 2.607 0 0 1-1.811.736h-3.657v3.675a2.62 2.62 0 0 1-2.612 2.625h-3.657v2.625c0 .975-.385 1.909-1.071 2.599a3.646 3.646 0 0 1-2.585 1.076h-5.224c-.97 0-1.9-.387-2.586-1.076a3.685 3.685 0 0 1-1.071-2.599v-4.561c0-1.533.606-3.001 1.684-4.083l13.026-13.095a.585.585 0 0 0 .147-.513 13.352 13.352 0 0 1-.23-2.318zm19.433-3.36a2.63 2.63 0 0 0-.765-1.856 2.607 2.607 0 0 0-3.694 0 2.63 2.63 0 0 0 0 3.712 2.607 2.607 0 0 0 3.694 0 2.63 2.63 0 0 0 .765-1.856z" fill="#fff"/><path d="M661.279 194.427a13.47 13.47 0 0 1 3.915-9.492 13.336 13.336 0 0 1 9.445-3.935c7.335 0 13.361 5.779 13.361 13.222a13.467 13.467 0 0 1-3.916 9.493 13.336 13.336 0 0 1-9.445 3.935c-1.083 0-2.152-.156-3.165-.418a2.573 2.573 0 0 1-.778 1.75 2.547 2.547 0 0 1-1.768.718h-3.57v3.587a2.557 2.557 0 0 1-2.55 2.563h-3.569v2.562c0 .952-.376 1.864-1.046 2.537a3.559 3.559 0 0 1-2.524 1.051h-5.099a3.559 3.559 0 0 1-2.524-1.051 3.595 3.595 0 0 1-1.046-2.537v-4.452c0-1.497.592-2.93 1.644-3.985l12.716-12.784a.559.559 0 0 0 .143-.5 13.13 13.13 0 0 1-.224-2.264zm18.97-3.28c0-.679-.269-1.331-.747-1.811a2.542 2.542 0 0 0-3.606 0 2.568 2.568 0 0 0 0 3.623 2.542 2.542 0 0 0 3.606 0c.478-.48.747-1.132.747-1.812z" fill="#F7931A"/><defs><filter id="d" x="377.942" y="617.109" width="40.449" height="60.594" filterUnits="userSpaceOnUse" color-interpolation-filters="sRGB"><feFlood flood-opacity="0" result="BackgroundImageFix"/><feColorMatrix in="SourceAlpha" values="0 0 0 0 0 0 0 0 0 0 0 0 0 0 0 0 0 0 127 0" result="hardAlpha"/><feOffset dy="4"/><feGaussianBlur stdDeviation="2"/><feComposite in2="hardAlpha" operator="out"/><feColorMatrix values="0 0 0 0 0 0 0 0 0 0 0 0 0 0 0 0 0 0 0.25 0"/><feBlend in2="BackgroundImageFix" result="effect1_dropShadow_8_1124"/><feBlend in="SourceGraphic" in2="effect1_dropShadow_8_1124" result="shape"/></filter><radialGradient id="c" cx="0" cy="0" r="1" gradientUnits="userSpaceOnUse" gradientTransform="matrix(0 9 -400 0 400 644)"><stop stop-color="#F7931A"/><stop offset="1" stop-color="#F7931A" stop-opacity="0"/></radialGradient><clipPath id="a"><path fill="#fff" transform="translate(467 90.526)" d="M0 0h77.053v77.053H0z"/></clipPath><clipPath id="b"><path fill="#fff" transform="translate(467 473)" d="M0 0h77.053v77.053H0z"/></clipPath></defs></svg>