<svg xmlns="http://www.w3.org/2000/svg" xmlns:vectornator="http://vectornator.io" viewBox="0 0 857 610.35" clip-rule="evenodd" stroke-linecap="round" stroke-linejoin="round"><defs><radialGradient cx="633.79" r="100.413" id="a" gradientUnits="userSpaceOnUse" cy="368.803"><stop stop-color="#c9e5ff" offset="0"/><stop stop-color="#363636" offset=".947"/></radialGradient><linearGradient y1="94.996" id="b" x1="658.952" y2="94.996" x2="808.932" gradientUnits="userSpaceOnUse" gradientTransform="rotate(-37.224 733.941 94.996)"><stop stop-color="#01509b" offset=".004"/><stop stop-color="#53abfd" offset=".998"/></linearGradient></defs><path vectornator:shadowColor="#000000" vectornator:shadowOpacity=".604" vectornator:shadowRadius="11.744" d="M-.201.696h841.146V595.7H-.201V.696z" vectornator:shadowOffset="19.496" vectornator:shadowAngle=".878" vectornator:layerName="Black BG for test" visibility="hidden"/><g vectornator:layerName="feature1" visibility="hidden"><path stroke="#fff" stroke-width="6.825" d="M149.954 113.318H677.13c12.169 0 22.033 9.865 22.033 22.033V504.71c0 12.168-9.864 22.033-22.033 22.033H149.954c-12.169 0-22.033-9.865-22.033-22.033V135.351c0-12.168 9.864-22.033 22.033-22.033z" fill="#fff" stroke-linecap="butt" fill-opacity="0"/><path stroke="#fff" stroke-width="2.724" d="M127.837 208.395h574.054m-533.998-63.561h403.739c2.876 0 5.207 2.125 5.207 4.747v17.42c0 2.622-2.331 4.747-5.207 4.747H167.893c-2.875 0-5.206-2.125-5.206-4.747v-17.42c0-2.622 2.331-4.747 5.206-4.747z" fill="#fff" stroke-linecap="butt" fill-opacity="0"/><path stroke="#fff" stroke-width="4.328" d="M656.797 156.531c0-5.953 4.826-10.78 10.78-10.78 5.953 0 10.779 4.827 10.779 10.78 0 5.954-4.826 10.78-10.779 10.78-5.954 0-10.78-4.826-10.78-10.78zm-33.757 0c0-5.953 4.826-10.78 10.78-10.78 5.953 0 10.779 4.827 10.779 10.78 0 5.954-4.826 10.78-10.779 10.78-5.954 0-10.78-4.826-10.78-10.78zm-34.541 0c0-5.953 4.826-10.78 10.78-10.78 5.953 0 10.779 4.827 10.779 10.78 0 5.954-4.826 10.78-10.779 10.78-5.954 0-10.78-4.826-10.78-10.78z" fill="#fff" stroke-linecap="butt" fill-opacity="0"/><path d="M151.028 67.137c-34.106 0-61.755 27.649-61.755 61.755s27.649 61.755 61.755 61.755 61.755-27.649 61.755-61.755-27.649-61.755-61.755-61.755z" fill="#01579b"/><path d="M183.53 118.491c0-1.95 0-9.426-4.875-15.276-.325-.325-.65-.975-.65-1.3-.325-.325-.325-.65-.65-1.3l-.65-.975-.65-.975a16.877 16.877 0 0 1-.975-1.626c-1.3-1.95-1.625-4.55-.325-6.825.325-.65.975-1.3 1.3-1.95-.325-.325-.65-.65-.975-.65h-.325c-.975-.65-1.95-1.3-2.6-1.95l-2.276-1.626c-1.625-.975-2.6-1.3-2.6-1.625-2.275-1.3-3.575-3.575-3.25-6.175.325-2.6 1.95-4.875 4.55-5.525.325 0 .975-.325 1.625-.325l-.325-.326c-5.85-1.95-12.351-2.925-18.851-2.925-24.052 0-45.178 13.976-55.254 34.128v1.625c0 23.402 20.476 42.253 45.503 42.253 19.177 0 35.428-11.051 42.253-26.652z" fill="#0277bd"/><path d="M170.529 76.888s.976-.325 2.926-.325h3.25c1.3 0 2.6.325 4.225.65 1.625.325 3.251.975 4.876 1.625 1.625.65 3.575 1.625 5.2 2.925 1.625.975 3.25 2.6 4.875 3.9 1.626 1.3 2.926 3.25 4.226 4.876.975 1.95 2.275 3.575 3.25 5.525.975 1.95 1.625 3.9 2.275 5.851.65 1.95.975 3.9 1.3 5.525.325 1.95.325 3.576.325 4.876v2.275c0 .65 0 1.3-.325 1.95 0 1.3-.325 2.275-.325 3.25 0 1.625-.325 2.6-.325 2.6s-.65-.975-1.3-2.6c-.325-.65-.975-1.625-1.3-2.925-.325-.975-.975-2.275-1.625-3.575-.65-1.3-1.3-2.6-1.95-4.226-.65-1.3-1.625-2.925-2.275-4.55-.651-1.625-1.626-2.925-2.601-4.55-.975-1.625-1.95-2.925-2.925-4.226-.975-1.3-1.95-2.925-3.25-3.9-1.3-1.3-2.275-2.6-3.575-3.575-.975-1.3-2.276-2.275-3.576-3.25-1.3-.975-2.275-1.95-3.575-2.6-.975-.976-2.275-1.626-3.25-2.276-.975-.65-1.95-1.3-2.6-1.625-.975-.975-1.951-1.625-1.951-1.625z" fill="#fff176"/><path d="M213.108 108.09c-.975-7.15-3.901-13.65-7.151-18.201-1.625-2.275-3.25-3.9-4.225-4.875-1.3-.975-1.95-1.626-1.95-1.626s0 .975.325 2.6c.325 1.626.325 3.576.65 6.176.325 1.3.325 2.6.65 3.9-1.3-1.95-2.925-3.9-4.551-5.2-1.625-1.625-3.575-2.6-4.55-3.25-1.625-.65-2.275-.975-2.275-.975s.325.65.65 1.95c.325 1.3.975 2.925 1.625 5.2.65 2.275 1.625 5.2 2.6 8.126-1.95-2.275-3.9-4.225-5.85-5.526-2.275-1.3-4.225-2.275-5.851-2.6-1.95-.65-2.925-.65-2.925-.65s.65.65 1.3 1.95c.325.65.975 1.3 1.3 2.276.65.975.975 1.95 1.626 2.925.975 1.95 2.275 4.225 3.25 6.825.65 1.3.975 2.6 1.625 3.901.325 1.3 1.3 2.6 1.625 4.225.65 1.3.975 2.6 1.625 4.225.325 1.3.975 2.6 1.3 4.226.325 1.3.975 2.6 1.3 3.9.325 1.3.65 2.6 1.3 3.575.976 2.275 1.626 4.225 2.276 5.526l.975 1.95s.325-.65.975-2.276c.325-.65.65-1.625.65-2.6.325-.975.65-2.275.65-3.575 0-.975.325-1.95.325-2.925.325.975.65 1.625.65 1.625l.975-1.95c.325-.65.65-1.3.975-2.275v-.325c0 .65 0 1.625.325 2.275 0 1.3.325 2.275.325 3.25v2.925c0 1.625.325 2.6.325 2.6s.65-.65 1.625-1.95c.325-.65.975-1.3 1.625-2.275.65-.975.975-1.95 1.626-3.25.65-1.3.975-2.6 1.3-4.225l.975-4.876c.325-1.625.325-3.575.325-5.2.325-1.95 0-3.901-.325-5.526z" fill="#fdd835"/><path d="M216.358 115.241c0-1.625-.325-2.6-.325-2.6s-.65.975-1.625 2.275c-.975 1.625-1.95 3.575-3.25 6.175-.976 2.276-2.276 4.876-3.576 7.476 0-2.6 0-4.875-.325-7.151-.325-1.95-.65-3.575-.975-5.2-.65-1.625-.975-3.25-1.625-4.55-.975-2.926-2.275-4.876-3.25-6.501-.975-1.625-1.625-2.275-1.625-2.275s-.325 3.9-.325 9.751c0 2.925-.325 5.85-.65 9.425 0 1.626-.325 3.251-.325 5.201 0 1.625-.325 3.575-.65 5.2v1.3c-.325-2.925-1.301-5.85-2.601-7.8-.975-2.275-2.275-3.901-3.25-4.876-1.3-1.625-1.95-1.95-1.95-1.95v2.275c0 1.3 0 3.251-.325 5.526-.325 4.225-.975 9.751-1.625 14.951-.325 1.3-.65 2.6-.65 3.9-.325 1.3-.65 2.6-.65 3.901-.325 1.3-.65 2.6-.975 3.575-.325 1.3-.65 2.275-.65 3.25-.325.975-.325 2.275-.65 2.925-.325.975-.325 1.625-.651 2.6-.325 1.626-.325 2.601-.325 2.601s.651-.325 1.951-1.3c1.3-.976 2.925-1.951 4.55-3.901.65-.975 1.625-1.95 2.6-3.25.65-1.3 1.625-2.275 2.275-3.575 0 .975-.325 1.95-.325 2.925-.325.975-.325 2.275-.65 2.925-.65 1.95-.65 2.925-.65 2.925.325-.325 1.3 0 2.275.325 0 .325-.325.65-.325.65l-.975 2.926c-.65 1.625-.975 2.6-.975 2.6s.975-.325 2.275-1.3c.65-.65 1.625-.975 2.601-1.95.975-.65 1.95-1.625 2.925-2.926.975-.975 1.95-2.275 3.25-3.575.975-1.3 1.95-2.925 2.925-4.55 1.95-3.25 3.576-6.826 4.876-10.401 1.3-3.575 2.6-7.476 3.25-11.051.65-3.575.975-6.825 1.3-9.751 0-2.925 0-5.2-.325-7.15z" fill="#ffb300"/><path d="M207.582 149.694c-1.3.65-2.6 1.95-4.55 3.25-2.6 1.95-5.525 4.55-8.451 7.475.325-.975.975-1.95 1.3-2.925.975-2.925 1.3-5.525 1.626-7.8 0-2.276 0-4.226-.326-5.526-.325-1.625-.65-2.275-.65-2.275s-.65.65-1.3 1.625-1.95 2.6-3.25 4.225c-1.3 1.625-2.6 3.901-3.9 5.851-.325.325-.325.65-.65.975.65-1.95.65-4.225.65-6.176 0-2.6-.65-5.2-1.3-7.15-.65-1.95-1.625-3.575-2.275-4.55-.325-.651-.976-1.301-.976-1.301s-.325.65-.65 1.951c-.325.975-.975 2.6-1.625 4.55-.65 1.625-.975 3.575-1.625 5.85-.325.975-.65 1.951-.975 3.251-.325.975-.65 1.95-.975 2.6-6.175 6.175-13.651 7.8-20.802 8.125-3.9 0-7.475-.65-10.725-1.625-4.876-1.625-9.426-4.55-13.651-8.45 6.175.65 12.025-.65 16.901-2.926l8.125-5.2a4.512 4.512 0 0 1 2.926 0c1.95-.325 2.6-1.3 1.95-3.25-.975-1.3-2.6-2.6-4.225-3.575-4.226-2.276-8.451-1.951-13.001.975-4.226 2.275-8.126 1.95-12.351-.325-10.076-5.201-6.176-18.527 4.55-11.701.65-3.251-.325-6.826-2.275-10.401-9.426-17.226 1.3-31.203 4.875-33.478-6.5.65-12.351 3.576-17.551 8.451-33.478-3.9-36.403 28.602-36.403 28.927l3.9-3.575c-1.3 3.575-2.275 7.15-2.6 11.051-1.3 12.676 2.275 25.027 10.726 37.378 13.001 16.576 33.478 26.652 52.979 26.652 22.102 0 36.403-8.126 45.828-18.527l1.951-1.95c1.95-2.275 3.9-4.55 5.525-7.15 1.625-2.276 2.6-4.876 3.575-7.151.65-2.275 1.3-4.225 1.625-5.525v-1.951s-.65.325-1.95 1.301z" fill="#ff9800"/><path d="M112.025 141.893c-.65-22.752 13.976-20.802 21.452-18.201-5.201-.976-7.476 3.9-5.201 8.45-.975 0-11.051-.975-16.251 9.751zm20.477 9.426c6.175.65 12.025-.65 16.901-2.926l8.125-5.2c.651-.325 1.626-.325 2.276 0-9.426-5.525-19.502 6.175-41.604 2.6 5.526 4.226 14.302 5.526 14.302 5.526zm-.65-53.304c-.651 4.875.325 10.725 3.575 16.901 4.55-2.6 9.1-5.526 9.1-5.526s6.501-6.5 0-6.5c-6.175 0-10.4-2.6-12.675-4.875zM106.5 91.189c-2.926-2.6-7.476-7.8-7.476-14.301 0 0-7.8 12.676-4.875 22.752 2.925-3.576 7.15-6.5 12.351-8.45z" fill="#ef6c00"/><path d="M135.427 114.916c4.55-2.6 9.1-5.526 9.1-5.526l1.301-1.3-1.301-1.95h-12.35c.65 2.925 1.625 5.851 3.25 8.776z" fill="#ffcc80"/><path d="M144.527 102.89c-.975 0-1.95 0-2.925-.325l-.325.325s2.6 4.225 3.25 6.5c0 0 6.501-6.5 0-6.5z" fill="#5d4037"/><path stroke="#fff" vectornator:shadowColor="#eeeeee" vectornator:shadowOffset="19.496" stroke-width="2.724" fill="url(#a)" vectornator:shadowAngle="2.545" vectornator:shadowRadius="11.744" d="M594.329 193.956l-29.656 51.469h-26.906v259.968h232.906V245.425H624.079l-29.75-51.469z" vectornator:shadowOpacity=".355"/><path d="M723.006 319.393H602.501c-14.93 0-24.1 14.039-24.1 24.101v85.896c0 12.436 10.122 22.558 22.558 22.558h123.589c12.436 0 22.559-10.122 22.559-22.558v-86.514c0-12.288-11.484-23.483-24.101-23.483zm-6.017 76.32c-5.547 0-10.05-4.491-10.05-10.038 0-5.547 4.503-10.046 10.05-10.046 5.531 0 10.034 4.499 10.034 10.046s-4.503 10.038-10.034 10.038zM602.501 311.36h112.471v-13.424c0-6.5 0-18.602-13.135-18.602-2.976 0-6.599.59-11.395 1.855-12.087 3.186-82.891 22.816-83.948 23.125-10.516 3.961-17.172 7.861-21.341 12.436 4.888-3.31 10.761-5.39 17.348-5.39z" fill="#fff"/><path d="M670.592 372.899c0-10.973 3.329-21.169 9.031-29.632 0 0-58.799 5.865-76.086 48.352l.002.014c.022.033.121.183.3.435 3.005 4.23 31.98 51.752 95.054 37.35a58.665 58.665 0 0 0 6.659-6.605c-20.393-7.41-34.96-26.96-34.96-49.914z" fill="#64b6ec"/><path d="M671.22 364.713a52.79 52.79 0 0 1 8.404-21.445s-58.799 5.865-76.086 48.351l.001.014c.022.033.121.183.3.435 1.108 1.559 5.743 8.998 14.312 17.05 5.894-24.44 27.206-42.864 53.069-44.405z" fill="#4b9fdb"/><path d="M665.725 433.941c-18.348-18.068-23.492-46.708-10.753-70.584 5.805-10.88 14.499-19.227 24.63-24.602 0 0-56.353 9.923-76.064 52.865a57.923 57.923 0 0 0 11.838 28.996c.125.091 18.352 13.348 50.349 13.325z" fill="#4b9fdb"/><path d="M652.288 369.093a60.536 60.536 0 0 1 2.684-5.736c5.805-10.88 14.499-19.227 24.63-24.602 0 0-56.353 9.923-76.064 52.865a57.923 57.923 0 0 0 11.838 28.996c.018.013.413.3 1.168.779.563-23.582 15.152-43.688 35.744-52.302z" fill="#3188ca"/><path d="M661.377 410.296a43.498 43.498 0 0 1-7.558-24.351s-31.974 5.699-33.172 40.579l34.201 16.249c2.162.242 4.337.364 6.513.365 14.303 0 27.398-5.161 37.532-13.72-14.442.44-28.794-6.286-37.516-19.122z" fill="#a1ddfb"/><path d="M620.65 426.526c9.151-11.421 22.516-19.318 37.739-21.332a43.462 43.462 0 0 1-4.57-19.249s-31.974 5.699-33.172 40.579l.003.002z" fill="#7dcfff"/><path d="M641.671 408.462a43.497 43.497 0 0 1 9.059-23.833s-31.613 8.531-30.083 41.895c9.038 8.849 20.947 14.774 34.201 16.249-8.894-8.634-14.078-20.974-13.177-34.311z" fill="#7dcfff"/><path d="M620.65 426.527a58.409 58.409 0 0 1 20.945-16.444 43.497 43.497 0 0 1 9.135-25.454s-31.613 8.531-30.083 41.895l.003.003z" fill="#64b6ec"/><path d="M708.428 339c-.91 3.107-23.875 2.046-23.875 6.594 0 4.547 17.053 9.095 12.733 13.87-4.32 4.775-19.099-12.961-59.572 2.501-18.691 7.142-29.662 22.167-34.18 29.661a58.726 58.726 0 0 1 .469-16.651c4.968-8.424 16.987-24.538 40.987-35.975 12.712-6.057 25.072-8.627 35.459-9.075 17.294-.745 29.334 4.445 27.979 9.075z" fill="#a1ddfb"/><path d="M633.545 383.187c-14.042 10.503-17.594 28.825-18.171 37.427a58.422 58.422 0 0 0 5.273 5.91c1.429-5.128 5.506-17.665 12.898-25.057 13.217-13.217 33.53-1.832 36.38-6.154 2.88-4.366-8.564-8.488-8.564-8.488s18.569-.91 19.175-6.822c.606-5.911-28.292-10.802-46.991 3.184z" fill="#a1ddfb"/><path d="M658.389 345.041c-8.428-2.372-8.624-11.043 22.06-15.116-10.387.448-22.747 3.018-35.459 9.075-24 11.437-36.019 27.551-40.987 35.975a58.726 58.726 0 0 0-.469 16.651c4.518-7.494 15.489-22.519 34.18-29.661 0 0 29.104-14.552 20.675-16.924zm-8.334 30.616c-5.726 1.379-11.486 3.772-16.51 7.53-14.042 10.503-17.594 28.825-18.171 37.427a58.422 58.422 0 0 0 5.273 5.91c1.429-5.128 5.506-17.665 12.898-25.057a22.443 22.443 0 0 1 2.117-1.865v-.003s11.374-10.577 5.235-11.902c-6.137-1.325-.344-9.584 9.158-12.04z" fill="#7dcfff"/></g><g vectornator:layerName="feature2"><path d="M695.412 289.897h99.859c12.373 0 19.972 11.634 19.972 19.972v71.18c0 10.306-8.388 18.694-18.693 18.694H694.133c-10.305 0-18.693-8.388-18.693-18.694v-71.692c0-10.183 9.516-19.46 19.972-19.46zm4.986 63.245c4.597 0 8.328-3.722 8.328-8.318 0-4.597-3.731-8.325-8.328-8.325-4.584 0-8.315 3.728-8.315 8.325 0 4.596 3.731 8.318 8.315 8.318zm94.873-69.902h-93.202v-11.124c0-5.386 0-15.415 10.885-15.415 2.466 0 5.469.489 9.443 1.537 10.016 2.64 68.69 18.907 69.566 19.164 8.714 3.282 14.23 6.514 17.685 10.305-4.051-2.743-8.918-4.467-14.377-4.467z" fill="#fffcfc"/><path d="M145.943 284.548h-99.86c-12.372 0-19.971 11.633-19.971 19.972v71.18c0 10.305 8.388 18.694 18.693 18.694h102.416c10.306 0 18.694-8.389 18.694-18.694v-71.693c0-10.182-9.516-19.459-19.972-19.459zm-4.986 63.244c-4.597 0-8.328-3.721-8.328-8.318 0-4.597 3.731-8.325 8.328-8.325 4.583 0 8.315 3.728 8.315 8.325 0 4.597-3.732 8.318-8.315 8.318zM46.083 277.89h93.203v-11.124c0-5.386 0-15.415-10.885-15.415-2.466 0-5.469.489-9.443 1.538-10.016 2.639-68.69 18.907-69.566 19.163-8.714 3.282-14.23 6.514-17.685 10.305 4.05-2.742 8.917-4.467 14.376-4.467z" fill="#fff"/><path d="M771.359 335.505c0-7.869 2.387-15.18 6.477-21.248 0 0-42.163 4.205-54.559 34.671l.001.01c.016.024.087.131.215.312 2.155 3.033 22.932 37.11 68.16 26.783a41.966 41.966 0 0 0 4.775-4.737c-14.623-5.313-25.069-19.332-25.069-35.791z" fill="#64b6ec"/><path d="M771.81 329.635a37.848 37.848 0 0 1 6.026-15.378s-42.163 4.206-54.559 34.671l.001.01c.016.024.087.131.215.312.794 1.118 4.118 6.452 10.263 12.226 4.226-17.525 19.509-30.736 38.054-31.841z" fill="#4b9fdb"/><path d="M767.869 379.276c-13.156-12.956-16.844-33.493-7.71-50.614a42.584 42.584 0 0 1 17.661-17.641s-40.408 7.115-54.543 37.908a41.544 41.544 0 0 0 8.489 20.792c.09.065 13.159 9.571 36.103 9.555z" fill="#4b9fdb"/><path d="M758.234 332.775a43.56 43.56 0 0 1 1.925-4.113 42.584 42.584 0 0 1 17.661-17.641s-40.408 7.115-54.543 37.908a41.544 41.544 0 0 0 8.489 20.792c.013.009.296.215.837.559.404-16.91 10.865-31.328 25.631-37.505z" fill="#3188ca"/><path d="M764.752 362.321a31.195 31.195 0 0 1-5.42-17.462s-22.927 4.087-23.787 29.099l24.525 11.651a42.13 42.13 0 0 0 4.67.262 41.568 41.568 0 0 0 26.913-9.838c-10.356.315-20.647-4.508-26.901-13.712z" fill="#a1ddfb"/><path d="M735.548 373.959c6.562-8.19 16.145-13.852 27.061-15.296a31.181 31.181 0 0 1-3.277-13.804s-22.927 4.087-23.787 29.098l.003.002z" fill="#7dcfff"/><path d="M750.621 361.006a31.185 31.185 0 0 1 6.497-17.09s-22.67 6.117-21.573 30.041c6.481 6.345 15.021 10.594 24.525 11.652-6.377-6.191-10.095-15.04-9.449-24.603z" fill="#7dcfff"/><path d="M735.547 373.96a41.886 41.886 0 0 1 15.019-11.792 31.185 31.185 0 0 1 6.552-18.252s-22.67 6.117-21.573 30.041l.002.003z" fill="#64b6ec"/><path d="M798.49 311.197c-.652 2.228-17.119 1.467-17.119 4.728 0 3.261 12.228 6.522 9.13 9.946-3.098 3.424-13.696-9.294-42.717 1.793-13.403 5.121-21.27 15.895-24.509 21.269a42.053 42.053 0 0 1 .336-11.939c3.562-6.041 12.181-17.596 29.39-25.797 9.116-4.344 17.979-6.186 25.427-6.507 12.401-.535 21.034 3.187 20.062 6.507z" fill="#a1ddfb"/><path d="M744.794 342.882c-10.069 7.531-12.616 20.669-13.03 26.838a42.221 42.221 0 0 0 3.781 4.238c1.025-3.678 3.949-12.668 9.249-17.968 9.478-9.478 24.044-1.314 26.088-4.413 2.065-3.131-6.142-6.087-6.142-6.087s13.315-.652 13.75-4.891c.435-4.239-20.287-7.746-33.696 2.283z" fill="#a1ddfb"/><path d="M762.609 315.529c-6.044-1.701-6.184-7.919 15.819-10.839-7.448.321-16.311 2.163-25.427 6.507-17.209 8.201-25.828 19.756-29.39 25.797a42.053 42.053 0 0 0-.336 11.939c3.239-5.374 11.106-16.148 24.509-21.269 0 0 20.869-10.435 14.825-12.135zm-5.976 21.953c-4.106.989-8.236 2.705-11.839 5.4-10.069 7.531-12.616 20.669-13.03 26.838a42.221 42.221 0 0 0 3.781 4.238c1.025-3.678 3.949-12.668 9.249-17.968.478-.478.985-.924 1.518-1.337v-.002s8.157-7.585 3.754-8.535c-4.401-.95-.247-6.872 6.567-8.634z" fill="#7dcfff"/><path d="M616.146 292.064c-17.831-.782-34.367-13.28-39.428-30.29-3.922-13.152-1.811-25.784 4.523-37.805 4.613-8.752 11.265-15.889 18.203-22.778 6.063-6.01 12.405-11.74 17.986-18.224.89-1.033 1.643-2.2 3.097-.474 7.041 8.4 15.468 15.442 22.977 23.396 6.987 7.406 13.152 15.353 16.753 25.003 8.097 21.751 1.272 45.269-20.915 56.687-7.168 3.686-13.753 5.058-23.196 4.485z" fill="#46beae"/><path d="M637.919 241.329c.676-4.687-2.561-9.645-8.835-11.792l1.646-6.635-4.97-1.232-1.592 6.43c-1.306-.323-2.648-.63-3.982-.931l1.608-6.479-4.967-1.232-1.646 6.633-9.006-2.216-1.316 5.306s3.687.846 3.609.892c2.012.508 2.369 1.831 2.318 2.887l-5.546 22.358c-.246.611-.869 1.523-2.275 1.185.049.071-3.613-.897-3.613-.897l-2.458 5.689 8.994 2.263-1.794 7.24 4.963 1.232 1.775-7.154c1.354.367 2.674.706 3.96 1.015l-1.769 7.117 4.97 1.244 1.794-7.227c8.473 1.592 14.916-.604 16.499-6.979 1.291-5.201.127-9.004-3.564-11.789 2.416-.77 4.662-3.269 5.197-6.928zm-10.192 15.55c-1.523 6.169-11.918 2.847-15.287 2.017l2.707-10.94c3.374.836 14.174 2.487 12.58 8.923zm1.523-16.008c-1.401 5.613-10.05 2.773-12.861 2.076l2.461-9.921c2.81.697 11.845 1.99 10.4 7.845z" fill="#fff"/><path d="M115.913 350.804c-5.032 20.183-25.475 32.465-45.66 27.433-20.176-5.032-32.459-25.475-27.426-45.657 5.03-20.185 25.472-32.469 45.651-27.437 20.184 5.032 32.466 25.477 27.434 45.661h.001z" fill="#f7931a"/><path d="M95.981 336.323c.749-5.013-3.068-7.708-8.287-9.506l1.693-6.79-4.135-1.031-1.648 6.612c-1.086-.27-2.202-.526-3.31-.779l1.66-6.655-4.132-1.031-1.694 6.789c-.9-.205-1.783-.408-2.64-.621l.005-.021-5.7-1.423-1.1 4.415s3.067.703 3.002.746c1.674.418 1.978 1.526 1.926 2.404l-1.928 7.737c.115.029.264.071.43.137l-.436-.108-2.705 10.837c-.205.509-.724 1.272-1.894.982.041.06-3.005-.75-3.005-.75L60.031 353l5.38 1.341c1.001.251 1.982.513 2.946.761l-1.71 6.869 4.129 1.03 1.695-6.795c1.127.306 2.222.589 3.293.855l-1.688 6.763 4.133 1.031 1.711-6.856c7.049 1.334 12.35.796 14.579-5.578 1.798-5.133-.088-8.094-3.797-10.026 2.7-.625 4.735-2.402 5.278-6.072h.001zm-9.446 13.244c-1.278 5.133-9.92 2.359-12.723 1.662l2.27-9.099c2.802.699 11.786 2.084 10.455 7.437h-.002zm1.278-13.318c-1.166 4.669-8.36 2.297-10.694 1.715l2.058-8.253c2.335.582 9.85 1.667 8.636 6.538z" fill="#fff"/><path d="M276.306 259.649c-5.31 21.633-26.883 34.797-48.185 29.404-21.291-5.393-34.253-27.305-28.942-48.937 5.308-21.635 26.88-34.802 48.175-29.408 21.3 5.393 34.261 27.307 28.951 48.941h.001z" fill="#f7931a"/><path d="M255.272 244.128c.79-5.373-3.238-8.262-8.745-10.189l1.786-7.278-4.363-1.105-1.74 7.087c-1.145-.29-2.323-.564-3.493-.835l1.752-7.134-4.36-1.104-1.788 7.276c-.949-.219-1.881-.436-2.785-.665l.005-.022-6.016-1.526-1.161 4.732s3.237.753 3.168.8c1.767.448 2.088 1.636 2.033 2.577l-2.035 8.292c.122.031.28.077.453.148l-.459-.117-2.854 11.616c-.216.545-.764 1.363-1.999 1.053.043.064-3.171-.804-3.171-.804l-2.165 5.073 5.678 1.437c1.056.269 2.091.55 3.108.815l-1.805 7.363 4.357 1.105 1.789-7.284c1.189.328 2.345.631 3.475.916l-1.781 7.25 4.362 1.104 1.805-7.348c7.438 1.43 13.033.853 15.385-5.979 1.897-5.502-.093-8.676-4.007-10.746 2.85-.671 4.997-2.575 5.57-6.508h.001zm-9.968 14.195c-1.349 5.502-10.469 2.529-13.427 1.782l2.396-9.753c2.957.749 12.438 2.233 11.032 7.971h-.001zm1.348-14.275c-1.23 5.005-8.821 2.462-11.285 1.839l2.172-8.846c2.464.623 10.395 1.787 9.113 7.007z" fill="#fff"/><path stroke-width="5.982" stroke="#fff" d="M257.55 336.045h-67.28" fill="none"/><path d="M248.577 356.983l35.894-20.938-35.894-20.939v41.877z" fill="#fff"/><path stroke-width="5.982" stroke="#fff" d="M617.351 333.195h-67.28" fill="none"/><path d="M608.377 354.133l35.895-20.938-35.895-20.939v41.877zm-272.794 67.619h10.471v-10.767h7.252v27.898h-7.252v-11.507h-10.471v11.507h-7.252v-27.898h7.252v10.767zm29.267 7.548c0 .642.117 1.227.351 1.758.234.53.543.993.925 1.387.382.395.839.703 1.369.925.53.222 1.092.333 1.684.333.592 0 1.153-.111 1.683-.333.53-.222.987-.53 1.369-.925.382-.394.691-.857.925-1.387a4.218 4.218 0 0 0 .352-1.721c0-.592-.118-1.153-.352-1.683a4.706 4.706 0 0 0-.925-1.388 4.08 4.08 0 0 0-1.369-.925 4.312 4.312 0 0 0-1.683-.333c-.592 0-1.154.111-1.684.333a4.08 4.08 0 0 0-1.369.925 4.787 4.787 0 0 0-.925 1.369 3.997 3.997 0 0 0-.351 1.665zm-7.067-.074c0-1.406.283-2.719.851-3.94a9.661 9.661 0 0 1 2.368-3.182c1.011-.901 2.213-1.61 3.607-2.128 1.394-.518 2.917-.777 4.57-.777 1.628 0 3.138.253 4.532.759 1.394.505 2.602 1.208 3.626 2.109a9.46 9.46 0 0 1 2.387 3.219c.567 1.245.851 2.621.851 4.125 0 1.505-.29 2.88-.87 4.126a9.814 9.814 0 0 1-2.386 3.219c-1.012.9-2.227 1.597-3.645 2.09-1.418.494-2.954.74-4.606.74-1.628 0-3.133-.246-4.514-.74-1.382-.493-2.572-1.196-3.571-2.109a9.774 9.774 0 0 1-2.349-3.274c-.568-1.271-.851-2.683-.851-4.237zm32.856.111a4.414 4.414 0 0 0 1.239 3.108c.382.395.839.703 1.369.925a4.41 4.41 0 0 0 1.721.333c.592 0 1.153-.111 1.683-.333.53-.222.987-.53 1.369-.925.382-.394.691-.851.925-1.369a3.998 3.998 0 0 0 .352-1.665c0-.592-.118-1.153-.352-1.683a4.706 4.706 0 0 0-.925-1.388 4.08 4.08 0 0 0-1.369-.925 4.312 4.312 0 0 0-1.683-.333c-.592 0-1.154.111-1.684.333a4.08 4.08 0 0 0-1.369.925 4.87 4.87 0 0 0-.925 1.351 3.868 3.868 0 0 0-.351 1.646zm8.436-21.164h6.734v30.71h-6.734v-2.109c-1.431 1.801-3.367 2.701-5.809 2.701-1.382 0-2.652-.259-3.811-.777a9.412 9.412 0 0 1-3.034-2.146 9.798 9.798 0 0 1-2.017-3.219c-.481-1.233-.721-2.565-.721-3.996 0-1.356.228-2.645.684-3.866a9.683 9.683 0 0 1 1.943-3.201 9.183 9.183 0 0 1 3.015-2.164c1.172-.531 2.461-.796 3.867-.796 2.368 0 4.329.827 5.883 2.479v-13.616zm17.982 0v30.71h-6.697v-30.71h6.697zm12.469 13.579h10.471v-10.767h7.252v27.898h-7.252v-11.507h-10.471v11.507h-7.252v-27.898h7.252v10.767zm29.267 7.548c0 .642.117 1.227.351 1.758.234.53.543.993.925 1.387.382.395.839.703 1.369.925.53.222 1.092.333 1.684.333.592 0 1.153-.111 1.683-.333.53-.222.987-.53 1.369-.925.382-.394.691-.857.925-1.387a4.218 4.218 0 0 0 .352-1.721c0-.592-.118-1.153-.352-1.683a4.706 4.706 0 0 0-.925-1.388 4.08 4.08 0 0 0-1.369-.925 4.312 4.312 0 0 0-1.683-.333c-.592 0-1.154.111-1.684.333a4.08 4.08 0 0 0-1.369.925 4.787 4.787 0 0 0-.925 1.369 3.997 3.997 0 0 0-.351 1.665zm-7.067-.074c0-1.406.283-2.719.851-3.94a9.661 9.661 0 0 1 2.368-3.182c1.011-.901 2.213-1.61 3.607-2.128 1.394-.518 2.917-.777 4.57-.777 1.628 0 3.138.253 4.532.759 1.394.505 2.602 1.208 3.626 2.109a9.46 9.46 0 0 1 2.387 3.219c.567 1.245.851 2.621.851 4.125 0 1.505-.29 2.88-.87 4.126a9.814 9.814 0 0 1-2.386 3.219c-1.012.9-2.227 1.597-3.645 2.09-1.418.494-2.954.74-4.606.74-1.628 0-3.133-.246-4.514-.74-1.382-.493-2.572-1.196-3.571-2.109a9.774 9.774 0 0 1-2.349-3.274c-.568-1.271-.851-2.683-.851-4.237zm32.856.111a4.414 4.414 0 0 0 1.239 3.108c.382.395.839.703 1.369.925a4.41 4.41 0 0 0 1.721.333c.592 0 1.153-.111 1.683-.333.53-.222.987-.53 1.369-.925.382-.394.691-.851.925-1.369a3.998 3.998 0 0 0 .352-1.665c0-.592-.118-1.153-.352-1.683a4.706 4.706 0 0 0-.925-1.388 4.08 4.08 0 0 0-1.369-.925 4.312 4.312 0 0 0-1.683-.333c-.592 0-1.154.111-1.684.333a4.08 4.08 0 0 0-1.369.925 4.87 4.87 0 0 0-.925 1.351 3.868 3.868 0 0 0-.351 1.646zm8.436-21.164h6.734v30.71h-6.734v-2.109c-1.431 1.801-3.367 2.701-5.809 2.701-1.382 0-2.652-.259-3.811-.777a9.412 9.412 0 0 1-3.034-2.146 9.798 9.798 0 0 1-2.017-3.219c-.481-1.233-.721-2.565-.721-3.996 0-1.356.228-2.645.684-3.866a9.683 9.683 0 0 1 1.943-3.201 9.183 9.183 0 0 1 3.015-2.164c1.172-.531 2.461-.796 3.867-.796 2.368 0 4.329.827 5.883 2.479v-13.616zm17.982 0v30.71h-6.697v-30.71H511zm-157.417 59.063c-.789-.641-1.579-1.116-2.368-1.424-.789-.309-1.554-.463-2.294-.463-.937 0-1.702.222-2.294.666-.592.444-.888 1.024-.888 1.739 0 .494.148.901.444 1.221.296.321.685.598 1.166.833a9.922 9.922 0 0 0 1.628.61c.604.173 1.202.358 1.794.555 2.368.79 4.101 1.844 5.199 3.164 1.097 1.319 1.646 3.04 1.646 5.161 0 1.431-.24 2.726-.721 3.885a8.108 8.108 0 0 1-2.109 2.979c-.925.826-2.06 1.467-3.404 1.924-1.345.456-2.868.684-4.57.684-3.527 0-6.796-1.048-9.805-3.145l3.108-5.846c1.085.962 2.158 1.678 3.219 2.146 1.061.469 2.109.703 3.145.703 1.184 0 2.066-.271 2.646-.814.579-.542.869-1.159.869-1.85 0-.419-.074-.783-.222-1.091-.148-.309-.395-.592-.74-.851s-.795-.5-1.35-.722a45.41 45.41 0 0 0-2.017-.74 40.83 40.83 0 0 1-2.756-.98 8.673 8.673 0 0 1-2.405-1.425c-.703-.592-1.271-1.338-1.702-2.238-.432-.901-.648-2.041-.648-3.423 0-1.381.228-2.633.685-3.755a8.32 8.32 0 0 1 1.924-2.886c.826-.802 1.837-1.425 3.034-1.869 1.196-.444 2.534-.666 4.014-.666 1.381 0 2.824.191 4.329.574 1.505.382 2.948.943 4.329 1.683l-2.886 5.661zm14.652 1.776v18.981h-6.697v-18.981h6.697zm-7.141-7.289c0-.518.099-1.005.296-1.461a3.84 3.84 0 0 1 2.017-2.017 3.644 3.644 0 0 1 1.461-.296c.518 0 1.005.099 1.462.296a3.853 3.853 0 0 1 2.016 2.017c.197.456.296.943.296 1.461 0 .518-.099 1.005-.296 1.462a3.836 3.836 0 0 1-2.016 2.016 3.636 3.636 0 0 1-1.462.296 3.628 3.628 0 0 1-1.461-.296 3.836 3.836 0 0 1-2.017-2.016 3.653 3.653 0 0 1-.296-1.462zm17.945 16.724a4.414 4.414 0 0 0 1.24 3.108c.382.395.838.703 1.369.925.53.222 1.103.333 1.72.333a4.32 4.32 0 0 0 1.684-.333c.53-.222.986-.53 1.369-.925.382-.394.69-.851.925-1.369a3.997 3.997 0 0 0 .351-1.665c0-.592-.117-1.153-.351-1.683a4.726 4.726 0 0 0-.925-1.388 4.09 4.09 0 0 0-1.369-.925 4.32 4.32 0 0 0-1.684-.333c-.592 0-1.153.111-1.683.333a4.07 4.07 0 0 0-1.369.925 4.848 4.848 0 0 0-.925 1.351 3.854 3.854 0 0 0-.352 1.646zm8.436-21.164h6.734v30.71h-6.734v-2.109c-1.431 1.801-3.367 2.701-5.809 2.701-1.381 0-2.652-.259-3.811-.777a9.422 9.422 0 0 1-3.034-2.146 9.812 9.812 0 0 1-2.016-3.219c-.481-1.233-.722-2.565-.722-3.996 0-1.356.228-2.645.685-3.866a9.68 9.68 0 0 1 1.942-3.201 9.198 9.198 0 0 1 3.016-2.164c1.171-.531 2.46-.796 3.866-.796 2.368 0 4.329.827 5.883 2.479v-13.616zm25.16 18.463c-.222-.937-.678-1.689-1.369-2.257-.691-.567-1.529-.851-2.516-.851-1.036 0-1.881.272-2.534.814-.654.543-1.067 1.308-1.24 2.294h7.659zm-7.844 3.885c0 2.886 1.357 4.329 4.07 4.329 1.455 0 2.553-.592 3.293-1.776h6.475c-1.307 4.342-4.576 6.512-9.805 6.512-1.603 0-3.071-.24-4.403-.721-1.332-.481-2.473-1.166-3.422-2.054a9.143 9.143 0 0 1-2.202-3.182c-.518-1.233-.777-2.614-.777-4.144 0-1.578.247-3.003.74-4.273.493-1.271 1.196-2.35 2.109-3.238.913-.888 2.017-1.572 3.312-2.053 1.295-.481 2.756-.722 4.384-.722 1.603 0 3.046.241 4.329.722s2.368 1.178 3.256 2.09c.888.913 1.566 2.029 2.035 3.349.469 1.319.703 2.806.703 4.458v.703h-14.097zm30.488-5.735c-1.233-.641-2.442-.962-3.626-.962-.617 0-1.116.124-1.498.37-.383.247-.574.58-.574.999 0 .222.031.401.093.537.061.135.197.265.407.388.209.124.518.235.925.333.407.099.943.222 1.609.37 1.85.37 3.231 1.03 4.144 1.98.913.949 1.369 2.164 1.369 3.644 0 1.11-.222 2.109-.666 2.997a6.385 6.385 0 0 1-1.85 2.239c-.789.604-1.739 1.073-2.849 1.406-1.11.333-2.331.499-3.663.499-2.565 0-5.094-.727-7.585-2.183l2.442-4.736c1.875 1.283 3.651 1.924 5.328 1.924.617 0 1.122-.135 1.517-.407.395-.271.592-.616.592-1.036 0-.246-.031-.45-.092-.61-.062-.161-.192-.309-.389-.444-.197-.136-.487-.259-.869-.37a19.116 19.116 0 0 0-1.499-.352c-2.072-.419-3.521-1.042-4.347-1.868-.827-.827-1.24-1.967-1.24-3.423 0-1.06.197-2.016.592-2.867a5.942 5.942 0 0 1 1.702-2.165c.74-.592 1.634-1.048 2.683-1.369 1.048-.32 2.213-.481 3.496-.481 2.097 0 4.132.407 6.105 1.221l-2.257 4.366zm6.253-16.613h6.697v14.134c.913-1.11 1.838-1.856 2.775-2.238.937-.383 2.035-.574 3.293-.574 2.393 0 4.2.66 5.421 1.98 1.221 1.319 1.831 3.102 1.831 5.346v12.062h-6.697v-9.583c0-.962-.074-1.739-.222-2.331-.148-.592-.395-1.048-.74-1.369-.592-.518-1.307-.777-2.146-.777-1.135 0-2.004.339-2.608 1.018-.605.678-.907 1.646-.907 2.904v10.138h-6.697v-30.71zm31.265 11.729v18.981H466.1v-18.981h6.697zm-7.141-7.289c0-.518.099-1.005.296-1.461a3.84 3.84 0 0 1 2.017-2.017 3.644 3.644 0 0 1 1.461-.296c.518 0 1.005.099 1.462.296a3.853 3.853 0 0 1 2.016 2.017c.197.456.296.943.296 1.461 0 .518-.099 1.005-.296 1.462a3.836 3.836 0 0 1-2.016 2.016 3.636 3.636 0 0 1-1.462.296 3.628 3.628 0 0 1-1.461-.296 3.836 3.836 0 0 1-2.017-2.016 3.653 3.653 0 0 1-.296-1.462zm18.981 12.876v13.394h-6.697v-13.394h-2.405v-5.587h2.405v-2.849c0-1.578.148-2.836.444-3.774a6.704 6.704 0 0 1 1.184-2.201 8.622 8.622 0 0 1 1.906-1.758 9.241 9.241 0 0 1 2.349-1.147 8.034 8.034 0 0 1 2.479-.407c.567 0 1.092.062 1.573.185.481.124.968.296 1.461.518v5.846a7.444 7.444 0 0 0-1.239-.499 4.3 4.3 0 0 0-1.203-.167c-.271 0-.549.043-.832.13-.284.086-.549.265-.796.536-.247.272-.413.66-.499 1.166-.087.505-.13 1.19-.13 2.053v2.368h4.699v5.587h-4.699zm14.689 0v13.394h-6.697v-13.394h-2.22v-5.587h2.22v-5.698h6.697v5.698h3.811v5.587h-3.811zm-71.595 58.952c0-.592.111-1.153.333-1.683.222-.531.53-.993.925-1.388a4.268 4.268 0 0 1 1.388-.925 4.312 4.312 0 0 1 1.683-.333 4.32 4.32 0 0 1 3.071 1.258c.395.395.703.857.925 1.388.222.53.333 1.091.333 1.683a4.32 4.32 0 0 1-1.258 3.071 4.32 4.32 0 0 1-3.071 1.258 4.312 4.312 0 0 1-1.683-.333 4.268 4.268 0 0 1-1.388-.925 4.32 4.32 0 0 1-1.258-3.071zm-12.691 0c0-.592.111-1.153.333-1.683.222-.531.53-.993.925-1.388a4.268 4.268 0 0 1 1.388-.925 4.312 4.312 0 0 1 1.683-.333 4.32 4.32 0 0 1 3.071 1.258c.395.395.703.857.925 1.388.222.53.333 1.091.333 1.683a4.32 4.32 0 0 1-1.258 3.071 4.32 4.32 0 0 1-3.071 1.258 4.312 4.312 0 0 1-1.683-.333 4.268 4.268 0 0 1-1.388-.925 4.32 4.32 0 0 1-1.258-3.071zm-12.691 0c0-.592.111-1.153.333-1.683.222-.531.53-.993.925-1.388a4.268 4.268 0 0 1 1.388-.925 4.312 4.312 0 0 1 1.683-.333 4.32 4.32 0 0 1 3.071 1.258c.395.395.703.857.925 1.388.222.53.333 1.091.333 1.683a4.32 4.32 0 0 1-1.258 3.071 4.32 4.32 0 0 1-3.071 1.258 4.312 4.312 0 0 1-1.683-.333 4.268 4.268 0 0 1-1.388-.925 4.32 4.32 0 0 1-1.258-3.071zm-49.511-175.926c-1.833 0-3.322 1.39-3.322 3.103v6.205c0 1.712 1.489 3.102 3.322 3.102 1.834 0 3.323-1.39 3.323-3.102v-6.205c0-1.713-1.489-3.103-3.323-3.103zm16.611 0c-1.833 0-3.322 1.39-3.322 3.103v6.205c0 1.712 1.489 3.102 3.322 3.102 1.834 0 3.323-1.39 3.323-3.102v-6.205c0-1.713-1.489-3.103-3.323-3.103zm16.611 0c-1.834 0-3.322 1.39-3.322 3.103v6.205c0 1.712 1.488 3.102 3.322 3.102s3.323-1.39 3.323-3.102v-6.205c0-1.713-1.489-3.103-3.323-3.103zm16.611 0c-1.834 0-3.322 1.39-3.322 3.103v6.205c0 1.712 1.488 3.102 3.322 3.102s3.322-1.39 3.322-3.102v-6.205c0-1.713-1.488-3.103-3.322-3.103zm16.611 0c-1.834 0-3.322 1.39-3.322 3.103v6.205c0 1.712 1.488 3.102 3.322 3.102s3.322-1.39 3.322-3.102v-6.205c0-1.713-1.488-3.103-3.322-3.103zm16.611 0c-1.834 0-3.322 1.39-3.322 3.103v6.205c0 1.712 1.488 3.102 3.322 3.102s3.322-1.39 3.322-3.102v-6.205c0-1.713-1.488-3.103-3.322-3.103zm16.611 0c-1.834 0-3.322 1.39-3.322 3.103v6.205c0 1.712 1.488 3.102 3.322 3.102s3.322-1.39 3.322-3.102v-6.205c0-1.713-1.488-3.103-3.322-3.103zm16.611 0c-1.834 0-3.322 1.39-3.322 3.103v6.205c0 1.712 1.488 3.102 3.322 3.102s3.322-1.39 3.322-3.102v-6.205c0-1.713-1.488-3.103-3.322-3.103zm16.611 0c-1.834 0-3.322 1.39-3.322 3.103v6.205c0 1.712 1.488 3.102 3.322 3.102s3.322-1.39 3.322-3.102v-6.205c0-1.713-1.488-3.103-3.322-3.103zm-66.444-133.412c-5.505 0-9.966 4.167-9.966 9.308s4.461 9.308 9.966 9.308c5.505 0 9.967-4.167 9.967-9.308s-4.462-9.308-9.967-9.308zm0 13.186c-2.292 0-4.153-1.737-4.153-3.878s1.861-3.878 4.153-3.878c2.293 0 4.153 1.737 4.153 3.878s-1.86 3.878-4.153 3.878zm53.155 17.84h13.289c1.834 0 3.322-1.39 3.322-3.102 0-1.713-1.488-3.103-3.322-3.103h-13.289c-1.834 0-3.322 1.39-3.322 3.103 0 1.712 1.488 3.102 3.322 3.102z" fill="#fff"/><path d="M508.981 357.625h-6.644v-6.205c0-3.429-2.973-6.205-6.644-6.205h-6.645v-74.463h6.645c3.671 0 6.644-2.776 6.644-6.205v-9.308h5.774c3.631 0 6.658-2.333 7.349-5.665.691-3.332-1.499-6.609-4.858-7.909-21.471-8.318-86.327-32.074-87.413-32.394h-.003a14.212 14.212 0 0 0-3.887-.571c-1.445-.065-2.628.171-3.884.528-.993.279-65.606 23.93-87.506 32.437-3.356 1.304-5.552 4.58-4.861 7.912.688 3.332 3.718 5.662 7.346 5.662h5.834v9.308c0 3.429 2.973 6.205 6.644 6.205h6.644v74.463h-6.644c-3.671 0-6.644 2.776-6.644 6.205v6.205h-6.645c-3.671 0-6.644 2.777-6.644 6.205v15.513c0 1.713 1.488 3.103 3.322 3.103h186.042c1.834 0 3.323-1.39 3.323-3.103V363.83c0-3.428-2.974-6.205-6.645-6.205zm-166.109-93.078v-9.308h116.276c1.834 0 3.323-1.39 3.323-3.102 0-1.713-1.489-3.103-3.323-3.103H330.394c-.19 0-.688 0-.824-.63-.13-.614.322-.791.488-.856 22.691-8.833 87.045-32.292 87.281-32.382a6.919 6.919 0 0 1 1.887-.26h.033c.625.003 1.242.09 1.847.257 2.535.918 64.932 23.685 87.34 32.385.17.065.622.242.489.856-.136.63-.635.63-.824.63h-9.096c-1.834 0-3.322 1.39-3.322 3.103v12.41H342.872zm139.532 6.205v74.463h-13.289v-74.463h13.289zm-19.933 0v74.463h-86.377v-74.463h86.377zm-93.022 0v74.463h-13.288v-74.463h13.288zm139.532 105.489H329.583V363.83h9.967c1.834 0 3.322-1.39 3.322-3.102v-9.308h152.821v9.308c0 1.712 1.488 3.102 3.322 3.102h9.966v12.411z" fill="#fff"/><path d="M422.604 304.881v-6.205c0-1.713-1.488-3.103-3.322-3.103s-3.322 1.39-3.322 3.103v6.205c-3.664 0-6.644-2.783-6.644-6.205s2.98-6.206 6.644-6.206h6.644c3.665 0 6.645 2.784 6.645 6.206 0 1.712 1.485 3.102 3.322 3.102s3.322-1.39 3.322-3.102c0-6.845-5.96-12.411-13.289-12.411v-3.102c0-1.713-1.485-3.103-3.322-3.103s-3.322 1.39-3.322 3.103v3.102c-7.329 0-13.289 5.566-13.289 12.411 0 6.844 5.96 12.41 13.289 12.41h6.644c3.665 0 6.645 2.783 6.645 6.205s-2.98 6.205-6.645 6.205v-6.205c0-1.712-1.485-3.102-3.322-3.102s-3.322 1.39-3.322 3.102v6.205c-3.664 0-6.644-2.783-6.644-6.205 0-1.712-1.485-3.102-3.323-3.102-1.837 0-3.322 1.39-3.322 3.102 0 6.845 5.96 12.411 13.289 12.411v3.102c0 1.713 1.485 3.103 3.322 3.103s3.322-1.39 3.322-3.103v-3.102c7.329 0 13.289-5.566 13.289-12.411 0-6.844-5.96-12.41-13.289-12.41z" fill="#fff"/></g><g vectornator:layerName="feature3" visibility="hidden"><path stroke="#fff" stroke-opacity="0" stroke-width="9.076" d="M231.444 206.222H68.199c-20.226 0-32.649 19.018-32.649 32.649v116.361c0 16.847 13.713 30.559 30.56 30.559h167.423c16.847 0 30.56-13.712 30.56-30.559V238.033c0-16.645-15.558-31.811-32.649-31.811zm-8.152 103.389c-7.514 0-13.614-6.084-13.614-13.599 0-7.514 6.1-13.609 13.614-13.609 7.493 0 13.593 6.095 13.593 13.609 0 7.515-6.1 13.599-13.593 13.599zM68.199 195.34h152.362v-18.186c0-8.804 0-25.199-17.794-25.199-4.032 0-8.94.799-15.437 2.514-16.374 4.315-112.29 30.907-113.722 31.326-14.246 5.365-23.262 10.649-28.91 16.847 6.622-4.484 14.577-7.302 23.501-7.302z" fill="#fff" stroke-linecap="butt" stroke-linejoin="miter"/><path d="M158.085 279.97c0-12.863 3.902-24.814 10.587-34.735 0 0-68.925 6.875-89.19 56.679l.003.016c.025.039.141.214.351.51 3.522 4.958 37.488 60.665 111.423 43.782a68.686 68.686 0 0 0 7.807-7.742c-23.905-8.686-40.981-31.603-40.981-58.51z" fill="#64b6ec"/><path d="M158.821 270.375a61.878 61.878 0 0 1 9.851-25.14s-68.925 6.876-89.19 56.679l.003.016c.026.039.141.215.352.51 1.298 1.827 6.731 10.547 16.775 19.986 6.91-28.648 31.893-50.246 62.209-52.051z" fill="#4b9fdb"/><path d="M152.38 351.524c-21.508-21.18-27.537-54.751-12.605-82.74 6.805-12.753 16.996-22.538 28.872-28.838 0 0-66.058 11.631-89.164 61.969a67.895 67.895 0 0 0 13.877 33.989c.147.107 21.512 15.647 59.02 15.62z" fill="#4b9fdb"/><path d="M136.629 275.508a70.6 70.6 0 0 1 3.146-6.724c6.805-12.753 16.996-22.538 28.872-28.838 0 0-66.058 11.631-89.164 61.969a67.895 67.895 0 0 0 13.877 33.989c.021.016.484.352 1.369.914.66-27.643 17.761-51.212 41.9-61.31z" fill="#3188ca"/><path d="M147.283 323.807c-5.95-8.757-8.821-18.698-8.859-28.545 0 0-37.481 6.681-38.886 47.568l40.091 19.048c2.535.283 5.084.426 7.635.427 16.766 0 32.117-6.05 43.996-16.083-16.93.516-33.753-7.368-43.977-22.415z" fill="#a1ddfb"/><path d="M99.543 342.832c10.727-13.387 26.393-22.644 44.238-25.005a50.93 50.93 0 0 1-5.357-22.565s-37.481 6.681-38.886 47.568l.005.002z" fill="#7dcfff"/><path d="M124.183 321.658c.713-10.563 4.58-20.161 10.62-27.938 0 0-37.058 10-35.265 49.11 10.595 10.372 24.555 17.318 40.092 19.048-10.426-10.122-16.503-24.587-15.447-40.22z" fill="#7dcfff"/><path d="M99.542 342.833a68.472 68.472 0 0 1 24.552-19.275c.019-.632.046-1.265.089-1.9.713-10.563 4.58-20.161 10.62-27.938 0 0-37.058 10-35.265 49.11a.036.036 0 0 0 .004.003z" fill="#64b6ec"/><path d="M202.437 240.233c-1.067 3.642-27.986 2.399-27.986 7.729 0 5.331 19.99 10.662 14.925 16.259-5.064 5.597-22.388-15.193-69.831 2.932-21.91 8.372-34.77 25.984-40.066 34.769a68.77 68.77 0 0 1-.448-7.849c0-3.98.341-7.879.997-11.669 5.824-9.875 19.913-28.765 48.046-42.171 14.902-7.101 29.39-10.113 41.566-10.638 20.272-.874 34.385 5.21 32.797 10.638z" fill="#a1ddfb"/><path d="M114.658 292.029c-16.46 12.312-20.624 33.789-21.3 43.873a68.532 68.532 0 0 0 6.18 6.928c1.676-6.011 6.455-20.708 15.12-29.373 15.493-15.492 39.304-2.147 42.646-7.213 3.376-5.118-10.04-9.95-10.04-9.95s21.767-1.066 22.478-7.996c.711-6.93-33.165-12.663-55.084 3.731z" fill="#a1ddfb"/><path d="M143.781 247.314c-9.88-2.78-10.11-12.945 25.859-17.719-12.176.525-26.664 3.537-41.566 10.638-28.133 13.406-42.222 32.296-48.046 42.171a68.412 68.412 0 0 0-.997 11.669c0 2.654.152 5.274.448 7.849 5.296-8.785 18.156-26.397 40.066-34.769 0 0 34.116-17.058 24.236-19.839zm-9.77 35.889c-6.712 1.616-13.464 4.421-19.353 8.826-16.46 12.312-20.624 33.789-21.3 43.873a68.532 68.532 0 0 0 6.18 6.928c1.676-6.011 6.455-20.708 15.12-29.373.78-.78 1.609-1.51 2.482-2.185l-.001-.004s13.334-12.398 6.137-13.952c-7.194-1.553-.404-11.234 10.735-14.113z" fill="#7dcfff"/><path stroke-linecap="butt" stroke-width="9.076" stroke="#fff" d="M483.626 291.451h-164.7" fill="none" stroke-linejoin="miter"/><path d="M470.013 323.215l54.453-31.764-54.453-31.765v63.529z" fill="#fff"/><path vectornator:shadowColor="#eeeeee" vectornator:shadowOpacity=".285" vectornator:shadowRadius="11.744" d="M580.814 138.74c-9.2 0-16.7 7.5-16.7 16.7v267.7c0 9.2 7.5 16.7 16.7 16.7h192.4c9.2 0 16.7-7.5 16.7-16.7v-207l-80.7-77.5h-128.4v.1z" vectornator:shadowOffset="19.496" fill="#f5f5f5" vectornator:shadowAngle="2.365"/><path d="M790.014 216.24h-63.9c-9.2 0-16.7-7.5-16.7-16.7v-60.8l80.6 77.5z" fill="#e1e1e1"/><g opacity=".839" fill="#adadad"><path d="M640.815 201.42h-84.879c-5.508 0-9.986-4.479-9.986-9.986v-78.222c0-5.508 4.478-9.986 9.986-9.986h84.879c5.507 0 9.986 4.478 9.986 9.986v78.222c0 5.505-4.48 9.986-9.986 9.986zm-84.879-94.866a6.665 6.665 0 0 0-6.658 6.658v78.222a6.664 6.664 0 0 0 6.658 6.657h84.879a6.664 6.664 0 0 0 6.657-6.657v-78.222a6.664 6.664 0 0 0-6.657-6.658h-84.879z"/><path d="M633.464 191.427h-9.988a.825.825 0 1 1 0-1.651h9.988a4.171 4.171 0 0 0 4.167-4.167v-66.572a4.172 4.172 0 0 0-4.167-4.168H561.06v22.475a.825.825 0 0 1-1.651 0v-23.3c0-.456.369-.826.825-.826h73.23a5.824 5.824 0 0 1 5.818 5.819v66.572a5.825 5.825 0 0 1-5.818 5.818zm-14.979 0h-3.329a.825.825 0 1 1 0-1.651h3.329a.826.826 0 0 1 0 1.651zm-6.657 0h-51.594a.825.825 0 0 1-.825-.825v-46.601a.825.825 0 1 1 1.651 0v45.775h50.768a.825.825 0 0 1 0 1.651z"/><path d="M560.234 138.169h-3.328a.825.825 0 0 1-.826-.825v-13.315c0-.456.37-.825.826-.825h3.328c.456 0 .826.369.826.825v13.315c0 .456-.37.825-.826.825zm-2.503-1.651h1.678v-11.663h-1.678v11.663zm2.503 43.259h-3.328a.826.826 0 0 1-.826-.826v-13.314c0-.456.37-.825.826-.825h3.328c.456 0 .826.369.826.825v13.314c0 .456-.37.826-.826.826zm-2.503-1.651h1.678v-11.663h-1.678v11.663zm70.74 8.315a4.165 4.165 0 0 1-4.161-4.161 4.165 4.165 0 0 1 4.161-4.161 4.165 4.165 0 0 1 4.161 4.161 4.165 4.165 0 0 1-4.161 4.161zm0-6.657a2.5 2.5 0 0 0-2.497 2.496 2.5 2.5 0 0 0 2.497 2.497 2.5 2.5 0 0 0 2.496-2.497 2.5 2.5 0 0 0-2.496-2.496zm-58.256-53.258a4.164 4.164 0 0 1-4.16-4.161 4.164 4.164 0 0 1 4.16-4.161 4.165 4.165 0 0 1 4.161 4.161 4.165 4.165 0 0 1-4.161 4.161zm0-6.657a2.5 2.5 0 0 0-2.496 2.496 2.5 2.5 0 0 0 2.496 2.497 2.5 2.5 0 0 0 2.497-2.497 2.5 2.5 0 0 0-2.497-2.496zm30.078 56.378c-13.307 0-24.133-10.826-24.133-24.132 0-13.307 10.826-24.133 24.133-24.133 13.306 0 24.132 10.826 24.132 24.133 0 13.306-10.826 24.132-24.132 24.132zm0-46.6c-12.39 0-22.469 10.079-22.469 22.468s10.079 22.468 22.469 22.468c12.389 0 22.468-10.079 22.468-22.468s-10.078-22.468-22.468-22.468z"/><path d="M600.392 137.961a.825.825 0 0 1-.825-.825v-8.322a.825.825 0 1 1 1.651 0v8.322c0 .456-.37.825-.826.825zm0 38.279a.825.825 0 0 1-.825-.825v-8.322a.825.825 0 1 1 1.651 0v8.322c0 .456-.37.825-.826.825zm23.201-23.3h-7.931a.825.825 0 1 1 0-1.651h7.931a.825.825 0 0 1 0 1.651zm-38.279 0h-8.322a.825.825 0 1 1 0-1.651h8.322a.825.825 0 0 1 0 1.651zm25.901-10.71a.825.825 0 0 1-.585-1.408l5.414-5.447a.824.824 0 1 1 1.17 1.163l-5.414 5.448a.816.816 0 0 1-.585.244zm-27.229 27.406a.825.825 0 0 1-.586-1.408l6.313-6.352a.826.826 0 0 1 1.17 1.163l-6.313 6.353a.813.813 0 0 1-.584.244zm32.643 0a.82.82 0 0 1-.585-.243l-6.346-6.389a.825.825 0 1 1 1.17-1.163l6.346 6.389a.826.826 0 0 1-.585 1.406zM589.4 142.23a.823.823 0 0 1-.586-.243l-5.414-5.447a.826.826 0 0 1 1.17-1.163l5.414 5.447a.825.825 0 1 1-.584 1.406zm-14.465 62.518h-11.374a2.915 2.915 0 0 1-2.912-2.912 2.916 2.916 0 0 1 2.912-2.913h11.374a2.917 2.917 0 0 1 2.913 2.913 2.916 2.916 0 0 1-2.913 2.912zm-11.374-4.161c-.687 0-1.248.561-1.248 1.249a1.25 1.25 0 0 0 1.248 1.248h11.374a1.25 1.25 0 0 0 1.248-1.248 1.25 1.25 0 0 0-1.248-1.249h-11.374zm69.626 4.163h-11.372a2.916 2.916 0 0 1-2.912-2.913 2.915 2.915 0 0 1 2.912-2.912h11.372a2.915 2.915 0 0 1 2.913 2.912 2.916 2.916 0 0 1-2.913 2.913zm-11.372-4.161a1.25 1.25 0 0 0-1.248 1.248c0 .688.561 1.249 1.248 1.249h11.372c.688 0 1.249-.561 1.249-1.249 0-.687-.561-1.248-1.249-1.248h-11.372z"/><path d="M600.293 167.301c-8.374 0-15.187-6.813-15.187-15.186 0-8.374 6.813-15.187 15.187-15.187 8.373 0 15.186 6.813 15.186 15.187 0 8.373-6.813 15.186-15.186 15.186zm0-28.709c-7.457 0-13.523 6.067-13.523 13.523 0 7.456 6.066 13.522 13.523 13.522 7.456 0 13.522-6.066 13.522-13.522s-6.065-13.523-13.522-13.523z"/></g><path d="M765.055 232.342c0 2.9-2.3 5.2-5.2 5.2h-167.1c-2.9 0-5.2-2.3-5.2-5.2 0-2.9 2.3-5.2 5.2-5.2h167.1c2.9-.1 5.2 2.3 5.2 5.2zm0 27.4c0 2.9-2.3 5.2-5.2 5.2h-167.1c-2.9 0-5.2-2.3-5.2-5.2 0-2.9 2.3-5.2 5.2-5.2h167.1c2.9 0 5.2 2.3 5.2 5.2zm0 26.1c0 2.9-2.3 5.2-5.2 5.2h-167.1c-2.9 0-5.2-2.3-5.2-5.2 0-2.9 2.3-5.2 5.2-5.2h167.1c2.9 0 5.2 2.3 5.2 5.2zm0 27.4c0 2.9-2.3 5.2-5.2 5.2h-167.1c-2.9 0-5.2-2.3-5.2-5.2 0-2.9 2.3-5.2 5.2-5.2h167.1c2.9 0 5.2 2.3 5.2 5.2zm-84.8 22.2h-87.5c-2.9 0-5.2 2.3-5.2 5.2 0 2.9 2.3 5.2 5.2 5.2h87.5c2.9 0 5.2-2.3 5.2-5.2 0-2.8-2.3-5.2-5.2-5.2z" opacity=".733" fill="#c9c9c8"/><path d="M638.455 393.786c.187.024.344.035.473.035h.332c.864 0 1.564-.256 2.1-.77.537-.513.805-1.178.805-1.995 0-.793-.251-1.435-.752-1.925-.502-.49-1.149-.735-1.943-.735-.84 0-1.516.28-2.03.84-.513.56-.77 1.284-.77 2.17h-6.335c.164-1.376.508-2.601 1.033-3.675.525-1.073 1.196-1.977 2.012-2.712a8.403 8.403 0 0 1 2.87-1.68c1.097-.385 2.31-.578 3.64-.578 1.307 0 2.491.181 3.553.543 1.061.362 1.971.875 2.73 1.54a6.718 6.718 0 0 1 1.75 2.415c.408.945.612 2.001.612 3.167 0 1.26-.239 2.293-.717 3.098-.479.805-1.161 1.499-2.048 2.082 1.354.42 2.409 1.173 3.168 2.258.758 1.085 1.137 2.421 1.137 4.007 0 1.307-.256 2.497-.77 3.57a8.14 8.14 0 0 1-2.152 2.765c-.922.77-2.019 1.365-3.29 1.785-1.272.42-2.666.63-4.183.63-2.03 0-3.861-.396-5.495-1.19-1.633-.793-2.94-2.053-3.92-3.78-.443-.77-.741-1.54-.892-2.31a12.074 12.074 0 0 1-.228-2.345h6.79c.047 1.237.409 2.176 1.085 2.818.677.642 1.587.962 2.73.962 1.214 0 2.1-.326 2.66-.98.56-.653.84-1.458.84-2.415 0-1.143-.338-2.006-1.015-2.59-.676-.583-1.481-.875-2.415-.875-.233 0-.455.018-.665.053-.21.035-.443.076-.7.122v-4.305zm20.825 2.87c0 1.167.105 2.229.315 3.185.21.957.508 1.785.893 2.485s.846 1.243 1.382 1.628a3.047 3.047 0 0 0 1.82.577 3.07 3.07 0 0 0 1.803-.577c.548-.385 1.009-.928 1.382-1.628.374-.7.665-1.528.875-2.485.21-.956.315-2.018.315-3.185 0-1.143-.105-2.199-.315-3.167-.21-.968-.501-1.797-.875-2.485-.373-.688-.834-1.225-1.382-1.61a3.072 3.072 0 0 0-1.803-.578c-.676 0-1.283.193-1.82.578-.536.385-.997.922-1.382 1.61-.385.688-.683 1.517-.893 2.485-.21.968-.315 2.024-.315 3.167zm-6.79 0c0-2.1.274-4.007.823-5.722.548-1.715 1.318-3.179 2.31-4.393a10.417 10.417 0 0 1 3.535-2.817c1.365-.665 2.876-.998 4.532-.998 1.634 0 3.139.333 4.515.998a10.202 10.202 0 0 1 3.535 2.817c.98 1.214 1.744 2.678 2.293 4.393.548 1.715.822 3.622.822 5.722 0 2.1-.274 4.008-.822 5.723-.549 1.715-1.313 3.185-2.293 4.41a10.116 10.116 0 0 1-3.535 2.835c-1.376.665-2.881.997-4.515.997-1.656 0-3.167-.332-4.532-.997a10.328 10.328 0 0 1-3.535-2.835c-.992-1.225-1.762-2.695-2.31-4.41-.549-1.715-.823-3.623-.823-5.723zm43.05 4.2a4.173 4.173 0 0 0 1.173 2.94 3.83 3.83 0 0 0 1.295.875c.501.21 1.044.315 1.627.315.56 0 1.091-.105 1.593-.315a3.85 3.85 0 0 0 1.295-.875 4.54 4.54 0 0 0 .875-1.295c.221-.49.332-1.015.332-1.575s-.111-1.09-.332-1.592a4.48 4.48 0 0 0-.875-1.313 3.864 3.864 0 0 0-1.295-.875 4.086 4.086 0 0 0-1.593-.315c-.56 0-1.091.105-1.592.315-.502.21-.934.502-1.295.875a4.6 4.6 0 0 0-.875 1.278 3.65 3.65 0 0 0-.333 1.557zm7.98-20.02h6.37v29.05h-6.37v-1.995c-1.353 1.704-3.185 2.555-5.495 2.555-1.306 0-2.508-.245-3.605-.735a8.918 8.918 0 0 1-2.87-2.03 9.294 9.294 0 0 1-1.907-3.045c-.455-1.166-.683-2.426-.683-3.78 0-1.283.216-2.502.648-3.657a9.166 9.166 0 0 1 1.837-3.028 8.706 8.706 0 0 1 2.853-2.047c1.108-.502 2.327-.753 3.657-.753 2.24 0 4.095.782 5.565 2.345v-12.88zm16.555 20.02a4.173 4.173 0 0 0 1.173 2.94 3.83 3.83 0 0 0 1.295.875c.501.21 1.044.315 1.627.315.56 0 1.091-.105 1.593-.315a3.85 3.85 0 0 0 1.295-.875 4.54 4.54 0 0 0 .875-1.295c.221-.49.332-1.015.332-1.575s-.111-1.09-.332-1.592a4.48 4.48 0 0 0-.875-1.313 3.864 3.864 0 0 0-1.295-.875 4.086 4.086 0 0 0-1.593-.315c-.583 0-1.126.105-1.627.315-.502.21-.934.502-1.295.875-.362.374-.648.8-.858 1.278-.21.478-.315.997-.315 1.557zm7.98-8.925h6.37v17.955h-6.37v-1.995c-1.353 1.704-3.185 2.555-5.495 2.555-1.306 0-2.508-.239-3.605-.717a8.691 8.691 0 0 1-2.87-2.013 9.294 9.294 0 0 1-1.907-3.045c-.455-1.166-.683-2.438-.683-3.815 0-1.283.222-2.502.665-3.657a9.431 9.431 0 0 1 1.855-3.028 8.77 8.77 0 0 1 2.835-2.047c1.097-.502 2.31-.753 3.64-.753 2.24 0 4.095.782 5.565 2.345v-1.785zm17.185 15.505l-8.68-15.505h7.35l4.795 9.205 4.655-9.205h7.28l-14.42 26.915h-7.105l6.125-11.41zm29.47-10.885c-1.166-.606-2.31-.91-3.43-.91-.583 0-1.056.117-1.417.35-.362.234-.543.549-.543.945 0 .21.029.38.088.508.058.128.186.251.385.367.198.117.49.222.875.315.385.094.892.21 1.522.35 1.75.35 3.057.975 3.92 1.873.864.898 1.295 2.047 1.295 3.447 0 1.05-.21 1.995-.63 2.835a6.03 6.03 0 0 1-1.75 2.118c-.746.572-1.645 1.015-2.695 1.33-1.05.315-2.205.472-3.465.472-2.426 0-4.818-.688-7.175-2.065l2.31-4.48c1.774 1.214 3.454 1.82 5.04 1.82.584 0 1.062-.128 1.435-.385.374-.256.56-.583.56-.98 0-.233-.029-.425-.087-.577-.059-.152-.181-.292-.368-.42-.186-.128-.461-.245-.822-.35a17.878 17.878 0 0 0-1.418-.333c-1.96-.396-3.331-.985-4.112-1.767-.782-.782-1.173-1.861-1.173-3.238 0-1.003.187-1.907.56-2.712a5.625 5.625 0 0 1 1.61-2.048c.7-.56 1.546-.991 2.538-1.295.991-.303 2.094-.455 3.307-.455 1.984 0 3.909.385 5.775 1.155l-2.135 4.13zM400.279 258.655c-17.83-.781-34.366-13.28-39.427-30.289-3.923-13.152-1.811-25.784 4.523-37.805 4.613-8.752 11.265-15.889 18.202-22.778 6.063-6.011 12.406-11.74 17.986-18.225.891-1.032 1.644-2.2 3.097-.474 7.041 8.4 15.468 15.443 22.978 23.396 6.987 7.407 13.151 15.353 16.752 25.004 8.097 21.751 1.273 45.269-20.915 56.687-7.168 3.686-13.752 5.058-23.196 4.484z" fill="#46beae"/><path d="M422.052 207.921c.677-4.687-2.56-9.645-8.835-11.793l1.647-6.635-4.97-1.232-1.592 6.431a196.87 196.87 0 0 0-3.982-.931l1.608-6.479-4.967-1.232-1.646 6.633-9.006-2.217-1.317 5.307s3.688.846 3.61.892c2.012.507 2.369 1.831 2.318 2.887l-5.547 22.358c-.245.611-.868 1.523-2.274 1.185.049.071-3.613-.897-3.613-.897l-2.459 5.689 8.994 2.262-1.794 7.241 4.964 1.232 1.775-7.155c1.353.368 2.673.707 3.959 1.016l-1.768 7.117 4.97 1.244 1.794-7.227c8.472 1.592 14.916-.605 16.498-6.979 1.291-5.202.127-9.004-3.563-11.789 2.416-.77 4.661-3.27 5.196-6.928zM411.86 223.47c-1.523 6.17-11.918 2.848-15.287 2.017l2.708-10.939c3.374.835 14.173 2.487 12.579 8.922zm1.523-16.008c-1.401 5.613-10.05 2.774-12.86 2.077l2.46-9.921c2.811.697 11.845 1.99 10.4 7.844z" fill="#fff"/></g><g vectornator:layerName="feature4" visibility="hidden"><path d="M593.431 204.07h163.245c20.226 0 32.649 19.018 32.649 32.649v116.36c0 16.847-13.713 30.56-30.56 30.56H591.342c-16.847 0-30.56-13.713-30.56-30.56V235.881c0-16.646 15.558-31.811 32.649-31.811zm8.152 103.388c7.514 0 13.614-6.084 13.614-13.598 0-7.515-6.1-13.609-13.614-13.609-7.493 0-13.593 6.094-13.593 13.609 0 7.514 6.1 13.598 13.593 13.598zm155.093-114.271H604.314v-18.186c0-8.804 0-25.199 17.794-25.199 4.032 0 8.94.8 15.437 2.514 16.374 4.315 112.291 30.908 113.722 31.327 14.246 5.365 23.262 10.649 28.911 16.846-6.623-4.483-14.578-7.302-23.502-7.302z" fill="#fff"/><path d="M724.442 274.527c0-12.863 3.903-24.814 10.587-34.735 0 0-68.925 6.876-89.189 56.679l.002.016c.026.039.142.215.352.511 3.522 4.957 37.487 60.664 111.423 43.782a68.612 68.612 0 0 0 7.807-7.743c-23.906-8.686-40.982-31.603-40.982-58.51z" fill="#64b6ec"/><path d="M725.179 264.932a61.868 61.868 0 0 1 9.851-25.139s-68.925 6.875-89.189 56.678l.002.017c.025.039.141.214.351.51 1.298 1.827 6.732 10.547 16.776 19.985 6.909-28.648 31.892-50.245 62.209-52.051z" fill="#4b9fdb"/><path d="M718.737 346.082c-21.508-21.18-27.537-54.752-12.604-82.74 6.804-12.753 16.995-22.539 28.871-28.839 0 0-66.057 11.632-89.163 61.969a67.895 67.895 0 0 0 13.877 33.989c.146.108 21.512 15.647 59.019 15.621z" fill="#4b9fdb"/><path d="M702.987 270.065a70.583 70.583 0 0 1 3.146-6.723c6.804-12.753 16.995-22.539 28.871-28.839 0 0-66.057 11.632-89.163 61.969a67.895 67.895 0 0 0 13.877 33.989c.021.016.484.352 1.369.914.66-27.643 17.761-51.212 41.9-61.31z" fill="#3188ca"/><path d="M713.641 318.364c-5.95-8.756-8.822-18.698-8.859-28.544 0 0-37.481 6.681-38.886 47.568l40.091 19.047a68.82 68.82 0 0 0 7.635.428c16.766 0 32.116-6.051 43.995-16.083-16.929.515-33.752-7.369-43.976-22.416z" fill="#a1ddfb"/><path d="M665.9 337.389c10.727-13.387 26.394-22.644 44.238-25.005a50.922 50.922 0 0 1-5.356-22.564s-37.481 6.68-38.886 47.567l.004.002z" fill="#7dcfff"/><path d="M690.541 316.215c.713-10.563 4.58-20.161 10.62-27.937 0 0-37.058 9.999-35.265 49.109 10.595 10.373 24.555 17.318 40.092 19.048-10.426-10.121-16.503-24.587-15.447-40.22z" fill="#7dcfff"/><path d="M665.899 337.391a68.488 68.488 0 0 1 24.552-19.276c.02-.632.047-1.264.09-1.9.713-10.563 4.58-20.161 10.62-27.937 0 0-37.058 9.999-35.265 49.109l.003.004z" fill="#64b6ec"/><path d="M768.794 234.79c-1.066 3.643-27.986 2.399-27.986 7.73 0 5.33 19.99 10.661 14.926 16.258-5.064 5.597-22.389-15.192-69.832 2.932-21.909 8.372-34.769 25.984-40.065 34.769a68.698 68.698 0 0 1-.448-7.849c0-3.979.341-7.879.997-11.669 5.824-9.875 19.913-28.764 48.045-42.171 14.902-7.1 29.391-10.112 41.566-10.637 20.273-.874 34.386 5.21 32.797 10.637z" fill="#a1ddfb"/><path d="M681.016 286.586c-16.461 12.312-20.624 33.79-21.301 43.874a68.839 68.839 0 0 0 6.181 6.928c1.675-6.012 6.455-20.708 15.12-29.373 15.493-15.493 39.304-2.147 42.645-7.213 3.376-5.119-10.039-9.951-10.039-9.951s21.767-1.066 22.477-7.996c.711-6.93-33.164-12.663-55.083 3.731z" fill="#a1ddfb"/><path d="M710.138 241.872c-9.88-2.781-10.109-12.946 25.859-17.719-12.175.525-26.664 3.537-41.566 10.637-28.132 13.407-42.221 32.296-48.045 42.171a68.422 68.422 0 0 0-.997 11.669c0 2.655.152 5.275.448 7.849 5.296-8.785 18.156-26.397 40.065-34.769 0 0 34.117-17.058 24.236-19.838zm-9.769 35.888c-6.712 1.616-13.464 4.422-19.353 8.826-16.461 12.312-20.624 33.79-21.301 43.874a68.839 68.839 0 0 0 6.181 6.928c1.675-6.012 6.455-20.708 15.12-29.373.78-.78 1.609-1.51 2.481-2.186v-.003s13.333-12.399 6.137-13.952c-7.195-1.554-.404-11.234 10.735-14.114z" fill="#7dcfff"/><path d="M318.926 291.451h205.545"/><path stroke-linecap="butt" stroke-width="9.076" stroke="#fff" d="M483.626 291.451h-164.7" fill="none" stroke-linejoin="miter"/><path d="M470.013 323.215l54.453-31.764-54.453-31.765v63.529z" fill="#fff"/><path vectornator:shadowColor="#eeeeee" vectornator:shadowOpacity=".285" vectornator:shadowRadius="11.744" d="M75.327 156.225c-9.2 0-16.7 7.5-16.7 16.7v267.7c0 9.2 7.5 16.7 16.7 16.7h192.4c9.2 0 16.7-7.5 16.7-16.7v-207l-80.7-77.5h-128.4v.1z" vectornator:shadowOffset="19.496" fill="#f5f5f5" vectornator:shadowAngle="2.365"/><path d="M284.527 233.725h-63.9c-9.2 0-16.7-7.5-16.7-16.7v-60.8l80.6 77.5z" fill="#e1e1e1"/><g opacity=".839" fill="#adadad"><path d="M135.328 218.904h-84.88c-5.506 0-9.985-4.478-9.985-9.985v-78.223c0-5.507 4.479-9.985 9.986-9.985h84.879c5.507 0 9.986 4.478 9.986 9.985v78.223c0 5.505-4.48 9.985-9.986 9.985zm-84.88-94.865a6.664 6.664 0 0 0-6.656 6.657v78.223a6.664 6.664 0 0 0 6.657 6.657h84.879a6.663 6.663 0 0 0 6.657-6.657v-78.223a6.663 6.663 0 0 0-6.657-6.657h-84.88z"/><path d="M127.977 208.912h-9.987a.826.826 0 1 1 0-1.651h9.987a4.171 4.171 0 0 0 4.167-4.167v-66.573a4.171 4.171 0 0 0-4.167-4.167H55.573v22.475a.825.825 0 1 1-1.65 0v-23.3c0-.456.369-.826.825-.826h73.229a5.824 5.824 0 0 1 5.818 5.818v66.573a5.825 5.825 0 0 1-5.818 5.818zm-14.979 0h-3.328a.826.826 0 0 1 0-1.651h3.328a.825.825 0 1 1 0 1.651zm-6.657 0H54.748a.826.826 0 0 1-.826-.826v-46.6a.826.826 0 1 1 1.651 0v45.775h50.768a.825.825 0 1 1 0 1.651z"/><path d="M54.748 155.654h-3.329a.825.825 0 0 1-.825-.825v-13.315c0-.456.369-.825.825-.825h3.329c.456 0 .825.369.825.825v13.315c0 .456-.37.825-.825.825zm-2.503-1.651h1.677V142.34h-1.677v11.663zm2.503 43.259h-3.329a.826.826 0 0 1-.825-.826v-13.314c0-.456.369-.826.825-.826h3.329c.456 0 .825.37.825.826v13.314c0 .456-.37.826-.825.826zm-2.503-1.651h1.677v-11.664h-1.677v11.664zm70.739 8.315a4.165 4.165 0 0 1-4.161-4.161 4.165 4.165 0 0 1 4.161-4.161 4.165 4.165 0 0 1 4.161 4.161 4.165 4.165 0 0 1-4.161 4.161zm0-6.658a2.5 2.5 0 0 0-2.496 2.497 2.5 2.5 0 0 0 2.496 2.496 2.5 2.5 0 0 0 2.497-2.496 2.5 2.5 0 0 0-2.497-2.497zm-58.255-53.257a4.165 4.165 0 0 1-4.161-4.161 4.165 4.165 0 0 1 4.16-4.161 4.165 4.165 0 0 1 4.161 4.161 4.165 4.165 0 0 1-4.16 4.161zm0-6.657a2.5 2.5 0 0 0-2.497 2.496 2.5 2.5 0 0 0 2.496 2.496 2.5 2.5 0 0 0 2.497-2.496 2.5 2.5 0 0 0-2.496-2.496zm30.077 56.378c-13.306 0-24.133-10.826-24.133-24.133 0-13.306 10.827-24.132 24.133-24.132s24.132 10.826 24.132 24.132c0 13.307-10.826 24.133-24.132 24.133zm0-46.601c-12.39 0-22.468 10.079-22.468 22.468 0 12.39 10.079 22.469 22.468 22.469s22.468-10.079 22.468-22.469c0-12.389-10.077-22.468-22.468-22.468z"/><path d="M94.906 155.446a.825.825 0 0 1-.826-.825v-8.322a.825.825 0 1 1 1.651 0v8.322c0 .456-.37.825-.825.825zm0 38.279a.825.825 0 0 1-.826-.825v-8.322a.825.825 0 1 1 1.651 0v8.322c0 .456-.37.825-.825.825zm23.2-23.3h-7.93a.826.826 0 0 1 0-1.651h7.93a.825.825 0 1 1 0 1.651zm-38.279 0h-8.322a.826.826 0 0 1 0-1.651h8.322a.825.825 0 1 1 0 1.651zm25.902-10.71a.825.825 0 0 1-.586-1.408l5.414-5.447a.824.824 0 1 1 1.17 1.163l-5.414 5.447a.81.81 0 0 1-.584.245zm-27.23 27.406a.826.826 0 0 1-.586-1.408l6.313-6.352a.826.826 0 0 1 1.17 1.163l-6.313 6.353a.813.813 0 0 1-.584.244zm32.644 0a.823.823 0 0 1-.586-.243l-6.346-6.389a.826.826 0 0 1 1.17-1.163l6.346 6.389a.826.826 0 0 1-.584 1.406zm-27.23-27.406a.823.823 0 0 1-.586-.243l-5.414-5.447a.826.826 0 0 1 1.17-1.163l5.414 5.447a.824.824 0 0 1-.584 1.406zm-14.465 62.518H58.075a2.916 2.916 0 0 1-2.913-2.913 2.915 2.915 0 0 1 2.913-2.912h11.373a2.915 2.915 0 0 1 2.913 2.912 2.916 2.916 0 0 1-2.913 2.913zm-11.373-4.161a1.25 1.25 0 0 0-1.249 1.248c0 .688.561 1.249 1.249 1.249h11.373c.688 0 1.249-.561 1.249-1.249a1.25 1.25 0 0 0-1.249-1.248H58.075zm69.626 4.163h-11.372a2.916 2.916 0 0 1-2.913-2.913 2.915 2.915 0 0 1 2.913-2.912h11.372a2.915 2.915 0 0 1 2.912 2.912 2.916 2.916 0 0 1-2.912 2.913zm-11.372-4.161c-.688 0-1.249.561-1.249 1.248 0 .687.561 1.248 1.249 1.248h11.372a1.25 1.25 0 0 0 1.248-1.248 1.25 1.25 0 0 0-1.248-1.248h-11.372z"/><path d="M94.806 184.786c-8.373 0-15.187-6.813-15.187-15.187 0-8.373 6.814-15.186 15.187-15.186s15.187 6.813 15.187 15.186c0 8.374-6.814 15.187-15.187 15.187zm0-28.709c-7.456 0-13.523 6.066-13.523 13.522 0 7.457 6.067 13.523 13.523 13.523 7.456 0 13.522-6.066 13.522-13.523 0-7.456-6.064-13.522-13.522-13.522z"/></g><path d="M259.568 249.827c0 2.9-2.3 5.2-5.2 5.2h-167.1c-2.9 0-5.2-2.3-5.2-5.2 0-2.9 2.3-5.2 5.2-5.2h167.1c2.9-.1 5.2 2.3 5.2 5.2zm0 27.4c0 2.9-2.3 5.2-5.2 5.2h-167.1c-2.9 0-5.2-2.3-5.2-5.2 0-2.9 2.3-5.2 5.2-5.2h167.1c2.9 0 5.2 2.3 5.2 5.2zm0 26.1c0 2.9-2.3 5.2-5.2 5.2h-167.1c-2.9 0-5.2-2.3-5.2-5.2 0-2.9 2.3-5.2 5.2-5.2h167.1c2.9 0 5.2 2.3 5.2 5.2zm0 27.4c0 2.9-2.3 5.2-5.2 5.2h-167.1c-2.9 0-5.2-2.3-5.2-5.2 0-2.9 2.3-5.2 5.2-5.2h167.1c2.9 0 5.2 2.3 5.2 5.2zm-84.8 22.2h-87.5c-2.9 0-5.2 2.3-5.2 5.2 0 2.9 2.3 5.2 5.2 5.2h87.5c2.9 0 5.2-2.3 5.2-5.2 0-2.8-2.3-5.2-5.2-5.2z" opacity=".733" fill="#c9c9c8"/><path d="M129.229 403.274c.187.024.345.035.473.035h.332c.864 0 1.564-.256 2.1-.77.537-.513.805-1.178.805-1.995 0-.793-.25-1.435-.752-1.925s-1.149-.735-1.943-.735c-.84 0-1.516.28-2.03.84-.513.56-.77 1.284-.77 2.17h-6.335c.164-1.376.508-2.601 1.033-3.675.525-1.073 1.196-1.977 2.012-2.712a8.403 8.403 0 0 1 2.87-1.68c1.097-.385 2.31-.578 3.64-.578 1.307 0 2.491.181 3.553.543 1.062.361 1.972.875 2.73 1.54a6.706 6.706 0 0 1 1.75 2.415c.408.945.612 2.001.612 3.167 0 1.26-.239 2.293-.717 3.098-.478.805-1.161 1.499-2.048 2.082 1.354.42 2.41 1.173 3.168 2.258s1.137 2.421 1.137 4.007c0 1.307-.256 2.497-.77 3.57a8.127 8.127 0 0 1-2.152 2.765c-.922.77-2.018 1.365-3.29 1.785-1.272.42-2.666.63-4.183.63-2.03 0-3.861-.396-5.495-1.19-1.633-.793-2.94-2.053-3.92-3.78-.443-.77-.74-1.54-.892-2.31a12.074 12.074 0 0 1-.228-2.345h6.79c.047 1.237.409 2.176 1.085 2.818.677.641 1.587.962 2.73.962 1.214 0 2.1-.326 2.66-.98.56-.653.84-1.458.84-2.415 0-1.143-.338-2.006-1.015-2.59-.676-.583-1.481-.875-2.415-.875-.233 0-.455.018-.665.053-.21.035-.443.076-.7.122v-4.305zm20.825 2.87c0 1.167.105 2.229.315 3.185.21.957.508 1.785.893 2.485s.846 1.243 1.382 1.628a3.047 3.047 0 0 0 1.82.577c.654 0 1.255-.192 1.803-.577.548-.385 1.009-.928 1.382-1.628.374-.7.665-1.528.875-2.485.21-.956.315-2.018.315-3.185 0-1.143-.105-2.199-.315-3.167-.21-.969-.501-1.797-.875-2.485-.373-.689-.834-1.225-1.382-1.61a3.07 3.07 0 0 0-1.803-.578c-.676 0-1.283.193-1.82.578-.536.385-.997.921-1.382 1.61-.385.688-.683 1.516-.893 2.485-.21.968-.315 2.024-.315 3.167zm-6.79 0c0-2.1.275-4.007.823-5.722.548-1.715 1.318-3.179 2.31-4.393a10.426 10.426 0 0 1 3.535-2.817c1.365-.665 2.876-.998 4.532-.998 1.634 0 3.139.333 4.515.998a10.202 10.202 0 0 1 3.535 2.817c.98 1.214 1.745 2.678 2.293 4.393.548 1.715.822 3.622.822 5.722 0 2.1-.274 4.008-.822 5.723-.548 1.715-1.313 3.185-2.293 4.41a10.116 10.116 0 0 1-3.535 2.835c-1.376.665-2.881.997-4.515.997-1.656 0-3.167-.332-4.532-.997a10.337 10.337 0 0 1-3.535-2.835c-.992-1.225-1.762-2.695-2.31-4.41-.548-1.715-.823-3.623-.823-5.723zm43.05 4.2a4.173 4.173 0 0 0 1.173 2.94 3.84 3.84 0 0 0 1.295.875c.502.21 1.044.315 1.627.315.56 0 1.091-.105 1.593-.315a3.84 3.84 0 0 0 1.295-.875 4.52 4.52 0 0 0 .875-1.295 3.77 3.77 0 0 0 .332-1.575c0-.56-.11-1.091-.332-1.592a4.46 4.46 0 0 0-.875-1.313 3.854 3.854 0 0 0-1.295-.875 4.086 4.086 0 0 0-1.593-.315c-.56 0-1.09.105-1.592.315-.502.21-.933.502-1.295.875a4.606 4.606 0 0 0-.875 1.278 3.65 3.65 0 0 0-.333 1.557zm7.98-20.02h6.37v29.05h-6.37v-1.995c-1.353 1.704-3.185 2.555-5.495 2.555-1.306 0-2.508-.245-3.605-.735a8.918 8.918 0 0 1-2.87-2.03 9.294 9.294 0 0 1-1.907-3.045c-.455-1.166-.683-2.426-.683-3.78 0-1.283.216-2.502.648-3.657a9.182 9.182 0 0 1 1.837-3.028 8.702 8.702 0 0 1 2.853-2.047c1.108-.502 2.327-.753 3.657-.753 2.24 0 4.095.782 5.565 2.345v-12.88zm16.555 20.02a4.173 4.173 0 0 0 1.173 2.94 3.84 3.84 0 0 0 1.295.875c.502.21 1.044.315 1.627.315.56 0 1.091-.105 1.593-.315a3.84 3.84 0 0 0 1.295-.875 4.52 4.52 0 0 0 .875-1.295 3.77 3.77 0 0 0 .332-1.575c0-.56-.11-1.091-.332-1.592a4.46 4.46 0 0 0-.875-1.313 3.854 3.854 0 0 0-1.295-.875 4.086 4.086 0 0 0-1.593-.315c-.583 0-1.125.105-1.627.315-.502.21-.933.502-1.295.875a4.31 4.31 0 0 0-.858 1.278c-.21.478-.315.997-.315 1.557zm7.98-8.925h6.37v17.955h-6.37v-1.995c-1.353 1.704-3.185 2.555-5.495 2.555-1.306 0-2.508-.239-3.605-.717a8.706 8.706 0 0 1-2.87-2.013 9.294 9.294 0 0 1-1.907-3.045c-.455-1.166-.683-2.438-.683-3.815 0-1.283.222-2.502.665-3.657a9.431 9.431 0 0 1 1.855-3.028 8.755 8.755 0 0 1 2.835-2.047c1.097-.502 2.31-.753 3.64-.753 2.24 0 4.095.782 5.565 2.345v-1.785zm17.185 15.505l-8.68-15.505h7.35l4.795 9.205 4.655-9.205h7.28l-14.42 26.915h-7.105l6.125-11.41zm29.47-10.885c-1.166-.606-2.31-.91-3.43-.91-.583 0-1.055.117-1.417.35-.362.234-.543.549-.543.945 0 .21.03.379.088.508.058.128.187.251.385.367.198.117.49.222.875.315.385.094.892.21 1.522.35 1.75.35 3.057.974 3.92 1.873.864.898 1.295 2.047 1.295 3.447 0 1.05-.21 1.995-.63 2.835a6.03 6.03 0 0 1-1.75 2.118c-.746.571-1.645 1.015-2.695 1.33-1.05.315-2.205.472-3.465.472-2.426 0-4.818-.688-7.175-2.065l2.31-4.48c1.774 1.214 3.454 1.82 5.04 1.82.584 0 1.062-.128 1.435-.385.374-.256.56-.583.56-.98a1.63 1.63 0 0 0-.087-.577c-.058-.152-.181-.292-.368-.42-.186-.129-.46-.245-.822-.35a17.878 17.878 0 0 0-1.418-.333c-1.96-.396-3.33-.986-4.112-1.767-.782-.782-1.173-1.861-1.173-3.238 0-1.003.187-1.907.56-2.712a5.625 5.625 0 0 1 1.61-2.048c.7-.56 1.546-.991 2.538-1.295.992-.303 2.094-.455 3.307-.455 1.984 0 3.909.385 5.775 1.155l-2.135 4.13zm134.795-147.384c-17.83-.781-34.366-13.28-39.427-30.289-3.923-13.152-1.811-25.784 4.523-37.805 4.613-8.752 11.265-15.889 18.202-22.778 6.063-6.011 12.406-11.74 17.986-18.225.891-1.032 1.644-2.2 3.097-.474 7.041 8.4 15.468 15.443 22.978 23.396 6.987 7.407 13.151 15.353 16.752 25.004 8.097 21.751 1.273 45.269-20.915 56.687-7.168 3.686-13.752 5.058-23.196 4.484z" fill="#46beae"/><path d="M407.589 216.645c-.262.02-1.618.101-4.643.101-2.405 0-4.113-.073-4.712-.101-9.296-.409-16.235-2.027-16.235-3.965 0-1.937 6.939-3.553 16.235-3.969v6.322c.608.044 2.348.147 4.754.147 2.887 0 4.332-.12 4.592-.144v-6.32c9.277.413 16.2 2.031 16.2 3.964 0 1.934-6.921 3.552-16.2 3.963l.009.002zm0-8.583v-5.657h12.946v-8.627h-35.247v8.627h12.944v5.655c-10.521.483-18.433 2.567-18.433 5.064 0 2.498 7.912 4.579 18.433 5.065v18.129h9.355v-18.136c10.496-.483 18.395-2.565 18.395-5.06 0-2.495-7.892-4.577-18.395-5.062l.002.002z" fill="#fff"/></g><g vectornator:layerName="feature5-1" visibility="hidden"><path d="M498.94 445.91h-16.498c-1.518 0-2.75 1.15-2.75 2.567v15.401H347.703V322.705c0-1.417-1.232-2.566-2.75-2.566h-16.498c-1.518 0-2.75 1.149-2.75 2.566v159.14c0 1.417 1.232 2.567 2.75 2.567H498.94c1.518 0 2.75-1.15 2.75-2.567v-33.368c0-1.417-1.232-2.567-2.75-2.567zm-2.75 33.369H331.205V325.272h10.999v141.173c0 1.416 1.231 2.566 2.749 2.566h137.489c1.517 0 2.749-1.15 2.749-2.566v-15.401h10.999v28.235z" fill-opacity=".404" fill="#fff"/><path d="M506.774 341.289c-.555-1.258-1.647-2.277-3.074-2.821a5.804 5.804 0 0 0-2.01-.362h-27.498c-3.033 0-5.499 2.302-5.499 5.133 0 2.832 2.466 5.134 5.499 5.134h14.134l-35.002 31.499-27.77-22.538c-2.122-1.728-5.285-1.679-7.366.123l-57.789 51.328c-1.075.934-1.697 2.202-1.752 3.573-.055 1.37.468 2.677 1.469 3.68 1.036 1.042 2.505 1.638 4.028 1.638a5.706 5.706 0 0 0 3.756-1.386l54.181-48.171 27.88 22.629c2.175 1.766 5.47 1.655 7.482-.229l38.747-34.959v13.347c0 2.831 2.467 5.134 5.5 5.134s5.499-2.303 5.499-5.134v-25.668c0-.634-.129-1.262-.415-1.95zm-2.334 27.618c0 1.415-1.235 2.567-2.75 2.567s-2.75-1.152-2.75-2.567v-16.373c0-.516-.33-.981-.839-1.181a1.45 1.45 0 0 0-1.493.259l-41.098 37.08c-1.014.95-2.659 1.004-3.745.118l-28.823-23.394a1.443 1.443 0 0 0-1.85.041l-55.078 48.967c-1.078.939-2.885.873-3.886-.131a2.45 2.45 0 0 1-.734-1.84c.025-.686.338-1.32.886-1.797l57.791-51.325a2.855 2.855 0 0 1 1.876-.691c.64 0 1.284.211 1.804.632l28.718 23.311a1.445 1.445 0 0 0 1.856-.046l38.359-34.523c.402-.365.531-.919.322-1.404-.209-.485-.712-.804-1.273-.804h-17.541c-1.515 0-2.75-1.152-2.75-2.567 0-1.414 1.235-2.566 2.75-2.566h27.498c.333 0 .671.061 1.042.195a2.69 2.69 0 0 1 1.51 1.435c.132.31.198.626.198.936v25.668z" fill-opacity=".404" fill="#fff"/><path d="M442.54 395.858a1.41 1.41 0 0 0 1.036-.441c.498-.534.438-1.345-.134-1.812l-1.345-1.091c-.572-.462-1.438-.411-1.941.126a1.224 1.224 0 0 0 .134 1.809l1.345 1.094c.261.21.583.315.905.315zm-4.744-3.85c.385 0 .765-.149 1.037-.441.498-.534.437-1.345-.135-1.812l-3.475-2.821a1.45 1.45 0 0 0-1.942.125c-.5.534-.437 1.345.135 1.813l3.476 2.82c.264.211.583.316.904.316zm-59.109 25.324l43.383-37.673 5.849 4.749c.572.462 1.441.411 1.942-.126.497-.534.437-1.345-.135-1.812l-6.781-5.506a1.454 1.454 0 0 0-1.837.029l-44.293 38.46a1.224 1.224 0 0 0-.072 1.815c.273.269.638.408 1.007.408.335 0 .671-.113.937-.344z" fill-opacity=".404" fill="#fff"/><path d="M433.874 379.896c-4.274 17.143-21.638 27.575-38.783 23.301-17.137-4.274-27.57-21.638-23.295-38.78 4.272-17.145 21.635-27.579 38.775-23.305 17.144 4.274 27.576 21.64 23.302 38.784h.001z" fill-opacity=".307" fill="#f7931a"/><path d="M416.944 367.596c.636-4.258-2.606-6.547-7.039-8.074l1.438-5.768-3.512-.875-1.4 5.616c-.922-.23-1.87-.447-2.812-.662l1.41-5.653-3.509-.875-1.439 5.766c-.764-.174-1.514-.346-2.242-.527l.004-.018-4.842-1.209-.934 3.75s2.605.597 2.55.634c1.422.355 1.68 1.296 1.636 2.042l-1.638 6.571c.098.025.225.061.365.117l-.37-.092-2.297 9.205c-.174.432-.615 1.08-1.609.834.035.051-2.552-.637-2.552-.637l-1.743 4.02 4.57 1.139c.85.213 1.683.436 2.502.646l-1.453 5.835 3.507.875 1.44-5.772c.957.26 1.887.5 2.797.726l-1.434 5.745 3.511.875 1.453-5.823c5.987 1.133 10.49.676 12.383-4.738 1.527-4.36-.075-6.875-3.225-8.516 2.294-.531 4.022-2.04 4.483-5.157h.001zm-8.023 11.249c-1.086 4.36-8.426 2.004-10.807 1.412l1.928-7.729c2.38.594 10.011 1.77 8.88 6.317h-.001zm1.085-11.312c-.99 3.966-7.1 1.951-9.083 1.457l1.748-7.01c1.983.494 8.367 1.416 7.335 5.553z" fill-opacity=".285" fill="#fff"/></g><g vectornator:layerName="feature5" visibility="hidden"><path stroke="#fff" stroke-opacity="0" stroke-width="9.076" d="M231.444 206.222H68.199c-20.226 0-32.649 19.018-32.649 32.649v116.361c0 16.847 13.713 30.559 30.56 30.559h167.423c16.847 0 30.56-13.712 30.56-30.559V238.033c0-16.645-15.558-31.811-32.649-31.811zm-8.152 103.389c-7.514 0-13.614-6.084-13.614-13.599 0-7.514 6.1-13.609 13.614-13.609 7.493 0 13.593 6.095 13.593 13.609 0 7.515-6.1 13.599-13.593 13.599zM68.199 195.34h152.362v-18.186c0-8.804 0-25.199-17.794-25.199-4.032 0-8.94.799-15.437 2.514-16.374 4.315-112.29 30.907-113.722 31.326-14.246 5.365-23.262 10.649-28.91 16.847 6.622-4.484 14.577-7.302 23.501-7.302z" fill="#fff" stroke-linecap="butt" stroke-linejoin="miter"/><path d="M158.085 279.97c0-12.863 3.902-24.814 10.587-34.735 0 0-68.925 6.875-89.19 56.679l.003.016c.025.039.141.214.351.51 3.522 4.958 37.488 60.665 111.423 43.782a68.686 68.686 0 0 0 7.807-7.742c-23.905-8.686-40.981-31.603-40.981-58.51z" fill="#64b6ec"/><path d="M158.821 270.375a61.878 61.878 0 0 1 9.851-25.14s-68.925 6.876-89.19 56.679l.003.016c.026.039.141.215.352.51 1.298 1.827 6.731 10.547 16.775 19.986 6.91-28.648 31.893-50.246 62.209-52.051z" fill="#4b9fdb"/><path d="M152.38 351.524c-21.508-21.18-27.537-54.751-12.605-82.74 6.805-12.753 16.996-22.538 28.872-28.838 0 0-66.058 11.631-89.164 61.969a67.895 67.895 0 0 0 13.877 33.989c.147.107 21.512 15.647 59.02 15.62z" fill="#4b9fdb"/><path d="M136.629 275.508a70.6 70.6 0 0 1 3.146-6.724c6.805-12.753 16.996-22.538 28.872-28.838 0 0-66.058 11.631-89.164 61.969a67.895 67.895 0 0 0 13.877 33.989c.021.016.484.352 1.369.914.66-27.643 17.761-51.212 41.9-61.31z" fill="#3188ca"/><path d="M147.283 323.807c-5.95-8.757-8.821-18.698-8.859-28.545 0 0-37.481 6.681-38.886 47.568l40.091 19.048c2.535.283 5.084.426 7.635.427 16.766 0 32.117-6.05 43.996-16.083-16.93.516-33.753-7.368-43.977-22.415z" fill="#a1ddfb"/><path d="M99.543 342.832c10.727-13.387 26.393-22.644 44.238-25.005a50.93 50.93 0 0 1-5.357-22.565s-37.481 6.681-38.886 47.568l.005.002z" fill="#7dcfff"/><path d="M124.183 321.658c.713-10.563 4.58-20.161 10.62-27.938 0 0-37.058 10-35.265 49.11 10.595 10.372 24.555 17.318 40.092 19.048-10.426-10.122-16.503-24.587-15.447-40.22z" fill="#7dcfff"/><path d="M99.542 342.833a68.472 68.472 0 0 1 24.552-19.275c.019-.632.046-1.265.089-1.9.713-10.563 4.58-20.161 10.62-27.938 0 0-37.058 10-35.265 49.11a.036.036 0 0 0 .004.003z" fill="#64b6ec"/><path d="M202.437 240.233c-1.067 3.642-27.986 2.399-27.986 7.729 0 5.331 19.99 10.662 14.925 16.259-5.064 5.597-22.388-15.193-69.831 2.932-21.91 8.372-34.77 25.984-40.066 34.769a68.77 68.77 0 0 1-.448-7.849c0-3.98.341-7.879.997-11.669 5.824-9.875 19.913-28.765 48.046-42.171 14.902-7.101 29.39-10.113 41.566-10.638 20.272-.874 34.385 5.21 32.797 10.638z" fill="#a1ddfb"/><path d="M114.658 292.029c-16.46 12.312-20.624 33.789-21.3 43.873a68.532 68.532 0 0 0 6.18 6.928c1.676-6.011 6.455-20.708 15.12-29.373 15.493-15.492 39.304-2.147 42.646-7.213 3.376-5.118-10.04-9.95-10.04-9.95s21.767-1.066 22.478-7.996c.711-6.93-33.165-12.663-55.084 3.731z" fill="#a1ddfb"/><path d="M143.781 247.314c-9.88-2.78-10.11-12.945 25.859-17.719-12.176.525-26.664 3.537-41.566 10.638-28.133 13.406-42.222 32.296-48.046 42.171a68.412 68.412 0 0 0-.997 11.669c0 2.654.152 5.274.448 7.849 5.296-8.785 18.156-26.397 40.066-34.769 0 0 34.116-17.058 24.236-19.839zm-9.77 35.889c-6.712 1.616-13.464 4.421-19.353 8.826-16.46 12.312-20.624 33.789-21.3 43.873a68.532 68.532 0 0 0 6.18 6.928c1.676-6.011 6.455-20.708 15.12-29.373.78-.78 1.609-1.51 2.482-2.185l-.001-.004s13.334-12.398 6.137-13.952c-7.194-1.553-.404-11.234 10.735-14.113z" fill="#7dcfff"/><path stroke-linecap="butt" stroke-width="9.076" stroke="#fff" d="M483.626 291.451h-164.7" fill="none" stroke-linejoin="miter"/><path d="M470.013 323.215l54.453-31.764-54.453-31.765v63.529z" fill="#fff"/><path vectornator:shadowColor="#eeeeee" vectornator:shadowOpacity=".322" vectornator:shadowRadius="11.744" d="M580.814 138.74c-9.2 0-16.7 7.5-16.7 16.7v267.7c0 9.2 7.5 16.7 16.7 16.7h192.4c9.2 0 16.7-7.5 16.7-16.7v-207l-80.7-77.5h-128.4v.1z" vectornator:shadowOffset="19.496" fill="#f5f5f5" vectornator:shadowAngle="2.365"/><path d="M790.014 216.24h-63.9c-9.2 0-16.7-7.5-16.7-16.7v-60.8l80.6 77.5z" fill="#e1e1e1"/><g opacity=".839" fill="#adadad"><path d="M640.815 201.42h-84.879c-5.508 0-9.986-4.479-9.986-9.986v-78.222c0-5.508 4.478-9.986 9.986-9.986h84.879c5.507 0 9.986 4.478 9.986 9.986v78.222c0 5.505-4.48 9.986-9.986 9.986zm-84.879-94.866a6.665 6.665 0 0 0-6.658 6.658v78.222a6.664 6.664 0 0 0 6.658 6.657h84.879a6.664 6.664 0 0 0 6.657-6.657v-78.222a6.664 6.664 0 0 0-6.657-6.658h-84.879z"/><path d="M633.464 191.427h-9.988a.825.825 0 1 1 0-1.651h9.988a4.171 4.171 0 0 0 4.167-4.167v-66.572a4.172 4.172 0 0 0-4.167-4.168H561.06v22.475a.825.825 0 0 1-1.651 0v-23.3c0-.456.369-.826.825-.826h73.23a5.824 5.824 0 0 1 5.818 5.819v66.572a5.825 5.825 0 0 1-5.818 5.818zm-14.979 0h-3.329a.825.825 0 1 1 0-1.651h3.329a.826.826 0 0 1 0 1.651zm-6.657 0h-51.594a.825.825 0 0 1-.825-.825v-46.601a.825.825 0 1 1 1.651 0v45.775h50.768a.825.825 0 0 1 0 1.651z"/><path d="M560.234 138.169h-3.328a.825.825 0 0 1-.826-.825v-13.315c0-.456.37-.825.826-.825h3.328c.456 0 .826.369.826.825v13.315c0 .456-.37.825-.826.825zm-2.503-1.651h1.678v-11.663h-1.678v11.663zm2.503 43.259h-3.328a.826.826 0 0 1-.826-.826v-13.314c0-.456.37-.825.826-.825h3.328c.456 0 .826.369.826.825v13.314c0 .456-.37.826-.826.826zm-2.503-1.651h1.678v-11.663h-1.678v11.663zm70.74 8.315a4.165 4.165 0 0 1-4.161-4.161 4.165 4.165 0 0 1 4.161-4.161 4.165 4.165 0 0 1 4.161 4.161 4.165 4.165 0 0 1-4.161 4.161zm0-6.657a2.5 2.5 0 0 0-2.497 2.496 2.5 2.5 0 0 0 2.497 2.497 2.5 2.5 0 0 0 2.496-2.497 2.5 2.5 0 0 0-2.496-2.496zm-58.256-53.258a4.164 4.164 0 0 1-4.16-4.161 4.164 4.164 0 0 1 4.16-4.161 4.165 4.165 0 0 1 4.161 4.161 4.165 4.165 0 0 1-4.161 4.161zm0-6.657a2.5 2.5 0 0 0-2.496 2.496 2.5 2.5 0 0 0 2.496 2.497 2.5 2.5 0 0 0 2.497-2.497 2.5 2.5 0 0 0-2.497-2.496zm30.078 56.378c-13.307 0-24.133-10.826-24.133-24.132 0-13.307 10.826-24.133 24.133-24.133 13.306 0 24.132 10.826 24.132 24.133 0 13.306-10.826 24.132-24.132 24.132zm0-46.6c-12.39 0-22.469 10.079-22.469 22.468s10.079 22.468 22.469 22.468c12.389 0 22.468-10.079 22.468-22.468s-10.078-22.468-22.468-22.468z"/><path d="M600.392 137.961a.825.825 0 0 1-.825-.825v-8.322a.825.825 0 1 1 1.651 0v8.322c0 .456-.37.825-.826.825zm0 38.279a.825.825 0 0 1-.825-.825v-8.322a.825.825 0 1 1 1.651 0v8.322c0 .456-.37.825-.826.825zm23.201-23.3h-7.931a.825.825 0 1 1 0-1.651h7.931a.825.825 0 0 1 0 1.651zm-38.279 0h-8.322a.825.825 0 1 1 0-1.651h8.322a.825.825 0 0 1 0 1.651zm25.901-10.71a.825.825 0 0 1-.585-1.408l5.414-5.447a.824.824 0 1 1 1.17 1.163l-5.414 5.448a.816.816 0 0 1-.585.244zm-27.229 27.406a.825.825 0 0 1-.586-1.408l6.313-6.352a.826.826 0 0 1 1.17 1.163l-6.313 6.353a.813.813 0 0 1-.584.244zm32.643 0a.82.82 0 0 1-.585-.243l-6.346-6.389a.825.825 0 1 1 1.17-1.163l6.346 6.389a.826.826 0 0 1-.585 1.406zM589.4 142.23a.823.823 0 0 1-.586-.243l-5.414-5.447a.826.826 0 0 1 1.17-1.163l5.414 5.447a.825.825 0 1 1-.584 1.406zm-14.465 62.518h-11.374a2.915 2.915 0 0 1-2.912-2.912 2.916 2.916 0 0 1 2.912-2.913h11.374a2.917 2.917 0 0 1 2.913 2.913 2.916 2.916 0 0 1-2.913 2.912zm-11.374-4.161c-.687 0-1.248.561-1.248 1.249a1.25 1.25 0 0 0 1.248 1.248h11.374a1.25 1.25 0 0 0 1.248-1.248 1.25 1.25 0 0 0-1.248-1.249h-11.374zm69.626 4.163h-11.372a2.916 2.916 0 0 1-2.912-2.913 2.915 2.915 0 0 1 2.912-2.912h11.372a2.915 2.915 0 0 1 2.913 2.912 2.916 2.916 0 0 1-2.913 2.913zm-11.372-4.161a1.25 1.25 0 0 0-1.248 1.248c0 .688.561 1.249 1.248 1.249h11.372c.688 0 1.249-.561 1.249-1.249 0-.687-.561-1.248-1.249-1.248h-11.372z"/><path d="M600.293 167.301c-8.374 0-15.187-6.813-15.187-15.186 0-8.374 6.813-15.187 15.187-15.187 8.373 0 15.186 6.813 15.186 15.187 0 8.373-6.813 15.186-15.186 15.186zm0-28.709c-7.457 0-13.523 6.067-13.523 13.523 0 7.456 6.066 13.522 13.523 13.522 7.456 0 13.522-6.066 13.522-13.522s-6.065-13.523-13.522-13.523z"/></g><path d="M765.055 232.342c0 2.9-2.3 5.2-5.2 5.2h-167.1c-2.9 0-5.2-2.3-5.2-5.2 0-2.9 2.3-5.2 5.2-5.2h167.1c2.9-.1 5.2 2.3 5.2 5.2zm0 27.4c0 2.9-2.3 5.2-5.2 5.2h-167.1c-2.9 0-5.2-2.3-5.2-5.2 0-2.9 2.3-5.2 5.2-5.2h167.1c2.9 0 5.2 2.3 5.2 5.2zm0 26.1c0 2.9-2.3 5.2-5.2 5.2h-167.1c-2.9 0-5.2-2.3-5.2-5.2 0-2.9 2.3-5.2 5.2-5.2h167.1c2.9 0 5.2 2.3 5.2 5.2zm0 27.4c0 2.9-2.3 5.2-5.2 5.2h-167.1c-2.9 0-5.2-2.3-5.2-5.2 0-2.9 2.3-5.2 5.2-5.2h167.1c2.9 0 5.2 2.3 5.2 5.2zm-84.8 22.2h-87.5c-2.9 0-5.2 2.3-5.2 5.2 0 2.9 2.3 5.2 5.2 5.2h87.5c2.9 0 5.2-2.3 5.2-5.2 0-2.8-2.3-5.2-5.2-5.2z" opacity=".733" fill="#c9c9c8"/><path d="M668.31 391.931h6.335v2.94c.677-1.073 1.505-1.895 2.485-2.467.98-.572 2.124-.858 3.43-.858h.543c.198 0 .426.024.682.07v6.055c-.84-.42-1.75-.63-2.73-.63-1.47 0-2.572.438-3.307 1.313-.735.875-1.103 2.152-1.103 3.832v7.7h-6.335v-17.955zm29.645 6.37c-.21-.886-.641-1.598-1.295-2.135-.653-.536-1.446-.805-2.38-.805-.98 0-1.779.257-2.397.77-.619.514-1.009 1.237-1.173 2.17h7.245zm-7.42 3.675c0 2.73 1.284 4.095 3.85 4.095 1.377 0 2.415-.56 3.115-1.68h6.125c-1.236 4.107-4.328 6.16-9.275 6.16-1.516 0-2.905-.227-4.165-.682-1.26-.455-2.339-1.103-3.237-1.943a8.647 8.647 0 0 1-2.083-3.01c-.49-1.166-.735-2.473-.735-3.92 0-1.493.234-2.84.7-4.042.467-1.202 1.132-2.223 1.995-3.063.864-.84 1.908-1.487 3.133-1.942 1.225-.455 2.607-.683 4.147-.683 1.517 0 2.882.228 4.095.683 1.214.455 2.24 1.114 3.08 1.977.84.864 1.482 1.92 1.925 3.168.444 1.248.665 2.654.665 4.217v.665h-13.335zm31.255-1.015c0-.56-.099-1.09-.297-1.592a3.828 3.828 0 0 0-.858-1.313 4.299 4.299 0 0 0-1.312-.892 3.977 3.977 0 0 0-1.628-.333c-.56 0-1.085.105-1.575.315a3.89 3.89 0 0 0-1.277.875 4.441 4.441 0 0 0-.875 1.313 3.89 3.89 0 0 0-.333 1.592 3.956 3.956 0 0 0 1.19 2.853 4.46 4.46 0 0 0 1.313.875 3.886 3.886 0 0 0 1.592.332 3.956 3.956 0 0 0 2.853-1.19 4.54 4.54 0 0 0 .875-1.295c.221-.49.332-1.003.332-1.54zm-7.98 17.885h-6.335v-26.915h6.335v1.995c1.354-1.703 3.197-2.555 5.53-2.555 1.284 0 2.479.251 3.588.753a9.096 9.096 0 0 1 2.887 2.047 9.3 9.3 0 0 1 1.908 3.045c.455 1.167.682 2.415.682 3.745s-.227 2.567-.682 3.71a9.527 9.527 0 0 1-1.89 3.01 8.71 8.71 0 0 1-2.853 2.03c-1.096.49-2.286.735-3.57.735-2.24 0-4.106-.77-5.6-2.31v10.71zm24.08-17.99a4.173 4.173 0 0 0 1.173 2.94 3.83 3.83 0 0 0 1.295.875c.501.21 1.044.315 1.627.315.56 0 1.091-.105 1.593-.315a3.85 3.85 0 0 0 1.295-.875 4.54 4.54 0 0 0 .875-1.295c.221-.49.332-1.015.332-1.575s-.111-1.09-.332-1.592a4.48 4.48 0 0 0-.875-1.313 3.864 3.864 0 0 0-1.295-.875 4.086 4.086 0 0 0-1.593-.315c-.583 0-1.126.105-1.627.315-.502.21-.934.502-1.295.875-.362.374-.648.8-.858 1.278-.21.478-.315.997-.315 1.557zm7.98-8.925h6.37v17.955h-6.37v-1.995c-1.353 1.704-3.185 2.555-5.495 2.555-1.306 0-2.508-.239-3.605-.717a8.691 8.691 0 0 1-2.87-2.013 9.294 9.294 0 0 1-1.907-3.045c-.455-1.166-.683-2.438-.683-3.815 0-1.283.222-2.502.665-3.657a9.431 9.431 0 0 1 1.855-3.028 8.77 8.77 0 0 1 2.835-2.047c1.097-.502 2.31-.753 3.64-.753 2.24 0 4.095.782 5.565 2.345v-1.785zm17.185 15.505l-8.68-15.505h7.35l4.795 9.205 4.655-9.205h7.28l-14.42 26.915h-7.105l6.125-11.41zM400.279 258.655c-17.83-.781-34.366-13.28-39.427-30.289-3.923-13.152-1.811-25.784 4.523-37.805 4.613-8.752 11.265-15.889 18.202-22.778 6.063-6.011 12.406-11.74 17.986-18.225.891-1.032 1.644-2.2 3.097-.474 7.041 8.4 15.468 15.443 22.978 23.396 6.987 7.407 13.151 15.353 16.752 25.004 8.097 21.751 1.273 45.269-20.915 56.687-7.168 3.686-13.752 5.058-23.196 4.484z" fill="#46beae"/><path d="M407.589 216.645c-.262.02-1.618.101-4.643.101-2.405 0-4.113-.073-4.712-.101-9.296-.409-16.235-2.027-16.235-3.965 0-1.937 6.939-3.553 16.235-3.969v6.322c.608.044 2.348.147 4.754.147 2.887 0 4.332-.12 4.592-.144v-6.32c9.277.413 16.2 2.031 16.2 3.964 0 1.934-6.921 3.552-16.2 3.963l.009.002zm0-8.583v-5.657h12.946v-8.627h-35.247v8.627h12.944v5.655c-10.521.483-18.433 2.567-18.433 5.064 0 2.498 7.912 4.579 18.433 5.065v18.129h9.355v-18.136c10.496-.483 18.395-2.565 18.395-5.06 0-2.495-7.892-4.577-18.395-5.062l.002.002z" fill="#fff"/></g><g vectornator:layerName="feature6" visibility="hidden"><path d="M593.431 204.07h163.245c20.226 0 32.649 19.018 32.649 32.649v116.36c0 16.847-13.713 30.56-30.56 30.56H591.342c-16.847 0-30.56-13.713-30.56-30.56V235.881c0-16.646 15.558-31.811 32.649-31.811zm8.152 103.388c7.514 0 13.614-6.084 13.614-13.598 0-7.515-6.1-13.609-13.614-13.609-7.493 0-13.593 6.094-13.593 13.609 0 7.514 6.1 13.598 13.593 13.598zm155.093-114.271H604.314v-18.186c0-8.804 0-25.199 17.794-25.199 4.032 0 8.94.8 15.437 2.514 16.374 4.315 112.291 30.908 113.722 31.327 14.246 5.365 23.262 10.649 28.911 16.846-6.623-4.483-14.578-7.302-23.502-7.302z" fill="#fcf9f9"/><path d="M730.885 276.034c0-12.862 3.902-24.814 10.587-34.734 0 0-68.925 6.875-89.189 56.678l.002.017c.025.039.141.214.351.51 3.522 4.958 37.487 60.664 111.423 43.782a68.612 68.612 0 0 0 7.807-7.743c-23.905-8.685-40.981-31.603-40.981-58.51z" fill="#64b6ec"/><path d="M731.621 266.439a61.88 61.88 0 0 1 9.851-25.139s-68.925 6.875-89.189 56.679l.002.016c.026.039.141.214.352.51 1.298 1.827 6.731 10.547 16.775 19.986 6.91-28.649 31.893-50.246 62.209-52.052z" fill="#4b9fdb"/><path d="M725.18 347.589c-21.508-21.18-27.537-54.752-12.605-82.74 6.805-12.753 16.995-22.539 28.872-28.838 0 0-66.058 11.631-89.164 61.968a67.898 67.898 0 0 0 13.877 33.99c.147.107 21.512 15.647 59.02 15.62z" fill="#4b9fdb"/><path d="M709.429 271.573a70.6 70.6 0 0 1 3.146-6.724c6.805-12.753 16.995-22.539 28.872-28.838 0 0-66.058 11.631-89.164 61.968 1.456 12.722 6.411 24.381 13.877 33.99.021.015.484.351 1.369.914.66-27.643 17.761-51.213 41.9-61.31z" fill="#3188ca"/><path d="M720.083 319.871a50.983 50.983 0 0 1-8.859-28.544s-37.481 6.681-38.886 47.568l40.091 19.047a68.82 68.82 0 0 0 7.635.428c16.766 0 32.117-6.051 43.996-16.083-16.93.515-33.753-7.368-43.977-22.416z" fill="#a1ddfb"/><path d="M672.342 338.897c10.728-13.388 26.394-22.645 44.239-25.006a50.91 50.91 0 0 1-5.357-22.564s-37.481 6.681-38.886 47.568l.004.002z" fill="#7dcfff"/><path d="M696.983 317.722c.713-10.563 4.58-20.161 10.62-27.937 0 0-37.058 10-35.265 49.11 10.595 10.372 24.555 17.317 40.092 19.047-10.426-10.121-16.503-24.587-15.447-40.22z" fill="#7dcfff"/><path d="M672.342 338.898a68.471 68.471 0 0 1 24.552-19.276c.019-.631.046-1.264.089-1.9.713-10.563 4.58-20.161 10.62-27.937 0 0-37.058 10-35.265 49.11l.004.003z" fill="#64b6ec"/><path d="M775.237 236.297c-1.067 3.643-27.987 2.399-27.987 7.73 0 5.33 19.991 10.661 14.926 16.258-5.064 5.598-22.388-15.192-69.832 2.932-21.909 8.372-34.769 25.985-40.065 34.77a68.729 68.729 0 0 1-.448-7.85c0-3.979.341-7.879.997-11.669 5.824-9.875 19.913-28.764 48.046-42.171 14.901-7.1 29.39-10.112 41.566-10.637 20.272-.874 34.385 5.21 32.797 10.637z" fill="#a1ddfb"/><path d="M687.458 288.094c-16.46 12.311-20.624 33.789-21.3 43.873a68.598 68.598 0 0 0 6.18 6.928c1.676-6.011 6.455-20.708 15.12-29.373 15.493-15.493 39.304-2.147 42.646-7.213 3.375-5.119-10.04-9.951-10.04-9.951s21.767-1.066 22.478-7.996c.71-6.93-33.165-12.663-55.084 3.732z" fill="#a1ddfb"/><path d="M716.581 243.379c-9.88-2.78-10.11-12.945 25.859-17.719-12.176.525-26.665 3.537-41.566 10.637-28.133 13.407-42.222 32.296-48.046 42.171a68.422 68.422 0 0 0-.997 11.669c0 2.655.152 5.275.448 7.85 5.296-8.785 18.156-26.398 40.065-34.77 0 0 34.117-17.058 24.237-19.838zm-9.77 35.888c-6.712 1.616-13.464 4.422-19.353 8.827-16.46 12.311-20.624 33.789-21.3 43.873a68.598 68.598 0 0 0 6.18 6.928c1.676-6.011 6.455-20.708 15.12-29.373.78-.78 1.609-1.51 2.482-2.185l-.001-.004s13.334-12.398 6.137-13.952c-7.194-1.553-.404-11.234 10.735-14.114z" fill="#7dcfff"/><path d="M318.926 291.451h205.545" fill="#fcf9f9"/><path stroke-linecap="butt" stroke-width="9.076" stroke="#fcf9f9" d="M483.626 291.451h-164.7" fill="none" stroke-linejoin="miter"/><path d="M470.013 323.215l54.453-31.764-54.453-31.765v63.529z" fill="#fcf9f9"/><path vectornator:shadowColor="#eeeeee" vectornator:shadowOpacity=".285" vectornator:shadowRadius="11.744" d="M75.327 156.225c-9.2 0-16.7 7.5-16.7 16.7v267.7c0 9.2 7.5 16.7 16.7 16.7h192.4c9.2 0 16.7-7.5 16.7-16.7v-207l-80.7-77.5h-128.4v.1z" vectornator:shadowOffset="19.496" fill="#f5f5f5" vectornator:shadowAngle="2.365"/><path d="M284.527 233.725h-63.9c-9.2 0-16.7-7.5-16.7-16.7v-60.8l80.6 77.5z" fill="#e1e1e1"/><g opacity=".839" fill="#adadad"><path d="M135.328 218.904h-84.88c-5.506 0-9.985-4.478-9.985-9.985v-78.223c0-5.507 4.479-9.985 9.986-9.985h84.879c5.507 0 9.986 4.478 9.986 9.985v78.223c0 5.505-4.48 9.985-9.986 9.985zm-84.88-94.865a6.664 6.664 0 0 0-6.656 6.657v78.223a6.664 6.664 0 0 0 6.657 6.657h84.879a6.663 6.663 0 0 0 6.657-6.657v-78.223a6.663 6.663 0 0 0-6.657-6.657h-84.88z"/><path d="M127.977 208.912h-9.987a.826.826 0 1 1 0-1.651h9.987a4.171 4.171 0 0 0 4.167-4.167v-66.573a4.171 4.171 0 0 0-4.167-4.167H55.573v22.475a.825.825 0 1 1-1.65 0v-23.3c0-.456.369-.826.825-.826h73.229a5.824 5.824 0 0 1 5.818 5.818v66.573a5.825 5.825 0 0 1-5.818 5.818zm-14.979 0h-3.328a.826.826 0 0 1 0-1.651h3.328a.825.825 0 1 1 0 1.651zm-6.657 0H54.748a.826.826 0 0 1-.826-.826v-46.6a.826.826 0 1 1 1.651 0v45.775h50.768a.825.825 0 1 1 0 1.651z"/><path d="M54.748 155.654h-3.329a.825.825 0 0 1-.825-.825v-13.315c0-.456.369-.825.825-.825h3.329c.456 0 .825.369.825.825v13.315c0 .456-.37.825-.825.825zm-2.503-1.651h1.677V142.34h-1.677v11.663zm2.503 43.259h-3.329a.826.826 0 0 1-.825-.826v-13.314c0-.456.369-.826.825-.826h3.329c.456 0 .825.37.825.826v13.314c0 .456-.37.826-.825.826zm-2.503-1.651h1.677v-11.664h-1.677v11.664zm70.739 8.315a4.165 4.165 0 0 1-4.161-4.161 4.165 4.165 0 0 1 4.161-4.161 4.165 4.165 0 0 1 4.161 4.161 4.165 4.165 0 0 1-4.161 4.161zm0-6.658a2.5 2.5 0 0 0-2.496 2.497 2.5 2.5 0 0 0 2.496 2.496 2.5 2.5 0 0 0 2.497-2.496 2.5 2.5 0 0 0-2.497-2.497zm-58.255-53.257a4.165 4.165 0 0 1-4.161-4.161 4.165 4.165 0 0 1 4.16-4.161 4.165 4.165 0 0 1 4.161 4.161 4.165 4.165 0 0 1-4.16 4.161zm0-6.657a2.5 2.5 0 0 0-2.497 2.496 2.5 2.5 0 0 0 2.496 2.496 2.5 2.5 0 0 0 2.497-2.496 2.5 2.5 0 0 0-2.496-2.496zm30.077 56.378c-13.306 0-24.133-10.826-24.133-24.133 0-13.306 10.827-24.132 24.133-24.132s24.132 10.826 24.132 24.132c0 13.307-10.826 24.133-24.132 24.133zm0-46.601c-12.39 0-22.468 10.079-22.468 22.468 0 12.39 10.079 22.469 22.468 22.469s22.468-10.079 22.468-22.469c0-12.389-10.077-22.468-22.468-22.468z"/><path d="M94.906 155.446a.825.825 0 0 1-.826-.825v-8.322a.825.825 0 1 1 1.651 0v8.322c0 .456-.37.825-.825.825zm0 38.279a.825.825 0 0 1-.826-.825v-8.322a.825.825 0 1 1 1.651 0v8.322c0 .456-.37.825-.825.825zm23.2-23.3h-7.93a.826.826 0 0 1 0-1.651h7.93a.825.825 0 1 1 0 1.651zm-38.279 0h-8.322a.826.826 0 0 1 0-1.651h8.322a.825.825 0 1 1 0 1.651zm25.902-10.71a.825.825 0 0 1-.586-1.408l5.414-5.447a.824.824 0 1 1 1.17 1.163l-5.414 5.447a.81.81 0 0 1-.584.245zm-27.23 27.406a.826.826 0 0 1-.586-1.408l6.313-6.352a.826.826 0 0 1 1.17 1.163l-6.313 6.353a.813.813 0 0 1-.584.244zm32.644 0a.823.823 0 0 1-.586-.243l-6.346-6.389a.826.826 0 0 1 1.17-1.163l6.346 6.389a.826.826 0 0 1-.584 1.406zm-27.23-27.406a.823.823 0 0 1-.586-.243l-5.414-5.447a.826.826 0 0 1 1.17-1.163l5.414 5.447a.824.824 0 0 1-.584 1.406zm-14.465 62.518H58.075a2.916 2.916 0 0 1-2.913-2.913 2.915 2.915 0 0 1 2.913-2.912h11.373a2.915 2.915 0 0 1 2.913 2.912 2.916 2.916 0 0 1-2.913 2.913zm-11.373-4.161a1.25 1.25 0 0 0-1.249 1.248c0 .688.561 1.249 1.249 1.249h11.373c.688 0 1.249-.561 1.249-1.249a1.25 1.25 0 0 0-1.249-1.248H58.075zm69.626 4.163h-11.372a2.916 2.916 0 0 1-2.913-2.913 2.915 2.915 0 0 1 2.913-2.912h11.372a2.915 2.915 0 0 1 2.912 2.912 2.916 2.916 0 0 1-2.912 2.913zm-11.372-4.161c-.688 0-1.249.561-1.249 1.248 0 .687.561 1.248 1.249 1.248h11.372a1.25 1.25 0 0 0 1.248-1.248 1.25 1.25 0 0 0-1.248-1.248h-11.372z"/><path d="M94.806 184.786c-8.373 0-15.187-6.813-15.187-15.187 0-8.373 6.814-15.186 15.187-15.186s15.187 6.813 15.187 15.186c0 8.374-6.814 15.187-15.187 15.187zm0-28.709c-7.456 0-13.523 6.066-13.523 13.522 0 7.457 6.067 13.523 13.523 13.523 7.456 0 13.522-6.066 13.522-13.523 0-7.456-6.064-13.522-13.522-13.522z"/></g><path d="M259.568 249.827c0 2.9-2.3 5.2-5.2 5.2h-167.1c-2.9 0-5.2-2.3-5.2-5.2 0-2.9 2.3-5.2 5.2-5.2h167.1c2.9-.1 5.2 2.3 5.2 5.2zm0 27.4c0 2.9-2.3 5.2-5.2 5.2h-167.1c-2.9 0-5.2-2.3-5.2-5.2 0-2.9 2.3-5.2 5.2-5.2h167.1c2.9 0 5.2 2.3 5.2 5.2zm0 26.1c0 2.9-2.3 5.2-5.2 5.2h-167.1c-2.9 0-5.2-2.3-5.2-5.2 0-2.9 2.3-5.2 5.2-5.2h167.1c2.9 0 5.2 2.3 5.2 5.2zm0 27.4c0 2.9-2.3 5.2-5.2 5.2h-167.1c-2.9 0-5.2-2.3-5.2-5.2 0-2.9 2.3-5.2 5.2-5.2h167.1c2.9 0 5.2 2.3 5.2 5.2zm-84.8 22.2h-87.5c-2.9 0-5.2 2.3-5.2 5.2 0 2.9 2.3 5.2 5.2 5.2h87.5c2.9 0 5.2-2.3 5.2-5.2 0-2.8-2.3-5.2-5.2-5.2z" opacity=".733" fill="#c9c9c8"/><path d="M107.604 406.794c-1.096-.746-2.205-1.12-3.325-1.12-.606 0-1.172.105-1.697.315-.525.21-.986.508-1.383.893-.396.385-.706.84-.927 1.365-.222.525-.333 1.114-.333 1.767 0 .63.111 1.208.333 1.733.221.525.525.98.91 1.365s.846.682 1.382.892c.537.21 1.109.315 1.715.315 1.19 0 2.299-.408 3.325-1.225v5.39c-1.563.677-3.045 1.015-4.445 1.015a10.48 10.48 0 0 1-3.727-.665 9.46 9.46 0 0 1-3.115-1.907 9.375 9.375 0 0 1-2.153-2.975c-.536-1.155-.805-2.444-.805-3.868 0-1.423.257-2.724.77-3.902a9.334 9.334 0 0 1 2.1-3.045c.887-.852 1.943-1.517 3.168-1.995 1.225-.479 2.537-.718 3.937-.718 1.54 0 2.964.327 4.27.98v5.39zm9.59 3.08c0 .607.111 1.161.333 1.663.221.501.513.939.875 1.312a3.83 3.83 0 0 0 1.295.875c.501.21 1.032.315 1.592.315s1.091-.105 1.593-.315a3.85 3.85 0 0 0 1.295-.875c.361-.373.653-.811.875-1.312a3.993 3.993 0 0 0 .332-1.628c0-.56-.111-1.091-.332-1.592a4.48 4.48 0 0 0-.875-1.313 3.864 3.864 0 0 0-1.295-.875 4.086 4.086 0 0 0-1.593-.315c-.56 0-1.091.105-1.592.315-.502.21-.934.502-1.295.875a4.513 4.513 0 0 0-.875 1.295 3.772 3.772 0 0 0-.333 1.575zm-6.685-.07c0-1.33.269-2.572.805-3.727a9.163 9.163 0 0 1 2.24-3.01c.957-.852 2.094-1.523 3.413-2.013 1.318-.49 2.759-.735 4.322-.735 1.54 0 2.969.239 4.288.718 1.318.478 2.461 1.143 3.43 1.995a8.93 8.93 0 0 1 2.257 3.045c.537 1.178.805 2.479.805 3.902 0 1.424-.274 2.724-.822 3.903a9.276 9.276 0 0 1-2.258 3.045c-.956.851-2.106 1.511-3.447 1.977-1.342.467-2.794.7-4.358.7-1.54 0-2.963-.233-4.27-.7-1.306-.466-2.432-1.131-3.377-1.995a9.264 9.264 0 0 1-2.223-3.097c-.536-1.202-.805-2.538-.805-4.008zm31.535-19.915v29.05h-6.335v-29.05h6.335zm10.675 0v29.05h-6.335v-29.05h6.335zm10.22 20.02a4.173 4.173 0 0 0 1.173 2.94 3.83 3.83 0 0 0 1.295.875c.501.21 1.044.315 1.627.315.56 0 1.091-.105 1.593-.315a3.85 3.85 0 0 0 1.295-.875 4.54 4.54 0 0 0 .875-1.295c.221-.49.332-1.015.332-1.575s-.111-1.091-.332-1.592a4.48 4.48 0 0 0-.875-1.313 3.864 3.864 0 0 0-1.295-.875 4.086 4.086 0 0 0-1.593-.315c-.583 0-1.126.105-1.627.315-.502.21-.934.502-1.295.875a4.31 4.31 0 0 0-.858 1.278c-.21.478-.315.997-.315 1.557zm7.98-8.925h6.37v17.955h-6.37v-1.995c-1.353 1.704-3.185 2.555-5.495 2.555-1.306 0-2.508-.239-3.605-.717a8.706 8.706 0 0 1-2.87-2.013 9.294 9.294 0 0 1-1.907-3.045c-.455-1.166-.683-2.438-.683-3.815 0-1.283.222-2.502.665-3.657a9.431 9.431 0 0 1 1.855-3.028 8.755 8.755 0 0 1 2.835-2.047c1.097-.502 2.31-.753 3.64-.753 2.24 0 4.095.782 5.565 2.345v-1.785zm17.745 5.285v12.67h-6.335v-12.67h-2.1v-5.285h2.1v-5.39h6.335v5.39h3.605v5.285h-3.605zm19.11 1.085c-.21-.886-.641-1.598-1.295-2.135-.653-.536-1.446-.805-2.38-.805-.98 0-1.779.257-2.397.77-.619.514-1.009 1.237-1.173 2.17h7.245zm-7.42 3.675c0 2.73 1.284 4.095 3.85 4.095 1.377 0 2.415-.56 3.115-1.68h6.125c-1.236 4.107-4.328 6.16-9.275 6.16-1.516 0-2.905-.227-4.165-.682-1.26-.455-2.339-1.103-3.237-1.943a8.647 8.647 0 0 1-2.083-3.01c-.49-1.166-.735-2.473-.735-3.92 0-1.493.234-2.841.7-4.042.467-1.202 1.132-2.223 1.995-3.063.864-.84 1.908-1.487 3.133-1.942 1.225-.455 2.607-.683 4.147-.683 1.517 0 2.882.228 4.095.683 1.214.455 2.24 1.114 3.08 1.977.84.864 1.482 1.919 1.925 3.168.444 1.248.665 2.654.665 4.217v.665h-13.335zm16.94-10.045h6.335v2.94c.677-1.073 1.505-1.896 2.485-2.467.98-.572 2.124-.858 3.43-.858h.543c.198 0 .426.024.682.07v6.055c-.84-.42-1.75-.63-2.73-.63-1.47 0-2.572.438-3.307 1.313-.735.875-1.103 2.152-1.103 3.832v7.7h-6.335v-17.955zm22.155 8.925a4.173 4.173 0 0 0 1.173 2.94 3.83 3.83 0 0 0 1.295.875c.501.21 1.044.315 1.627.315.56 0 1.091-.105 1.593-.315a3.85 3.85 0 0 0 1.295-.875 4.54 4.54 0 0 0 .875-1.295c.221-.49.332-1.015.332-1.575s-.111-1.091-.332-1.592a4.48 4.48 0 0 0-.875-1.313 3.864 3.864 0 0 0-1.295-.875 4.086 4.086 0 0 0-1.593-.315c-.583 0-1.126.105-1.627.315-.502.21-.934.502-1.295.875a4.31 4.31 0 0 0-.858 1.278c-.21.478-.315.997-.315 1.557zm7.98-8.925h6.37v17.955h-6.37v-1.995c-1.353 1.704-3.185 2.555-5.495 2.555-1.306 0-2.508-.239-3.605-.717a8.706 8.706 0 0 1-2.87-2.013 9.294 9.294 0 0 1-1.907-3.045c-.455-1.166-.683-2.438-.683-3.815 0-1.283.222-2.502.665-3.657a9.431 9.431 0 0 1 1.855-3.028 8.755 8.755 0 0 1 2.835-2.047c1.097-.502 2.31-.753 3.64-.753 2.24 0 4.095.782 5.565 2.345v-1.785zm17.01-11.095v29.05h-6.335v-29.05h6.335zm135.84-131.234c-17.83-.781-34.366-13.28-39.427-30.289-3.923-13.152-1.811-25.784 4.523-37.805 4.613-8.752 11.265-15.889 18.202-22.778 6.063-6.011 12.406-11.74 17.986-18.225.891-1.032 1.644-2.2 3.097-.474 7.041 8.4 15.468 15.443 22.978 23.396 6.987 7.407 13.151 15.353 16.752 25.004 8.097 21.751 1.273 45.269-20.915 56.687-7.168 3.686-13.752 5.058-23.196 4.484z" fill="#46beae"/><path d="M422.052 207.921c.677-4.687-2.56-9.645-8.835-11.793l1.647-6.635-4.97-1.232-1.592 6.431a196.87 196.87 0 0 0-3.982-.931l1.608-6.479-4.967-1.232-1.646 6.633-9.006-2.217-1.317 5.307s3.688.846 3.61.892c2.012.507 2.369 1.831 2.318 2.887l-5.547 22.358c-.245.611-.868 1.523-2.274 1.185.049.071-3.613-.897-3.613-.897l-2.459 5.689 8.994 2.262-1.794 7.241 4.964 1.232 1.775-7.155c1.353.368 2.673.707 3.959 1.016l-1.768 7.117 4.97 1.244 1.794-7.227c8.472 1.592 14.916-.605 16.498-6.979 1.291-5.202.127-9.004-3.563-11.789 2.416-.77 4.661-3.27 5.196-6.928zM411.86 223.47c-1.523 6.17-11.918 2.848-15.287 2.017l2.708-10.939c3.374.835 14.173 2.487 12.579 8.922zm1.523-16.008c-1.401 5.613-10.05 2.774-12.86 2.077l2.46-9.921c2.811.697 11.845 1.99 10.4 7.844z" fill="#fff"/></g><path stroke="#fff" stroke-width="2.724" d="M674.229 140.359c-25.054-32.978-18.629-80.023 14.349-105.076 32.978-25.054 80.023-18.63 105.076 14.349 25.054 32.978 18.63 80.023-14.349 105.076-32.978 25.054-80.022 18.63-105.076-14.349z" fill="url(#b)" stroke-linecap="butt" vectornator:layerName="Step-BG"/><path d="M715.758 79.488V72.75c6.348-.618 10.775-1.652 13.282-3.1 2.506-1.45 4.378-4.875 5.615-10.279h6.933V129h-9.375V79.488h-16.455z" fill="#fff" vectornator:layerName="Step1" visibility="hidden"/><path d="M709.313 129c.326-6.022 1.571-11.263 3.735-15.723 2.165-4.459 6.389-8.512 12.671-12.158l9.375-5.42c4.199-2.441 7.145-4.525 8.838-6.25 2.669-2.702 4.004-5.794 4.004-9.277 0-4.07-1.221-7.3-3.662-9.692-2.441-2.393-5.697-3.59-9.766-3.59-6.022 0-10.188 2.28-12.5 6.837-1.237 2.441-1.92 5.826-2.05 10.156h-8.936c.098-6.087 1.221-11.052 3.369-14.893 3.809-6.77 10.531-10.156 20.166-10.156 8.008 0 13.859 2.165 17.554 6.494 3.695 4.33 5.542 9.147 5.542 14.453 0 5.6-1.97 10.384-5.908 14.356-2.279 2.31-6.364 5.11-12.256 8.398l-6.69 3.711c-3.19 1.758-5.696 3.434-7.519 5.029-3.255 2.832-5.306 5.974-6.153 9.424h38.184V129h-47.998z" fill="#fff" vectornator:layerName="Step2"/><path d="M732.164 130.904c-8.268 0-14.266-2.27-17.993-6.811-3.727-4.541-5.591-10.067-5.591-16.577h9.18c.391 4.524 1.237 7.812 2.539 9.863 2.279 3.678 6.396 5.517 12.353 5.517 4.623 0 8.334-1.236 11.133-3.71 2.8-2.474 4.2-5.665 4.2-9.571 0-4.817-1.473-8.187-4.419-10.107-2.946-1.92-7.04-2.881-12.281-2.881a65.842 65.842 0 0 0-3.613.098V88.96a43.58 43.58 0 0 0 2.295.195c.618.033 1.286.05 2.002.05 3.288 0 5.989-.522 8.105-1.563 3.711-1.823 5.567-5.079 5.567-9.766 0-3.483-1.237-6.169-3.711-8.057-2.474-1.888-5.355-2.832-8.643-2.832-5.859 0-9.912 1.953-12.158 5.86-1.237 2.148-1.937 5.208-2.1 9.18h-8.691c0-5.209 1.042-9.636 3.125-13.282 3.581-6.51 9.88-9.765 18.897-9.765 7.128 0 12.646 1.586 16.552 4.76 3.906 3.174 5.86 7.772 5.86 13.794 0 4.297-1.156 7.78-3.467 10.45-1.432 1.66-3.288 2.962-5.567 3.906 3.679 1.009 6.552 2.954 8.619 5.835 2.067 2.88 3.1 6.404 3.1 10.571 0 6.673-2.197 12.109-6.592 16.308-4.394 4.2-10.628 6.299-18.701 6.299z" fill="#fff" vectornator:layerName="Step3" visibility="hidden"/><path d="M739.244 104.244v-31.69l-22.412 31.69h22.412zm.147 24.756v-17.09h-30.664v-8.594l32.031-44.433h7.422v45.361h10.303v7.666H748.18V129h-8.789z" fill="#fff" vectornator:layerName="Step4" visibility="hidden"/><path d="M718.541 111.178c.586 5.013 2.914 8.48 6.983 10.4 2.083.977 4.492 1.465 7.226 1.465 5.208 0 9.066-1.66 11.572-4.981 2.507-3.32 3.76-6.998 3.76-11.035 0-4.882-1.489-8.659-4.468-11.328-2.978-2.67-6.551-4.004-10.717-4.004-3.028 0-5.624.586-7.788 1.758-2.165 1.172-4.013 2.8-5.542 4.883l-7.618-.44 5.323-37.646H753.6v8.496h-29.737l-2.978 19.434c1.628-1.237 3.174-2.165 4.639-2.784 2.604-1.074 5.615-1.61 9.033-1.61 6.413 0 11.849 2.066 16.308 6.2 4.46 4.134 6.69 9.375 6.69 15.723 0 6.608-2.043 12.435-6.128 17.48-4.085 5.046-10.604 7.569-19.556 7.569-5.696 0-10.734-1.603-15.112-4.81-4.378-3.206-6.828-8.13-7.349-14.77h9.131z" fill="#fff" vectornator:layerName="Step5" visibility="hidden"/><path d="M735.436 58.785c7.812 0 13.257 2.027 16.333 6.08 3.076 4.052 4.614 8.227 4.614 12.524h-8.691c-.521-2.767-1.351-4.932-2.491-6.495-2.116-2.93-5.322-4.394-9.619-4.394-4.915 0-8.821 2.27-11.719 6.811-2.897 4.541-4.508 11.044-4.834 19.507 2.019-2.962 4.558-5.175 7.618-6.64 2.799-1.302 5.924-1.953 9.375-1.953 5.859 0 10.97 1.871 15.332 5.615 4.362 3.743 6.543 9.326 6.543 16.748 0 6.348-2.067 11.971-6.202 16.87-4.134 4.899-10.026 7.349-17.675 7.349-6.543 0-12.191-2.482-16.944-7.447-4.752-4.964-7.129-13.322-7.129-25.073 0-8.691 1.058-16.064 3.174-22.119 4.069-11.589 11.507-17.383 22.315-17.383zm-.635 64.209c4.622 0 8.081-1.554 10.376-4.663s3.442-6.779 3.442-11.011c0-3.58-1.025-6.99-3.076-10.23-2.051-3.238-5.778-4.858-11.182-4.858-3.776 0-7.088 1.254-9.936 3.76-2.848 2.507-4.273 6.283-4.273 11.328 0 4.427 1.294 8.146 3.882 11.158 2.588 3.011 6.177 4.516 10.767 4.516z" fill="#fff" vectornator:layerName="Step6" visibility="hidden"/></svg>