<svg width="800" height="743" viewBox="0 0 800 743" fill="none" xmlns="http://www.w3.org/2000/svg"><path fill="#1D2026" d="M0 0h800v743H0z"/><rect x="42.5" y="38.5" width="714" height="335" rx="8.5" stroke="#fff" stroke-width="3"/><g filter="url(#a)"><rect x="113" y="432" width="275" height="122" rx="17" fill="#fff"/><rect x="115" y="434" width="271" height="118" rx="15" stroke="#699765" stroke-width="4"/></g><path d="M203.589 515v-41.945h14.693c5.089 0 8.95.979 11.581 2.938 2.631 1.94 3.947 4.792 3.947 8.556 0 2.055-.529 3.87-1.585 5.445-1.056 1.556-2.525 2.699-4.408 3.428 2.151.538 3.842 1.623 5.071 3.256 1.248 1.632 1.872 3.63 1.872 5.992 0 4.033-1.287 7.087-3.86 9.161-2.574 2.074-6.242 3.131-11.005 3.169h-16.306zm8.643-18.265v11.322h7.404c2.036 0 3.62-.48 4.753-1.44 1.153-.98 1.729-2.324 1.729-4.034 0-3.841-1.988-5.79-5.964-5.848h-7.922zm0-6.107h6.395c4.36-.077 6.54-1.815 6.54-5.214 0-1.902-.557-3.265-1.671-4.091-1.095-.845-2.833-1.268-5.214-1.268h-6.05v10.573zm47.16 21.203c-2.055 2.497-4.898 3.745-8.528 3.745-3.342 0-5.896-.96-7.663-2.881-1.748-1.92-2.641-4.734-2.679-8.441v-20.425h8.326v20.137c0 3.246 1.478 4.869 4.436 4.869 2.823 0 4.763-.98 5.82-2.939v-22.067h8.354V515h-7.836l-.23-3.169zm25.985-8.614l5.762-19.388h8.93l-12.531 36.011-.692 1.642c-1.863 4.072-4.936 6.107-9.219 6.107a13.09 13.09 0 0 1-3.687-.547v-6.309l1.268.029c1.574 0 2.746-.24 3.514-.72.788-.481 1.402-1.278 1.844-2.392l.979-2.564-10.918-31.257h8.959l5.791 19.388z" fill="#699765"/><g filter="url(#b)"><rect x="411" y="432" width="275" height="122" rx="17" fill="#C4C4C4"/><path d="M518.722 496.303c-4.744-1.363-8.201-3.034-10.371-5.012-2.151-1.998-3.226-4.456-3.226-7.375 0-3.304 1.315-6.031 3.946-8.182 2.651-2.17 6.089-3.255 10.314-3.255 2.881 0 5.445.556 7.692 1.67 2.266 1.114 4.014 2.651 5.243 4.61a11.721 11.721 0 0 1 1.872 6.424h-5.56c0-2.535-.806-4.523-2.42-5.963-1.613-1.46-3.889-2.19-6.827-2.19-2.727 0-4.859.605-6.396 1.815-1.517 1.191-2.276 2.852-2.276 4.984 0 1.709.721 3.159 2.161 4.35 1.46 1.172 3.928 2.247 7.404 3.227 3.495.979 6.222 2.064 8.181 3.255 1.979 1.172 3.438 2.545 4.379 4.12.961 1.575 1.441 3.428 1.441 5.56 0 3.399-1.325 6.126-3.976 8.181-2.65 2.036-6.194 3.054-10.63 3.054-2.881 0-5.57-.547-8.067-1.642-2.496-1.114-4.426-2.631-5.79-4.552-1.344-1.92-2.017-4.1-2.017-6.539h5.56c0 2.535.932 4.542 2.795 6.021 1.882 1.459 4.388 2.189 7.519 2.189 2.919 0 5.157-.595 6.712-1.786 1.556-1.191 2.334-2.814 2.334-4.869 0-2.055-.72-3.639-2.161-4.753-1.44-1.133-4.052-2.247-7.836-3.342zm34.772 19.273c-4.225 0-7.663-1.383-10.313-4.148-2.651-2.785-3.976-6.501-3.976-11.149v-.98c0-3.092.586-5.848 1.757-8.268 1.191-2.439 2.843-4.34 4.955-5.704 2.132-1.383 4.437-2.074 6.915-2.074 4.052 0 7.202 1.335 9.449 4.004 2.247 2.67 3.37 6.492 3.37 11.466v2.218h-21.116c.076 3.073.97 5.56 2.679 7.462 1.728 1.882 3.918 2.823 6.568 2.823 1.882 0 3.476-.384 4.782-1.152 1.306-.768 2.449-1.786 3.429-3.054l3.255 2.535c-2.612 4.014-6.53 6.021-11.754 6.021zm-.662-27.944c-2.151 0-3.957.787-5.416 2.362-1.46 1.556-2.363 3.745-2.708 6.568h15.614v-.403c-.154-2.708-.884-4.801-2.19-6.28-1.306-1.498-3.073-2.247-5.3-2.247zM577.636 515h-5.33v-44.25h5.33V515zm14.346 0h-5.329v-44.25h5.329V515z" fill="#B34F4F"/></g><path d="M119.799 97.408c0 2.855-.462 5.34-1.386 7.453-.924 2.1-2.205 3.787-3.842 5.06l5.081 3.99-4.01 3.548-6.509-5.228a13.78 13.78 0 0 1-2.31.189c-2.533 0-4.794-.609-6.781-1.827-1.988-1.218-3.528-2.953-4.62-5.207-1.091-2.267-1.644-4.871-1.658-7.81v-1.512c0-3.01.539-5.655 1.616-7.937 1.092-2.295 2.625-4.052 4.599-5.27 1.987-1.231 4.255-1.847 6.802-1.847 2.548 0 4.808.616 6.782 1.847 1.988 1.218 3.52 2.975 4.598 5.27 1.092 2.282 1.638 4.92 1.638 7.916v1.365zm-6.383-1.386c0-3.205-.574-5.641-1.722-7.307-1.147-1.665-2.785-2.498-4.913-2.498-2.113 0-3.744.826-4.892 2.477-1.148 1.638-1.729 4.046-1.743 7.223v1.49c0 3.122.574 5.544 1.722 7.265 1.148 1.722 2.8 2.583 4.955 2.583 2.114 0 3.738-.826 4.871-2.478 1.134-1.665 1.708-4.087 1.722-7.264v-1.491zm24.209 13.668c-1.498 1.82-3.57 2.73-6.215 2.73-2.436 0-4.298-.7-5.585-2.1-1.274-1.399-1.925-3.45-1.953-6.152V89.282h6.068v14.676c0 2.366 1.078 3.549 3.233 3.549 2.058 0 3.472-.714 4.242-2.142V89.282h6.088V112h-5.711l-.167-2.31zm23.62 2.31c-.28-.546-.483-1.225-.609-2.037-1.469 1.638-3.38 2.457-5.732 2.457-2.225 0-4.073-.644-5.543-1.932-1.455-1.287-2.183-2.911-2.183-4.871 0-2.407.889-4.255 2.666-5.543 1.792-1.287 4.374-1.938 7.748-1.952h2.792V96.82c0-1.05-.273-1.89-.819-2.52-.531-.63-1.378-.944-2.54-.944-1.022 0-1.827.244-2.415.734-.574.49-.86 1.162-.86 2.016h-6.068c0-1.316.406-2.534 1.217-3.653.812-1.12 1.96-1.995 3.444-2.625 1.483-.644 3.149-.966 4.997-.966 2.799 0 5.018.707 6.656 2.12 1.651 1.4 2.477 3.374 2.477 5.922v9.847c.014 2.156.315 3.786.903 4.892V112h-6.131zm-5.018-4.22c.896 0 1.722-.196 2.478-.588.755-.406 1.315-.945 1.679-1.617v-3.905h-2.267c-3.038 0-4.654 1.05-4.85 3.149l-.021.357c0 .756.266 1.379.797 1.869.532.49 1.26.735 2.184.735zm20.492-18.498l.189 2.625c1.624-2.03 3.8-3.045 6.53-3.045 2.408 0 4.199.707 5.375 2.12 1.176 1.415 1.778 3.528 1.806 6.342V112h-6.068V97.47c0-1.287-.28-2.218-.84-2.792-.56-.588-1.491-.882-2.793-.882-1.707 0-2.988.728-3.842 2.184V112h-6.068V89.282h5.711zm25.783-5.585v5.585h3.885v4.451h-3.885v11.338c0 .84.161 1.442.483 1.806.322.364.938.546 1.848.546.672 0 1.267-.049 1.785-.147v4.598c-1.19.364-2.415.546-3.675.546-4.255 0-6.424-2.149-6.508-6.446v-12.24h-3.318v-4.452h3.318v-5.585h6.067zM216.171 112h-6.089V89.282h6.089V112zm-6.446-28.597c0-.91.301-1.658.903-2.246.616-.588 1.449-.882 2.498-.882 1.036 0 1.862.294 2.478.882.616.588.924 1.337.924 2.246 0 .924-.315 1.68-.945 2.268-.616.588-1.435.882-2.457.882-1.021 0-1.847-.294-2.477-.882-.616-.588-.924-1.344-.924-2.268zm18.729.294v5.585h3.884v4.451h-3.884v11.338c0 .84.161 1.442.483 1.806.321.364.937.546 1.847.546.672 0 1.267-.049 1.785-.147v4.598c-1.19.364-2.415.546-3.674.546-4.256 0-6.425-2.149-6.509-6.446v-12.24h-3.318v-4.452h3.318v-5.585h6.068zm15.747 19.716l4.199-14.13h6.509l-9.134 26.244-.504 1.197c-1.357 2.968-3.597 4.451-6.718 4.451a9.55 9.55 0 0 1-2.688-.399v-4.598l.924.021c1.148 0 2.002-.175 2.562-.525.573-.35 1.021-.931 1.343-1.742l.714-1.869-7.957-22.78h6.529l4.221 14.13zm243.684.713c0-1.287-.455-2.372-1.365-3.254-.896-.882-2.415-1.68-4.556-2.394-2.982-.91-5.158-2.092-6.53-3.548-1.358-1.47-2.037-3.331-2.037-5.585 0-2.295.665-4.178 1.995-5.648 1.344-1.47 3.184-2.344 5.522-2.624v-4.598h3.128v4.619c2.352.322 4.179 1.309 5.48 2.96 1.316 1.652 1.974 3.912 1.974 6.782h-3.863c0-1.974-.469-3.541-1.407-4.703-.938-1.162-2.205-1.743-3.8-1.743-1.666 0-2.94.434-3.822 1.302-.881.854-1.322 2.05-1.322 3.59 0 1.428.462 2.569 1.385 3.423.938.84 2.471 1.61 4.599 2.31 2.141.685 3.807 1.448 4.997 2.288 1.203.826 2.085 1.791 2.645 2.897.574 1.106.861 2.401.861 3.884 0 2.366-.714 4.27-2.142 5.711-1.413 1.442-3.401 2.296-5.962 2.562v4.01h-3.108v-4.01c-2.603-.238-4.647-1.162-6.131-2.772-1.469-1.623-2.204-3.821-2.204-6.592h3.884c0 1.945.511 3.443 1.533 4.493 1.021 1.05 2.47 1.575 4.346 1.575 1.834 0 3.275-.441 4.325-1.323 1.05-.882 1.575-2.086 1.575-3.612zm25.111-2.393h4.241v3.17h-4.241V112h-3.905v-7.097H495.17v-2.288l13.69-21.185h4.136v20.303zm-13.416 0h9.511V86.742l-.462.84-9.049 14.151zM540.774 112h-20.03v-2.792l10.582-11.758c1.567-1.778 2.645-3.22 3.233-4.326.602-1.12.903-2.274.903-3.464 0-1.596-.483-2.904-1.449-3.926-.966-1.022-2.253-1.533-3.863-1.533-1.932 0-3.436.553-4.514 1.659-1.064 1.092-1.596 2.617-1.596 4.577h-3.884c0-2.813.903-5.088 2.708-6.824 1.82-1.735 4.248-2.603 7.286-2.603 2.841 0 5.088.749 6.74 2.246 1.651 1.484 2.477 3.465 2.477 5.942 0 3.01-1.917 6.593-5.753 10.75l-8.188 8.882h15.348V112zm4.388 6.089l-2.204-1.512c1.315-1.834 2.001-3.723 2.057-5.669v-3.506h3.8v3.044c0 1.414-.35 2.828-1.049 4.242-.686 1.413-1.554 2.547-2.604 3.401zM566.095 112h-3.905V86.112l-7.832 2.876v-3.527l11.128-4.178h.609V112zm17.028-17.175h2.919c1.833-.028 3.275-.51 4.325-1.449 1.05-.937 1.574-2.204 1.574-3.8 0-3.583-1.784-5.375-5.354-5.375-1.679 0-3.023.483-4.031 1.449-.994.952-1.491 2.218-1.491 3.8h-3.884c0-2.421.882-4.43 2.646-6.026 1.777-1.61 4.031-2.414 6.76-2.414 2.884 0 5.144.763 6.782 2.288 1.638 1.526 2.457 3.647 2.457 6.362 0 1.33-.434 2.618-1.302 3.863-.854 1.246-2.023 2.177-3.506 2.793 1.679.532 2.974 1.414 3.884 2.645.924 1.232 1.386 2.737 1.386 4.515 0 2.743-.896 4.92-2.688 6.529-1.792 1.61-4.122 2.415-6.992 2.415-2.869 0-5.207-.777-7.012-2.331-1.792-1.553-2.688-3.604-2.688-6.151h3.905c0 1.609.525 2.897 1.575 3.863 1.05.966 2.457 1.449 4.22 1.449 1.876 0 3.311-.49 4.305-1.47.993-.98 1.49-2.387 1.49-4.22 0-1.778-.546-3.143-1.637-4.095-1.092-.952-2.667-1.441-4.724-1.47h-2.919v-3.17zm24.146 0h2.918c1.834-.028 3.275-.51 4.325-1.449 1.05-.937 1.575-2.204 1.575-3.8 0-3.583-1.785-5.375-5.354-5.375-1.68 0-3.024.483-4.031 1.449-.994.952-1.491 2.218-1.491 3.8h-3.884c0-2.421.881-4.43 2.645-6.026 1.778-1.61 4.031-2.414 6.761-2.414 2.883 0 5.144.763 6.782 2.288 1.637 1.526 2.456 3.647 2.456 6.362 0 1.33-.434 2.618-1.302 3.863-.853 1.246-2.022 2.177-3.506 2.793 1.68.532 2.975 1.414 3.884 2.645.924 1.232 1.386 2.737 1.386 4.515 0 2.743-.896 4.92-2.687 6.529-1.792 1.61-4.123 2.415-6.992 2.415-2.87 0-5.207-.777-7.013-2.331-1.791-1.553-2.687-3.604-2.687-6.151h3.905c0 1.609.525 2.897 1.575 3.863 1.049.966 2.456 1.449 4.22 1.449 1.876 0 3.31-.49 4.304-1.47.994-.98 1.491-2.387 1.491-4.22 0-1.778-.546-3.143-1.638-4.095-1.092-.952-2.666-1.441-4.724-1.47h-2.918v-3.17zm38.233-11.212L632.842 112h-4.073l12.618-27.379h-16.545V81.43h20.66v2.183zm4.893 26.35c0-.671.195-1.231.587-1.679.406-.448 1.008-.672 1.806-.672s1.4.224 1.806.672c.42.448.63 1.008.63 1.679 0 .644-.21 1.183-.63 1.617-.406.434-1.008.651-1.806.651s-1.4-.217-1.806-.651c-.392-.434-.587-.973-.587-1.617zm30.024-11.002c0 4.55-.777 7.93-2.331 10.142-1.553 2.211-3.982 3.317-7.285 3.317-3.262 0-5.676-1.078-7.244-3.233-1.568-2.17-2.379-5.403-2.435-9.7V94.3c0-4.493.776-7.831 2.33-10.015 1.554-2.183 3.989-3.275 7.307-3.275 3.289 0 5.711 1.057 7.264 3.17 1.554 2.1 2.352 5.347 2.394 9.742v5.04zm-3.884-5.312c0-3.289-.462-5.683-1.386-7.18-.924-1.512-2.387-2.268-4.388-2.268-1.988 0-3.437.749-4.346 2.247-.91 1.498-1.379 3.8-1.407 6.908v6.214c0 3.304.476 5.746 1.428 7.328.965 1.568 2.421 2.352 4.367 2.352 1.917 0 3.338-.742 4.262-2.226.938-1.484 1.428-3.821 1.47-7.013v-6.362zm28.029 5.312c0 4.55-.776 7.93-2.33 10.142-1.554 2.211-3.982 3.317-7.286 3.317-3.261 0-5.676-1.078-7.243-3.233-1.568-2.17-2.38-5.403-2.436-9.7V94.3c0-4.493.777-7.831 2.331-10.015 1.553-2.183 3.989-3.275 7.306-3.275 3.29 0 5.711 1.057 7.265 3.17 1.554 2.1 2.351 5.347 2.393 9.742v5.04zm-3.884-5.312c0-3.289-.462-5.683-1.386-7.18-.923-1.512-2.386-2.268-4.388-2.268-1.987 0-3.436.749-4.346 2.247-.91 1.498-1.379 3.8-1.407 6.908v6.214c0 3.304.476 5.746 1.428 7.328.966 1.568 2.422 2.352 4.367 2.352 1.918 0 3.339-.742 4.262-2.226.938-1.484 1.428-3.821 1.47-7.013v-6.362zM101.028 222.94h13.375V228H94.729v-30.57h6.299v25.51zm27.064 5.48c-3.331 0-6.047-1.022-8.146-3.066-2.086-2.043-3.129-4.766-3.129-8.167v-.588c0-2.281.441-4.318 1.323-6.11.882-1.805 2.128-3.191 3.737-4.157 1.624-.98 3.472-1.47 5.543-1.47 3.108 0 5.55.98 7.328 2.94 1.792 1.959 2.688 4.738 2.688 8.335v2.478h-14.467c.196 1.483.784 2.673 1.764 3.569.994.896 2.246 1.344 3.758 1.344 2.338 0 4.164-.847 5.48-2.541l2.982 3.339c-.91 1.287-2.142 2.295-3.696 3.023-1.553.714-3.275 1.071-5.165 1.071zm-.693-18.645c-1.203 0-2.183.406-2.939 1.218-.742.812-1.218 1.974-1.428 3.486h8.441v-.483c-.028-1.344-.392-2.38-1.092-3.108-.7-.742-1.694-1.113-2.982-1.113zm21.71 10.813l4.221-15.306h6.34L152.007 228h-5.795l-7.664-22.718h6.341l4.22 15.306zm23.411 7.832c-3.331 0-6.047-1.022-8.146-3.066-2.086-2.043-3.129-4.766-3.129-8.167v-.588c0-2.281.441-4.318 1.323-6.11.882-1.805 2.127-3.191 3.737-4.157 1.624-.98 3.472-1.47 5.543-1.47 3.108 0 5.55.98 7.328 2.94 1.791 1.959 2.687 4.738 2.687 8.335v2.478h-14.466c.196 1.483.784 2.673 1.764 3.569.993.896 2.246 1.344 3.758 1.344 2.338 0 4.164-.847 5.48-2.541l2.981 3.339c-.909 1.287-2.141 2.295-3.695 3.023-1.554.714-3.275 1.071-5.165 1.071zm-.693-18.645c-1.204 0-2.183.406-2.939 1.218-.742.812-1.218 1.974-1.428 3.486h8.44v-.483c-.028-1.344-.392-2.38-1.091-3.108-.7-.742-1.694-1.113-2.982-1.113zm26.266 1.197a16.474 16.474 0 0 0-2.183-.168c-2.296 0-3.801.777-4.514 2.331V228h-6.068v-22.718h5.732l.168 2.709c1.217-2.086 2.904-3.129 5.06-3.129.671 0 1.301.091 1.889.273l-.084 5.837zM213.567 228c-.28-.546-.483-1.225-.609-2.037-1.469 1.638-3.38 2.457-5.731 2.457-2.226 0-4.074-.644-5.543-1.932-1.456-1.287-2.184-2.911-2.184-4.871 0-2.407.889-4.255 2.667-5.543 1.791-1.288 4.374-1.938 7.747-1.952h2.793v-1.302c0-1.05-.273-1.89-.819-2.52-.532-.63-1.379-.945-2.541-.945-1.022 0-1.826.245-2.414.735-.574.49-.861 1.162-.861 2.016h-6.068c0-1.316.406-2.534 1.218-3.653.812-1.12 1.959-1.995 3.443-2.625 1.484-.644 3.149-.966 4.997-.966 2.8 0 5.018.707 6.656 2.121 1.652 1.4 2.477 3.373 2.477 5.921v9.847c.014 2.156.315 3.786.903 4.892V228h-6.131zm-5.018-4.22c.896 0 1.722-.196 2.478-.588.756-.406 1.316-.945 1.68-1.617v-3.905h-2.268c-3.037 0-4.654 1.05-4.85 3.149l-.021.357c0 .756.266 1.379.798 1.869s1.259.735 2.183.735zm14.026-7.307c0-3.485.826-6.292 2.477-8.419 1.666-2.128 3.906-3.192 6.719-3.192 2.492 0 4.43.854 5.816 2.562l.252-2.142h5.501v21.962c0 1.988-.455 3.716-1.365 5.186-.896 1.47-2.163 2.59-3.8 3.36-1.638.769-3.556 1.154-5.753 1.154-1.666 0-3.29-.336-4.871-1.007-1.582-.658-2.779-1.512-3.591-2.562l2.688-3.695c1.512 1.693 3.345 2.54 5.501 2.54 1.61 0 2.862-.434 3.758-1.302.896-.853 1.344-2.071 1.344-3.653v-1.218c-1.4 1.582-3.24 2.373-5.522 2.373-2.729 0-4.941-1.064-6.635-3.191-1.679-2.142-2.519-4.977-2.519-8.504v-.252zm6.068.441c0 2.058.413 3.674 1.238 4.85.826 1.162 1.96 1.743 3.402 1.743 1.847 0 3.17-.693 3.968-2.079v-9.553c-.812-1.386-2.121-2.079-3.926-2.079-1.456 0-2.604.595-3.444 1.785-.825 1.19-1.238 2.968-1.238 5.333zm29.835 11.506c-3.331 0-6.047-1.022-8.146-3.066-2.086-2.043-3.129-4.766-3.129-8.167v-.588c0-2.281.441-4.318 1.323-6.11.882-1.805 2.127-3.191 3.737-4.157 1.624-.98 3.472-1.47 5.543-1.47 3.108 0 5.55.98 7.328 2.94 1.791 1.959 2.687 4.738 2.687 8.335v2.478h-14.466c.196 1.483.784 2.673 1.764 3.569.993.896 2.246 1.344 3.758 1.344 2.338 0 4.164-.847 5.48-2.541l2.981 3.339c-.909 1.287-2.141 2.295-3.695 3.023-1.554.714-3.275 1.071-5.165 1.071zm-.693-18.645c-1.204 0-2.183.406-2.939 1.218-.742.812-1.218 1.974-1.428 3.486h8.44v-.483c-.028-1.344-.392-2.38-1.091-3.108-.7-.742-1.694-1.113-2.982-1.113zM652.683 228h-3.905v-25.888l-7.832 2.876v-3.527l11.128-4.178h.609V228zm30.549-13.039c0 4.55-.776 7.93-2.33 10.142-1.554 2.211-3.982 3.317-7.286 3.317-3.261 0-5.676-1.078-7.243-3.233-1.568-2.17-2.38-5.403-2.436-9.701V210.3c0-4.493.777-7.831 2.331-10.015 1.553-2.183 3.989-3.275 7.306-3.275 3.29 0 5.711 1.057 7.265 3.17 1.554 2.1 2.351 5.347 2.393 9.742v5.039zm-3.884-5.312c0-3.289-.462-5.683-1.386-7.18-.923-1.512-2.386-2.268-4.388-2.268-1.987 0-3.436.749-4.346 2.247-.91 1.497-1.379 3.8-1.407 6.907v6.215c0 3.304.476 5.746 1.428 7.328.966 1.568 2.422 2.352 4.367 2.352 1.918 0 3.339-.742 4.262-2.226.938-1.484 1.428-3.821 1.47-7.013v-6.362zm16.881 3.927l5.039-8.294h4.535l-7.432 11.233L706.034 228h-4.493l-5.249-8.503-5.249 8.503h-4.514l7.663-11.485-7.432-11.233h4.493l4.976 8.294zM102.96 313.43l7.852 22.172 7.811-22.172h8.273V344h-6.32v-8.356l.63-14.425L112.954 344h-4.325l-8.231-22.76.63 14.404V344h-6.299v-30.57h8.231zM145.162 344c-.28-.546-.483-1.225-.609-2.037-1.47 1.638-3.38 2.457-5.732 2.457-2.225 0-4.073-.644-5.543-1.932-1.455-1.287-2.183-2.911-2.183-4.871 0-2.407.889-4.255 2.666-5.543 1.792-1.288 4.374-1.938 7.748-1.952h2.792v-1.302c0-1.05-.273-1.89-.819-2.52-.531-.63-1.378-.945-2.54-.945-1.022 0-1.827.245-2.415.735-.574.49-.86 1.162-.86 2.016h-6.068c0-1.316.406-2.534 1.217-3.653.812-1.12 1.96-1.995 3.444-2.625 1.483-.644 3.149-.966 4.997-.966 2.799 0 5.018.707 6.656 2.121 1.651 1.4 2.477 3.373 2.477 5.921v9.847c.014 2.156.315 3.786.903 4.892V344h-6.131zm-5.018-4.22c.896 0 1.722-.196 2.478-.588.755-.406 1.315-.945 1.679-1.617v-3.905h-2.267c-3.038 0-4.654 1.05-4.85 3.149l-.021.357c0 .756.266 1.379.797 1.869.532.49 1.26.735 2.184.735zm27.673-12.808a16.488 16.488 0 0 0-2.184-.168c-2.295 0-3.8.777-4.514 2.331V344h-6.068v-22.718h5.732l.168 2.709c1.218-2.086 2.905-3.129 5.06-3.129a6.36 6.36 0 0 1 1.89.273l-.084 5.837zm1.638 5.501c0-3.485.825-6.292 2.477-8.419 1.666-2.128 3.905-3.192 6.719-3.192 2.491 0 4.43.854 5.816 2.562l.252-2.142h5.501v21.962c0 1.988-.455 3.716-1.365 5.186-.896 1.47-2.163 2.59-3.8 3.36-1.638.769-3.556 1.154-5.753 1.154-1.666 0-3.29-.336-4.871-1.007-1.582-.658-2.779-1.512-3.591-2.562l2.688-3.695c1.512 1.693 3.345 2.54 5.501 2.54 1.61 0 2.862-.434 3.758-1.302.896-.853 1.344-2.071 1.344-3.653v-1.218c-1.4 1.582-3.241 2.373-5.522 2.373-2.73 0-4.941-1.064-6.635-3.191-1.68-2.142-2.519-4.977-2.519-8.504v-.252zm6.067.441c0 2.058.413 3.674 1.239 4.85.826 1.162 1.96 1.743 3.402 1.743 1.847 0 3.17-.693 3.968-2.079v-9.553c-.812-1.386-2.121-2.079-3.926-2.079-1.456 0-2.604.595-3.444 1.785-.826 1.19-1.239 2.968-1.239 5.333zM201.306 344h-6.089v-22.718h6.089V344zm-6.446-28.597c0-.91.301-1.658.903-2.246.616-.588 1.448-.882 2.498-.882 1.036 0 1.862.294 2.478.882.616.588.924 1.336.924 2.246 0 .924-.315 1.68-.945 2.268-.616.588-1.435.882-2.457.882-1.022 0-1.847-.294-2.477-.882-.616-.588-.924-1.344-.924-2.268zm17.049 5.879l.189 2.625c1.623-2.03 3.8-3.045 6.529-3.045 2.408 0 4.2.707 5.375 2.121 1.176 1.414 1.778 3.527 1.806 6.341V344h-6.068v-14.529c0-1.288-.28-2.219-.84-2.793-.56-.588-1.49-.882-2.792-.882-1.708 0-2.989.728-3.842 2.184V344h-6.068v-22.718h5.711zm384.17 26.932V344h-3.956v-30.702h3.956v-4.343h2.752v4.343h.344c.975 0 1.863.043 2.666.129v-4.472h2.752v4.902c1.806.459 3.168 1.261 4.085 2.408.946 1.118 1.419 2.666 1.419 4.644 0 1.806-.444 3.311-1.333 4.515-.86 1.175-2.121 1.935-3.784 2.279v.215c1.147.201 2.164.573 3.053 1.118.917.545 1.634 1.319 2.15 2.322.545 1.003.817 2.308.817 3.913 0 2.236-.573 4.071-1.72 5.504-1.118 1.405-2.68 2.351-4.687 2.838v4.601h-2.752V344h-3.01v4.214h-2.752zm3.87-21.844c2.351 0 3.956-.416 4.816-1.247.889-.86 1.333-2.121 1.333-3.784 0-1.691-.545-2.895-1.634-3.612-1.061-.745-2.766-1.118-5.117-1.118h-3.354v9.761h3.956zm-3.956 3.225v11.137h4.472c2.379 0 4.042-.53 4.988-1.591.946-1.061 1.419-2.451 1.419-4.171 0-1.605-.487-2.895-1.462-3.87-.975-1.003-2.723-1.505-5.246-1.505h-4.171zm48.943 1.366c0 4.55-.777 7.93-2.331 10.142-1.554 2.211-3.982 3.317-7.286 3.317-3.261 0-5.676-1.078-7.243-3.233-1.568-2.17-2.38-5.403-2.436-9.701V326.3c0-4.493.777-7.831 2.331-10.015 1.553-2.183 3.989-3.275 7.306-3.275 3.29 0 5.711 1.057 7.265 3.17 1.554 2.1 2.352 5.347 2.394 9.742v5.039zm-3.885-5.312c0-3.289-.462-5.683-1.385-7.18-.924-1.512-2.387-2.268-4.389-2.268-1.987 0-3.436.749-4.346 2.247-.91 1.497-1.379 3.8-1.407 6.907v6.215c0 3.304.476 5.746 1.428 7.328.966 1.568 2.422 2.352 4.367 2.352 1.918 0 3.339-.742 4.263-2.226.937-1.484 1.427-3.821 1.469-7.013v-6.362zm9.344 16.314c0-.671.195-1.231.587-1.679.406-.448 1.008-.672 1.806-.672s1.4.224 1.806.672c.42.448.63 1.008.63 1.679 0 .644-.21 1.183-.63 1.617-.406.434-1.008.651-1.806.651s-1.4-.217-1.806-.651c-.392-.434-.587-.973-.587-1.617zm30.024-11.002c0 4.55-.777 7.93-2.331 10.142-1.553 2.211-3.982 3.317-7.285 3.317-3.262 0-5.676-1.078-7.244-3.233-1.568-2.17-2.379-5.403-2.435-9.701V326.3c0-4.493.776-7.831 2.33-10.015 1.554-2.183 3.989-3.275 7.307-3.275 3.289 0 5.711 1.057 7.264 3.17 1.554 2.1 2.352 5.347 2.394 9.742v5.039zm-3.884-5.312c0-3.289-.462-5.683-1.386-7.18-.924-1.512-2.387-2.268-4.388-2.268-1.988 0-3.437.749-4.346 2.247-.91 1.497-1.379 3.8-1.407 6.907v6.215c0 3.304.476 5.746 1.428 7.328.965 1.568 2.421 2.352 4.367 2.352 1.917 0 3.338-.742 4.262-2.226.938-1.484 1.428-3.821 1.47-7.013v-6.362zM698.161 344h-3.906v-25.888l-7.831 2.876v-3.527l11.128-4.178h.609V344z" fill="#fff"/><path fill="url(#c)" d="M0 635h800v18H0z"/><path d="M458.5 644.18c0 32.434-25.994 58.68-58 58.68s-58-26.246-58-58.68c0-32.435 25.994-58.68 58-58.68s58 26.245 58 58.68z" fill="#1D2026" stroke="#F7931A" stroke-width="5"/><path d="M416.43 669h-33.539v-4.676l17.719-19.687c2.625-2.977 4.43-5.391 5.414-7.242 1.008-1.875 1.512-3.809 1.512-5.801 0-2.672-.809-4.864-2.426-6.574-1.617-1.711-3.773-2.567-6.469-2.567-3.234 0-5.754.926-7.558 2.777-1.781 1.829-2.672 4.383-2.672 7.665h-6.504c0-4.711 1.512-8.52 4.535-11.426 3.047-2.907 7.113-4.36 12.199-4.36 4.758 0 8.52 1.254 11.286 3.762 2.765 2.484 4.148 5.801 4.148 9.949 0 5.039-3.211 11.039-9.633 18l-13.711 14.871h25.699V669z" fill="#F8F8F8" filter="url(#d)"/><defs><filter id="a" x="109" y="432" width="283" height="130" filterUnits="userSpaceOnUse" color-interpolation-filters="sRGB"><feFlood flood-opacity="0" result="BackgroundImageFix"/><feColorMatrix in="SourceAlpha" values="0 0 0 0 0 0 0 0 0 0 0 0 0 0 0 0 0 0 127 0" result="hardAlpha"/><feOffset dy="4"/><feGaussianBlur stdDeviation="2"/><feComposite in2="hardAlpha" operator="out"/><feColorMatrix values="0 0 0 0 0 0 0 0 0 0 0 0 0 0 0 0 0 0 0.25 0"/><feBlend in2="BackgroundImageFix" result="effect1_dropShadow"/><feBlend in="SourceGraphic" in2="effect1_dropShadow" result="shape"/></filter><filter id="b" x="407" y="428" width="283" height="130" filterUnits="userSpaceOnUse" color-interpolation-filters="sRGB"><feFlood flood-opacity="0" result="BackgroundImageFix"/><feBlend in="SourceGraphic" in2="BackgroundImageFix" result="shape"/><feGaussianBlur stdDeviation="2" result="effect1_foregroundBlur"/></filter><filter id="d" x="377.907" y="617.109" width="42.523" height="59.891" filterUnits="userSpaceOnUse" color-interpolation-filters="sRGB"><feFlood flood-opacity="0" result="BackgroundImageFix"/><feColorMatrix in="SourceAlpha" values="0 0 0 0 0 0 0 0 0 0 0 0 0 0 0 0 0 0 127 0" result="hardAlpha"/><feOffset dy="4"/><feGaussianBlur stdDeviation="2"/><feComposite in2="hardAlpha" operator="out"/><feColorMatrix values="0 0 0 0 0 0 0 0 0 0 0 0 0 0 0 0 0 0 0.25 0"/><feBlend in2="BackgroundImageFix" result="effect1_dropShadow"/><feBlend in="SourceGraphic" in2="effect1_dropShadow" result="shape"/></filter><radialGradient id="c" cx="0" cy="0" r="1" gradientUnits="userSpaceOnUse" gradientTransform="matrix(0 9 -400 0 400 644)"><stop stop-color="#F7931A"/><stop offset="1" stop-color="#F7931A" stop-opacity="0"/></radialGradient></defs></svg>