<svg width="256" height="256" viewBox="0 0 256 256" fill="none" xmlns="http://www.w3.org/2000/svg">
<g clip-path="url(#clip0_110_10)">
<path d="M86.1 113.401C78.8 111.951 72 117.851 72 125.301V150.501C72 155.601 75.55 159.701 80.35 161.501C89.45 164.901 96 173.701 96 184.001C96 197.251 85.25 208.001 72 208.001C58.75 208.001 48 197.251 48 184.001V60.0008C48 53.3508 42.65 48.0008 36 48.0008H12C5.35 48.0008 0 53.3508 0 60.0008V184.001C0 228.751 41.05 264.101 87.5 254.351C114.7 248.651 136.65 226.651 142.35 199.501C151.05 158.051 123.85 120.901 86.1 113.401ZM104.5 0.000765633C99.9 -0.249234 96 3.40077 96 8.00077V23.8008C96 28.0508 99.3 31.5508 103.5 31.7508C168.2 35.2508 220.2 87.7508 223.95 152.501C224.2 156.701 227.7 160.001 231.9 160.001H247.95C252.55 160.001 256.2 156.101 255.95 151.501C251.7 69.9008 186.1 4.30077 104.5 0.000765633ZM104.65 48.0008C100 47.6508 96 51.3508 96 56.0508V72.1008C96 76.3008 99.25 79.7508 103.4 80.0508C141.8 83.2008 172.4 114.151 175.85 152.651C176.25 156.801 179.65 160.001 183.8 160.001H199.9C204.55 160.001 208.3 156.001 207.95 151.351C203.75 96.3008 159.7 52.2508 104.65 48.0008V48.0008Z" fill="#F7931A"/>
</g>
<defs>
<clipPath id="clip0_110_10">
<rect width="256" height="256" fill="white"/>
</clipPath>
</defs>
</svg>
