<svg width="437" height="152" viewBox="0 0 437 152" fill="none" xmlns="http://www.w3.org/2000/svg">
<path d="M198.364 101.382C198.945 97.8168 195.982 95.9003 191.93 94.6218L193.244 89.7924L190.034 89.0596L188.754 93.7619C187.912 93.5693 187.045 93.3874 186.184 93.2076L187.473 88.4743L184.266 87.742L182.951 92.5696C182.252 92.4239 181.567 92.2798 180.901 92.1284L180.905 92.1131L176.479 91.1011L175.625 94.2409C175.625 94.2409 178.006 94.7408 177.956 94.7714C179.256 95.0689 179.492 95.8565 179.451 96.4813L177.954 101.983C178.044 102.004 178.16 102.034 178.288 102.081L177.949 102.004L175.85 109.711C175.691 110.073 175.288 110.615 174.379 110.409C174.411 110.452 172.046 109.876 172.046 109.876L170.453 113.242L174.631 114.195C175.408 114.374 176.169 114.561 176.917 114.737L175.59 119.622L178.795 120.354L180.111 115.522C180.986 115.74 181.836 115.94 182.668 116.13L181.357 120.94L184.567 121.672L185.894 116.797C191.367 117.745 195.483 117.363 197.213 112.83C198.609 109.18 197.145 107.074 194.265 105.7C196.362 105.255 197.942 103.992 198.363 101.382H198.364ZM191.031 110.8C190.038 114.451 183.329 112.478 181.152 111.983L182.915 105.511C185.09 106.009 192.065 106.993 191.031 110.8H191.031ZM192.022 101.329C191.117 104.65 185.533 102.963 183.72 102.549L185.318 96.6798C187.13 97.0934 192.965 97.8653 192.022 101.329Z" fill="#F7931A"/>
<path d="M212.073 107.211C211.895 106.457 211.528 105.852 210.973 105.396C210.417 104.94 209.743 104.712 208.949 104.712C208.116 104.712 207.437 104.93 206.911 105.366C206.386 105.802 206.054 106.417 205.915 107.211H212.073ZM205.766 110.335C205.766 112.656 206.857 113.816 209.039 113.816C210.209 113.816 211.092 113.34 211.687 112.388H216.893C215.842 115.879 213.214 117.625 209.009 117.625C207.72 117.625 206.539 117.431 205.468 117.044C204.397 116.658 203.48 116.107 202.716 115.393C201.953 114.679 201.362 113.826 200.946 112.834C200.529 111.842 200.321 110.732 200.321 109.502C200.321 108.232 200.519 107.087 200.916 106.065C201.313 105.044 201.878 104.176 202.612 103.462C203.346 102.748 204.233 102.198 205.275 101.811C206.316 101.424 207.491 101.231 208.801 101.231C210.09 101.231 211.251 101.424 212.282 101.811C213.313 102.198 214.186 102.758 214.9 103.492C215.614 104.225 216.16 105.123 216.536 106.184C216.913 107.245 217.102 108.441 217.102 109.77V110.335H205.766Z" fill="#F7931A"/>
<path d="M226.176 106.29V117.06H220.791V106.29H219.006V101.797H220.791V97.2149H226.176V101.797H229.241V106.29H226.176Z" fill="#F7931A"/>
<path d="M237.274 106.29V117.06H231.889V106.29H230.104V101.797H231.889V97.2149H237.274V101.797H240.339V106.29H237.274Z" fill="#F7931A"/>
<path d="M253.521 107.211C253.342 106.457 252.976 105.852 252.42 105.396C251.865 104.94 251.19 104.712 250.397 104.712C249.564 104.712 248.885 104.93 248.359 105.366C247.833 105.802 247.501 106.417 247.362 107.211H253.521ZM247.213 110.335C247.213 112.656 248.304 113.816 250.486 113.816C251.657 113.816 252.539 113.34 253.134 112.388H258.341C257.29 115.879 254.662 117.625 250.456 117.625C249.167 117.625 247.987 117.431 246.916 117.044C245.845 116.658 244.927 116.107 244.164 115.393C243.4 114.679 242.81 113.826 242.393 112.834C241.977 111.842 241.768 110.732 241.768 109.502C241.768 108.232 241.967 107.087 242.364 106.065C242.761 105.044 243.326 104.176 244.059 103.462C244.794 102.748 245.681 102.198 246.722 101.811C247.764 101.424 248.939 101.231 250.248 101.231C251.538 101.231 252.698 101.424 253.729 101.811C254.761 102.198 255.633 102.758 256.347 103.492C257.062 104.225 257.607 105.123 257.984 106.184C258.361 107.245 258.549 108.441 258.549 109.77V110.335H247.213Z" fill="#F7931A"/>
<path d="M261.612 101.793H266.997V104.292C267.573 103.38 268.276 102.681 269.109 102.195C269.943 101.709 270.915 101.466 272.025 101.466C272.164 101.466 272.318 101.466 272.486 101.466C272.655 101.466 272.849 101.485 273.067 101.525V106.673C272.353 106.316 271.579 106.137 270.746 106.137C269.496 106.137 268.559 106.509 267.934 107.253C267.309 107.997 266.997 109.083 266.997 110.511V117.057H261.612V101.793Z" fill="#F7931A"/>
<path d="M317.309 106.734C316.377 106.099 315.435 105.782 314.482 105.782C313.967 105.782 313.486 105.871 313.039 106.05C312.593 106.228 312.202 106.481 311.864 106.808C311.527 107.136 311.264 107.522 311.076 107.969C310.887 108.415 310.793 108.916 310.793 109.471C310.793 110.007 310.887 110.498 311.076 110.944C311.264 111.39 311.522 111.777 311.849 112.104C312.177 112.432 312.569 112.685 313.025 112.863C313.481 113.042 313.967 113.131 314.482 113.131C315.494 113.131 316.436 112.784 317.309 112.089V116.671C315.98 117.247 314.721 117.534 313.53 117.534C312.42 117.534 311.364 117.346 310.362 116.969C309.36 116.592 308.477 116.051 307.714 115.347C306.95 114.643 306.34 113.8 305.884 112.818C305.428 111.837 305.2 110.74 305.2 109.531C305.2 108.321 305.418 107.215 305.854 106.213C306.291 105.211 306.886 104.349 307.639 103.625C308.393 102.9 309.291 102.335 310.332 101.929C311.373 101.522 312.489 101.319 313.679 101.319C314.988 101.319 316.198 101.596 317.309 102.152V106.734Z" fill="#F7931A"/>
<path d="M320.376 101.793H325.761V104.292C326.337 103.38 327.041 102.681 327.874 102.195C328.707 101.709 329.679 101.466 330.789 101.466C330.928 101.466 331.082 101.466 331.251 101.466C331.419 101.466 331.613 101.485 331.831 101.525V106.673C331.117 106.316 330.343 106.137 329.51 106.137C328.26 106.137 327.323 106.509 326.698 107.253C326.074 107.997 325.761 109.083 325.761 110.511V117.057H320.376V101.793Z" fill="#F7931A"/>
<path d="M339.208 109.382C339.208 109.878 339.297 110.339 339.476 110.765C339.654 111.192 339.897 111.564 340.205 111.881C340.512 112.198 340.879 112.447 341.306 112.625C341.732 112.804 342.194 112.893 342.689 112.893C343.165 112.893 343.617 112.804 344.043 112.625C344.47 112.447 344.836 112.198 345.144 111.881C345.452 111.564 345.699 111.197 345.888 110.78C346.076 110.364 346.17 109.918 346.17 109.441C346.17 108.965 346.076 108.514 345.888 108.088C345.699 107.661 345.452 107.289 345.144 106.972C344.836 106.654 344.47 106.407 344.043 106.228C343.617 106.05 343.165 105.96 342.689 105.96C342.194 105.96 341.732 106.05 341.306 106.228C340.879 106.407 340.512 106.654 340.205 106.972C339.897 107.289 339.654 107.651 339.476 108.058C339.297 108.464 339.208 108.906 339.208 109.382ZM345.992 101.795H351.407V117.058H345.992V115.362C344.842 116.81 343.284 117.534 341.321 117.534C340.21 117.534 339.188 117.331 338.256 116.924C337.324 116.518 336.511 115.947 335.816 115.214C335.122 114.48 334.581 113.617 334.195 112.625C333.808 111.633 333.614 110.552 333.614 109.382C333.614 108.291 333.803 107.255 334.18 106.273C334.557 105.291 335.083 104.433 335.757 103.699C336.431 102.965 337.235 102.385 338.167 101.959C339.099 101.532 340.13 101.319 341.261 101.319C343.165 101.319 344.742 101.983 345.992 103.312V101.795Z" fill="#F7931A"/>
<path d="M361.077 106.29V117.06H355.692V106.29H353.906V101.797H355.692V97.2149H361.077V101.797H364.141V106.29H361.077Z" fill="#F7931A"/>
<path d="M377.68 106.734C376.748 106.099 375.806 105.782 374.854 105.782C374.338 105.782 373.857 105.871 373.411 106.05C372.964 106.228 372.573 106.481 372.236 106.808C371.898 107.136 371.636 107.522 371.447 107.969C371.259 108.415 371.164 108.916 371.164 109.471C371.164 110.007 371.259 110.498 371.447 110.944C371.636 111.39 371.893 111.777 372.221 112.104C372.548 112.432 372.94 112.685 373.396 112.863C373.852 113.042 374.338 113.131 374.854 113.131C375.865 113.131 376.808 112.784 377.68 112.089V116.671C376.352 117.247 375.092 117.534 373.902 117.534C372.791 117.534 371.735 117.346 370.733 116.969C369.732 116.592 368.849 116.051 368.085 115.347C367.322 114.643 366.712 113.8 366.255 112.818C365.799 111.837 365.571 110.74 365.571 109.531C365.571 108.321 365.789 107.215 366.225 106.213C366.662 105.211 367.257 104.349 368.011 103.625C368.765 102.9 369.662 102.335 370.703 101.929C371.745 101.522 372.86 101.319 374.05 101.319C375.36 101.319 376.57 101.596 377.68 102.152V106.734Z" fill="#F7931A"/>
<path d="M380.744 92.3608H386.129V103.726C386.863 102.834 387.607 102.234 388.36 101.926C389.114 101.619 389.997 101.465 391.008 101.465C392.933 101.465 394.385 101.996 395.367 103.057C396.349 104.118 396.84 105.551 396.84 107.356V117.056H391.455V109.35C391.455 108.576 391.395 107.951 391.276 107.475C391.157 106.999 390.959 106.632 390.681 106.374C390.205 105.958 389.63 105.75 388.955 105.75C388.043 105.75 387.344 106.022 386.858 106.568C386.372 107.113 386.129 107.892 386.129 108.903V117.056H380.744V92.3608Z" fill="#F7931A"/>
<path d="M292.597 105.705C290.504 104.093 289.189 102.665 288.65 101.422C288.11 100.179 288.093 98.7199 288.598 97.0452C289.245 94.8936 290.443 93.4107 292.191 92.5959C293.939 91.781 296.016 91.736 298.422 92.4603C299.514 92.7888 300.568 93.2423 301.585 93.82C302.601 94.3976 303.571 95.0913 304.495 95.9014L303.117 100.48C302.323 99.4667 301.464 98.6183 300.537 97.9348C299.61 97.2509 298.637 96.7562 297.62 96.4497C296.486 96.1084 295.548 96.0744 294.807 96.3486C294.065 96.6223 293.567 97.1829 293.312 98.0309C293.114 98.688 293.17 99.2975 293.481 99.8594C293.792 100.421 294.568 101.172 295.811 102.113L297.6 103.484C299.298 104.758 300.423 106.108 300.976 107.534C301.529 108.96 301.541 110.554 301.011 112.313C300.29 114.708 299.044 116.284 297.273 117.04C295.502 117.795 293.186 117.743 290.324 116.881C289.148 116.527 288.011 116.031 286.914 115.395C285.816 114.758 284.8 113.999 283.863 113.116L285.323 108.266C286.306 109.533 287.317 110.56 288.358 111.348C289.398 112.135 290.491 112.7 291.635 113.045C292.791 113.393 293.765 113.4 294.559 113.067C295.353 112.734 295.892 112.096 296.176 111.152C296.39 110.442 296.365 109.756 296.103 109.093C295.839 108.43 295.351 107.823 294.639 107.273L292.597 105.705Z" fill="#F7931A"/>
<path d="M293.87 87.4037L297.18 88.4064L295.768 94.6546L292.458 93.6519L293.87 87.4037Z" fill="#F7931A"/>
<path d="M299.026 89.0658L302.336 90.0681L300.923 96.3167L297.613 95.314L299.026 89.0658Z" fill="#F7931A"/>
<path d="M286.747 113.91L290.057 114.913L288.645 121.161L285.334 120.159L286.747 113.91Z" fill="#F7931A"/>
<path d="M291.902 115.558L295.213 116.56L293.8 122.809L290.49 121.806L291.902 115.558Z" fill="#F7931A"/>
<path d="M183.99 36.6413V75.0946H178.187V36.6413H183.99Z" fill="#F7931A"/>
<path d="M203.841 42.0955V75.0946H198.038V42.0955H189.197V36.6413H212.657V42.0955H203.841Z" fill="#F7931A"/>
<path d="M246.251 38.7057V45.5794C242.897 42.7736 239.427 41.3705 235.841 41.3705C231.889 41.3705 228.56 42.7902 225.854 45.6291C223.131 48.4518 221.77 51.9053 221.77 55.9895C221.77 60.0245 223.131 63.4278 225.854 66.2008C228.577 68.9733 231.914 70.3598 235.866 70.3598C237.908 70.3598 239.643 70.0279 241.071 69.3635C241.868 69.0316 242.694 68.5831 243.549 68.0187C244.404 67.4542 245.305 66.7733 246.251 65.9764V72.9747C242.93 74.8508 239.444 75.7889 235.791 75.7889C230.295 75.7889 225.605 73.8715 221.719 70.0359C217.851 66.1676 215.917 61.5019 215.917 56.0397C215.917 51.1415 217.536 46.775 220.773 42.9394C224.758 38.2408 229.913 35.8914 236.239 35.8914C239.692 35.8914 243.03 36.8295 246.251 38.7057Z" fill="#F7931A"/>
<path d="M259.376 51.684H275.963V36.6413H281.765V75.0946H275.963V57.1382H259.376V75.0946H253.573V36.6413H259.376V51.684Z" fill="#F7931A"/>
<path d="M298.751 58.483L286.199 36.6413H292.873L301.664 52.0075L310.481 36.6413H317.155L304.553 58.483V75.0946H298.751V58.483Z" fill="#F7931A"/>
<path d="M343.333 42.3667L338.626 45.156C337.746 43.6284 336.907 42.6325 336.11 42.1675C335.28 41.6362 334.21 41.3705 332.898 41.3705C331.288 41.3705 329.951 41.8271 328.888 42.7405C327.826 43.6369 327.294 44.7658 327.294 46.1272C327.294 48.0034 328.689 49.5144 331.478 50.6599L335.314 52.2292C338.435 53.4907 340.718 55.0311 342.163 56.849C343.607 58.6669 344.329 60.8958 344.329 63.5357C344.329 67.0725 343.15 69.9947 340.793 72.3023C338.418 74.6268 335.472 75.7889 331.951 75.7889C328.614 75.7889 325.858 74.8011 323.683 72.8255C321.541 70.8495 320.205 68.0684 319.674 64.4823L325.551 63.1872C325.817 65.445 326.281 67.0058 326.946 67.8695C328.141 69.5297 329.884 70.3598 332.176 70.3598C333.985 70.3598 335.488 69.7537 336.683 68.5419C337.879 67.3297 338.477 65.794 338.477 63.9344C338.477 63.1872 338.373 62.5025 338.165 61.8798C337.958 61.2571 337.634 60.6841 337.194 60.1613C336.754 59.6381 336.185 59.1484 335.488 58.692C334.791 58.2355 333.961 57.7994 332.997 57.3845L329.287 55.8403C324.024 53.6152 321.392 50.3611 321.392 46.0775C321.392 43.1885 322.496 40.7728 324.704 38.8302C326.913 36.871 329.66 35.8914 332.948 35.8914C337.381 35.8914 340.842 38.0499 343.333 42.3667Z" fill="#F7931A"/>
<path d="M373.916 65.7586H357.454L353.17 75.0981H346.919L365.947 34.229L384.302 75.0981H377.951L373.916 65.7586ZM371.55 60.3044L365.847 47.2292L359.87 60.3044H371.55Z" fill="#F7931A"/>
<path d="M399.716 42.0955V75.0946H393.913V42.0955H385.072V36.6413H408.532V42.0955H399.716Z" fill="#F7931A"/>
<path d="M435.454 42.3667L430.749 45.156C429.869 43.6284 429.031 42.6325 428.232 42.1675C427.404 41.6362 426.332 41.3705 425.02 41.3705C423.409 41.3705 422.073 41.8271 421.01 42.7405C419.948 43.6369 419.416 44.7658 419.416 46.1272C419.416 48.0034 420.811 49.5144 423.6 50.6599L427.438 52.2292C430.557 53.4907 432.84 55.0311 434.285 56.849C435.73 58.6669 436.453 60.8958 436.453 63.5357C436.453 67.0725 435.271 69.9947 432.916 72.3023C430.54 74.6268 427.595 75.7889 424.074 75.7889C420.736 75.7889 417.98 74.8011 415.805 72.8255C413.663 70.8495 412.327 68.0684 411.795 64.4823L417.673 63.1872C417.939 65.445 418.404 67.0058 419.068 67.8695C420.263 69.5297 422.006 70.3598 424.298 70.3598C426.107 70.3598 427.612 69.7537 428.806 68.5419C430.001 67.3297 430.6 65.794 430.6 63.9344C430.6 63.1872 430.494 62.5025 430.285 61.8798C430.081 61.2571 429.754 60.6841 429.316 60.1613C428.874 59.6381 428.309 59.1484 427.612 58.692C426.915 58.2355 426.082 57.7994 425.121 57.3845L421.409 55.8403C416.145 53.6152 413.514 50.3611 413.514 46.0775C413.514 43.1885 414.618 40.7728 416.826 38.8302C419.034 36.871 421.782 35.8914 425.07 35.8914C429.503 35.8914 432.963 38.0499 435.454 42.3667Z" fill="#F7931A"/>
<path d="M74.9208 0H76.9092C118.287 0 151.83 33.9883 151.83 75.915C151.83 117.842 118.287 151.83 76.9092 151.83H74.9208C33.5433 151.83 0 117.842 0 75.915C0 33.9883 33.5433 0 74.9208 0Z" fill="#F7931A"/>
<path d="M74.9851 4.82471H76.8468C115.597 4.82471 147.011 36.655 147.011 75.9197C147.011 115.184 115.597 147.015 76.8468 147.015H74.9851C36.2345 147.015 4.82095 115.184 4.82095 75.9197C4.82095 36.655 36.2345 4.82471 74.9851 4.82471Z" fill="black"/>
<path d="M116.876 65.0534C118.782 53.4059 109.066 47.1446 95.781 42.9673L100.091 27.1894L89.5652 24.7959L85.3696 40.1581C82.6068 39.5289 79.7658 38.9354 76.9427 38.3472L81.168 22.8838L70.652 20.4903L66.3395 36.2628C64.0502 35.7869 61.8026 35.3164 59.6208 34.8212L59.6327 34.772L45.1217 31.4649L42.3227 41.7228C42.3227 41.7228 50.1296 43.3557 49.9647 43.4569C54.2262 44.4281 54.9993 47.0022 54.8676 49.0428L49.9587 67.0175C50.2524 67.0855 50.6329 67.1841 51.0528 67.3376L49.9439 67.0855L43.0598 92.2655C42.5383 93.4472 41.2169 95.2196 38.238 94.5468C38.3429 94.6862 30.59 92.8045 30.59 92.8045L25.3665 103.801L39.0621 106.916C41.6095 107.499 44.1059 108.109 46.5605 108.683L42.2058 124.645L52.716 127.038L57.0315 111.249C59.8992 111.96 62.6863 112.617 65.4138 113.235L61.1161 128.95L71.6381 131.344L75.9927 115.416C93.9346 118.515 107.43 117.265 113.103 102.455C117.679 90.5284 112.878 83.6486 103.438 79.1597C110.313 77.7074 115.491 73.5798 116.873 65.0534H116.876ZM92.8321 95.824C89.5775 107.751 67.5802 101.306 60.445 99.6868L66.2226 78.5443C73.3553 80.1692 96.2244 83.3864 92.8351 95.824H92.8321ZM96.0837 64.8808C93.1169 75.7296 74.806 70.2177 68.863 68.8665L74.1017 49.691C80.0442 51.0422 99.1763 53.5644 96.0837 64.8808Z" fill="#F7931A" fill-opacity="0.49935"/>
<path d="M25.6974 84.8341C25.6974 83.8578 25.5878 83.6104 26.5811 82.6252C35.3068 73.9696 44.1372 65.4177 53.0912 56.9988C55.0558 55.1512 57.5529 53.9661 59.7185 52.3595C66.1082 47.6185 72.9714 43.8594 80.2639 40.6508C85.7495 38.2371 91.247 36.9519 97.0535 35.7906C98.1812 35.5651 99.4414 35.918 100.588 35.7906C101.763 35.6601 102.798 35.2749 103.902 34.9069C104.607 34.672 106.378 34.7778 105.89 33.8024" fill="black"/>
<path d="M25.6974 84.8341C25.6974 83.8578 25.5878 83.6104 26.5811 82.6252C35.3068 73.9696 44.1372 65.4177 53.0912 56.9988C55.0558 55.1512 57.5529 53.9661 59.7185 52.3595C66.1082 47.6185 72.9714 43.8594 80.2639 40.6508C85.7495 38.2371 91.247 36.9519 97.0535 35.7906C98.1812 35.5651 99.4414 35.918 100.588 35.7906C101.763 35.6601 102.798 35.2749 103.902 34.9069C104.607 34.672 106.378 34.7778 105.89 33.8024" stroke="black" stroke-width="0.00800313"/>
<path d="M23.9302 107.368C22.6795 107.368 24.0536 105.226 24.372 104.717C25.7389 102.53 27.2818 100.232 29.0112 98.3105C30.4545 96.7068 32.2843 95.5557 33.8714 94.1131C35.6769 92.4716 37.1147 90.4446 38.9525 88.8111C41.2451 86.7731 44.0039 85.4869 46.4636 83.7297C48.9569 81.9488 51.1905 79.9158 53.7539 78.2071C55.0401 77.3494 56.4024 76.5737 57.7302 75.7767C59.2859 74.8438 60.507 73.1495 62.3696 72.6841C67.2317 71.4685 72.1507 69.4304 76.5083 66.9401C82.654 63.4284 88.6577 60.3685 95.2863 57.8828C96.4581 57.4433 97.4459 56.4712 98.5999 55.8945C102.343 54.023 106.161 52.0648 110.088 50.5925C112.446 49.7079 114.993 49.3994 117.378 48.6041C119.803 47.7957 122.238 46.66 124.668 46.1741C126.067 45.8945 128.038 45.9251 129.307 45.2905" fill="black"/>
<path d="M23.9302 107.368C22.6795 107.368 24.0536 105.226 24.372 104.717C25.7389 102.53 27.2818 100.232 29.0112 98.3105C30.4545 96.7068 32.2843 95.5557 33.8714 94.1131C35.6769 92.4716 37.1147 90.4446 38.9525 88.8111C41.2451 86.7731 44.0039 85.4869 46.4636 83.7297C48.9569 81.9488 51.1905 79.9158 53.7539 78.2071C55.0401 77.3494 56.4024 76.5737 57.7302 75.7767C59.2859 74.8438 60.507 73.1495 62.3696 72.6841C67.2317 71.4685 72.1507 69.4304 76.5083 66.9401C82.654 63.4284 88.6577 60.3685 95.2863 57.8828C96.4581 57.4433 97.4459 56.4712 98.5999 55.8945C102.343 54.023 106.161 52.0648 110.088 50.5925C112.446 49.7079 114.993 49.3994 117.378 48.6041C119.803 47.7957 122.238 46.66 124.668 46.1741C126.067 45.8945 128.038 45.9251 129.307 45.2905" stroke="black" stroke-width="0.00800313"/>
<path d="M45.3583 114.655C44.0002 114.655 45.8058 113.079 46.0213 112.887C48.0615 111.074 50.3228 109.54 52.4276 107.806C53.8387 106.644 55 105.2 56.4043 104.051C60.4443 100.745 65.2014 97.7361 69.6593 94.9933C76.001 91.0905 82.7026 87.6808 89.5416 84.8309C91.9371 83.8329 94.291 82.4562 96.6109 81.2963C98.8832 80.1601 101.377 79.7878 103.68 78.8663C107.414 77.3727 111.215 75.9904 115.168 75.3316C116.58 75.0961 117.9 74.0293 119.366 73.7853C121.479 73.4329 123.496 72.8706 125.551 72.4596C126.026 72.3648 127.599 72.4936 127.981 72.2386C128.544 71.8637 128.247 71.7969 129.086 71.7969" fill="black"/>
<path d="M45.3583 114.655C44.0002 114.655 45.8058 113.079 46.0213 112.887C48.0615 111.074 50.3228 109.54 52.4276 107.806C53.8387 106.644 55 105.2 56.4043 104.051C60.4443 100.745 65.2014 97.7361 69.6593 94.9933C76.001 91.0905 82.7026 87.6808 89.5416 84.8309C91.9371 83.8329 94.291 82.4562 96.6109 81.2962C98.8832 80.1601 101.377 79.7878 103.68 78.8663C107.414 77.3727 111.215 75.9904 115.168 75.3316C116.58 75.0961 117.9 74.0293 119.366 73.7853C121.479 73.4329 123.496 72.8706 125.551 72.4596C126.026 72.3648 127.599 72.4936 127.981 72.2386C128.544 71.8637 128.247 71.7969 129.086 71.7969" stroke="black" stroke-width="0.00800313"/>
<path d="M25.6974 84.8341C25.6974 83.8578 25.5878 83.6104 26.5811 82.6252C35.3068 73.9696 44.1372 65.4177 53.0912 56.9988C55.0558 55.1512 57.5529 53.9661 59.7185 52.3595C66.1082 47.6185 72.9714 43.8594 80.2639 40.6508C85.7495 38.2371 91.247 36.9519 97.0535 35.7906C98.1812 35.5651 99.4414 35.918 100.588 35.7906C101.763 35.6601 102.798 35.2749 103.902 34.9069C104.607 34.672 106.378 34.7778 105.89 33.8024" fill="white"/>
<path d="M25.6974 84.8341C25.6974 83.8578 25.5878 83.6104 26.5811 82.6252C35.3068 73.9696 44.1372 65.4177 53.0912 56.9988C55.0558 55.1512 57.5529 53.9661 59.7185 52.3595C66.1082 47.6185 72.9714 43.8594 80.2639 40.6508C85.7495 38.2371 91.247 36.9519 97.0535 35.7906C98.1812 35.5651 99.4414 35.918 100.588 35.7906C101.763 35.6601 102.798 35.2749 103.902 34.9069C104.607 34.672 106.378 34.7778 105.89 33.8024" stroke="white" stroke-width="0.00800313"/>
<path d="M23.9302 107.368C22.6795 107.368 24.0536 105.226 24.372 104.717C25.7389 102.53 27.2818 100.232 29.0112 98.3105C30.4545 96.7068 32.2843 95.5557 33.8714 94.1131C35.6769 92.4716 37.1147 90.4446 38.9525 88.8111C41.2451 86.7731 44.0039 85.4869 46.4636 83.7297C48.9569 81.9488 51.1905 79.9158 53.7539 78.2071C55.0401 77.3494 56.4024 76.5737 57.7302 75.7767C59.2859 74.8438 60.507 73.1495 62.3696 72.6841C67.2317 71.4685 72.1507 69.4304 76.5083 66.9401C82.654 63.4284 88.6577 60.3685 95.2863 57.8828C96.4581 57.4433 97.4459 56.4712 98.5999 55.8945C102.343 54.023 106.161 52.0648 110.088 50.5925C112.446 49.7079 114.993 49.3994 117.378 48.6041C119.803 47.7957 122.238 46.66 124.668 46.1741C126.067 45.8945 128.038 45.9251 129.307 45.2905" fill="white"/>
<path d="M23.9302 107.368C22.6795 107.368 24.0536 105.226 24.372 104.717C25.7389 102.53 27.2818 100.232 29.0112 98.3105C30.4545 96.7068 32.2843 95.5557 33.8714 94.1131C35.6769 92.4716 37.1147 90.4446 38.9525 88.8111C41.2451 86.7731 44.0039 85.4869 46.4636 83.7297C48.9569 81.9488 51.1905 79.9158 53.7539 78.2071C55.0401 77.3494 56.4024 76.5737 57.7302 75.7767C59.2859 74.8438 60.507 73.1495 62.3696 72.6841C67.2317 71.4685 72.1507 69.4304 76.5083 66.9401C82.654 63.4284 88.6577 60.3685 95.2863 57.8828C96.4581 57.4433 97.4459 56.4712 98.5999 55.8945C102.343 54.023 106.161 52.0648 110.088 50.5925C112.446 49.7079 114.993 49.3994 117.378 48.6041C119.803 47.7957 122.238 46.66 124.668 46.1741C126.067 45.8945 128.038 45.9251 129.307 45.2905" stroke="white" stroke-width="0.00800313"/>
<path d="M45.3583 114.655C44.0002 114.655 45.8058 113.079 46.0213 112.887C48.0615 111.074 50.3228 109.54 52.4276 107.806C53.8387 106.644 55 105.2 56.4043 104.051C60.4443 100.745 65.2014 97.7361 69.6593 94.9933C76.001 91.0905 82.7026 87.6808 89.5416 84.8309C91.9371 83.8329 94.291 82.4562 96.6109 81.2963C98.8832 80.1601 101.377 79.7878 103.68 78.8663C107.414 77.3727 111.215 75.9904 115.168 75.3316C116.58 75.0961 117.9 74.0293 119.366 73.7853C121.479 73.4329 123.496 72.8706 125.551 72.4596C126.026 72.3648 127.599 72.4936 127.981 72.2386C128.544 71.8637 128.247 71.7969 129.086 71.7969" fill="white"/>
<path d="M45.3583 114.655C44.0002 114.655 45.8058 113.079 46.0213 112.887C48.0615 111.074 50.3228 109.54 52.4276 107.806C53.8387 106.644 55 105.2 56.4043 104.051C60.4443 100.745 65.2014 97.7361 69.6593 94.9933C76.001 91.0905 82.7026 87.6808 89.5416 84.8309C91.9371 83.8329 94.291 82.4562 96.6109 81.2962C98.8832 80.1601 101.377 79.7878 103.68 78.8663C107.414 77.3727 111.215 75.9904 115.168 75.3316C116.58 75.0961 117.9 74.0293 119.366 73.7853C121.479 73.4329 123.496 72.8706 125.551 72.4596C126.026 72.3648 127.599 72.4936 127.981 72.2386C128.544 71.8637 128.247 71.7969 129.086 71.7969" stroke="white" stroke-width="0.00800313"/>
</svg>
