<?xml version="1.0" encoding="UTF-8" standalone="no"?> <!-- Created with Vectornator for iOS (http://vectornator.io/) --><!DOCTYPE svg PUBLIC "-//W3C//DTD SVG 1.1//EN" "http://www.w3.org/Graphics/SVG/1.1/DTD/svg11.dtd">
<svg height="100%" style="fill-rule:nonzero;clip-rule:evenodd;stroke-linecap:round;stroke-linejoin:round;" xmlns:xlink="http://www.w3.org/1999/xlink" xmlns="http://www.w3.org/2000/svg" xml:space="preserve" width="100%" xmlns:vectornator="http://vectornator.io" version="1.1" viewBox="0 0 1134 357.21">
<metadata>
<vectornator:setting key="DimensionsVisible" value="1"/>
<vectornator:setting key="PencilOnly" value="0"/>
<vectornator:setting key="SnapToPoints" value="0"/>
<vectornator:setting key="OutlineMode" value="0"/>
<vectornator:setting key="CMYKEnabledKey" value="0"/>
<vectornator:setting key="RulersVisible" value="1"/>
<vectornator:setting key="SnapToEdges" value="0"/>
<vectornator:setting key="GuidesVisible" value="1"/>
<vectornator:setting key="DisplayWhiteBackground" value="0"/>
<vectornator:setting key="doHistoryDisabled" value="0"/>
<vectornator:setting key="SnapToGuides" value="1"/>
<vectornator:setting key="TimeLapseWatermarkDisabled" value="0"/>
<vectornator:setting key="Units" value="Millimeters"/>
<vectornator:setting key="DynamicGuides" value="0"/>
<vectornator:setting key="IsolateActiveLayer" value="0"/>
<vectornator:setting key="SnapToGrid" value="0"/>
</metadata>
<defs/>
<g id="White_bg" vectornator:layerName="White_bg" visibility="hidden">
<path d="M0.0255909-1.12206L1138.99-1.12206L1138.99+357.24L0.0255909+357.24L0.0255909-1.12206Z" opacity="1" fill="#ffffff"/>
</g>
<g id="Logo_Circle" vectornator:layerName="Logo_Circle" visibility="hidden">
<path stroke="#f7931a" stroke-opacity="0" stroke-width="9.07555" d="M176.266+0L180.944+0C278.293+0+357.21+79.9642+357.21+178.605L357.21+178.605C357.21+277.246+278.293+357.21+180.944+357.21L176.266+357.21C78.9172+357.21+0+277.246+0+178.605L0+178.605C0+79.9642+78.9172+0+176.266+0Z" fill="#f7931a" stroke-linecap="butt" opacity="1" stroke-linejoin="miter"/>
<path stroke="#f7931a" stroke-opacity="0" stroke-width="9.07555" d="M176.415+11.34L180.795+11.34C271.963+11.34+345.87+86.2271+345.87+178.605L345.87+178.605C345.87+270.983+271.963+345.87+180.795+345.87L176.415+345.87C85.2466+345.87+11.34+270.983+11.34+178.605L11.34+178.605C11.34+86.2271+85.2466+11.34+176.415+11.34Z" fill="#000000" stroke-linecap="butt" opacity="1" stroke-linejoin="miter"/>
</g>
<g id="Logo_Circle copy" vectornator:layerName="Logo_Circle copy" visibility="hidden">
<path stroke="#f7931a" stroke-opacity="0" stroke-width="9.07555" d="M176.266+0L180.944+0C278.293+0+357.21+79.9642+357.21+178.605L357.21+178.605C357.21+277.246+278.293+357.21+180.944+357.21L176.266+357.21C78.9172+357.21+0+277.246+0+178.605L0+178.605C0+79.9642+78.9172+0+176.266+0Z" fill="#000000" stroke-linecap="butt" opacity="1" stroke-linejoin="miter"/>
<path stroke="#f7931a" stroke-opacity="0" stroke-width="9.07555" d="M176.415+11.34L180.795+11.34C271.963+11.34+345.87+86.2271+345.87+178.605L345.87+178.605C345.87+270.983+271.963+345.87+180.795+345.87L176.415+345.87C85.2466+345.87+11.34+270.983+11.34+178.605L11.34+178.605C11.34+86.2271+85.2466+11.34+176.415+11.34Z" fill="#f7931a" stroke-linecap="butt" opacity="1" stroke-linejoin="miter"/>
</g>
<g id="Layer 2 copy" vectornator:layerName="Layer 2 copy" visibility="hidden">
<path stroke="#000000" stroke-width="9.07555" d="M155.574+36.3825L170.844+36.3825L170.844+303.014L155.574+303.014L155.574+36.3825Z" fill="#000000" stroke-linecap="butt" opacity="1" stroke-linejoin="miter"/>
<path stroke="#000000" stroke-width="9.07555" d="M189.358+36.3825L204.628+36.3825L204.628+303.014L189.358+303.014L189.358+36.3825Z" fill="#000000" stroke-linecap="butt" opacity="1" stroke-linejoin="miter"/>
</g>
<g id="Layer 2 copy copy" vectornator:layerName="Layer 2 copy copy" visibility="hidden">
<path stroke="#000000" stroke-opacity="0" stroke-width="9.07555" d="M160.618+46.3236L195.963+46.3236L195.963+312.955L160.618+312.955L160.618+46.3236Z" fill="#000000" stroke-linecap="butt" opacity="1" stroke-linejoin="miter"/>
</g>
<g id="Layer 2 copy copy copy" vectornator:layerName="Layer 2 copy copy copy" visibility="hidden">
<path stroke="#000000" stroke-opacity="0" stroke-width="9.07555" d="M160.618+46.3236L195.963+46.3236L195.963+312.955L160.618+312.955L160.618+46.3236Z" fill="#ffffff" stroke-linecap="butt" opacity="1" stroke-linejoin="miter"/>
</g>
<g id="Layer 2 copy copy_2" vectornator:layerName="Layer 2 copy copy" visibility="hidden">
<path stroke="#f7931a" stroke-width="9.07555" d="M155.574+36.3825L170.844+36.3825L170.844+303.014L155.574+303.014L155.574+36.3825Z" fill="#f7931a" stroke-linecap="butt" opacity="1" stroke-linejoin="miter"/>
<path stroke="#f7931a" stroke-width="9.07555" d="M189.358+36.3825L204.628+36.3825L204.628+303.014L189.358+303.014L189.358+36.3825Z" fill="#f7931a" stroke-linecap="butt" opacity="1" stroke-linejoin="miter"/>
</g>
<g id="Layer 1" vectornator:layerName="Layer 1" visibility="hidden">
<path stroke="#ffffff" stroke-width="9.07555" d="M60.4597+199.584C60.4597+197.287+60.2018+196.705+62.5387+194.387C83.0677+174.023+103.843+153.903+124.909+134.096C129.531+129.749+135.406+126.961+140.501+123.181C155.534+112.027+171.681+103.183+188.838+95.634C201.744+89.9553+214.678+86.9317+228.339+84.1995C230.992+83.6689+233.957+84.4993+236.655+84.1995C239.419+83.8924+241.854+82.9862+244.451+82.1205C246.11+81.5677+250.276+81.8167+249.129+79.5218" fill="#ffffff" stroke-linecap="butt" opacity="1" stroke-linejoin="miter"/>
<path stroke="#ffffff" stroke-width="9.07555" d="M56.3017+252.599C53.3592+252.599+56.592+247.56+57.3412+246.362C60.5571+241.216+64.187+235.81+68.2559+231.289C71.6515+227.516+75.9565+224.808+79.6904+221.414C83.9383+217.552+87.3208+212.783+91.6447+208.94C97.0384+204.145+103.529+201.119+109.316+196.985C115.182+192.795+120.437+188.012+126.468+183.992C129.494+181.974+132.699+180.149+135.823+178.274C139.483+176.079+142.356+172.093+146.738+170.998C158.177+168.138+169.75+163.343+180.002+157.484C194.461+149.222+208.586+142.023+224.181+136.175C226.938+135.141+229.262+132.854+231.977+131.497C240.783+127.094+249.767+122.487+259.004+119.023C264.552+116.942+270.544+116.216+276.156+114.345C281.862+112.443+287.591+109.771+293.308+108.628C296.599+107.97+301.236+108.042+304.222+106.549" fill="#ffffff" stroke-linecap="butt" opacity="1" stroke-linejoin="miter"/>
<path stroke="#ffffff" stroke-width="9.07555" d="M106.717+269.75C103.522+269.75+107.77+266.043+108.277+265.592C113.077+261.325+118.397+257.716+123.349+253.638C126.669+250.904+129.401+247.506+132.705+244.802C142.21+237.026+153.402+229.946+163.89+223.493C178.81+214.311+194.577+206.289+210.667+199.584C216.303+197.236+221.841+193.997+227.299+191.268C232.645+188.595+238.511+187.719+243.931+185.551C252.715+182.037+261.659+178.785+270.958+177.235C274.281+176.681+277.386+174.171+280.834+173.597C285.807+172.768+290.551+171.445+295.387+170.478C296.504+170.255+300.205+170.558+301.104+169.958C302.427+169.076+301.729+168.919+303.703+168.919" fill="#ffffff" stroke-linecap="butt" opacity="1" stroke-linejoin="miter"/>
</g>
<g id="Layer 1 copy" vectornator:layerName="Layer 1 copy" visibility="hidden">
<path stroke="#000000" stroke-width="9.07555" d="M60.4597+199.584C60.4597+197.287+60.2018+196.705+62.5387+194.387C83.0677+174.023+103.843+153.903+124.909+134.096C129.531+129.749+135.406+126.961+140.501+123.181C155.534+112.027+171.681+103.183+188.838+95.634C201.744+89.9553+214.678+86.9317+228.339+84.1995C230.992+83.6689+233.957+84.4993+236.655+84.1995C239.419+83.8924+241.854+82.9862+244.451+82.1205C246.11+81.5677+250.276+81.8167+249.129+79.5218" fill="#000000" stroke-linecap="butt" opacity="1" stroke-linejoin="miter"/>
<path stroke="#000000" stroke-width="9.07555" d="M56.3017+252.599C53.3592+252.599+56.592+247.56+57.3412+246.362C60.5571+241.216+64.187+235.81+68.2559+231.289C71.6515+227.516+75.9565+224.808+79.6904+221.414C83.9383+217.552+87.3208+212.783+91.6447+208.94C97.0384+204.145+103.529+201.119+109.316+196.985C115.182+192.795+120.437+188.012+126.468+183.992C129.494+181.974+132.699+180.149+135.823+178.274C139.483+176.079+142.356+172.093+146.738+170.998C158.177+168.138+169.75+163.343+180.002+157.484C194.461+149.222+208.586+142.023+224.181+136.175C226.938+135.141+229.262+132.854+231.977+131.497C240.783+127.094+249.767+122.487+259.004+119.023C264.552+116.942+270.544+116.216+276.156+114.345C281.862+112.443+287.591+109.771+293.308+108.628C296.599+107.97+301.236+108.042+304.222+106.549" fill="#000000" stroke-linecap="butt" opacity="1" stroke-linejoin="miter"/>
<path stroke="#000000" stroke-width="9.07555" d="M106.717+269.75C103.522+269.75+107.77+266.043+108.277+265.592C113.077+261.325+118.397+257.716+123.349+253.638C126.669+250.904+129.401+247.506+132.705+244.802C142.21+237.026+153.402+229.946+163.89+223.493C178.81+214.311+194.577+206.289+210.667+199.584C216.303+197.236+221.841+193.997+227.299+191.268C232.645+188.595+238.511+187.719+243.931+185.551C252.715+182.037+261.659+178.785+270.958+177.235C274.281+176.681+277.386+174.171+280.834+173.597C285.807+172.768+290.551+171.445+295.387+170.478C296.504+170.255+300.205+170.558+301.104+169.958C302.427+169.076+301.729+168.919+303.703+168.919" fill="#000000" stroke-linecap="butt" opacity="1" stroke-linejoin="miter"/>
</g>
<g id="BetterScratch_big" vectornator:layerName="BetterScratch_big" visibility="hidden">
<path d="M474.113+170.285C475.998+158.607+466.386+152.33+453.243+148.142L457.506+132.324L447.094+129.925L442.943+145.326C440.209+144.695+437.398+144.1+434.605+143.51L438.786+128.008L428.382+125.608L424.116+141.421C421.85+140.944+419.627+140.472+417.468+139.975L417.48+139.926L403.124+136.611L400.355+146.895C400.355+146.895+408.078+148.532+407.915+148.633C412.131+149.607+412.896+152.187+412.766+154.233L407.909+172.254C408.2+172.322+408.577+172.421+408.992+172.574L407.895+172.322L401.084+197.566C400.568+198.751+399.261+200.528+396.314+199.853C396.417+199.993+388.747+198.106+388.747+198.106L383.579+209.131L397.129+212.254C399.649+212.838+402.119+213.45+404.547+214.026L400.239+230.028L410.637+232.427L414.907+216.598C417.744+217.311+420.501+217.969+423.199+218.589L418.948+234.344L429.357+236.744L433.665+220.775C451.416+223.882+464.767+222.629+470.38+207.781C474.907+195.825+470.157+188.927+460.818+184.427C467.62+182.971+472.743+178.833+474.11+170.285L474.113+170.285ZM450.325+201.134C447.105+213.091+425.343+206.63+418.284+205.006L424+183.81C431.056+185.439+453.682+188.664+450.328+201.134L450.325+201.134ZM453.542+170.112C450.607+180.988+432.491+175.462+426.612+174.107L431.795+154.883C437.674+156.238+456.602+158.766+453.542+170.112Z" opacity="1" fill="#000000"/>
<g opacity="1">
<path d="M506.646+200.569C503.423+200.569+500.925+201.578+499.151+203.596C497.376+205.614+496.262+208.349+495.806+211.799L517.437+211.799C517.209+208.121+516.094+205.329+514.092+203.425C512.09+201.521+509.608+200.569+506.646+200.569ZM506.646+189.094C511.073+189.094+515.06+189.924+518.609+191.584C522.157+193.244+525.086+195.865+527.398+199.446C529.481+202.603+530.832+206.265+531.45+210.432C531.808+212.873+531.955+216.389+531.89+220.979L495.464+220.979C495.659+226.317+497.336+230.061+500.493+232.209C502.414+233.544+504.725+234.211+507.427+234.211C510.292+234.211+512.619+233.397+514.409+231.77C515.386+230.891+516.249+229.67+516.997+228.108L531.206+228.108C530.848+231.265+529.204+234.472+526.275+237.727C521.717+242.903+515.337+245.491+507.134+245.491C500.363+245.491+494.39+243.31+489.214+238.948C484.038+234.586+481.45+227.489+481.45+217.659C481.45+208.446+483.786+201.382+488.457+196.467C493.128+191.552+499.191+189.094+506.646+189.094Z" opacity="1" fill="#000000"/>
<path d="M535.796+200.91L535.796+190.998L543.218+190.998L543.218+176.155L556.987+176.155L556.987+190.998L565.63+190.998L565.63+200.91L556.987+200.91L556.987+229.035C556.987+231.216+557.264+232.575+557.818+233.113C558.371+233.65+560.064+233.918+562.896+233.918C563.319+233.918+563.766+233.91+564.238+233.894C564.71+233.878+565.174+233.853+565.63+233.821L565.63+244.221L559.038+244.465C552.463+244.693+547.971+243.554+545.562+241.047C543.999+239.452+543.218+236.994+543.218+233.674L543.218+200.91L535.796+200.91Z" opacity="1" fill="#000000"/>
<path d="M569.097+200.91L569.097+190.998L576.519+190.998L576.519+176.155L590.288+176.155L590.288+190.998L598.931+190.998L598.931+200.91L590.288+200.91L590.288+229.035C590.288+231.216+590.565+232.575+591.118+233.113C591.672+233.65+593.364+233.918+596.196+233.918C596.62+233.918+597.067+233.91+597.539+233.894C598.011+233.878+598.475+233.853+598.931+233.821L598.931+244.221L592.339+244.465C585.764+244.693+581.271+243.554+578.862+241.047C577.3+239.452+576.519+236.994+576.519+233.674L576.519+200.91L569.097+200.91Z" opacity="1" fill="#000000"/>
<path d="M628.862+200.569C625.64+200.569+623.141+201.578+621.367+203.596C619.593+205.614+618.478+208.349+618.023+211.799L639.654+211.799C639.426+208.121+638.311+205.329+636.309+203.425C634.307+201.521+631.825+200.569+628.862+200.569ZM628.862+189.094C633.29+189.094+637.277+189.924+640.825+191.584C644.374+193.244+647.303+195.865+649.614+199.446C651.698+202.603+653.049+206.265+653.667+210.432C654.025+212.873+654.172+216.389+654.107+220.979L617.681+220.979C617.876+226.317+619.553+230.061+622.71+232.209C624.631+233.544+626.942+234.211+629.644+234.211C632.508+234.211+634.836+233.397+636.626+231.77C637.603+230.891+638.465+229.67+639.214+228.108L653.423+228.108C653.065+231.265+651.421+234.472+648.491+237.727C643.934+242.903+637.554+245.491+629.351+245.491C622.58+245.491+616.607+243.31+611.431+238.948C606.255+234.586+603.667+227.489+603.667+217.659C603.667+208.446+606.003+201.382+610.674+196.467C615.345+191.552+621.408+189.094+628.862+189.094Z" opacity="1" fill="#000000"/>
<path d="M692.388+189.241C692.648+189.241+692.868+189.249+693.047+189.265C693.226+189.281+693.625+189.306+694.243+189.338L694.243+203.596C693.364+203.498+692.583+203.433+691.9+203.401C691.216+203.368+690.663+203.352+690.239+203.352C684.64+203.352+680.881+205.175+678.96+208.821C677.886+210.871+677.349+214.029+677.349+218.293L677.349+243.733L663.335+243.733L663.335+190.51L676.616+190.51L676.616+199.787C678.765+196.239+680.637+193.814+682.232+192.512C684.836+190.331+688.221+189.241+692.388+189.241Z" opacity="1" fill="#000000"/>
<path d="M845.318+209.602C845.057+207.616+844.39+205.826+843.316+204.231C841.753+202.082+839.328+201.008+836.04+201.008C831.353+201.008+828.146+203.336+826.421+207.991C825.51+210.464+825.054+213.752+825.054+217.854C825.054+221.76+825.51+224.901+826.421+227.278C828.081+231.705+831.206+233.918+835.796+233.918C839.051+233.918+841.362+233.039+842.73+231.282C844.097+229.524+844.927+227.245+845.22+224.446L859.429+224.446C859.103+228.677+857.573+232.681+854.839+236.457C850.477+242.545+844.015+245.588+835.454+245.588C826.893+245.588+820.594+243.049+816.558+237.971C812.521+232.893+810.503+226.301+810.503+218.196C810.503+209.048+812.733+201.936+817.193+196.858C821.652+191.78+827.805+189.241+835.65+189.241C842.323+189.241+847.783+190.738+852.031+193.733C856.279+196.728+858.794+202.017+859.575+209.602L845.318+209.602Z" opacity="1" fill="#000000"/>
<path d="M898.052+189.241C898.312+189.241+898.532+189.249+898.711+189.265C898.89+189.281+899.289+189.306+899.907+189.338L899.907+203.596C899.029+203.498+898.247+203.433+897.564+203.401C896.88+203.368+896.327+203.352+895.904+203.352C890.305+203.352+886.545+205.175+884.624+208.821C883.55+210.871+883.013+214.029+883.013+218.293L883.013+243.733L868.999+243.733L868.999+190.51L882.28+190.51L882.28+199.787C884.429+196.239+886.301+193.814+887.896+192.512C890.5+190.331+893.885+189.241+898.052+189.241Z" opacity="1" fill="#000000"/>
<path d="M937.407+217.854C936.529+218.407+935.641+218.855+934.746+219.197C933.851+219.538+932.622+219.856+931.06+220.149L927.935+220.735C925.005+221.256+922.905+221.89+921.636+222.639C919.487+223.909+918.413+225.878+918.413+228.547C918.413+230.923+919.072+232.641+920.391+233.699C921.709+234.756+923.312+235.285+925.2+235.285C928.195+235.285+930.954+234.407+933.477+232.649C936+230.891+937.31+227.685+937.407+223.03L937.407+217.854ZM928.96+211.36C931.532+211.034+933.371+210.627+934.478+210.139C936.463+209.293+937.456+207.974+937.456+206.184C937.456+204.003+936.699+202.497+935.186+201.667C933.672+200.837+931.45+200.422+928.521+200.422C925.233+200.422+922.905+201.236+921.538+202.864C920.562+204.068+919.911+205.696+919.585+207.746L906.157+207.746C906.45+203.091+907.752+199.267+910.064+196.272C913.742+191.584+920.057+189.241+929.009+189.241C934.836+189.241+940.012+190.396+944.536+192.707C949.061+195.019+951.323+199.381+951.323+205.793L951.323+230.207C951.323+231.9+951.356+233.951+951.421+236.36C951.519+238.183+951.795+239.42+952.251+240.071C952.707+240.722+953.39+241.259+954.302+241.682L954.302+243.733L939.165+243.733C938.742+242.659+938.449+241.649+938.286+240.705C938.124+239.761+937.993+238.687+937.896+237.483C935.975+239.566+933.762+241.34+931.255+242.805C928.26+244.53+924.875+245.393+921.099+245.393C916.281+245.393+912.302+244.018+909.16+241.267C906.019+238.516+904.448+234.618+904.448+229.573C904.448+223.03+906.971+218.293+912.017+215.364C914.784+213.769+918.853+212.629+924.224+211.946L928.96+211.36Z" opacity="1" fill="#000000"/>
<path d="M958.208+200.91L958.208+190.998L965.63+190.998L965.63+176.155L979.4+176.155L979.4+190.998L988.042+190.998L988.042+200.91L979.4+200.91L979.4+229.035C979.4+231.216+979.676+232.575+980.23+233.113C980.783+233.65+982.476+233.918+985.308+233.918C985.731+233.918+986.179+233.91+986.651+233.894C987.123+233.878+987.586+233.853+988.042+233.821L988.042+244.221L981.45+244.465C974.875+244.693+970.383+243.554+967.974+241.047C966.411+239.452+965.63+236.994+965.63+233.674L965.63+200.91L958.208+200.91Z" opacity="1" fill="#000000"/>
<path d="M1028.76+209.602C1028.5+207.616+1027.84+205.826+1026.76+204.231C1025.2+202.082+1022.78+201.008+1019.49+201.008C1014.8+201.008+1011.59+203.336+1009.87+207.991C1008.96+210.464+1008.5+213.752+1008.5+217.854C1008.5+221.76+1008.96+224.901+1009.87+227.278C1011.53+231.705+1014.65+233.918+1019.24+233.918C1022.5+233.918+1024.81+233.039+1026.18+231.282C1027.54+229.524+1028.37+227.245+1028.67+224.446L1042.88+224.446C1042.55+228.677+1041.02+232.681+1038.29+236.457C1033.92+242.545+1027.46+245.588+1018.9+245.588C1010.34+245.588+1004.04+243.049+1000.01+237.971C995.969+232.893+993.95+226.301+993.95+218.196C993.95+209.048+996.18+201.936+1000.64+196.858C1005.1+191.78+1011.25+189.241+1019.1+189.241C1025.77+189.241+1031.23+190.738+1035.48+193.733C1039.73+196.728+1042.24+202.017+1043.02+209.602L1028.76+209.602Z" opacity="1" fill="#000000"/>
<path d="M1081.94+189.143C1085.23+189.143+1088.21+189.713+1090.9+190.852C1093.58+191.991+1095.79+193.733+1097.51+196.076C1098.98+198.062+1099.87+200.105+1100.2+202.204C1100.53+204.304+1100.69+207.73+1100.69+212.483L1100.69+243.733L1086.48+243.733L1086.48+211.36C1086.48+208.495+1085.99+206.184+1085.01+204.426C1083.75+201.952+1081.34+200.715+1077.79+200.715C1074.11+200.715+1071.32+201.944+1069.41+204.402C1067.51+206.859+1066.56+210.367+1066.56+214.924L1066.56+243.733L1052.69+243.733L1052.69+172.004L1066.56+172.004L1066.56+197.444C1068.58+194.351+1070.91+192.195+1073.56+190.974C1076.22+189.753+1079.01+189.143+1081.94+189.143Z" opacity="1" fill="#000000"/>
</g>
<g opacity="1">
<path d="M766.624+188.8C759.855+183.584+755.599+178.965+753.855+174.944C752.112+170.922+752.055+166.203+753.686+160.786C755.782+153.825+759.657+149.028+765.311+146.392C770.966+143.757+777.685+143.61+785.468+145.954C789+147.017+792.41+148.483+795.699+150.352C798.988+152.221+802.127+154.465+805.115+157.085L800.656+171.897C798.09+168.619+795.308+165.874+792.309+163.663C789.31+161.451+786.165+159.85+782.873+158.859C779.204+157.754+776.171+157.645+773.773+158.531C771.375+159.417+769.763+161.232+768.937+163.975C768.297+166.1+768.479+168.072+769.484+169.889C770.489+171.706+773.001+174.136+777.022+177.178L782.81+181.613C788.301+185.734+791.94+190.102+793.73+194.717C795.519+199.331+795.557+204.485+793.843+210.176C791.511+217.925+787.48+223.022+781.752+225.467C776.024+227.912+768.531+227.741+759.273+224.954C755.467+223.808+751.79+222.206+748.24+220.146C744.691+218.087+741.401+215.629+738.372+212.772L743.095+197.086C746.273+201.184+749.546+204.506+752.911+207.053C756.277+209.599+759.811+211.43+763.514+212.544C767.251+213.67+770.404+213.693+772.972+212.615C775.54+211.537+777.284+209.473+778.202+206.421C778.894+204.124+778.815+201.903+777.964+199.759C777.114+197.614+775.536+195.653+773.229+193.874L766.624+188.8Z" opacity="1" fill="#000000"/>
</g>
<path d="M772.933+132.021L783.075+135.062L778.747+154.013L768.605+150.972L772.933+132.021Z" opacity="1" fill="#000000"/>
<path d="M790.032+137.032L800.173+140.072L795.846+159.024L785.704+155.983L790.032+137.032Z" opacity="1" fill="#000000"/>
<path d="M749.807+214.979L759.949+218.02L755.621+236.971L745.479+233.931L749.807+214.979Z" opacity="1" fill="#000000"/>
<path d="M766.906+219.99L777.047+223.031L772.72+241.982L762.578+238.941L766.906+219.99Z" opacity="1" fill="#000000"/>
</g>
<g id="BetterScratch_big copy" vectornator:layerName="BetterScratch_big copy">
<path d="M466.69+238.506C468.058+230.119+461.086+225.61+451.553+222.602L454.645+211.24L447.093+209.516L444.082+220.579C442.099+220.126+440.061+219.698+438.035+219.275L441.067+208.139L433.521+206.416L430.427+217.774C428.784+217.431+427.171+217.092+425.605+216.736L425.614+216.7L415.201+214.319L413.192+221.706C413.192+221.706+418.794+222.882+418.676+222.954C421.734+223.654+422.289+225.507+422.194+226.977L418.672+239.921C418.883+239.97+419.156+240.041+419.457+240.151L418.661+239.97L413.721+258.103C413.347+258.954+412.399+260.23+410.261+259.745C410.337+259.846+404.773+258.491+404.773+258.491L401.025+266.41L410.853+268.653C412.681+269.073+414.472+269.512+416.233+269.926L413.109+281.42L420.65+283.143L423.747+271.773C425.805+272.286+427.805+272.758+429.762+273.204L426.678+284.52L434.229+286.244L437.353+274.774C450.228+277.005+459.912+276.105+463.983+265.44C467.267+256.852+463.822+251.898+457.047+248.665C461.981+247.619+465.697+244.647+466.688+238.506L466.69+238.506ZM449.437+260.665C447.101+269.254+431.317+264.613+426.196+263.447L430.343+248.222C435.461+249.392+451.871+251.708+449.439+260.665L449.437+260.665ZM451.77+238.382C449.641+246.195+436.502+242.226+432.237+241.252L435.996+227.444C440.261+228.417+453.989+230.233+451.77+238.382Z" opacity="1" fill="#000000"/>
<g opacity="1">
<path d="M498.946+252.213C498.526+250.439+497.663+249.016+496.356+247.943C495.05+246.869+493.463+246.333+491.596+246.333C489.636+246.333+488.038+246.846+486.801+247.873C485.565+248.899+484.783+250.346+484.456+252.213L498.946+252.213ZM484.106+259.563C484.106+265.023+486.673+267.753+491.806+267.753C494.56+267.753+496.636+266.633+498.036+264.393L510.286+264.393C507.813+272.606+501.63+276.713+491.736+276.713C488.703+276.713+485.926+276.258+483.406+275.348C480.886+274.438+478.728+273.143+476.931+271.463C475.135+269.783+473.746+267.776+472.766+265.443C471.786+263.109+471.296+260.496+471.296+257.603C471.296+254.616+471.763+251.921+472.696+249.518C473.63+247.114+474.96+245.073+476.686+243.393C478.413+241.713+480.501+240.418+482.951+239.508C485.401+238.598+488.166+238.143+491.246+238.143C494.28+238.143+497.01+238.598+499.436+239.508C501.863+240.418+503.916+241.736+505.596+243.463C507.276+245.189+508.56+247.301+509.446+249.798C510.333+252.294+510.776+255.106+510.776+258.233L510.776+259.563L484.106+259.563Z" opacity="1" fill="#000000"/>
<path d="M532.126+250.043L532.126+275.383L519.456+275.383L519.456+250.043L515.256+250.043L515.256+239.473L519.456+239.473L519.456+228.693L532.126+228.693L532.126+239.473L539.336+239.473L539.336+250.043L532.126+250.043Z" opacity="1" fill="#000000"/>
<path d="M558.236+250.043L558.236+275.383L545.566+275.383L545.566+250.043L541.366+250.043L541.366+239.473L545.566+239.473L545.566+228.693L558.236+228.693L558.236+239.473L565.446+239.473L565.446+250.043L558.236+250.043Z" opacity="1" fill="#000000"/>
<path d="M596.456+252.213C596.036+250.439+595.173+249.016+593.866+247.943C592.56+246.869+590.973+246.333+589.106+246.333C587.146+246.333+585.548+246.846+584.311+247.873C583.075+248.899+582.293+250.346+581.966+252.213L596.456+252.213ZM581.616+259.563C581.616+265.023+584.183+267.753+589.316+267.753C592.07+267.753+594.146+266.633+595.546+264.393L607.796+264.393C605.323+272.606+599.14+276.713+589.246+276.713C586.213+276.713+583.436+276.258+580.916+275.348C578.396+274.438+576.238+273.143+574.441+271.463C572.645+269.783+571.256+267.776+570.276+265.443C569.296+263.109+568.806+260.496+568.806+257.603C568.806+254.616+569.273+251.921+570.206+249.518C571.14+247.114+572.47+245.073+574.196+243.393C575.923+241.713+578.011+240.418+580.461+239.508C582.911+238.598+585.676+238.143+588.756+238.143C591.79+238.143+594.52+238.598+596.946+239.508C599.373+240.418+601.426+241.736+603.106+243.463C604.786+245.189+606.07+247.301+606.956+249.798C607.843+252.294+608.286+255.106+608.286+258.233L608.286+259.563L581.616+259.563Z" opacity="1" fill="#000000"/>
<path d="M615.496+239.473L628.166+239.473L628.166+245.353C629.52+243.206+631.176+241.561+633.136+240.418C635.096+239.274+637.383+238.703+639.996+238.703C640.323+238.703+640.685+238.703+641.081+238.703C641.478+238.703+641.933+238.749+642.446+238.843L642.446+250.953C640.766+250.113+638.946+249.693+636.986+249.693C634.046+249.693+631.841+250.568+630.371+252.318C628.901+254.068+628.166+256.623+628.166+259.983L628.166+275.383L615.496+275.383L615.496+239.473Z" opacity="1" fill="#000000"/>
<path d="M746.536+251.093C744.343+249.599+742.126+248.853+739.886+248.853C738.673+248.853+737.541+249.063+736.491+249.483C735.441+249.903+734.52+250.498+733.726+251.268C732.933+252.038+732.315+252.948+731.871+253.998C731.428+255.048+731.206+256.226+731.206+257.533C731.206+258.793+731.428+259.948+731.871+260.998C732.315+262.048+732.921+262.958+733.691+263.728C734.461+264.498+735.383+265.093+736.456+265.513C737.53+265.933+738.673+266.143+739.886+266.143C742.266+266.143+744.483+265.326+746.536+263.693L746.536+274.473C743.41+275.826+740.446+276.503+737.646+276.503C735.033+276.503+732.548+276.059+730.191+275.173C727.835+274.286+725.758+273.014+723.961+271.358C722.165+269.701+720.73+267.718+719.656+265.408C718.583+263.098+718.046+260.519+718.046+257.673C718.046+254.826+718.56+252.224+719.586+249.868C720.613+247.511+722.013+245.481+723.786+243.778C725.56+242.074+727.671+240.744+730.121+239.788C732.571+238.831+735.196+238.353+737.996+238.353C741.076+238.353+743.923+239.006+746.536+240.313L746.536+251.093Z" opacity="1" fill="#000000"/>
<path d="M753.746+239.473L766.416+239.473L766.416+245.353C767.77+243.206+769.426+241.561+771.386+240.418C773.346+239.274+775.633+238.703+778.246+238.703C778.573+238.703+778.935+238.703+779.331+238.703C779.728+238.703+780.183+238.749+780.696+238.843L780.696+250.953C779.016+250.113+777.196+249.693+775.236+249.693C772.296+249.693+770.091+250.568+768.621+252.318C767.151+254.068+766.416+256.623+766.416+259.983L766.416+275.383L753.746+275.383L753.746+239.473Z" opacity="1" fill="#000000"/>
<path d="M798.056+257.323C798.056+258.489+798.266+259.574+798.686+260.578C799.106+261.581+799.678+262.456+800.401+263.203C801.125+263.949+801.988+264.533+802.991+264.953C803.995+265.373+805.08+265.583+806.246+265.583C807.366+265.583+808.428+265.373+809.431+264.953C810.435+264.533+811.298+263.949+812.021+263.203C812.745+262.456+813.328+261.593+813.771+260.613C814.215+259.633+814.436+258.583+814.436+257.463C814.436+256.343+814.215+255.281+813.771+254.278C813.328+253.274+812.745+252.399+812.021+251.653C811.298+250.906+810.435+250.323+809.431+249.903C808.428+249.483+807.366+249.273+806.246+249.273C805.08+249.273+803.995+249.483+802.991+249.903C801.988+250.323+801.125+250.906+800.401+251.653C799.678+252.399+799.106+253.251+798.686+254.208C798.266+255.164+798.056+256.203+798.056+257.323ZM814.016+239.473L826.756+239.473L826.756+275.383L814.016+275.383L814.016+271.393C811.31+274.799+807.646+276.503+803.026+276.503C800.413+276.503+798.01+276.024+795.816+275.068C793.623+274.111+791.71+272.769+790.076+271.043C788.443+269.316+787.171+267.286+786.261+264.953C785.351+262.619+784.896+260.076+784.896+257.323C784.896+254.756+785.34+252.318+786.226+250.008C787.113+247.698+788.35+245.679+789.936+243.953C791.523+242.226+793.413+240.861+795.606+239.858C797.8+238.854+800.226+238.353+802.886+238.353C807.366+238.353+811.076+239.916+814.016+243.043L814.016+239.473Z" opacity="1" fill="#000000"/>
<path d="M849.506+250.043L849.506+275.383L836.836+275.383L836.836+250.043L832.636+250.043L832.636+239.473L836.836+239.473L836.836+228.693L849.506+228.693L849.506+239.473L856.716+239.473L856.716+250.043L849.506+250.043Z" opacity="1" fill="#000000"/>
<path d="M888.566+251.093C886.373+249.599+884.156+248.853+881.916+248.853C880.703+248.853+879.571+249.063+878.521+249.483C877.471+249.903+876.55+250.498+875.756+251.268C874.963+252.038+874.345+252.948+873.901+253.998C873.458+255.048+873.236+256.226+873.236+257.533C873.236+258.793+873.458+259.948+873.901+260.998C874.345+262.048+874.951+262.958+875.721+263.728C876.491+264.498+877.413+265.093+878.486+265.513C879.56+265.933+880.703+266.143+881.916+266.143C884.296+266.143+886.513+265.326+888.566+263.693L888.566+274.473C885.44+275.826+882.476+276.503+879.676+276.503C877.063+276.503+874.578+276.059+872.221+275.173C869.865+274.286+867.788+273.014+865.991+271.358C864.195+269.701+862.76+267.718+861.686+265.408C860.613+263.098+860.076+260.519+860.076+257.673C860.076+254.826+860.59+252.224+861.616+249.868C862.643+247.511+864.043+245.481+865.816+243.778C867.59+242.074+869.701+240.744+872.151+239.788C874.601+238.831+877.226+238.353+880.026+238.353C883.106+238.353+885.953+239.006+888.566+240.313L888.566+251.093Z" opacity="1" fill="#000000"/>
<path d="M895.776+217.283L908.446+217.283L908.446+244.023C910.173+241.923+911.923+240.511+913.696+239.788C915.47+239.064+917.546+238.703+919.926+238.703C924.453+238.703+927.871+239.951+930.181+242.448C932.491+244.944+933.646+248.316+933.646+252.563L933.646+275.383L920.976+275.383L920.976+257.253C920.976+255.433+920.836+253.963+920.556+252.843C920.276+251.723+919.81+250.859+919.156+250.253C918.036+249.273+916.683+248.783+915.096+248.783C912.95+248.783+911.305+249.424+910.161+250.708C909.018+251.991+908.446+253.823+908.446+256.203L908.446+275.383L895.776+275.383L895.776+217.283Z" opacity="1" fill="#000000"/>
</g>
<g opacity="1">
<path d="M688.393+248.68C683.47+244.887+680.375+241.528+679.107+238.603C677.838+235.678+677.798+232.246+678.984+228.306C680.508+223.244+683.326+219.755+687.438+217.838C691.551+215.921+696.437+215.815+702.098+217.519C704.666+218.292+707.147+219.359+709.539+220.718C711.931+222.077+714.213+223.709+716.386+225.615L713.143+236.387C711.277+234.003+709.254+232.007+707.073+230.399C704.892+228.79+702.604+227.626+700.211+226.905C697.542+226.102+695.336+226.022+693.592+226.667C691.848+227.311+690.676+228.63+690.075+230.625C689.61+232.171+689.742+233.605+690.473+234.927C691.204+236.248+693.031+238.015+695.955+240.228L700.165+243.454C704.158+246.451+706.805+249.627+708.106+252.983C709.408+256.339+709.435+260.087+708.189+264.227C706.492+269.862+703.561+273.569+699.395+275.347C695.229+277.125+689.78+277.001+683.047+274.974C680.279+274.141+677.604+272.975+675.023+271.478C672.441+269.98+670.049+268.192+667.846+266.115L671.281+254.706C673.593+257.687+675.972+260.103+678.42+261.955C680.868+263.807+683.438+265.138+686.131+265.949C688.849+266.767+691.142+266.784+693.01+266C694.878+265.217+696.146+263.715+696.814+261.496C697.317+259.825+697.259+258.21+696.641+256.65C696.022+255.091+694.874+253.664+693.197+252.37L688.393+248.68Z" opacity="1" fill="#000000"/>
</g>
<path d="M691.389+205.645L699.177+208.004L695.854+222.704L688.066+220.345L691.389+205.645Z" opacity="1" fill="#000000"/>
<path d="M703.519+209.532L711.307+211.89L707.984+226.591L700.196+224.232L703.519+209.532Z" opacity="1" fill="#000000"/>
<path d="M674.63+267.996L682.418+270.355L679.095+285.056L671.307+282.697L674.63+267.996Z" opacity="1" fill="#000000"/>
<path d="M686.76+271.883L694.548+274.242L691.225+288.943L683.437+286.584L686.76+271.883Z" opacity="1" fill="#000000"/>
<g opacity="1">
<path d="M432.872+86.231L432.872+176.7L419.219+176.7L419.219+86.231L432.872+86.231Z" opacity="1" fill="#000000"/>
<path d="M479.571+99.0631L479.571+176.7L465.919+176.7L465.919+99.0631L445.118+99.0631L445.118+86.231L500.313+86.231L500.313+99.0631L479.571+99.0631Z" opacity="1" fill="#000000"/>
<path d="M579.356+91.0943L579.356+107.266C571.466+100.665+563.301+97.3639+554.864+97.3639C545.567+97.3639+537.735+100.704+531.368+107.383C524.962+114.024+521.759+122.149+521.759+131.758C521.759+141.251+524.962+149.258+531.368+155.782C537.774+162.305+545.626+165.567+554.923+165.567C559.727+165.567+563.809+164.786+567.169+163.223C569.044+162.442+570.987+161.387+572.999+160.059C575.01+158.731+577.13+157.129+579.356+155.254L579.356+171.719C571.544+176.133+563.341+178.34+554.747+178.34C541.817+178.34+530.782+173.829+521.641+164.805C512.54+155.704+507.989+144.727+507.989+131.876C507.989+120.352+511.798+110.079+519.415+101.055C528.79+90.0006+540.919+84.4732+555.801+84.4732C563.926+84.4732+571.778+86.6803+579.356+91.0943Z" opacity="1" fill="#000000"/>
<path d="M610.235+121.622L649.259+121.622L649.259+86.231L662.911+86.231L662.911+176.7L649.259+176.7L649.259+134.454L610.235+134.454L610.235+176.7L596.583+176.7L596.583+86.231L610.235+86.231L610.235+121.622Z" opacity="1" fill="#000000"/>
<path d="M702.872+137.618L673.341+86.231L689.044+86.231L709.727+122.383L730.469+86.231L746.173+86.231L716.524+137.618L716.524+176.7L702.872+176.7L702.872+137.618Z" opacity="1" fill="#000000"/>
<path d="M807.755+99.7076L796.68+106.27C794.61+102.676+792.637+100.333+790.762+99.2389C788.809+97.9889+786.29+97.3639+783.204+97.3639C779.415+97.3639+776.27+98.4381+773.77+100.587C771.27+102.696+770.02+105.352+770.02+108.555C770.02+112.969+773.301+116.524+779.864+119.219L788.887+122.911C796.231+125.879+801.602+129.503+805.001+133.78C808.399+138.057+810.098+143.301+810.098+149.512C810.098+157.833+807.325+164.708+801.778+170.137C796.192+175.606+789.259+178.34+780.977+178.34C773.126+178.34+766.641+176.016+761.524+171.368C756.485+166.719+753.341+160.176+752.091+151.739L765.919+148.692C766.544+154.004+767.637+157.676+769.2+159.708C772.012+163.614+776.114+165.567+781.505+165.567C785.762+165.567+789.298+164.141+792.11+161.29C794.923+158.438+796.329+154.825+796.329+150.45C796.329+148.692+796.085+147.081+795.596+145.616C795.108+144.151+794.346+142.803+793.311+141.573C792.276+140.342+790.938+139.19+789.298+138.116C787.657+137.042+785.704+136.016+783.438+135.04L774.708+131.407C762.325+126.172+756.134+118.516+756.134+108.438C756.134+101.641+758.731+95.9576+763.926+91.3873C769.122+86.7779+775.587+84.4732+783.321+84.4732C793.751+84.4732+801.895+89.5514+807.755+99.7076Z" opacity="1" fill="#000000"/>
<path d="M879.708+154.727L840.977+154.727L830.899+176.7L816.192+176.7L860.958+80.5474L904.141+176.7L889.2+176.7L879.708+154.727ZM874.141+141.895L860.723+111.133L846.661+141.895L874.141+141.895Z" opacity="1" fill="#000000"/>
<path d="M940.411+99.0631L940.411+176.7L926.759+176.7L926.759+99.0631L905.958+99.0631L905.958+86.231L961.153+86.231L961.153+99.0631L940.411+99.0631Z" opacity="1" fill="#000000"/>
<path d="M1024.49+99.7076L1013.42+106.27C1011.35+102.676+1009.38+100.333+1007.5+99.2389C1005.55+97.9889+1003.03+97.3639+999.942+97.3639C996.153+97.3639+993.009+98.4381+990.509+100.587C988.009+102.696+986.759+105.352+986.759+108.555C986.759+112.969+990.04+116.524+996.602+119.219L1005.63+122.911C1012.97+125.879+1018.34+129.503+1021.74+133.78C1025.14+138.057+1026.84+143.301+1026.84+149.512C1026.84+157.833+1024.06+164.708+1018.52+170.137C1012.93+175.606+1006+178.34+997.716+178.34C989.864+178.34+983.38+176.016+978.262+171.368C973.223+166.719+970.079+160.176+968.829+151.739L982.657+148.692C983.282+154.004+984.376+157.676+985.938+159.708C988.751+163.614+992.852+165.567+998.243+165.567C1002.5+165.567+1006.04+164.141+1008.85+161.29C1011.66+158.438+1013.07+154.825+1013.07+150.45C1013.07+148.692+1012.82+147.081+1012.33+145.616C1011.85+144.151+1011.08+142.803+1010.05+141.573C1009.01+140.342+1007.68+139.19+1006.04+138.116C1004.4+137.042+1002.44+136.016+1000.18+135.04L991.446+131.407C979.063+126.172+972.872+118.516+972.872+108.438C972.872+101.641+975.469+95.9576+980.665+91.3873C985.86+86.7779+992.325+84.4732+1000.06+84.4732C1010.49+84.4732+1018.63+89.5514+1024.49+99.7076Z" opacity="1" fill="#000000"/>
</g>
<path stroke="#f7931a" stroke-opacity="0" stroke-width="9.07555" d="M176.266+0L180.944+0C278.293+0+357.21+79.9642+357.21+178.605L357.21+178.605C357.21+277.246+278.293+357.21+180.944+357.21L176.266+357.21C78.9172+357.21+0+277.246+0+178.605L0+178.605C0+79.9642+78.9172+0+176.266+0Z" fill="#f7931a" stroke-linecap="butt" opacity="1" stroke-linejoin="miter"/>
<path stroke="#f7931a" stroke-opacity="0" stroke-width="9.07555" d="M176.415+11.34L180.795+11.34C271.963+11.34+345.87+86.2271+345.87+178.605L345.87+178.605C345.87+270.983+271.963+345.87+180.795+345.87L176.415+345.87C85.2466+345.87+11.34+270.983+11.34+178.605L11.34+178.605C11.34+86.2271+85.2466+11.34+176.415+11.34Z" fill="#000000" stroke-linecap="butt" opacity="1" stroke-linejoin="miter"/>
<path d="M274.971+153.046C279.455+125.643+256.597+110.912+225.341+101.084L235.48+63.9635L210.717+58.3323L200.846+94.4749C194.346+92.9947+187.662+91.5982+181.02+90.2145L190.961+53.8337L166.22+48.2025L156.074+85.3105C150.688+84.1907+145.4+83.0838+140.267+81.9189L140.295+81.8031L106.155+74.0224L99.5698+98.1561C99.5698+98.1561+117.937+101.998+117.549+102.236C127.575+104.521+129.394+110.577+129.084+115.378L117.535+157.667C118.226+157.827+119.121+158.059+120.109+158.42L117.5+157.827L101.304+217.068C100.077+219.848+96.9681+224.018+89.9597+222.435C90.2064+222.763+71.9662+218.336+71.9662+218.336L59.6768+244.207L91.8986+251.537C97.8917+252.908+103.765+254.343+109.54+255.694L99.2948+293.247L124.022+298.878L134.175+261.731C140.922+263.404+147.479+264.949+153.896+266.403L143.785+303.376L168.54+309.007L178.785+271.533C220.997+278.824+252.747+275.883+266.094+241.041C276.86+212.981+265.565+196.795+243.355+186.234C259.53+182.817+271.713+173.106+274.964+153.046L274.971+153.046ZM218.403+225.44C210.746+253.5+158.993+238.338+142.206+234.528L155.799+184.786C172.58+188.609+226.384+196.178+218.41+225.44L218.403+225.44ZM226.053+152.64C219.073+178.164+175.993+165.196+162.011+162.017L174.336+116.903C188.317+120.082+233.329+126.016+226.053+152.64Z" fill-opacity="0.49935" fill="#f7931a" opacity="1"/>
<path stroke="#000000" stroke-width="9.07555" d="M60.4597+199.584C60.4597+197.287+60.2018+196.705+62.5387+194.387C83.0677+174.023+103.843+153.903+124.909+134.096C129.531+129.749+135.406+126.961+140.501+123.181C155.534+112.027+171.681+103.183+188.838+95.634C201.744+89.9553+214.678+86.9317+228.339+84.1995C230.992+83.6689+233.957+84.4993+236.655+84.1995C239.419+83.8924+241.854+82.9862+244.451+82.1205C246.11+81.5677+250.276+81.8167+249.129+79.5218" fill="#000000" stroke-linecap="butt" opacity="1" stroke-linejoin="miter"/>
<path stroke="#000000" stroke-width="9.07555" d="M56.3017+252.599C53.3592+252.599+56.592+247.56+57.3412+246.362C60.5571+241.216+64.187+235.81+68.2559+231.289C71.6515+227.516+75.9565+224.808+79.6904+221.414C83.9383+217.552+87.3208+212.783+91.6447+208.94C97.0384+204.145+103.529+201.119+109.316+196.985C115.182+192.795+120.437+188.012+126.468+183.992C129.494+181.974+132.699+180.149+135.823+178.274C139.483+176.079+142.356+172.093+146.738+170.998C158.177+168.138+169.75+163.343+180.002+157.484C194.461+149.222+208.586+142.023+224.181+136.175C226.938+135.141+229.262+132.854+231.977+131.497C240.783+127.094+249.767+122.487+259.004+119.023C264.552+116.942+270.544+116.216+276.156+114.345C281.862+112.443+287.591+109.771+293.308+108.628C296.599+107.97+301.236+108.042+304.222+106.549" fill="#000000" stroke-linecap="butt" opacity="1" stroke-linejoin="miter"/>
<path stroke="#000000" stroke-width="9.07555" d="M106.717+269.75C103.522+269.75+107.77+266.043+108.277+265.592C113.077+261.325+118.397+257.716+123.349+253.638C126.669+250.904+129.401+247.506+132.705+244.802C142.21+237.026+153.402+229.946+163.89+223.493C178.81+214.311+194.577+206.289+210.667+199.584C216.303+197.236+221.841+193.997+227.299+191.268C232.645+188.595+238.511+187.719+243.931+185.551C252.715+182.037+261.659+178.785+270.958+177.235C274.281+176.681+277.386+174.171+280.834+173.597C285.807+172.768+290.551+171.445+295.387+170.478C296.504+170.255+300.205+170.558+301.104+169.958C302.427+169.076+301.729+168.919+303.703+168.919" fill="#000000" stroke-linecap="butt" opacity="1" stroke-linejoin="miter"/>
<path stroke="#ffffff" stroke-width="9.07555" d="M60.4597+199.584C60.4597+197.287+60.2018+196.705+62.5387+194.387C83.0677+174.023+103.843+153.903+124.909+134.096C129.531+129.749+135.406+126.961+140.501+123.181C155.534+112.027+171.681+103.183+188.838+95.634C201.744+89.9553+214.678+86.9317+228.339+84.1995C230.992+83.6689+233.957+84.4993+236.655+84.1995C239.419+83.8924+241.854+82.9862+244.451+82.1205C246.11+81.5677+250.276+81.8167+249.129+79.5218" fill="#ffffff" stroke-linecap="butt" opacity="1" stroke-linejoin="miter"/>
<path stroke="#ffffff" stroke-width="9.07555" d="M56.3017+252.599C53.3592+252.599+56.592+247.56+57.3412+246.362C60.5571+241.216+64.187+235.81+68.2559+231.289C71.6515+227.516+75.9565+224.808+79.6904+221.414C83.9383+217.552+87.3208+212.783+91.6447+208.94C97.0384+204.145+103.529+201.119+109.316+196.985C115.182+192.795+120.437+188.012+126.468+183.992C129.494+181.974+132.699+180.149+135.823+178.274C139.483+176.079+142.356+172.093+146.738+170.998C158.177+168.138+169.75+163.343+180.002+157.484C194.461+149.222+208.586+142.023+224.181+136.175C226.938+135.141+229.262+132.854+231.977+131.497C240.783+127.094+249.767+122.487+259.004+119.023C264.552+116.942+270.544+116.216+276.156+114.345C281.862+112.443+287.591+109.771+293.308+108.628C296.599+107.97+301.236+108.042+304.222+106.549" fill="#ffffff" stroke-linecap="butt" opacity="1" stroke-linejoin="miter"/>
<path stroke="#ffffff" stroke-width="9.07555" d="M106.717+269.75C103.522+269.75+107.77+266.043+108.277+265.592C113.077+261.325+118.397+257.716+123.349+253.638C126.669+250.904+129.401+247.506+132.705+244.802C142.21+237.026+153.402+229.946+163.89+223.493C178.81+214.311+194.577+206.289+210.667+199.584C216.303+197.236+221.841+193.997+227.299+191.268C232.645+188.595+238.511+187.719+243.931+185.551C252.715+182.037+261.659+178.785+270.958+177.235C274.281+176.681+277.386+174.171+280.834+173.597C285.807+172.768+290.551+171.445+295.387+170.478C296.504+170.255+300.205+170.558+301.104+169.958C302.427+169.076+301.729+168.919+303.703+168.919" fill="#ffffff" stroke-linecap="butt" opacity="1" stroke-linejoin="miter"/>
</g>
<g id="Layer 2" vectornator:layerName="Layer 2" visibility="hidden">
<path stroke="#ffffff" stroke-width="9.07555" d="M162.85+31.185L195.595+31.185L195.595+297.817L162.85+297.817L162.85+31.185Z" fill="#ffffff" stroke-linecap="butt" opacity="1" stroke-linejoin="miter"/>
</g>
</svg>
