<?xml version="1.0" encoding="UTF-8" standalone="no"?> <!-- Created with Vectornator for iOS (http://vectornator.io/) --><!DOCTYPE svg PUBLIC "-//W3C//DTD SVG 1.1//EN" "http://www.w3.org/Graphics/SVG/1.1/DTD/svg11.dtd">
<svg height="100%" style="fill-rule:nonzero;clip-rule:evenodd;stroke-linecap:round;stroke-linejoin:round;" xmlns:xlink="http://www.w3.org/1999/xlink" xmlns="http://www.w3.org/2000/svg" xml:space="preserve" width="100%" xmlns:vectornator="http://vectornator.io" version="1.1" viewBox="0 0 1134 357.21">
<metadata>
<vectornator:setting key="DimensionsVisible" value="1"/>
<vectornator:setting key="PencilOnly" value="0"/>
<vectornator:setting key="SnapToPoints" value="0"/>
<vectornator:setting key="OutlineMode" value="0"/>
<vectornator:setting key="CMYKEnabledKey" value="0"/>
<vectornator:setting key="RulersVisible" value="1"/>
<vectornator:setting key="SnapToEdges" value="0"/>
<vectornator:setting key="GuidesVisible" value="1"/>
<vectornator:setting key="DisplayWhiteBackground" value="0"/>
<vectornator:setting key="doHistoryDisabled" value="0"/>
<vectornator:setting key="SnapToGuides" value="1"/>
<vectornator:setting key="TimeLapseWatermarkDisabled" value="0"/>
<vectornator:setting key="Units" value="Millimeters"/>
<vectornator:setting key="DynamicGuides" value="0"/>
<vectornator:setting key="IsolateActiveLayer" value="0"/>
<vectornator:setting key="SnapToGrid" value="0"/>
</metadata>
<defs>
<path d="M278.935+149.534C283.419+122.131+260.561+107.4+229.305+97.5725L239.444+60.4516L214.682+54.8204L204.811+90.9631C198.31+89.4829+191.626+88.0863+184.984+86.7027L194.926+50.3219L170.185+44.6907L160.039+81.7987C154.652+80.6789+149.364+79.5719+144.231+78.4071L144.259+78.2912L110.119+70.5105L103.534+94.6442C103.534+94.6442+121.901+98.4863+121.513+98.7245C131.539+101.009+133.359+107.065+133.048+111.866L121.499+154.155C122.19+154.316+123.086+154.547+124.073+154.908L121.464+154.316L105.268+213.556C104.042+216.336+100.932+220.506+93.9238+218.923C94.1706+219.251+75.9304+214.824+75.9304+214.824L63.641+240.695L95.8628+248.025C101.856+249.396+107.729+250.831+113.504+252.183L103.259+289.735L127.986+295.366L138.139+258.219C144.887+259.893+151.444+261.437+157.86+262.892L147.749+299.864L172.504+305.496L182.749+268.021C224.962+275.312+256.711+272.371+270.058+237.529C280.825+209.469+269.529+193.284+247.319+182.723C263.494+179.305+275.677+169.594+278.928+149.534L278.935+149.534ZM222.367+221.929C214.71+249.988+162.958+234.826+146.17+231.016L159.764+181.275C176.544+185.097+230.348+192.666+222.374+221.929L222.367+221.929ZM230.017+149.128C223.037+174.652+179.957+161.684+165.975+158.505L178.3+113.391C192.281+116.571+237.293+122.504+230.017+149.128Z" id="Mask"/>
</defs>
<g id="White_bg" vectornator:layerName="White_bg" visibility="hidden">
<path d="M0.0255909-1.12206L1138.99-1.12206L1138.99+357.24L0.0255909+357.24L0.0255909-1.12206Z" opacity="1" fill="#ffffff"/>
</g>
<g id="Layer 3" vectornator:layerName="Layer 3">
<path stroke="#f7931a" stroke-opacity="0" stroke-width="9.07555" d="M176.266+0L180.944+0C278.293+0+357.21+79.9642+357.21+178.605L357.21+178.605C357.21+277.246+278.293+357.21+180.944+357.21L176.266+357.21C78.9172+357.21+0+277.246+0+178.605L0+178.605C0+79.9642+78.9172+0+176.266+0Z" fill="#000000" stroke-linecap="butt" opacity="1" stroke-linejoin="miter"/>
<path stroke="#f7931a" stroke-opacity="0" stroke-width="9.07555" d="M176.415+11.34L180.795+11.34C271.963+11.34+345.87+86.2271+345.87+178.605L345.87+178.605C345.87+270.983+271.963+345.87+180.795+345.87L176.415+345.87C85.2466+345.87+11.34+270.983+11.34+178.605L11.34+178.605C11.34+86.2271+85.2466+11.34+176.415+11.34Z" fill="#f7931a" stroke-linecap="butt" opacity="1" stroke-linejoin="miter"/>
<path stroke="#000000" stroke-width="9.07555" d="M60.4597+199.584C60.4597+197.287+60.2018+196.705+62.5387+194.387C83.0677+174.023+103.843+153.903+124.909+134.096C129.531+129.749+135.406+126.961+140.501+123.181C155.534+112.027+171.681+103.183+188.838+95.634C201.744+89.9553+214.678+86.9317+228.339+84.1995C230.992+83.6689+233.957+84.4993+236.655+84.1995C239.419+83.8924+241.854+82.9862+244.451+82.1205C246.11+81.5677+250.276+81.8167+249.129+79.5218" fill="#000000" stroke-linecap="butt" opacity="1" stroke-linejoin="miter"/>
<path stroke="#000000" stroke-width="9.07555" d="M56.3017+252.599C53.3592+252.599+56.592+247.56+57.3412+246.362C60.5571+241.216+64.187+235.81+68.2559+231.289C71.6515+227.516+75.9565+224.808+79.6904+221.414C83.9383+217.552+87.3208+212.783+91.6447+208.94C97.0384+204.145+103.529+201.119+109.316+196.985C115.182+192.795+120.437+188.012+126.468+183.992C129.494+181.974+132.699+180.149+135.823+178.274C139.483+176.079+142.356+172.093+146.738+170.998C158.177+168.138+169.75+163.343+180.002+157.484C194.461+149.222+208.586+142.023+224.181+136.175C226.938+135.141+229.262+132.854+231.977+131.497C240.783+127.094+249.767+122.487+259.004+119.023C264.552+116.942+270.544+116.216+276.156+114.345C281.862+112.443+287.591+109.771+293.308+108.628C296.599+107.97+301.236+108.042+304.222+106.549" fill="#000000" stroke-linecap="butt" opacity="1" stroke-linejoin="miter"/>
<path stroke="#000000" stroke-width="9.07555" d="M106.717+269.75C103.522+269.75+107.77+266.043+108.277+265.592C113.077+261.325+118.397+257.716+123.349+253.638C126.669+250.904+129.401+247.506+132.705+244.802C142.21+237.026+153.402+229.946+163.89+223.493C178.81+214.311+194.577+206.289+210.667+199.584C216.303+197.236+221.841+193.997+227.299+191.268C232.645+188.595+238.511+187.719+243.931+185.551C252.715+182.037+261.659+178.785+270.958+177.235C274.281+176.681+277.386+174.171+280.834+173.597C285.807+172.768+290.551+171.445+295.387+170.478C296.504+170.255+300.205+170.558+301.104+169.958C302.427+169.076+301.729+168.919+303.703+168.919" fill="#000000" stroke-linecap="butt" opacity="1" stroke-linejoin="miter"/>
<g opacity="1" vectornator:mask="#Mask">
<use xlink:href="#Mask" fill="#ffffff" stroke="none"/>
<clipPath id="ClipPath">
<use xlink:href="#Mask" fill="none" overflow="visible"/>
</clipPath>
<g clip-path="url(#ClipPath)">
<path stroke="#52c8bc" stroke-width="9.07555" d="M60.4597+199.584C60.4597+197.287+60.2018+196.705+62.5387+194.387C83.0677+174.023+103.843+153.903+124.909+134.096C129.531+129.749+135.406+126.961+140.501+123.181C155.534+112.027+171.681+103.183+188.838+95.634C201.744+89.9553+214.678+86.9317+228.339+84.1995C230.992+83.6689+233.957+84.4993+236.655+84.1995C239.419+83.8924+241.854+82.9862+244.451+82.1205C246.11+81.5677+250.276+81.8167+249.129+79.5218" fill="#52c8bc" stroke-linecap="butt" opacity="1" stroke-linejoin="miter"/>
<path stroke="#52c8bc" stroke-width="9.07555" d="M56.3017+252.599C53.3592+252.599+56.592+247.56+57.3412+246.362C60.5571+241.216+64.187+235.81+68.2559+231.289C71.6515+227.516+75.9565+224.808+79.6904+221.414C83.9383+217.552+87.3208+212.783+91.6447+208.94C97.0384+204.145+103.529+201.119+109.316+196.985C115.182+192.795+120.437+188.012+126.468+183.992C129.494+181.974+132.699+180.149+135.823+178.274C139.483+176.079+142.356+172.093+146.738+170.998C158.177+168.138+169.75+163.343+180.002+157.484C194.461+149.222+208.586+142.023+224.181+136.175C226.938+135.141+229.262+132.854+231.977+131.497C240.783+127.094+249.767+122.487+259.004+119.023C264.552+116.942+270.544+116.216+276.156+114.345C281.862+112.443+287.591+109.771+293.308+108.628C296.599+107.97+301.236+108.042+304.222+106.549" fill="#52c8bc" stroke-linecap="butt" opacity="1" stroke-linejoin="miter"/>
<path stroke="#52c8bc" stroke-width="9.07555" d="M106.717+269.75C103.522+269.75+107.77+266.043+108.277+265.592C113.077+261.325+118.397+257.716+123.349+253.638C126.669+250.904+129.401+247.506+132.705+244.802C142.21+237.026+153.402+229.946+163.89+223.493C178.81+214.311+194.577+206.289+210.667+199.584C216.303+197.236+221.841+193.997+227.299+191.268C232.645+188.595+238.511+187.719+243.931+185.551C252.715+182.037+261.659+178.785+270.958+177.235C274.281+176.681+277.386+174.171+280.834+173.597C285.807+172.768+290.551+171.445+295.387+170.478C296.504+170.255+300.205+170.558+301.104+169.958C302.427+169.076+301.729+168.919+303.703+168.919" fill="#52c8bc" stroke-linecap="butt" opacity="1" stroke-linejoin="miter"/>
</g>
</g>
</g>
<g id="Logo_Circle" vectornator:layerName="Logo_Circle" visibility="hidden">
<path stroke="#f7931a" stroke-opacity="0" stroke-width="9.07555" d="M176.266+0L180.944+0C278.293+0+357.21+79.9642+357.21+178.605L357.21+178.605C357.21+277.246+278.293+357.21+180.944+357.21L176.266+357.21C78.9172+357.21+0+277.246+0+178.605L0+178.605C0+79.9642+78.9172+0+176.266+0Z" fill="#f7931a" stroke-linecap="butt" opacity="1" stroke-linejoin="miter"/>
<path stroke="#f7931a" stroke-opacity="0" stroke-width="9.07555" d="M176.415+11.34L180.795+11.34C271.963+11.34+345.87+86.2271+345.87+178.605L345.87+178.605C345.87+270.983+271.963+345.87+180.795+345.87L176.415+345.87C85.2466+345.87+11.34+270.983+11.34+178.605L11.34+178.605C11.34+86.2271+85.2466+11.34+176.415+11.34Z" fill="#000000" stroke-linecap="butt" opacity="1" stroke-linejoin="miter"/>
</g>
<g id="Logo_Circle copy" vectornator:layerName="Logo_Circle copy" visibility="hidden">
<path stroke="#f7931a" stroke-opacity="0" stroke-width="9.07555" d="M176.266+0L180.944+0C278.293+0+357.21+79.9642+357.21+178.605L357.21+178.605C357.21+277.246+278.293+357.21+180.944+357.21L176.266+357.21C78.9172+357.21+0+277.246+0+178.605L0+178.605C0+79.9642+78.9172+0+176.266+0Z" fill="#000000" stroke-linecap="butt" opacity="1" stroke-linejoin="miter"/>
<path stroke="#f7931a" stroke-opacity="0" stroke-width="9.07555" d="M176.415+11.34L180.795+11.34C271.963+11.34+345.87+86.2271+345.87+178.605L345.87+178.605C345.87+270.983+271.963+345.87+180.795+345.87L176.415+345.87C85.2466+345.87+11.34+270.983+11.34+178.605L11.34+178.605C11.34+86.2271+85.2466+11.34+176.415+11.34Z" fill="#f7931a" stroke-linecap="butt" opacity="1" stroke-linejoin="miter"/>
</g>
<g id="Layer 2 copy" vectornator:layerName="Layer 2 copy" visibility="hidden">
<path stroke="#000000" stroke-width="9.07555" d="M155.574+36.3825L170.844+36.3825L170.844+303.014L155.574+303.014L155.574+36.3825Z" fill="#000000" stroke-linecap="butt" opacity="1" stroke-linejoin="miter"/>
<path stroke="#000000" stroke-width="9.07555" d="M189.358+36.3825L204.628+36.3825L204.628+303.014L189.358+303.014L189.358+36.3825Z" fill="#000000" stroke-linecap="butt" opacity="1" stroke-linejoin="miter"/>
</g>
<g id="Layer 2 copy copy" vectornator:layerName="Layer 2 copy copy" visibility="hidden">
<path stroke="#000000" stroke-opacity="0" stroke-width="9.07555" d="M160.618+46.3236L195.963+46.3236L195.963+312.955L160.618+312.955L160.618+46.3236Z" fill="#000000" stroke-linecap="butt" opacity="1" stroke-linejoin="miter"/>
</g>
<g id="Layer 2 copy copy copy" vectornator:layerName="Layer 2 copy copy copy" visibility="hidden">
<path stroke="#000000" stroke-opacity="0" stroke-width="9.07555" d="M160.618+46.3236L195.963+46.3236L195.963+312.955L160.618+312.955L160.618+46.3236Z" fill="#ffffff" stroke-linecap="butt" opacity="1" stroke-linejoin="miter"/>
</g>
<g id="Layer 2 copy copy_2" vectornator:layerName="Layer 2 copy copy" visibility="hidden">
<path stroke="#f7931a" stroke-width="9.07555" d="M155.574+36.3825L170.844+36.3825L170.844+303.014L155.574+303.014L155.574+36.3825Z" fill="#f7931a" stroke-linecap="butt" opacity="1" stroke-linejoin="miter"/>
<path stroke="#f7931a" stroke-width="9.07555" d="M189.358+36.3825L204.628+36.3825L204.628+303.014L189.358+303.014L189.358+36.3825Z" fill="#f7931a" stroke-linecap="butt" opacity="1" stroke-linejoin="miter"/>
</g>
<g id="Layer 1" vectornator:layerName="Layer 1" visibility="hidden">
<path stroke="#ffffff" stroke-width="9.07555" d="M60.4597+199.584C60.4597+197.287+60.2018+196.705+62.5387+194.387C83.0677+174.023+103.843+153.903+124.909+134.096C129.531+129.749+135.406+126.961+140.501+123.181C155.534+112.027+171.681+103.183+188.838+95.634C201.744+89.9553+214.678+86.9317+228.339+84.1995C230.992+83.6689+233.957+84.4993+236.655+84.1995C239.419+83.8924+241.854+82.9862+244.451+82.1205C246.11+81.5677+250.276+81.8167+249.129+79.5218" fill="#ffffff" stroke-linecap="butt" opacity="1" stroke-linejoin="miter"/>
<path stroke="#ffffff" stroke-width="9.07555" d="M56.3017+252.599C53.3592+252.599+56.592+247.56+57.3412+246.362C60.5571+241.216+64.187+235.81+68.2559+231.289C71.6515+227.516+75.9565+224.808+79.6904+221.414C83.9383+217.552+87.3208+212.783+91.6447+208.94C97.0384+204.145+103.529+201.119+109.316+196.985C115.182+192.795+120.437+188.012+126.468+183.992C129.494+181.974+132.699+180.149+135.823+178.274C139.483+176.079+142.356+172.093+146.738+170.998C158.177+168.138+169.75+163.343+180.002+157.484C194.461+149.222+208.586+142.023+224.181+136.175C226.938+135.141+229.262+132.854+231.977+131.497C240.783+127.094+249.767+122.487+259.004+119.023C264.552+116.942+270.544+116.216+276.156+114.345C281.862+112.443+287.591+109.771+293.308+108.628C296.599+107.97+301.236+108.042+304.222+106.549" fill="#ffffff" stroke-linecap="butt" opacity="1" stroke-linejoin="miter"/>
<path stroke="#ffffff" stroke-width="9.07555" d="M106.717+269.75C103.522+269.75+107.77+266.043+108.277+265.592C113.077+261.325+118.397+257.716+123.349+253.638C126.669+250.904+129.401+247.506+132.705+244.802C142.21+237.026+153.402+229.946+163.89+223.493C178.81+214.311+194.577+206.289+210.667+199.584C216.303+197.236+221.841+193.997+227.299+191.268C232.645+188.595+238.511+187.719+243.931+185.551C252.715+182.037+261.659+178.785+270.958+177.235C274.281+176.681+277.386+174.171+280.834+173.597C285.807+172.768+290.551+171.445+295.387+170.478C296.504+170.255+300.205+170.558+301.104+169.958C302.427+169.076+301.729+168.919+303.703+168.919" fill="#ffffff" stroke-linecap="butt" opacity="1" stroke-linejoin="miter"/>
</g>
<g id="Layer 1 copy" vectornator:layerName="Layer 1 copy" visibility="hidden">
<path stroke="#000000" stroke-width="9.07555" d="M60.4597+199.584C60.4597+197.287+60.2018+196.705+62.5387+194.387C83.0677+174.023+103.843+153.903+124.909+134.096C129.531+129.749+135.406+126.961+140.501+123.181C155.534+112.027+171.681+103.183+188.838+95.634C201.744+89.9553+214.678+86.9317+228.339+84.1995C230.992+83.6689+233.957+84.4993+236.655+84.1995C239.419+83.8924+241.854+82.9862+244.451+82.1205C246.11+81.5677+250.276+81.8167+249.129+79.5218" fill="#000000" stroke-linecap="butt" opacity="1" stroke-linejoin="miter"/>
<path stroke="#000000" stroke-width="9.07555" d="M56.3017+252.599C53.3592+252.599+56.592+247.56+57.3412+246.362C60.5571+241.216+64.187+235.81+68.2559+231.289C71.6515+227.516+75.9565+224.808+79.6904+221.414C83.9383+217.552+87.3208+212.783+91.6447+208.94C97.0384+204.145+103.529+201.119+109.316+196.985C115.182+192.795+120.437+188.012+126.468+183.992C129.494+181.974+132.699+180.149+135.823+178.274C139.483+176.079+142.356+172.093+146.738+170.998C158.177+168.138+169.75+163.343+180.002+157.484C194.461+149.222+208.586+142.023+224.181+136.175C226.938+135.141+229.262+132.854+231.977+131.497C240.783+127.094+249.767+122.487+259.004+119.023C264.552+116.942+270.544+116.216+276.156+114.345C281.862+112.443+287.591+109.771+293.308+108.628C296.599+107.97+301.236+108.042+304.222+106.549" fill="#000000" stroke-linecap="butt" opacity="1" stroke-linejoin="miter"/>
<path stroke="#000000" stroke-width="9.07555" d="M106.717+269.75C103.522+269.75+107.77+266.043+108.277+265.592C113.077+261.325+118.397+257.716+123.349+253.638C126.669+250.904+129.401+247.506+132.705+244.802C142.21+237.026+153.402+229.946+163.89+223.493C178.81+214.311+194.577+206.289+210.667+199.584C216.303+197.236+221.841+193.997+227.299+191.268C232.645+188.595+238.511+187.719+243.931+185.551C252.715+182.037+261.659+178.785+270.958+177.235C274.281+176.681+277.386+174.171+280.834+173.597C285.807+172.768+290.551+171.445+295.387+170.478C296.504+170.255+300.205+170.558+301.104+169.958C302.427+169.076+301.729+168.919+303.703+168.919" fill="#000000" stroke-linecap="butt" opacity="1" stroke-linejoin="miter"/>
</g>
<g id="BetterScratch_big" vectornator:layerName="BetterScratch_big" visibility="hidden">
<path d="M474.113+170.285C475.998+158.607+466.386+152.33+453.243+148.142L457.506+132.324L447.094+129.925L442.943+145.326C440.209+144.695+437.398+144.1+434.605+143.51L438.786+128.008L428.382+125.608L424.116+141.421C421.85+140.944+419.627+140.472+417.468+139.975L417.48+139.926L403.124+136.611L400.355+146.895C400.355+146.895+408.078+148.532+407.915+148.633C412.131+149.607+412.896+152.187+412.766+154.233L407.909+172.254C408.2+172.322+408.577+172.421+408.992+172.574L407.895+172.322L401.084+197.566C400.568+198.751+399.261+200.528+396.314+199.853C396.417+199.993+388.747+198.106+388.747+198.106L383.579+209.131L397.129+212.254C399.649+212.838+402.119+213.45+404.547+214.026L400.239+230.028L410.637+232.427L414.907+216.598C417.744+217.311+420.501+217.969+423.199+218.589L418.948+234.344L429.357+236.744L433.665+220.775C451.416+223.882+464.767+222.629+470.38+207.781C474.907+195.825+470.157+188.927+460.818+184.427C467.62+182.971+472.743+178.833+474.11+170.285L474.113+170.285ZM450.325+201.134C447.105+213.091+425.343+206.63+418.284+205.006L424+183.81C431.056+185.439+453.682+188.664+450.328+201.134L450.325+201.134ZM453.542+170.112C450.607+180.988+432.491+175.462+426.612+174.107L431.795+154.883C437.674+156.238+456.602+158.766+453.542+170.112Z" opacity="1" fill="#000000"/>
<g opacity="1">
<path d="M506.646+200.569C503.423+200.569+500.925+201.578+499.151+203.596C497.376+205.614+496.262+208.349+495.806+211.799L517.437+211.799C517.209+208.121+516.094+205.329+514.092+203.425C512.09+201.521+509.608+200.569+506.646+200.569ZM506.646+189.094C511.073+189.094+515.06+189.924+518.609+191.584C522.157+193.244+525.086+195.865+527.398+199.446C529.481+202.603+530.832+206.265+531.45+210.432C531.808+212.873+531.955+216.389+531.89+220.979L495.464+220.979C495.659+226.317+497.336+230.061+500.493+232.209C502.414+233.544+504.725+234.211+507.427+234.211C510.292+234.211+512.619+233.397+514.409+231.77C515.386+230.891+516.249+229.67+516.997+228.108L531.206+228.108C530.848+231.265+529.204+234.472+526.275+237.727C521.717+242.903+515.337+245.491+507.134+245.491C500.363+245.491+494.39+243.31+489.214+238.948C484.038+234.586+481.45+227.489+481.45+217.659C481.45+208.446+483.786+201.382+488.457+196.467C493.128+191.552+499.191+189.094+506.646+189.094Z" opacity="1" fill="#000000"/>
<path d="M535.796+200.91L535.796+190.998L543.218+190.998L543.218+176.155L556.987+176.155L556.987+190.998L565.63+190.998L565.63+200.91L556.987+200.91L556.987+229.035C556.987+231.216+557.264+232.575+557.818+233.113C558.371+233.65+560.064+233.918+562.896+233.918C563.319+233.918+563.766+233.91+564.238+233.894C564.71+233.878+565.174+233.853+565.63+233.821L565.63+244.221L559.038+244.465C552.463+244.693+547.971+243.554+545.562+241.047C543.999+239.452+543.218+236.994+543.218+233.674L543.218+200.91L535.796+200.91Z" opacity="1" fill="#000000"/>
<path d="M569.097+200.91L569.097+190.998L576.519+190.998L576.519+176.155L590.288+176.155L590.288+190.998L598.931+190.998L598.931+200.91L590.288+200.91L590.288+229.035C590.288+231.216+590.565+232.575+591.118+233.113C591.672+233.65+593.364+233.918+596.196+233.918C596.62+233.918+597.067+233.91+597.539+233.894C598.011+233.878+598.475+233.853+598.931+233.821L598.931+244.221L592.339+244.465C585.764+244.693+581.271+243.554+578.862+241.047C577.3+239.452+576.519+236.994+576.519+233.674L576.519+200.91L569.097+200.91Z" opacity="1" fill="#000000"/>
<path d="M628.862+200.569C625.64+200.569+623.141+201.578+621.367+203.596C619.593+205.614+618.478+208.349+618.023+211.799L639.654+211.799C639.426+208.121+638.311+205.329+636.309+203.425C634.307+201.521+631.825+200.569+628.862+200.569ZM628.862+189.094C633.29+189.094+637.277+189.924+640.825+191.584C644.374+193.244+647.303+195.865+649.614+199.446C651.698+202.603+653.049+206.265+653.667+210.432C654.025+212.873+654.172+216.389+654.107+220.979L617.681+220.979C617.876+226.317+619.553+230.061+622.71+232.209C624.631+233.544+626.942+234.211+629.644+234.211C632.508+234.211+634.836+233.397+636.626+231.77C637.603+230.891+638.465+229.67+639.214+228.108L653.423+228.108C653.065+231.265+651.421+234.472+648.491+237.727C643.934+242.903+637.554+245.491+629.351+245.491C622.58+245.491+616.607+243.31+611.431+238.948C606.255+234.586+603.667+227.489+603.667+217.659C603.667+208.446+606.003+201.382+610.674+196.467C615.345+191.552+621.408+189.094+628.862+189.094Z" opacity="1" fill="#000000"/>
<path d="M692.388+189.241C692.648+189.241+692.868+189.249+693.047+189.265C693.226+189.281+693.625+189.306+694.243+189.338L694.243+203.596C693.364+203.498+692.583+203.433+691.9+203.401C691.216+203.368+690.663+203.352+690.239+203.352C684.64+203.352+680.881+205.175+678.96+208.821C677.886+210.871+677.349+214.029+677.349+218.293L677.349+243.733L663.335+243.733L663.335+190.51L676.616+190.51L676.616+199.787C678.765+196.239+680.637+193.814+682.232+192.512C684.836+190.331+688.221+189.241+692.388+189.241Z" opacity="1" fill="#000000"/>
<path d="M845.318+209.602C845.057+207.616+844.39+205.826+843.316+204.231C841.753+202.082+839.328+201.008+836.04+201.008C831.353+201.008+828.146+203.336+826.421+207.991C825.51+210.464+825.054+213.752+825.054+217.854C825.054+221.76+825.51+224.901+826.421+227.278C828.081+231.705+831.206+233.918+835.796+233.918C839.051+233.918+841.362+233.039+842.73+231.282C844.097+229.524+844.927+227.245+845.22+224.446L859.429+224.446C859.103+228.677+857.573+232.681+854.839+236.457C850.477+242.545+844.015+245.588+835.454+245.588C826.893+245.588+820.594+243.049+816.558+237.971C812.521+232.893+810.503+226.301+810.503+218.196C810.503+209.048+812.733+201.936+817.193+196.858C821.652+191.78+827.805+189.241+835.65+189.241C842.323+189.241+847.783+190.738+852.031+193.733C856.279+196.728+858.794+202.017+859.575+209.602L845.318+209.602Z" opacity="1" fill="#000000"/>
<path d="M898.052+189.241C898.312+189.241+898.532+189.249+898.711+189.265C898.89+189.281+899.289+189.306+899.907+189.338L899.907+203.596C899.029+203.498+898.247+203.433+897.564+203.401C896.88+203.368+896.327+203.352+895.904+203.352C890.305+203.352+886.545+205.175+884.624+208.821C883.55+210.871+883.013+214.029+883.013+218.293L883.013+243.733L868.999+243.733L868.999+190.51L882.28+190.51L882.28+199.787C884.429+196.239+886.301+193.814+887.896+192.512C890.5+190.331+893.885+189.241+898.052+189.241Z" opacity="1" fill="#000000"/>
<path d="M937.407+217.854C936.529+218.407+935.641+218.855+934.746+219.197C933.851+219.538+932.622+219.856+931.06+220.149L927.935+220.735C925.005+221.256+922.905+221.89+921.636+222.639C919.487+223.909+918.413+225.878+918.413+228.547C918.413+230.923+919.072+232.641+920.391+233.699C921.709+234.756+923.312+235.285+925.2+235.285C928.195+235.285+930.954+234.407+933.477+232.649C936+230.891+937.31+227.685+937.407+223.03L937.407+217.854ZM928.96+211.36C931.532+211.034+933.371+210.627+934.478+210.139C936.463+209.293+937.456+207.974+937.456+206.184C937.456+204.003+936.699+202.497+935.186+201.667C933.672+200.837+931.45+200.422+928.521+200.422C925.233+200.422+922.905+201.236+921.538+202.864C920.562+204.068+919.911+205.696+919.585+207.746L906.157+207.746C906.45+203.091+907.752+199.267+910.064+196.272C913.742+191.584+920.057+189.241+929.009+189.241C934.836+189.241+940.012+190.396+944.536+192.707C949.061+195.019+951.323+199.381+951.323+205.793L951.323+230.207C951.323+231.9+951.356+233.951+951.421+236.36C951.519+238.183+951.795+239.42+952.251+240.071C952.707+240.722+953.39+241.259+954.302+241.682L954.302+243.733L939.165+243.733C938.742+242.659+938.449+241.649+938.286+240.705C938.124+239.761+937.993+238.687+937.896+237.483C935.975+239.566+933.762+241.34+931.255+242.805C928.26+244.53+924.875+245.393+921.099+245.393C916.281+245.393+912.302+244.018+909.16+241.267C906.019+238.516+904.448+234.618+904.448+229.573C904.448+223.03+906.971+218.293+912.017+215.364C914.784+213.769+918.853+212.629+924.224+211.946L928.96+211.36Z" opacity="1" fill="#000000"/>
<path d="M958.208+200.91L958.208+190.998L965.63+190.998L965.63+176.155L979.4+176.155L979.4+190.998L988.042+190.998L988.042+200.91L979.4+200.91L979.4+229.035C979.4+231.216+979.676+232.575+980.23+233.113C980.783+233.65+982.476+233.918+985.308+233.918C985.731+233.918+986.179+233.91+986.651+233.894C987.123+233.878+987.586+233.853+988.042+233.821L988.042+244.221L981.45+244.465C974.875+244.693+970.383+243.554+967.974+241.047C966.411+239.452+965.63+236.994+965.63+233.674L965.63+200.91L958.208+200.91Z" opacity="1" fill="#000000"/>
<path d="M1028.76+209.602C1028.5+207.616+1027.84+205.826+1026.76+204.231C1025.2+202.082+1022.78+201.008+1019.49+201.008C1014.8+201.008+1011.59+203.336+1009.87+207.991C1008.96+210.464+1008.5+213.752+1008.5+217.854C1008.5+221.76+1008.96+224.901+1009.87+227.278C1011.53+231.705+1014.65+233.918+1019.24+233.918C1022.5+233.918+1024.81+233.039+1026.18+231.282C1027.54+229.524+1028.37+227.245+1028.67+224.446L1042.88+224.446C1042.55+228.677+1041.02+232.681+1038.29+236.457C1033.92+242.545+1027.46+245.588+1018.9+245.588C1010.34+245.588+1004.04+243.049+1000.01+237.971C995.969+232.893+993.95+226.301+993.95+218.196C993.95+209.048+996.18+201.936+1000.64+196.858C1005.1+191.78+1011.25+189.241+1019.1+189.241C1025.77+189.241+1031.23+190.738+1035.48+193.733C1039.73+196.728+1042.24+202.017+1043.02+209.602L1028.76+209.602Z" opacity="1" fill="#000000"/>
<path d="M1081.94+189.143C1085.23+189.143+1088.21+189.713+1090.9+190.852C1093.58+191.991+1095.79+193.733+1097.51+196.076C1098.98+198.062+1099.87+200.105+1100.2+202.204C1100.53+204.304+1100.69+207.73+1100.69+212.483L1100.69+243.733L1086.48+243.733L1086.48+211.36C1086.48+208.495+1085.99+206.184+1085.01+204.426C1083.75+201.952+1081.34+200.715+1077.79+200.715C1074.11+200.715+1071.32+201.944+1069.41+204.402C1067.51+206.859+1066.56+210.367+1066.56+214.924L1066.56+243.733L1052.69+243.733L1052.69+172.004L1066.56+172.004L1066.56+197.444C1068.58+194.351+1070.91+192.195+1073.56+190.974C1076.22+189.753+1079.01+189.143+1081.94+189.143Z" opacity="1" fill="#000000"/>
</g>
<g opacity="1">
<path d="M766.624+188.8C759.855+183.584+755.599+178.965+753.855+174.944C752.112+170.922+752.055+166.203+753.686+160.786C755.782+153.825+759.657+149.028+765.311+146.392C770.966+143.757+777.685+143.61+785.468+145.954C789+147.017+792.41+148.483+795.699+150.352C798.988+152.221+802.127+154.465+805.115+157.085L800.656+171.897C798.09+168.619+795.308+165.874+792.309+163.663C789.31+161.451+786.165+159.85+782.873+158.859C779.204+157.754+776.171+157.645+773.773+158.531C771.375+159.417+769.763+161.232+768.937+163.975C768.297+166.1+768.479+168.072+769.484+169.889C770.489+171.706+773.001+174.136+777.022+177.178L782.81+181.613C788.301+185.734+791.94+190.102+793.73+194.717C795.519+199.331+795.557+204.485+793.843+210.176C791.511+217.925+787.48+223.022+781.752+225.467C776.024+227.912+768.531+227.741+759.273+224.954C755.467+223.808+751.79+222.206+748.24+220.146C744.691+218.087+741.401+215.629+738.372+212.772L743.095+197.086C746.273+201.184+749.546+204.506+752.911+207.053C756.277+209.599+759.811+211.43+763.514+212.544C767.251+213.67+770.404+213.693+772.972+212.615C775.54+211.537+777.284+209.473+778.202+206.421C778.894+204.124+778.815+201.903+777.964+199.759C777.114+197.614+775.536+195.653+773.229+193.874L766.624+188.8Z" opacity="1" fill="#000000"/>
</g>
<path d="M772.933+132.021L783.075+135.062L778.747+154.013L768.605+150.972L772.933+132.021Z" opacity="1" fill="#000000"/>
<path d="M790.032+137.032L800.173+140.072L795.846+159.024L785.704+155.983L790.032+137.032Z" opacity="1" fill="#000000"/>
<path d="M749.807+214.979L759.949+218.02L755.621+236.971L745.479+233.931L749.807+214.979Z" opacity="1" fill="#000000"/>
<path d="M766.906+219.99L777.047+223.031L772.72+241.982L762.578+238.941L766.906+219.99Z" opacity="1" fill="#000000"/>
</g>
<g id="BetterScratch_big copy" vectornator:layerName="BetterScratch_big copy">
<path d="M462.69+232.506C464.058+224.119+457.086+219.61+447.553+216.602L450.645+205.24L443.093+203.516L440.082+214.579C438.099+214.126+436.061+213.698+434.035+213.275L437.067+202.139L429.521+200.416L426.427+211.774C424.784+211.431+423.171+211.092+421.605+210.736L421.614+210.7L411.201+208.319L409.192+215.706C409.192+215.706+414.794+216.882+414.676+216.954C417.734+217.654+418.289+219.507+418.194+220.977L414.672+233.921C414.883+233.97+415.156+234.041+415.457+234.151L414.661+233.97L409.721+252.103C409.347+252.954+408.399+254.23+406.261+253.745C406.337+253.846+400.773+252.491+400.773+252.491L397.025+260.41L406.853+262.653C408.681+263.073+410.472+263.512+412.233+263.926L409.109+275.42L416.65+277.143L419.747+265.773C421.805+266.286+423.805+266.758+425.762+267.204L422.678+278.52L430.229+280.244L433.353+268.774C446.228+271.005+455.912+270.105+459.983+259.44C463.267+250.852+459.822+245.898+453.047+242.665C457.981+241.619+461.697+238.647+462.688+232.506L462.69+232.506ZM445.437+254.665C443.101+263.254+427.317+258.613+422.196+257.447L426.343+242.222C431.461+243.392+447.871+245.708+445.439+254.665L445.437+254.665ZM447.77+232.382C445.641+240.195+432.502+236.226+428.237+235.252L431.996+221.444C436.261+222.417+449.989+224.233+447.77+232.382Z" opacity="1" fill="#ffffff"/>
<g opacity="1">
<path d="M487.6+240.168C485.344+240.168+483.595+240.874+482.353+242.287C481.111+243.7+480.331+245.614+480.012+248.029L495.153+248.029C494.994+245.454+494.213+243.5+492.812+242.167C491.411+240.834+489.673+240.168+487.6+240.168ZM487.6+232.136C490.699+232.136+493.49+232.717+495.974+233.879C498.457+235.041+500.508+236.875+502.126+239.382C503.584+241.592+504.53+244.156+504.963+247.072C505.214+248.781+505.316+251.242+505.271+254.455L479.773+254.455C479.909+258.192+481.083+260.813+483.293+262.316C484.637+263.251+486.255+263.718+488.147+263.718C490.152+263.718+491.781+263.148+493.034+262.009C493.718+261.394+494.322+260.539+494.846+259.445L504.792+259.445C504.541+261.656+503.391+263.9+501.34+266.179C498.15+269.802+493.684+271.613+487.941+271.613C483.202+271.613+479.021+270.087+475.398+267.033C471.774+263.98+469.963+259.012+469.963+252.131C469.963+245.682+471.598+240.738+474.868+237.297C478.138+233.856+482.382+232.136+487.6+232.136Z" opacity="1" fill="#ffffff"/>
<path d="M508.005+240.407L508.005+233.469L513.2+233.469L513.2+223.078L522.839+223.078L522.839+233.469L528.889+233.469L528.889+240.407L522.839+240.407L522.839+260.095C522.839+261.621+523.033+262.573+523.42+262.949C523.807+263.325+524.992+263.513+526.975+263.513C527.271+263.513+527.584+263.507+527.915+263.496C528.245+263.484+528.57+263.467+528.889+263.444L528.889+270.725L524.274+270.896C519.672+271.055+516.527+270.257+514.841+268.503C513.747+267.386+513.2+265.666+513.2+263.342L513.2+240.407L508.005+240.407Z" opacity="1" fill="#ffffff"/>
<path d="M531.315+240.407L531.315+233.469L536.511+233.469L536.511+223.078L546.149+223.078L546.149+233.469L552.199+233.469L552.199+240.407L546.149+240.407L546.149+260.095C546.149+261.621+546.343+262.573+546.731+262.949C547.118+263.325+548.303+263.513+550.285+263.513C550.581+263.513+550.895+263.507+551.225+263.496C551.556+263.484+551.88+263.467+552.199+263.444L552.199+270.725L547.585+270.896C542.982+271.055+539.838+270.257+538.151+268.503C537.058+267.386+536.511+265.666+536.511+263.342L536.511+240.407L531.315+240.407Z" opacity="1" fill="#ffffff"/>
<path d="M573.151+240.168C570.896+240.168+569.147+240.874+567.905+242.287C566.663+243.7+565.883+245.614+565.564+248.029L580.705+248.029C580.546+245.454+579.765+243.5+578.364+242.167C576.962+240.834+575.225+240.168+573.151+240.168ZM573.151+232.136C576.25+232.136+579.042+232.717+581.525+233.879C584.009+235.041+586.06+236.875+587.678+239.382C589.136+241.592+590.082+244.156+590.515+247.072C590.765+248.781+590.868+251.242+590.822+254.455L565.324+254.455C565.461+258.192+566.634+260.813+568.845+262.316C570.189+263.251+571.807+263.718+573.698+263.718C575.703+263.718+577.333+263.148+578.586+262.009C579.27+261.394+579.873+260.539+580.398+259.445L590.344+259.445C590.093+261.656+588.942+263.9+586.892+266.179C583.702+269.802+579.235+271.613+573.493+271.613C568.754+271.613+564.572+270.087+560.949+267.033C557.326+263.98+555.515+259.012+555.515+252.131C555.515+245.682+557.15+240.738+560.419+237.297C563.689+233.856+567.933+232.136+573.151+232.136Z" opacity="1" fill="#ffffff"/>
<path d="M617.619+232.238C617.801+232.238+617.955+232.244+618.081+232.255C618.206+232.267+618.485+232.284+618.918+232.307L618.918+242.287C618.303+242.219+617.756+242.173+617.277+242.15C616.799+242.128+616.411+242.116+616.115+242.116C612.196+242.116+609.564+243.392+608.22+245.944C607.468+247.38+607.092+249.59+607.092+252.575L607.092+270.383L597.282+270.383L597.282+233.127L606.579+233.127L606.579+239.621C608.083+237.137+609.393+235.44+610.51+234.528C612.333+233.002+614.703+232.238+617.619+232.238Z" opacity="1" fill="#ffffff"/>
<path d="M724.67+246.491C724.488+245.101+724.021+243.848+723.269+242.731C722.175+241.228+720.477+240.476+718.176+240.476C714.895+240.476+712.65+242.105+711.442+245.363C710.804+247.095+710.485+249.396+710.485+252.268C710.485+255.002+710.804+257.201+711.442+258.864C712.605+261.963+714.792+263.513+718.005+263.513C720.284+263.513+721.901+262.897+722.858+261.667C723.815+260.437+724.397+258.841+724.602+256.882L734.548+256.882C734.32+259.844+733.249+262.647+731.335+265.29C728.282+269.551+723.759+271.682+717.766+271.682C711.773+271.682+707.364+269.904+704.538+266.35C701.713+262.795+700.3+258.181+700.3+252.507C700.3+246.104+701.861+241.125+704.982+237.57C708.104+234.016+712.411+232.238+717.902+232.238C722.574+232.238+726.396+233.286+729.37+235.383C732.343+237.479+734.104+241.182+734.65+246.491L724.67+246.491Z" opacity="1" fill="#ffffff"/>
<path d="M761.584+232.238C761.766+232.238+761.92+232.244+762.045+232.255C762.171+232.267+762.45+232.284+762.883+232.307L762.883+242.287C762.268+242.219+761.721+242.173+761.242+242.15C760.764+242.128+760.376+242.116+760.08+242.116C756.161+242.116+753.529+243.392+752.185+245.944C751.433+247.38+751.057+249.59+751.057+252.575L751.057+270.383L741.247+270.383L741.247+233.127L750.544+233.127L750.544+239.621C752.048+237.137+753.358+235.44+754.475+234.528C756.298+233.002+758.667+232.238+761.584+232.238Z" opacity="1" fill="#ffffff"/>
<path d="M789.133+252.268C788.518+252.655+787.897+252.968+787.27+253.208C786.643+253.447+785.783+253.669+784.689+253.874L782.502+254.284C780.451+254.649+778.981+255.093+778.093+255.617C776.589+256.506+775.837+257.884+775.837+259.753C775.837+261.416+776.298+262.618+777.221+263.359C778.144+264.099+779.266+264.47+780.588+264.47C782.684+264.47+784.615+263.854+786.381+262.624C788.147+261.394+789.064+259.149+789.133+255.891L789.133+252.268ZM783.22+247.722C785.02+247.494+786.307+247.209+787.082+246.867C788.472+246.275+789.167+245.352+789.167+244.099C789.167+242.572+788.637+241.518+787.578+240.937C786.518+240.356+784.963+240.065+782.912+240.065C780.611+240.065+778.981+240.635+778.024+241.774C777.341+242.618+776.885+243.757+776.657+245.192L767.258+245.192C767.463+241.934+768.374+239.257+769.992+237.16C772.567+233.879+776.988+232.238+783.254+232.238C787.333+232.238+790.956+233.047+794.123+234.665C797.29+236.283+798.874+239.336+798.874+243.825L798.874+260.915C798.874+262.1+798.897+263.535+798.942+265.222C799.011+266.498+799.204+267.364+799.523+267.819C799.842+268.275+800.321+268.651+800.959+268.947L800.959+270.383L790.363+270.383C790.067+269.631+789.862+268.924+789.748+268.264C789.634+267.603+789.543+266.851+789.475+266.008C788.13+267.466+786.581+268.708+784.826+269.733C782.73+270.941+780.36+271.545+777.717+271.545C774.344+271.545+771.559+270.582+769.36+268.657C767.161+266.731+766.062+264.003+766.062+260.471C766.062+255.891+767.828+252.575+771.359+250.524C773.296+249.408+776.145+248.61+779.904+248.132L783.22+247.722Z" opacity="1" fill="#ffffff"/>
<path d="M803.693+240.407L803.693+233.469L808.889+233.469L808.889+223.078L818.527+223.078L818.527+233.469L824.577+233.469L824.577+240.407L818.527+240.407L818.527+260.095C818.527+261.621+818.721+262.573+819.108+262.949C819.496+263.325+820.681+263.513+822.663+263.513C822.959+263.513+823.273+263.507+823.603+263.496C823.933+263.484+824.258+263.467+824.577+263.444L824.577+270.725L819.963+270.896C815.36+271.055+812.216+270.257+810.529+268.503C809.436+267.386+808.889+265.666+808.889+263.342L808.889+240.407L803.693+240.407Z" opacity="1" fill="#ffffff"/>
<path d="M853.083+246.491C852.901+245.101+852.434+243.848+851.682+242.731C850.588+241.228+848.89+240.476+846.589+240.476C843.308+240.476+841.063+242.105+839.856+245.363C839.217+247.095+838.898+249.396+838.898+252.268C838.898+255.002+839.217+257.201+839.856+258.864C841.018+261.963+843.205+263.513+846.418+263.513C848.697+263.513+850.314+262.897+851.272+261.667C852.229+260.437+852.81+258.841+853.015+256.882L862.961+256.882C862.733+259.844+861.662+262.647+859.748+265.29C856.695+269.551+852.172+271.682+846.179+271.682C840.186+271.682+835.777+269.904+832.951+266.35C830.126+262.795+828.713+258.181+828.713+252.507C828.713+246.104+830.274+241.125+833.396+237.57C836.517+234.016+840.824+232.238+846.315+232.238C850.987+232.238+854.809+233.286+857.783+235.383C860.756+237.479+862.517+241.182+863.064+246.491L853.083+246.491Z" opacity="1" fill="#ffffff"/>
<path d="M890.305+232.17C892.606+232.17+894.697+232.569+896.577+233.366C898.457+234.164+900+235.383+901.208+237.023C902.233+238.413+902.86+239.843+903.088+241.313C903.316+242.783+903.43+245.181+903.43+248.508L903.43+270.383L893.483+270.383L893.483+247.722C893.483+245.716+893.142+244.099+892.458+242.868C891.569+241.136+889.883+240.271+887.399+240.271C884.825+240.271+882.871+241.131+881.538+242.851C880.205+244.571+879.538+247.027+879.538+250.217L879.538+270.383L869.831+270.383L869.831+220.173L879.538+220.173L879.538+237.98C880.951+235.816+882.586+234.306+884.443+233.452C886.3+232.597+888.254+232.17+890.305+232.17Z" opacity="1" fill="#ffffff"/>
</g>
<g opacity="1">
<path d="M672.393+241.68C667.47+237.887+664.375+234.528+663.107+231.603C661.838+228.678+661.798+225.246+662.984+221.306C664.508+216.244+667.326+212.755+671.438+210.838C675.551+208.921+680.437+208.815+686.098+210.519C688.666+211.292+691.147+212.359+693.539+213.718C695.931+215.077+698.213+216.709+700.386+218.615L697.143+229.387C695.277+227.003+693.254+225.007+691.073+223.399C688.892+221.79+686.604+220.626+684.211+219.905C681.542+219.102+679.336+219.022+677.592+219.667C675.848+220.311+674.676+221.63+674.075+223.625C673.61+225.171+673.742+226.605+674.473+227.927C675.204+229.248+677.031+231.015+679.955+233.228L684.165+236.454C688.158+239.451+690.805+242.627+692.106+245.983C693.408+249.339+693.435+253.087+692.189+257.227C690.492+262.862+687.561+266.569+683.395+268.347C679.229+270.125+673.78+270.001+667.047+267.974C664.279+267.141+661.604+265.975+659.023+264.478C656.441+262.98+654.049+261.192+651.846+259.115L655.281+247.706C657.593+250.687+659.972+253.103+662.42+254.955C664.868+256.807+667.438+258.138+670.131+258.949C672.849+259.767+675.142+259.784+677.01+259C678.878+258.217+680.146+256.715+680.814+254.496C681.317+252.825+681.259+251.21+680.641+249.65C680.022+248.091+678.874+246.664+677.197+245.37L672.393+241.68Z" opacity="1" fill="#ffffff"/>
</g>
<path d="M675.389+197.645L683.177+200.004L679.854+214.704L672.066+212.345L675.389+197.645Z" opacity="1" fill="#ffffff"/>
<path d="M687.519+201.532L695.307+203.89L691.984+218.591L684.196+216.232L687.519+201.532Z" opacity="1" fill="#ffffff"/>
<path d="M658.63+259.996L666.418+262.355L663.095+277.056L655.307+274.697L658.63+259.996Z" opacity="1" fill="#ffffff"/>
<path d="M670.76+263.883L678.548+266.242L675.225+280.943L667.437+278.584L670.76+263.883Z" opacity="1" fill="#ffffff"/>
<g opacity="1">
<path d="M434.044+179.7L416.114+179.7L416.114+93.3326L434.044+93.3326L434.044+179.7Z" opacity="1" fill="#ffffff"/>
<path d="M513.614+93.3326L513.614+108.626L487.774+108.626L487.774+179.7L469.61+179.7L469.61+108.626L443.653+108.626L443.653+93.3326L513.614+93.3326Z" opacity="1" fill="#ffffff"/>
<path d="M520.411+137.219C520.411+122.141+524.454+110.52+532.54+102.356C539.571+95.2467+548.516+91.692+559.376+91.692C573.907+91.692+584.532+96.4576+591.251+105.989C594.962+111.34+596.954+116.712+597.227+122.102L579.18+122.102C578.009+117.962+576.505+114.837+574.669+112.727C571.387+108.977+566.524+107.102+560.079+107.102C553.516+107.102+548.341+109.749+544.551+115.042C540.762+120.335+538.868+127.825+538.868+137.512C538.868+147.2+540.87+154.456+544.874+159.28C548.878+164.104+553.966+166.516+560.137+166.516C566.466+166.516+571.29+164.446+574.61+160.305C576.446+158.079+577.969+154.739+579.18+150.286L597.051+150.286C595.489+159.7+591.495+167.356+585.069+173.254C578.643+179.153+570.411+182.102+560.372+182.102C547.95+182.102+538.184+178.118+531.075+170.149C523.966+162.141+520.411+151.165+520.411+137.219Z" opacity="1" fill="#ffffff"/>
<path d="M610.704+179.7L610.704+93.3326L628.575+93.3326L628.575+126.262L662.325+126.262L662.325+93.3326L680.255+93.3326L680.255+179.7L662.325+179.7L662.325+141.145L628.575+141.145L628.575+179.7L610.704+179.7Z" opacity="1" fill="#ffffff"/>
<path d="M746.759+93.3326L767.208+93.3326L738.321+147.239L738.321+179.7L720.274+179.7L720.274+147.239L690.391+93.3326L711.661+93.3326L729.591+130.95L746.759+93.3326Z" opacity="1" fill="#ffffff"/>
<path d="M790.587+153.04C791.134+156.985+792.208+159.934+793.809+161.887C796.739+165.442+801.759+167.219+808.868+167.219C813.126+167.219+816.583+166.751+819.239+165.813C824.278+164.016+826.798+160.676+826.798+155.794C826.798+152.942+825.548+150.735+823.048+149.172C820.548+147.649+816.622+146.301+811.27+145.129L802.13+143.079C793.145+141.047+786.934+138.84+783.497+136.458C777.676+132.473+774.766+126.243+774.766+117.766C774.766+110.032+777.579+103.606+783.204+98.4889C788.829+93.3717+797.091+90.8131+807.989+90.8131C817.091+90.8131+824.854+93.2252+831.28+98.0494C837.706+102.874+841.075+109.876+841.387+119.055L824.044+119.055C823.731+113.86+821.466+110.169+817.247+107.981C814.434+106.536+810.938+105.813+806.759+105.813C802.11+105.813+798.399+106.751+795.626+108.626C792.852+110.501+791.466+113.118+791.466+116.477C791.466+119.563+792.833+121.868+795.567+123.391C797.325+124.407+801.075+125.598+806.817+126.965L821.7+130.54C828.223+132.102+833.145+134.192+836.466+136.809C841.622+140.872+844.2+146.751+844.2+154.446C844.2+162.337+841.182+168.889+835.147+174.104C829.112+179.319+820.587+181.926+809.571+181.926C798.321+181.926+789.473+179.358+783.028+174.221C776.583+169.085+773.36+162.024+773.36+153.04L790.587+153.04Z" opacity="1" fill="#ffffff"/>
<path d="M881.173+147.063L903.087+147.063L892.305+113.079L881.173+147.063ZM882.286+93.3326L902.676+93.3326L933.262+179.7L913.692+179.7L908.126+161.946L876.309+161.946L870.333+179.7L851.466+179.7L882.286+93.3326Z" opacity="1" fill="#ffffff"/>
<path d="M1006.97+93.3326L1006.97+108.626L981.134+108.626L981.134+179.7L962.969+179.7L962.969+108.626L937.012+108.626L937.012+93.3326L1006.97+93.3326Z" opacity="1" fill="#ffffff"/>
<path d="M1030.59+153.04C1031.13+156.985+1032.21+159.934+1033.81+161.887C1036.74+165.442+1041.76+167.219+1048.87+167.219C1053.13+167.219+1056.58+166.751+1059.24+165.813C1064.28+164.016+1066.8+160.676+1066.8+155.794C1066.8+152.942+1065.55+150.735+1063.05+149.172C1060.55+147.649+1056.62+146.301+1051.27+145.129L1042.13+143.079C1033.15+141.047+1026.93+138.84+1023.5+136.458C1017.68+132.473+1014.77+126.243+1014.77+117.766C1014.77+110.032+1017.58+103.606+1023.2+98.4889C1028.83+93.3717+1037.09+90.8131+1047.99+90.8131C1057.09+90.8131+1064.85+93.2252+1071.28+98.0494C1077.71+102.874+1081.07+109.876+1081.39+119.055L1064.04+119.055C1063.73+113.86+1061.47+110.169+1057.25+107.981C1054.43+106.536+1050.94+105.813+1046.76+105.813C1042.11+105.813+1038.4+106.751+1035.63+108.626C1032.85+110.501+1031.47+113.118+1031.47+116.477C1031.47+119.563+1032.83+121.868+1035.57+123.391C1037.32+124.407+1041.07+125.598+1046.82+126.965L1061.7+130.54C1068.22+132.102+1073.15+134.192+1076.47+136.809C1081.62+140.872+1084.2+146.751+1084.2+154.446C1084.2+162.337+1081.18+168.889+1075.15+174.104C1069.11+179.319+1060.59+181.926+1049.57+181.926C1038.32+181.926+1029.47+179.358+1023.03+174.221C1016.58+169.085+1013.36+162.024+1013.36+153.04L1030.59+153.04Z" opacity="1" fill="#ffffff"/>
</g>
</g>
<g id="Layer 2" vectornator:layerName="Layer 2" visibility="hidden">
<path stroke="#ffffff" stroke-width="9.07555" d="M162.85+31.185L195.595+31.185L195.595+297.817L162.85+297.817L162.85+31.185Z" fill="#ffffff" stroke-linecap="butt" opacity="1" stroke-linejoin="miter"/>
</g>
</svg>
