<?xml version="1.0" encoding="UTF-8" standalone="no"?> <!-- Created with Vectornator for iOS (http://vectornator.io/) --><!DOCTYPE svg PUBLIC "-//W3C//DTD SVG 1.1//EN" "http://www.w3.org/Graphics/SVG/1.1/DTD/svg11.dtd">
<svg height="100%" style="fill-rule:nonzero;clip-rule:evenodd;stroke-linecap:round;stroke-linejoin:round;" xmlns:xlink="http://www.w3.org/1999/xlink" xmlns="http://www.w3.org/2000/svg" xml:space="preserve" width="100%" xmlns:vectornator="http://vectornator.io" version="1.1" viewBox="0 0 357.21 357.21">
<metadata>
<vectornator:setting key="DimensionsVisible" value="1"/>
<vectornator:setting key="PencilOnly" value="0"/>
<vectornator:setting key="SnapToPoints" value="0"/>
<vectornator:setting key="OutlineMode" value="0"/>
<vectornator:setting key="CMYKEnabledKey" value="0"/>
<vectornator:setting key="RulersVisible" value="1"/>
<vectornator:setting key="SnapToEdges" value="0"/>
<vectornator:setting key="GuidesVisible" value="1"/>
<vectornator:setting key="DisplayWhiteBackground" value="0"/>
<vectornator:setting key="doHistoryDisabled" value="0"/>
<vectornator:setting key="SnapToGuides" value="1"/>
<vectornator:setting key="TimeLapseWatermarkDisabled" value="0"/>
<vectornator:setting key="Units" value="Millimeters"/>
<vectornator:setting key="DynamicGuides" value="0"/>
<vectornator:setting key="IsolateActiveLayer" value="0"/>
<vectornator:setting key="SnapToGrid" value="0"/>
</metadata>
<defs>
<path d="M278.935+149.534C283.419+122.131+260.561+107.4+229.305+97.5725L239.444+60.4516L214.682+54.8204L204.811+90.9631C198.31+89.4829+191.626+88.0863+184.984+86.7027L194.926+50.3219L170.185+44.6907L160.039+81.7987C154.652+80.6789+149.364+79.5719+144.231+78.4071L144.259+78.2912L110.119+70.5105L103.534+94.6442C103.534+94.6442+121.901+98.4863+121.513+98.7245C131.539+101.009+133.359+107.065+133.048+111.866L121.499+154.155C122.19+154.316+123.086+154.547+124.073+154.908L121.464+154.316L105.268+213.556C104.042+216.336+100.932+220.506+93.9238+218.923C94.1706+219.251+75.9304+214.824+75.9304+214.824L63.641+240.695L95.8628+248.025C101.856+249.396+107.729+250.831+113.504+252.183L103.259+289.735L127.986+295.366L138.139+258.219C144.887+259.893+151.444+261.437+157.86+262.892L147.749+299.864L172.504+305.496L182.749+268.021C224.962+275.312+256.711+272.371+270.058+237.529C280.825+209.469+269.529+193.284+247.319+182.723C263.494+179.305+275.677+169.594+278.928+149.534L278.935+149.534ZM222.367+221.929C214.71+249.988+162.958+234.826+146.17+231.016L159.764+181.275C176.544+185.097+230.348+192.666+222.374+221.929L222.367+221.929ZM230.017+149.128C223.037+174.652+179.957+161.684+165.975+158.505L178.3+113.391C192.281+116.571+237.293+122.504+230.017+149.128Z" id="Mask"/>
</defs>
<g id="Layer 3" vectornator:layerName="Layer 3" visibility="hidden">
<path stroke="#f7931a" stroke-opacity="0" stroke-width="9.07555" d="M176.266+0L180.944+0C278.293+0+357.21+79.9642+357.21+178.605L357.21+178.605C357.21+277.246+278.293+357.21+180.944+357.21L176.266+357.21C78.9172+357.21+0+277.246+0+178.605L0+178.605C0+79.9642+78.9172+0+176.266+0Z" fill="#000000" stroke-linecap="butt" opacity="0" stroke-linejoin="miter"/>
<path stroke="#f7931a" stroke-opacity="0" stroke-width="9.07555" d="M176.266+0L180.944+0C278.293+0+357.21+79.9642+357.21+178.605L357.21+178.605C357.21+277.246+278.293+357.21+180.944+357.21L176.266+357.21C78.9172+357.21+0+277.246+0+178.605L0+178.605C0+79.9642+78.9172+0+176.266+0Z" fill="#6878ff" stroke-linecap="butt" opacity="0" stroke-linejoin="miter"/>
<path stroke="#f7931a" stroke-opacity="0" stroke-width="9.07555" d="M176.415+11.34L180.795+11.34C271.963+11.34+345.87+86.2271+345.87+178.605L345.87+178.605C345.87+270.983+271.963+345.87+180.795+345.87L176.415+345.87C85.2466+345.87+11.34+270.983+11.34+178.605L11.34+178.605C11.34+86.2271+85.2466+11.34+176.415+11.34Z" fill="#f7931a" stroke-linecap="butt" opacity="0" stroke-linejoin="miter"/>
</g>
<g id="Layer 3 copy" vectornator:layerName="Layer 3 copy">
<path stroke="#f7931a" stroke-opacity="0" stroke-width="9.07555" d="M176.266+0L180.944+0C278.293+0+357.21+79.9642+357.21+178.605L357.21+178.605C357.21+277.246+278.293+357.21+180.944+357.21L176.266+357.21C78.9172+357.21+0+277.246+0+178.605L0+178.605C0+79.9642+78.9172+0+176.266+0Z" fill="#f7931a" stroke-linecap="butt" opacity="1" stroke-linejoin="miter"/>
<path stroke="#f7931a" stroke-opacity="0" stroke-width="9.07555" d="M176.266+0L180.944+0C278.293+0+357.21+79.9642+357.21+178.605L357.21+178.605C357.21+277.246+278.293+357.21+180.944+357.21L176.266+357.21C78.9172+357.21+0+277.246+0+178.605L0+178.605C0+79.9642+78.9172+0+176.266+0Z" fill="#6878ff" stroke-linecap="butt" opacity="0" stroke-linejoin="miter"/>
<path stroke="#f7931a" stroke-opacity="0" stroke-width="9.07555" d="M176.415+11.34L180.795+11.34C271.963+11.34+345.87+86.2271+345.87+178.605L345.87+178.605C345.87+270.983+271.963+345.87+180.795+345.87L176.415+345.87C85.2466+345.87+11.34+270.983+11.34+178.605L11.34+178.605C11.34+86.2271+85.2466+11.34+176.415+11.34Z" fill="#000000" stroke-linecap="butt" opacity="1" stroke-linejoin="miter"/>
</g>
<g id="Layer 2" vectornator:layerName="Layer 2">
<path stroke="#f7931a" stroke-opacity="0" stroke-width="9.07555" d="M173.079+38.1887L188.5+38.1887L188.5+304.82L173.079+304.82L173.079+38.1887Z" fill="#f7931a" stroke-linecap="butt" opacity="0" stroke-linejoin="miter"/>
</g>
<g id="Layer 2 copy" vectornator:layerName="Layer 2 copy" visibility="hidden">
<path stroke="#f7931a" stroke-width="9.07555" d="M162.85+36.185L195.595+36.185L195.595+302.817L162.85+302.817L162.85+36.185Z" fill="#f7931a" stroke-linecap="butt" opacity="1" stroke-linejoin="miter"/>
</g>
<g id="Layer 2 copy_2" vectornator:layerName="Layer 2 copy" visibility="hidden">
<path stroke="#6878ff" stroke-width="9.07555" d="M155.574+36.3825L170.844+36.3825L170.844+303.014L155.574+303.014L155.574+36.3825Z" fill="#6878ff" stroke-linecap="butt" opacity="1" stroke-linejoin="miter"/>
<path stroke="#6878ff" stroke-width="9.07555" d="M189.358+36.3825L204.628+36.3825L204.628+303.014L189.358+303.014L189.358+36.3825Z" fill="#6878ff" stroke-linecap="butt" opacity="1" stroke-linejoin="miter"/>
</g>
<g id="Layer 2 copy copy" vectornator:layerName="Layer 2 copy copy" visibility="hidden">
<path stroke="#f7931a" stroke-width="9.07555" d="M155.574+36.3825L170.844+36.3825L170.844+303.014L155.574+303.014L155.574+36.3825Z" fill="#f7931a" stroke-linecap="butt" opacity="1" stroke-linejoin="miter"/>
<path stroke="#f7931a" stroke-width="9.07555" d="M189.358+36.3825L204.628+36.3825L204.628+303.014L189.358+303.014L189.358+36.3825Z" fill="#f7931a" stroke-linecap="butt" opacity="1" stroke-linejoin="miter"/>
</g>
<g id="Layer 2 copy copy copy" vectornator:layerName="Layer 2 copy copy copy" visibility="hidden">
<path stroke="#f7931a" stroke-opacity="0" stroke-width="9.07555" d="M173.055+55.1722L193.095+55.1722L193.095+294.135L173.055+294.135L173.055+55.1722Z" fill="#f7931a" stroke-linecap="butt" opacity="1" stroke-linejoin="miter"/>
<path d="M279.818+126.2C276.975+100.225+251.225+92.2172+218.703+90.6484L218.747+54.504L193.543+55.2201L193.501+90.4118C186.883+90.5981+180.112+90.9036+173.385+91.211L173.433+55.7861L148.25+56.4972L148.195+92.6315C142.74+92.883+137.382+93.1228+132.159+93.2735L132.155+93.1615L97.4025+94.1333L97.3797+117.631C97.3797+117.631+115.987+116.795+115.677+117.103C125.884+116.817+129.206+121.895+130.159+126.334L130.11+167.51C130.814+167.493+131.733+167.493+132.773+167.588L130.118+167.665L130.033+225.35C129.582+228.167+127.688+232.692+120.557+232.904C120.879+233.145+102.241+233.418+102.241+233.418L97.2033+259.84L130+258.91C136.103+258.744+142.106+258.665+147.994+258.533L147.961+295.094L173.131+294.386L173.182+258.215C180.086+258.146+186.774+258.005+193.303+257.815L193.247+293.819L218.444+293.104L218.498+256.613C260.862+253.294+290.529+243.136+294.243+208.307C297.25+180.254+282.205+168.199+258.163+163.83C272.776+156.911+281.924+145.208+279.812+126.201L279.818+126.2ZM244.462+205.363C244.435+232.682+190.875+231.093+173.79+231.586L173.857+183.151C190.939+182.672+244.486+176.872+244.469+205.361L244.462+205.363ZM232.822+137.361C232.783+162.216+188.108+160.578+173.877+160.983L173.934+117.055C188.164+116.65+232.858+111.436+232.822+137.361Z" fill-opacity="0.290426" fill="#ffffff" opacity="1"/>
</g>
<g id="Layer 2 copy copy copy copy" vectornator:layerName="Layer 2 copy copy copy copy">
<path d="M274.971+153.046C279.455+125.643+256.597+110.912+225.341+101.084L235.48+63.9635L210.717+58.3323L200.846+94.4749C194.346+92.9947+187.662+91.5982+181.02+90.2145L190.961+53.8337L166.22+48.2025L156.074+85.3105C150.688+84.1907+145.4+83.0838+140.267+81.9189L140.295+81.8031L106.155+74.0224L99.5698+98.1561C99.5698+98.1561+117.937+101.998+117.549+102.236C127.575+104.521+129.394+110.577+129.084+115.378L117.535+157.667C118.226+157.827+119.121+158.059+120.109+158.42L117.5+157.827L101.304+217.068C100.077+219.848+96.9681+224.018+89.9597+222.435C90.2064+222.763+71.9662+218.336+71.9662+218.336L59.6768+244.207L91.8986+251.537C97.8917+252.908+103.765+254.343+109.54+255.694L99.2948+293.247L124.022+298.878L134.175+261.731C140.922+263.404+147.479+264.949+153.896+266.403L143.785+303.376L168.54+309.007L178.785+271.533C220.997+278.824+252.747+275.883+266.094+241.041C276.86+212.981+265.565+196.795+243.355+186.234C259.53+182.817+271.713+173.106+274.964+153.046L274.971+153.046ZM218.403+225.44C210.746+253.5+158.993+238.338+142.206+234.528L155.799+184.786C172.58+188.609+226.384+196.178+218.41+225.44L218.403+225.44ZM226.053+152.64C219.073+178.164+175.993+165.196+162.011+162.017L174.336+116.903C188.317+120.082+233.329+126.016+226.053+152.64Z" fill-opacity="0.49935" fill="#f7931a" opacity="1"/>
</g>
<g id="Layer 2 copy copy copy copy copy" vectornator:layerName="Layer 2 copy copy copy copy copy" visibility="hidden">
<path stroke="#f7931a" stroke-opacity="0" stroke-width="9.07555" d="M168.686+34.4541L188.726+34.4747L188.524+324.263L168.484+324.243L168.686+34.4541Z" fill="#f7931a" stroke-linecap="butt" opacity="1" stroke-linejoin="miter"/>
</g>
<g id="Layer 2 copy copy copy copy copy_2" vectornator:layerName="Layer 2 copy copy copy copy copy" visibility="hidden">
<path d="M277.971+151.046C282.455+123.643+259.597+108.912+228.341+99.0843L238.48+61.9635L213.717+56.3323L203.846+92.4749C197.346+90.9947+190.662+89.5982+184.02+88.2145L193.961+51.8337L169.22+46.2025L159.074+83.3105C153.688+82.1907+148.4+81.0838+143.267+79.9189L143.295+79.8031L109.155+72.0224L102.57+96.1561C102.57+96.1561+120.937+99.9982+120.549+100.236C130.575+102.521+132.394+108.577+132.084+113.378L120.535+155.667C121.226+155.827+122.121+156.059+123.109+156.42L120.5+155.827L104.304+215.068C103.077+217.848+99.9681+222.018+92.9597+220.435C93.2064+220.763+74.9662+216.336+74.9662+216.336L62.6768+242.207L94.8986+249.537C100.892+250.908+106.765+252.343+112.54+253.694L102.295+291.247L127.022+296.878L137.175+259.731C143.922+261.404+150.479+262.949+156.896+264.403L146.785+301.376L171.54+307.007L181.785+269.533C223.997+276.824+255.747+273.883+269.094+239.041C279.86+210.981+268.565+194.795+246.355+184.234C262.53+180.817+274.713+171.106+277.964+151.046L277.971+151.046ZM221.403+223.44C213.746+251.5+161.993+236.338+145.206+232.528L158.799+182.786C175.58+186.609+229.384+194.178+221.41+223.44L221.403+223.44ZM229.053+150.64C222.073+176.164+178.993+163.196+165.011+160.017L177.336+114.903C191.317+118.082+236.329+124.016+229.053+150.64Z" opacity="1" fill="#f7931a"/>
<path stroke="#f7931a" stroke-opacity="0" stroke-width="9.07555" d="M168.686+34.4541L188.726+34.4747L188.524+324.263L168.484+324.243L168.686+34.4541Z" fill="#f7931a" stroke-linecap="butt" opacity="0" stroke-linejoin="miter"/>
</g>
<g id="Layer 4" vectornator:layerName="Layer 4" visibility="hidden">
<path d="M80.8897+79.7508L80.0952+105.848C80.0952+105.848+99.3126+105.437+98.9833+105.772C109.528+105.7+112.857+111.39+113.703+116.35L112.315+162.174C113.043+162.172+113.988+162.152+115.059+162.283L112.318+162.327L110.466+226.495C109.912+229.617+107.836+234.572+100.468+234.636C100.793+234.911+81.5052+234.791+81.5052+234.791L75.5064+264.042L75.5826+264.04L213.484+261.799C250.179+257.72+276.127+246.047+280.531+211.456C284.511+180.33+269.283+166.614+244.601+161.175C259.902+153.832+269.737+141.013+268.15+119.824C266.025+90.8671+239.692+81.3193+206.168+78.7889L206.167+78.7122L80.9059+80.7479L80.8897+79.7508ZM174.862+106.763C194.047+106.743+219.916+109.505+219.282+131.129C218.466+158.77+172.388+155.806+157.685+155.913L159.177+107.095C162.852+107.068+168.466+106.77+174.862+106.763ZM175.827+180.245C198.828+180.229+229.878+183.234+229.198+206.996C228.318+237.379+173.11+234.298+155.457+234.433L157.02+180.627C161.432+180.597+168.16+180.25+175.827+180.245Z" fill-opacity="0.500904" fill="#f7931a" opacity="1"/>
</g>
<g id="Layer 4 copy" vectornator:layerName="Layer 4 copy" visibility="hidden">
<path d="M115.922+59.092L107.559+83.8262C107.559+83.8262+126.063+89.0305+125.65+89.2551C135.759+92.2587+137.285+98.6716+136.65+103.663L121.973+147.095C122.67+147.305+123.58+147.561+124.566+147.998L121.931+147.242L101.467+208.087C100.027+210.913+96.5974+215.048+89.5308+212.963C89.7616+213.321+71.3452+207.587+71.3452+207.587L57.0854+233.821L57.1586+233.842L189.732+271.871C226.023+278.659+254.247+275.051+268.536+243.243C281.411+214.626+270.84+197.069+248.812+184.676C265.589+182.109+278.732+172.711+283.386+151.978C289.789+123.659+267.38+106.854+236.047+94.6673L236.068+94.5936L115.647+60.0506L115.922+59.092ZM197.949+112.308C216.308+117.877+240.251+128.056+233.344+148.557C224.512+174.761+181.296+158.504+167.199+154.322L182.847+108.056C186.372+109.102+191.829+110.452+197.949+112.308ZM177.466+182.884C199.474+189.569+228.302+201.489+220.729+224.023C211.036+252.832+159.12+233.801+142.194+228.788L159.364+177.771C163.593+179.028+170.13+180.656+177.466+182.884Z" fill-opacity="0.500904" fill="#f7931a" opacity="1"/>
</g>
<g id="Layer 2 copy copy copy copy copy_3" vectornator:layerName="Layer 2 copy copy copy copy copy" visibility="hidden">
<path d="M278.971+150.046C283.455+122.643+260.597+107.912+229.341+98.0843L239.48+60.9635L214.717+55.3323L204.846+91.4749C198.346+89.9947+191.662+88.5982+185.02+87.2145L194.961+50.8337L170.22+45.2025L160.074+82.3105C154.688+81.1907+149.4+80.0838+144.267+78.9189L144.295+78.8031L110.155+71.0224L103.57+95.1561C103.57+95.1561+121.937+98.9982+121.549+99.2363C131.575+101.521+133.394+107.577+133.084+112.378L121.535+154.667C122.226+154.827+123.121+155.059+124.109+155.42L121.5+154.827L105.304+214.068C104.077+216.848+100.968+221.018+93.9597+219.435C94.2064+219.763+75.9662+215.336+75.9662+215.336L63.6768+241.207L95.8986+248.537C101.892+249.908+107.765+251.343+113.54+252.694L103.295+290.247L128.022+295.878L138.175+258.731C144.922+260.404+151.479+261.949+157.896+263.403L147.785+300.376L172.54+306.007L182.785+268.533C224.997+275.824+256.747+272.883+270.094+238.041C280.86+209.981+269.565+193.795+247.355+183.234C263.53+179.817+275.713+170.106+278.964+150.046L278.971+150.046ZM222.403+222.44C214.746+250.5+162.993+235.338+146.206+231.528L159.799+181.786C176.58+185.609+230.384+193.178+222.41+222.44L222.403+222.44ZM230.053+149.64C223.073+175.164+179.993+162.196+166.011+159.017L178.336+113.903C192.317+117.082+237.329+123.016+230.053+149.64Z" opacity="0" fill="#f7931a"/>
</g>
<g id="Layer 1" vectornator:layerName="Layer 1">
<path stroke="#000000" stroke-width="9.07555" d="M60.4597+199.584C60.4597+197.287+60.2018+196.705+62.5387+194.387C83.0677+174.023+103.843+153.903+124.909+134.096C129.531+129.749+135.406+126.961+140.501+123.181C155.534+112.027+171.681+103.183+188.838+95.634C201.744+89.9553+214.678+86.9317+228.339+84.1995C230.992+83.6689+233.957+84.4993+236.655+84.1995C239.419+83.8924+241.854+82.9862+244.451+82.1205C246.11+81.5677+250.276+81.8167+249.129+79.5218" fill="#000000" stroke-linecap="butt" opacity="1" stroke-linejoin="miter"/>
<path stroke="#000000" stroke-width="9.07555" d="M56.3017+252.599C53.3592+252.599+56.592+247.56+57.3412+246.362C60.5571+241.216+64.187+235.81+68.2559+231.289C71.6515+227.516+75.9565+224.808+79.6904+221.414C83.9383+217.552+87.3208+212.783+91.6447+208.94C97.0384+204.145+103.529+201.119+109.316+196.985C115.182+192.795+120.437+188.012+126.468+183.992C129.494+181.974+132.699+180.149+135.823+178.274C139.483+176.079+142.356+172.093+146.738+170.998C158.177+168.138+169.75+163.343+180.002+157.484C194.461+149.222+208.586+142.023+224.181+136.175C226.938+135.141+229.262+132.854+231.977+131.497C240.783+127.094+249.767+122.487+259.004+119.023C264.552+116.942+270.544+116.216+276.156+114.345C281.862+112.443+287.591+109.771+293.308+108.628C296.599+107.97+301.236+108.042+304.222+106.549" fill="#000000" stroke-linecap="butt" opacity="1" stroke-linejoin="miter"/>
<path stroke="#000000" stroke-width="9.07555" d="M106.717+269.75C103.522+269.75+107.77+266.043+108.277+265.592C113.077+261.325+118.397+257.716+123.349+253.638C126.669+250.904+129.401+247.506+132.705+244.802C142.21+237.026+153.402+229.946+163.89+223.493C178.81+214.311+194.577+206.289+210.667+199.584C216.303+197.236+221.841+193.997+227.299+191.268C232.645+188.595+238.511+187.719+243.931+185.551C252.715+182.037+261.659+178.785+270.958+177.235C274.281+176.681+277.386+174.171+280.834+173.597C285.807+172.768+290.551+171.445+295.387+170.478C296.504+170.255+300.205+170.558+301.104+169.958C302.427+169.076+301.729+168.919+303.703+168.919" fill="#000000" stroke-linecap="butt" opacity="1" stroke-linejoin="miter"/>
</g>
<g id="Layer 1 copy" vectornator:layerName="Layer 1 copy">
<path stroke="#ffffff" stroke-width="9.07555" d="M60.4597+199.584C60.4597+197.287+60.2018+196.705+62.5387+194.387C83.0677+174.023+103.843+153.903+124.909+134.096C129.531+129.749+135.406+126.961+140.501+123.181C155.534+112.027+171.681+103.183+188.838+95.634C201.744+89.9553+214.678+86.9317+228.339+84.1995C230.992+83.6689+233.957+84.4993+236.655+84.1995C239.419+83.8924+241.854+82.9862+244.451+82.1205C246.11+81.5677+250.276+81.8167+249.129+79.5218" fill="#ffffff" stroke-linecap="butt" opacity="1" stroke-linejoin="miter"/>
<path stroke="#ffffff" stroke-width="9.07555" d="M56.3017+252.599C53.3592+252.599+56.592+247.56+57.3412+246.362C60.5571+241.216+64.187+235.81+68.2559+231.289C71.6515+227.516+75.9565+224.808+79.6904+221.414C83.9383+217.552+87.3208+212.783+91.6447+208.94C97.0384+204.145+103.529+201.119+109.316+196.985C115.182+192.795+120.437+188.012+126.468+183.992C129.494+181.974+132.699+180.149+135.823+178.274C139.483+176.079+142.356+172.093+146.738+170.998C158.177+168.138+169.75+163.343+180.002+157.484C194.461+149.222+208.586+142.023+224.181+136.175C226.938+135.141+229.262+132.854+231.977+131.497C240.783+127.094+249.767+122.487+259.004+119.023C264.552+116.942+270.544+116.216+276.156+114.345C281.862+112.443+287.591+109.771+293.308+108.628C296.599+107.97+301.236+108.042+304.222+106.549" fill="#ffffff" stroke-linecap="butt" opacity="1" stroke-linejoin="miter"/>
<path stroke="#ffffff" stroke-width="9.07555" d="M106.717+269.75C103.522+269.75+107.77+266.043+108.277+265.592C113.077+261.325+118.397+257.716+123.349+253.638C126.669+250.904+129.401+247.506+132.705+244.802C142.21+237.026+153.402+229.946+163.89+223.493C178.81+214.311+194.577+206.289+210.667+199.584C216.303+197.236+221.841+193.997+227.299+191.268C232.645+188.595+238.511+187.719+243.931+185.551C252.715+182.037+261.659+178.785+270.958+177.235C274.281+176.681+277.386+174.171+280.834+173.597C285.807+172.768+290.551+171.445+295.387+170.478C296.504+170.255+300.205+170.558+301.104+169.958C302.427+169.076+301.729+168.919+303.703+168.919" fill="#ffffff" stroke-linecap="butt" opacity="1" stroke-linejoin="miter"/>
</g>
<g id="Layer 1 copy_2" vectornator:layerName="Layer 1 copy" visibility="hidden">
<g opacity="1" vectornator:mask="#Mask">
<use xlink:href="#Mask" fill="#ffffff" stroke="none"/>
<clipPath id="ClipPath">
<use xlink:href="#Mask" fill="none" overflow="visible"/>
</clipPath>
<g clip-path="url(#ClipPath)">
<path stroke="#52c8bc" stroke-width="9.07555" d="M60.4597+199.584C60.4597+197.287+60.2018+196.705+62.5387+194.387C83.0677+174.023+103.843+153.903+124.909+134.096C129.531+129.749+135.406+126.961+140.501+123.181C155.534+112.027+171.681+103.183+188.838+95.634C201.744+89.9553+214.678+86.9317+228.339+84.1995C230.992+83.6689+233.957+84.4993+236.655+84.1995C239.419+83.8924+241.854+82.9862+244.451+82.1205C246.11+81.5677+250.276+81.8167+249.129+79.5218" fill="#52c8bc" stroke-linecap="butt" opacity="1" stroke-linejoin="miter"/>
<path stroke="#52c8bc" stroke-width="9.07555" d="M56.3017+252.599C53.3592+252.599+56.592+247.56+57.3412+246.362C60.5571+241.216+64.187+235.81+68.2559+231.289C71.6515+227.516+75.9565+224.808+79.6904+221.414C83.9383+217.552+87.3208+212.783+91.6447+208.94C97.0384+204.145+103.529+201.119+109.316+196.985C115.182+192.795+120.437+188.012+126.468+183.992C129.494+181.974+132.699+180.149+135.823+178.274C139.483+176.079+142.356+172.093+146.738+170.998C158.177+168.138+169.75+163.343+180.002+157.484C194.461+149.222+208.586+142.023+224.181+136.175C226.938+135.141+229.262+132.854+231.977+131.497C240.783+127.094+249.767+122.487+259.004+119.023C264.552+116.942+270.544+116.216+276.156+114.345C281.862+112.443+287.591+109.771+293.308+108.628C296.599+107.97+301.236+108.042+304.222+106.549" fill="#52c8bc" stroke-linecap="butt" opacity="1" stroke-linejoin="miter"/>
<path stroke="#52c8bc" stroke-width="9.07555" d="M106.717+269.75C103.522+269.75+107.77+266.043+108.277+265.592C113.077+261.325+118.397+257.716+123.349+253.638C126.669+250.904+129.401+247.506+132.705+244.802C142.21+237.026+153.402+229.946+163.89+223.493C178.81+214.311+194.577+206.289+210.667+199.584C216.303+197.236+221.841+193.997+227.299+191.268C232.645+188.595+238.511+187.719+243.931+185.551C252.715+182.037+261.659+178.785+270.958+177.235C274.281+176.681+277.386+174.171+280.834+173.597C285.807+172.768+290.551+171.445+295.387+170.478C296.504+170.255+300.205+170.558+301.104+169.958C302.427+169.076+301.729+168.919+303.703+168.919" fill="#52c8bc" stroke-linecap="butt" opacity="1" stroke-linejoin="miter"/>
</g>
</g>
</g>
</svg>
