<svg width="800" height="743" viewBox="0 0 800 743" fill="none" xmlns="http://www.w3.org/2000/svg">
<rect width="800" height="743" fill="#1D2026"/>
<path d="M69.4218 222.875C69.4218 214.421 72.78 206.314 78.7577 200.336C84.7354 194.358 92.843 191 101.297 191H228.797C237.251 191 245.358 194.358 251.336 200.336C257.313 206.314 260.672 214.421 260.672 222.875V414.125C260.672 422.579 257.313 430.686 251.336 436.664C245.358 442.642 237.251 446 228.797 446H101.297C92.843 446 84.7354 442.642 78.7577 436.664C72.78 430.686 69.4218 422.579 69.4218 414.125V222.875ZM101.297 230.844V262.719C101.297 264.832 102.136 266.859 103.631 268.354C105.125 269.848 107.152 270.688 109.266 270.688H220.828C222.941 270.688 224.968 269.848 226.463 268.354C227.957 266.859 228.797 264.832 228.797 262.719V230.844C228.797 228.73 227.957 226.703 226.463 225.209C224.968 223.715 222.941 222.875 220.828 222.875H109.266C107.152 222.875 105.125 223.715 103.631 225.209C102.136 226.703 101.297 228.73 101.297 230.844ZM101.297 294.594V310.531C101.297 312.645 102.136 314.672 103.631 316.166C105.125 317.66 107.152 318.5 109.266 318.5H125.203C127.316 318.5 129.343 317.66 130.838 316.166C132.332 314.672 133.172 312.645 133.172 310.531V294.594C133.172 292.48 132.332 290.453 130.838 288.959C129.343 287.465 127.316 286.625 125.203 286.625H109.266C107.152 286.625 105.125 287.465 103.631 288.959C102.136 290.453 101.297 292.48 101.297 294.594ZM109.266 334.438C107.152 334.438 105.125 335.277 103.631 336.771C102.136 338.266 101.297 340.293 101.297 342.406V358.344C101.297 360.457 102.136 362.484 103.631 363.979C105.125 365.473 107.152 366.312 109.266 366.312H125.203C127.316 366.312 129.343 365.473 130.838 363.979C132.332 362.484 133.172 360.457 133.172 358.344V342.406C133.172 340.293 132.332 338.266 130.838 336.771C129.343 335.277 127.316 334.438 125.203 334.438H109.266ZM101.297 390.219V406.156C101.297 408.27 102.136 410.297 103.631 411.791C105.125 413.285 107.152 414.125 109.266 414.125H125.203C127.316 414.125 129.343 413.285 130.838 411.791C132.332 410.297 133.172 408.27 133.172 406.156V390.219C133.172 388.105 132.332 386.078 130.838 384.584C129.343 383.09 127.316 382.25 125.203 382.25H109.266C107.152 382.25 105.125 383.09 103.631 384.584C102.136 386.078 101.297 388.105 101.297 390.219ZM157.078 286.625C154.965 286.625 152.938 287.465 151.443 288.959C149.949 290.453 149.109 292.48 149.109 294.594V310.531C149.109 312.645 149.949 314.672 151.443 316.166C152.938 317.66 154.965 318.5 157.078 318.5H173.016C175.129 318.5 177.156 317.66 178.65 316.166C180.145 314.672 180.984 312.645 180.984 310.531V294.594C180.984 292.48 180.145 290.453 178.65 288.959C177.156 287.465 175.129 286.625 173.016 286.625H157.078ZM149.109 342.406V358.344C149.109 360.457 149.949 362.484 151.443 363.979C152.938 365.473 154.965 366.312 157.078 366.312H173.016C175.129 366.312 177.156 365.473 178.65 363.979C180.145 362.484 180.984 360.457 180.984 358.344V342.406C180.984 340.293 180.145 338.266 178.65 336.771C177.156 335.277 175.129 334.438 173.016 334.438H157.078C154.965 334.438 152.938 335.277 151.443 336.771C149.949 338.266 149.109 340.293 149.109 342.406ZM157.078 382.25C154.965 382.25 152.938 383.09 151.443 384.584C149.949 386.078 149.109 388.105 149.109 390.219V406.156C149.109 408.27 149.949 410.297 151.443 411.791C152.938 413.285 154.965 414.125 157.078 414.125H173.016C175.129 414.125 177.156 413.285 178.65 411.791C180.145 410.297 180.984 408.27 180.984 406.156V390.219C180.984 388.105 180.145 386.078 178.65 384.584C177.156 383.09 175.129 382.25 173.016 382.25H157.078ZM196.922 294.594V310.531C196.922 312.645 197.761 314.672 199.256 316.166C200.75 317.66 202.777 318.5 204.891 318.5H220.828C222.941 318.5 224.968 317.66 226.463 316.166C227.957 314.672 228.797 312.645 228.797 310.531V294.594C228.797 292.48 227.957 290.453 226.463 288.959C224.968 287.465 222.941 286.625 220.828 286.625H204.891C202.777 286.625 200.75 287.465 199.256 288.959C197.761 290.453 196.922 292.48 196.922 294.594ZM204.891 334.438C202.777 334.438 200.75 335.277 199.256 336.771C197.761 338.266 196.922 340.293 196.922 342.406V406.156C196.922 408.27 197.761 410.297 199.256 411.791C200.75 413.285 202.777 414.125 204.891 414.125H220.828C222.941 414.125 224.968 413.285 226.463 411.791C227.957 410.297 228.797 408.27 228.797 406.156V342.406C228.797 340.293 227.957 338.266 226.463 336.771C224.968 335.277 222.941 334.438 220.828 334.438H204.891Z" fill="white"/>
<path d="M132.011 250.823C131.879 252.659 131.199 254.105 129.972 255.159C128.754 256.214 127.144 256.741 125.144 256.741C122.957 256.741 121.234 256.007 119.976 254.538C118.726 253.062 118.101 251.038 118.101 248.468V247.425C118.101 245.784 118.39 244.339 118.968 243.089C119.547 241.839 120.371 240.882 121.441 240.218C122.519 239.546 123.769 239.21 125.191 239.21C127.16 239.21 128.746 239.738 129.949 240.792C131.152 241.847 131.847 243.327 132.035 245.234H128.519C128.433 244.132 128.125 243.335 127.593 242.843C127.07 242.343 126.269 242.093 125.191 242.093C124.019 242.093 123.14 242.515 122.554 243.359C121.976 244.195 121.679 245.495 121.664 247.261V248.55C121.664 250.394 121.941 251.741 122.496 252.593C123.058 253.445 123.941 253.87 125.144 253.87C126.23 253.87 127.039 253.624 127.57 253.132C128.109 252.632 128.418 251.863 128.496 250.823H132.011ZM133.57 250.05C133.57 248.792 133.812 247.671 134.297 246.687C134.781 245.702 135.476 244.941 136.382 244.402C137.297 243.863 138.355 243.593 139.558 243.593C141.269 243.593 142.664 244.116 143.742 245.163C144.828 246.21 145.433 247.632 145.558 249.429L145.582 250.296C145.582 252.241 145.039 253.804 143.953 254.984C142.867 256.156 141.41 256.741 139.582 256.741C137.754 256.741 136.293 256.156 135.199 254.984C134.113 253.812 133.57 252.218 133.57 250.202V250.05ZM136.957 250.296C136.957 251.499 137.183 252.421 137.636 253.062C138.09 253.695 138.738 254.011 139.582 254.011C140.402 254.011 141.043 253.698 141.504 253.073C141.965 252.441 142.195 251.433 142.195 250.05C142.195 248.87 141.965 247.956 141.504 247.308C141.043 246.659 140.394 246.335 139.558 246.335C138.73 246.335 138.09 246.659 137.636 247.308C137.183 247.948 136.957 248.945 136.957 250.296ZM151.242 256.507H147.843V238.507H151.242V256.507ZM153.515 250.073C153.515 248.097 153.957 246.523 154.84 245.351C155.73 244.179 156.945 243.593 158.484 243.593C159.718 243.593 160.738 244.054 161.543 244.976V238.507H164.941V256.507H161.882L161.718 255.159C160.875 256.214 159.789 256.741 158.461 256.741C156.968 256.741 155.769 256.156 154.863 254.984C153.965 253.804 153.515 252.167 153.515 250.073ZM156.902 250.32C156.902 251.507 157.109 252.417 157.523 253.05C157.937 253.683 158.539 253.999 159.328 253.999C160.375 253.999 161.113 253.558 161.543 252.675V247.671C161.121 246.788 160.39 246.347 159.351 246.347C157.718 246.347 156.902 247.671 156.902 250.32ZM172.84 254.011C173.465 254.011 173.972 253.839 174.363 253.495C174.754 253.152 174.957 252.695 174.972 252.124H178.148C178.14 252.984 177.906 253.773 177.445 254.491C176.984 255.202 176.351 255.757 175.547 256.156C174.75 256.546 173.867 256.741 172.898 256.741C171.086 256.741 169.656 256.167 168.609 255.019C167.562 253.863 167.039 252.269 167.039 250.238V250.015C167.039 248.062 167.558 246.503 168.597 245.339C169.636 244.175 171.062 243.593 172.875 243.593C174.461 243.593 175.73 244.046 176.683 244.952C177.644 245.851 178.132 247.05 178.148 248.55H174.972C174.957 247.894 174.754 247.363 174.363 246.956C173.972 246.542 173.457 246.335 172.816 246.335C172.027 246.335 171.429 246.624 171.023 247.202C170.625 247.773 170.425 248.702 170.425 249.991V250.343C170.425 251.648 170.625 252.585 171.023 253.156C171.422 253.726 172.027 254.011 172.84 254.011ZM187.429 256.507C187.273 256.202 187.16 255.823 187.09 255.37C186.269 256.284 185.203 256.741 183.89 256.741C182.648 256.741 181.617 256.382 180.797 255.663C179.984 254.945 179.578 254.038 179.578 252.945C179.578 251.601 180.074 250.57 181.066 249.851C182.066 249.132 183.507 248.769 185.39 248.761H186.949V248.034C186.949 247.448 186.797 246.98 186.492 246.628C186.195 246.277 185.722 246.101 185.074 246.101C184.504 246.101 184.054 246.238 183.726 246.511C183.406 246.784 183.246 247.159 183.246 247.636H179.859C179.859 246.902 180.086 246.222 180.539 245.597C180.992 244.972 181.632 244.484 182.461 244.132C183.289 243.773 184.218 243.593 185.25 243.593C186.812 243.593 188.05 243.988 188.965 244.777C189.886 245.558 190.347 246.659 190.347 248.081V253.577C190.355 254.781 190.523 255.691 190.851 256.308V256.507H187.429ZM184.629 254.152C185.129 254.152 185.59 254.042 186.011 253.823C186.433 253.597 186.746 253.296 186.949 252.921V250.741H185.683C183.988 250.741 183.086 251.327 182.976 252.499L182.965 252.698C182.965 253.12 183.113 253.468 183.41 253.741C183.707 254.015 184.113 254.152 184.629 254.152ZM200.074 247.003C199.613 246.941 199.207 246.909 198.855 246.909C197.574 246.909 196.734 247.343 196.336 248.21V256.507H192.949V243.827H196.148L196.242 245.339C196.922 244.175 197.863 243.593 199.066 243.593C199.441 243.593 199.793 243.644 200.121 243.745L200.074 247.003ZM200.953 250.073C200.953 248.097 201.394 246.523 202.277 245.351C203.168 244.179 204.382 243.593 205.922 243.593C207.156 243.593 208.175 244.054 208.98 244.976V238.507H212.379V256.507H209.32L209.156 255.159C208.312 256.214 207.226 256.741 205.898 256.741C204.406 256.741 203.207 256.156 202.3 254.984C201.402 253.804 200.953 252.167 200.953 250.073ZM204.34 250.32C204.34 251.507 204.547 252.417 204.961 253.05C205.375 253.683 205.976 253.999 206.765 253.999C207.812 253.999 208.55 253.558 208.98 252.675V247.671C208.558 246.788 207.828 246.347 206.789 246.347C205.156 246.347 204.34 247.671 204.34 250.32Z" fill="white"/>
<path d="M381.458 346.122H293V337.276H381.458V346.122ZM294.15 323.256L306.667 310.739L294.15 298.222L300.386 291.986L312.903 304.502L325.42 291.986L331.656 298.222L319.139 310.739L331.656 323.256L325.42 329.492L312.903 316.975L300.386 329.492L294.15 323.256Z" fill="#F7931A"/>
<path d="M518.997 341.75L466.497 311.439V372.061L518.997 341.75ZM293 347H471.747V336.5H293V347Z" fill="#F7931A"/>
<path d="M417 252.764C417.005 243.546 420.652 234.707 427.137 228.188C433.623 221.67 442.418 218.006 451.591 218C470.582 218 486.182 232.962 486.182 252.233C486.177 261.452 482.53 270.291 476.044 276.809C469.559 283.328 460.763 286.992 451.591 286.998C448.787 286.998 446.019 286.594 443.395 285.915C443.332 287.63 442.61 289.254 441.381 290.445C440.152 291.637 438.512 292.304 436.804 292.305H427.562V301.593C427.562 305.255 424.604 308.228 420.961 308.228H411.719V314.862C411.719 317.325 410.745 319.688 409.012 321.43C407.278 323.172 404.928 324.15 402.477 324.15H389.274C386.823 324.15 384.472 323.172 382.739 321.43C381.006 319.688 380.032 317.325 380.032 314.862V303.334C380.032 299.46 381.564 295.75 384.289 293.016L417.211 259.919C417.372 259.749 417.489 259.542 417.553 259.317C417.618 259.091 417.627 258.853 417.581 258.624C417.218 256.691 417.024 254.731 417 252.764V252.764ZM466.114 244.272C466.114 242.513 465.418 240.825 464.18 239.581C462.942 238.337 461.263 237.638 459.513 237.638C457.762 237.638 456.083 238.337 454.845 239.581C453.607 240.825 452.911 242.513 452.911 244.272C452.911 246.032 453.607 247.719 454.845 248.963C456.083 250.208 457.762 250.907 459.513 250.907C461.263 250.907 462.942 250.208 464.18 248.963C465.418 247.719 466.114 246.032 466.114 244.272V244.272Z" fill="#F7931A"/>
<path d="M625.167 226.844V153H736.625C744.037 153 750 158.81 750 166.031V417.969C750 425.19 744.037 431 736.625 431H549.375C541.963 431 536 425.19 536 417.969V239.875H611.792C619.148 239.875 625.167 234.011 625.167 226.844ZM714.333 192.094C714.333 189.694 712.338 187.75 709.875 187.75H665.292C662.828 187.75 660.833 189.694 660.833 192.094V200.781C660.833 203.181 662.828 205.125 665.292 205.125H709.875C712.338 205.125 714.333 203.181 714.333 200.781V192.094ZM714.333 226.844C714.333 224.444 712.338 222.5 709.875 222.5H665.292C662.828 222.5 660.833 224.444 660.833 226.844V235.531C660.833 237.931 662.828 239.875 665.292 239.875H709.875C712.338 239.875 714.333 237.931 714.333 235.531V226.844ZM606.882 361.5H580.583C575.657 361.5 571.667 365.388 571.667 370.188C571.667 374.987 575.657 378.875 580.583 378.875H606.882C616.049 378.875 624.308 373.912 628.416 365.92C630.06 362.705 632.924 362.38 634.083 362.38C635.242 362.38 638.107 362.7 639.667 365.741L643.942 374.07C644.682 375.513 645.82 376.726 647.229 377.574C648.638 378.422 650.261 378.871 651.917 378.87C652.128 378.87 652.335 378.859 652.552 378.842C656.147 378.598 659.239 376.263 660.371 372.929L669.75 345.531L675.663 362.841C678.945 372.43 688.135 378.875 698.512 378.875H705.417C710.343 378.875 714.333 374.987 714.333 370.188C714.333 365.388 710.343 361.5 705.417 361.5H698.512C695.82 361.5 693.435 359.828 692.582 357.341L682.445 327.673C680.606 322.347 675.512 318.763 669.75 318.763C663.988 318.763 658.894 322.341 657.06 327.673L649.325 350.282C638.308 341.492 619.204 345.015 612.544 357.971C611.418 360.175 609.223 361.5 606.882 361.5ZM539.901 210.012L594.46 156.801C596.968 154.357 600.367 153 603.934 153H607.333V222.5H536V219.188C536 215.767 537.393 212.455 539.901 210.012Z" fill="#F8F8F8"/>
<rect x="554" y="289" width="182" height="107" fill="#F8F8F8"/>
<path d="M639.512 302V283.66H636.172V280.867H639.512V278.699C639.512 276.434 640.117 274.682 641.328 273.445C642.539 272.208 644.251 271.59 646.465 271.59C647.298 271.59 648.125 271.701 648.945 271.922L648.75 274.852C648.138 274.734 647.487 274.676 646.797 274.676C645.625 274.676 644.72 275.021 644.082 275.711C643.444 276.388 643.125 277.365 643.125 278.641V280.867H647.637V283.66H643.125V302H639.512ZM664.688 299.91C663.281 301.564 661.217 302.391 658.496 302.391C656.243 302.391 654.525 301.74 653.34 300.438C652.168 299.122 651.576 297.182 651.562 294.617V280.867H655.176V294.52C655.176 297.723 656.478 299.324 659.082 299.324C661.842 299.324 663.678 298.296 664.59 296.238V280.867H668.203V302H664.766L664.688 299.91ZM677.129 280.867L677.246 283.523C678.861 281.492 680.97 280.477 683.574 280.477C688.04 280.477 690.293 282.996 690.332 288.035V302H686.719V288.016C686.706 286.492 686.354 285.366 685.664 284.637C684.987 283.908 683.926 283.543 682.48 283.543C681.309 283.543 680.28 283.855 679.395 284.48C678.509 285.105 677.819 285.926 677.324 286.941V302H673.711V280.867H677.129ZM694.902 291.258C694.902 288.016 695.671 285.411 697.207 283.445C698.743 281.466 700.755 280.477 703.242 280.477C705.716 280.477 707.676 281.323 709.121 283.016V272H712.734V302H709.414L709.238 299.734C707.793 301.505 705.781 302.391 703.203 302.391C700.755 302.391 698.757 301.388 697.207 299.383C695.671 297.378 694.902 294.76 694.902 291.531V291.258ZM698.516 291.668C698.516 294.064 699.01 295.939 700 297.293C700.99 298.647 702.357 299.324 704.102 299.324C706.393 299.324 708.066 298.296 709.121 296.238V286.531C708.04 284.539 706.38 283.543 704.141 283.543C702.37 283.543 700.99 284.227 700 285.594C699.01 286.961 698.516 288.986 698.516 291.668Z" fill="#1D2026"/>
<rect x="559" y="282" width="46" height="17" rx="4" fill="#1D2026"/>
<rect x="559" y="341" width="31" height="17" rx="4" fill="#1D2026"/>
<rect y="635" width="800" height="18" fill="url(#paint0_radial)"/>
<path d="M458.5 644.18C458.5 676.614 432.506 702.86 400.5 702.86C368.494 702.86 342.5 676.614 342.5 644.18C342.5 611.745 368.494 585.5 400.5 585.5C432.506 585.5 458.5 611.745 458.5 644.18Z" fill="#1D2026" stroke="#F7931A" stroke-width="5"/>
<g filter="url(#filter0_d)">
<path d="M392.348 640.242H397.235C400.305 640.195 402.72 639.387 404.477 637.816C406.235 636.246 407.114 634.125 407.114 631.453C407.114 625.453 404.126 622.453 398.149 622.453C395.337 622.453 393.087 623.262 391.399 624.879C389.735 626.473 388.903 628.594 388.903 631.242H382.399C382.399 627.188 383.876 623.824 386.829 621.152C389.805 618.457 393.579 617.109 398.149 617.109C402.977 617.109 406.762 618.387 409.505 620.941C412.247 623.496 413.618 627.047 413.618 631.594C413.618 633.82 412.891 635.977 411.438 638.062C410.009 640.148 408.052 641.707 405.567 642.738C408.38 643.629 410.548 645.105 412.071 647.168C413.618 649.23 414.391 651.75 414.391 654.727C414.391 659.32 412.891 662.965 409.891 665.66C406.891 668.355 402.989 669.703 398.184 669.703C393.38 669.703 389.466 668.402 386.442 665.801C383.442 663.199 381.942 659.766 381.942 655.5H388.481C388.481 658.195 389.36 660.352 391.118 661.969C392.876 663.586 395.231 664.395 398.184 664.395C401.325 664.395 403.727 663.574 405.391 661.934C407.055 660.293 407.887 657.938 407.887 654.867C407.887 651.891 406.973 649.605 405.145 648.012C403.317 646.418 400.68 645.598 397.235 645.551H392.348V640.242Z" fill="#F8F8F8"/>
</g>
<defs>
<filter id="filter0_d" x="377.942" y="617.109" width="40.4492" height="60.5938" filterUnits="userSpaceOnUse" color-interpolation-filters="sRGB">
<feFlood flood-opacity="0" result="BackgroundImageFix"/>
<feColorMatrix in="SourceAlpha" type="matrix" values="0 0 0 0 0 0 0 0 0 0 0 0 0 0 0 0 0 0 127 0" result="hardAlpha"/>
<feOffset dy="4"/>
<feGaussianBlur stdDeviation="2"/>
<feComposite in2="hardAlpha" operator="out"/>
<feColorMatrix type="matrix" values="0 0 0 0 0 0 0 0 0 0 0 0 0 0 0 0 0 0 0.25 0"/>
<feBlend mode="normal" in2="BackgroundImageFix" result="effect1_dropShadow"/>
<feBlend mode="normal" in="SourceGraphic" in2="effect1_dropShadow" result="shape"/>
</filter>
<radialGradient id="paint0_radial" cx="0" cy="0" r="1" gradientUnits="userSpaceOnUse" gradientTransform="translate(400 644) rotate(90) scale(9 400)">
<stop stop-color="#F7931A"/>
<stop offset="1" stop-color="#F7931A" stop-opacity="0"/>
</radialGradient>
</defs>
</svg>
