<svg width="800" height="743" viewBox="0 0 800 743" fill="none" xmlns="http://www.w3.org/2000/svg">
<rect width="800" height="743" fill="#1D2026"/>
<path d="M195.876 231.247C195.203 231.243 194.536 231.372 193.913 231.626C193.291 231.881 192.724 232.255 192.247 232.729L179.111 245.916V183.254C179.111 181.898 178.573 180.598 177.614 179.639C176.656 178.681 175.356 178.142 174 178.142C172.644 178.142 171.344 178.681 170.386 179.639C169.427 180.598 168.889 181.898 168.889 183.254V245.916L155.753 232.78C154.798 231.811 153.496 231.261 152.135 231.252C150.774 231.242 149.465 231.773 148.496 232.729C147.526 233.685 146.976 234.986 146.967 236.347C146.957 237.708 147.489 239.018 148.444 239.987L174 265.542L199.556 239.987C200.276 239.272 200.768 238.359 200.968 237.363C201.167 236.368 201.066 235.336 200.677 234.398C200.287 233.46 199.628 232.66 198.782 232.099C197.936 231.538 196.942 231.241 195.927 231.247H195.876Z" fill="#F7931A"/>
<path d="M183.558 121.971C188.207 121.974 192.828 122.698 197.256 124.118C197.657 120.713 198.517 117.377 199.811 114.202C194.546 112.577 189.068 111.75 183.558 111.749C173.244 111.665 163.127 114.563 154.422 120.094C145.717 125.625 138.796 133.554 134.491 142.927C122.28 144.441 111.076 150.464 103.078 159.815C95.08 169.165 90.8658 181.167 91.2628 193.465C91.6597 205.763 96.639 217.469 105.223 226.284C113.808 235.1 125.377 240.388 137.66 241.111C136.491 237.804 136.491 234.196 137.66 230.889C127.808 230.107 118.617 225.624 111.937 218.34C105.256 211.056 101.582 201.513 101.654 191.63C101.725 181.747 105.536 172.257 112.321 165.071C119.105 157.884 128.36 153.533 138.222 152.894H141.647L142.822 149.674C145.967 141.446 151.557 134.38 158.84 129.427C166.124 124.473 174.75 121.872 183.558 121.971Z" fill="#F7931A"/>
<path d="M240.036 166.694C235.549 167.292 230.991 167.049 226.593 165.978V167.154L226.184 170.834L229.507 172.367C235.847 175.286 241.002 180.281 244.119 186.526C247.237 192.771 248.13 199.893 246.653 206.714C245.175 213.536 241.415 219.65 235.993 224.045C230.57 228.441 223.811 230.855 216.831 230.889H210.238C211.407 234.196 211.407 237.804 210.238 241.111H216.78C225.534 241.148 234.069 238.374 241.129 233.198C248.189 228.022 253.401 220.716 255.999 212.356C258.597 203.997 258.443 195.024 255.56 186.758C252.677 178.492 247.218 171.369 239.984 166.438L240.036 166.694Z" fill="#F7931A"/>
<path d="M235.333 154.222C249.447 154.222 260.889 142.781 260.889 128.667C260.889 114.553 249.447 103.111 235.333 103.111C221.219 103.111 209.778 114.553 209.778 128.667C209.778 142.781 221.219 154.222 235.333 154.222Z" fill="#F7931A"/>
<path d="M245.437 76H246.563C270 76 289 95.2518 289 119C289 142.748 270 162 246.563 162H245.437C222 162 203 142.748 203 119C203 95.2518 222 76 245.437 76Z" fill="#F7931A"/>
<path d="M245.473 78.7295H246.527C268.476 78.7295 286.27 96.7589 286.27 118.999C286.27 141.24 268.476 159.269 246.527 159.269H245.473C223.524 159.269 205.73 141.24 205.73 118.999C205.73 96.7589 223.524 78.7295 245.473 78.7295Z" fill="black"/>
<path d="M269.2 112.847C270.28 106.25 264.777 102.703 257.252 100.337L259.693 91.4002L253.731 90.0444L251.354 98.7459C249.789 98.3896 248.18 98.0533 246.581 97.7202L248.974 88.9614L243.018 87.6056L240.575 96.5395C239.279 96.27 238.005 96.0035 236.77 95.723L236.776 95.6951L228.557 93.8219L226.972 99.6322C226.972 99.6322 231.394 100.557 231.3 100.614C233.714 101.165 234.152 102.623 234.077 103.778L231.297 113.96C231.463 113.998 231.679 114.054 231.917 114.141L231.288 113.998L227.389 128.261C227.094 128.93 226.345 129.934 224.658 129.553C224.717 129.632 220.326 128.566 220.326 128.566L217.367 134.795L225.125 136.559C226.568 136.889 227.982 137.235 229.372 137.56L226.905 146.601L232.859 147.957L235.303 139.014C236.927 139.416 238.506 139.788 240.051 140.138L237.617 149.04L243.577 150.396L246.043 141.373C256.206 143.129 263.85 142.421 267.063 134.032C269.655 127.277 266.936 123.38 261.589 120.837C265.483 120.015 268.416 117.677 269.199 112.847H269.2ZM255.581 130.276C253.738 137.032 241.278 133.382 237.236 132.464L240.509 120.489C244.549 121.409 257.503 123.231 255.583 130.276H255.581ZM257.423 112.749C255.743 118.894 245.371 115.772 242.005 115.007L244.972 104.146C248.338 104.911 259.175 106.34 257.423 112.749Z" fill="#F7931A" fill-opacity="0.49935"/>
<path d="M217.556 124.051C217.556 123.498 217.493 123.358 218.056 122.8C222.999 117.897 228 113.053 233.072 108.285C234.185 107.238 235.599 106.567 236.826 105.657C240.445 102.972 244.333 100.842 248.463 99.0249C251.57 97.6577 254.684 96.9298 257.973 96.272C258.612 96.1442 259.326 96.3441 259.975 96.272C260.641 96.198 261.227 95.9799 261.852 95.7714C262.252 95.6383 263.255 95.6983 262.979 95.1458" fill="black"/>
<path d="M217.556 124.051C217.556 123.498 217.493 123.358 218.056 122.8C222.999 117.897 228 113.053 233.072 108.285C234.185 107.238 235.599 106.567 236.826 105.657C240.445 102.972 244.333 100.842 248.463 99.0249C251.57 97.6577 254.684 96.9298 257.973 96.272C258.612 96.1442 259.326 96.3441 259.975 96.272C260.641 96.198 261.227 95.9799 261.852 95.7714C262.252 95.6383 263.255 95.6983 262.979 95.1458" stroke="black" stroke-width="0.0254068"/>
<path d="M216.555 136.814C215.846 136.814 216.625 135.601 216.805 135.313C217.579 134.074 218.453 132.772 219.433 131.684C220.25 130.775 221.287 130.123 222.186 129.306C223.208 128.376 224.023 127.228 225.064 126.303C226.362 125.149 227.925 124.42 229.318 123.425C230.73 122.416 231.996 121.265 233.448 120.297C234.176 119.811 234.948 119.371 235.7 118.92C236.581 118.392 237.273 117.432 238.328 117.168C241.082 116.48 243.868 115.325 246.336 113.915C249.817 111.926 253.218 110.192 256.972 108.785C257.636 108.536 258.196 107.985 258.849 107.658C260.969 106.598 263.132 105.489 265.356 104.655C266.692 104.154 268.135 103.979 269.486 103.529C270.859 103.071 272.239 102.428 273.615 102.152C274.407 101.994 275.524 102.011 276.243 101.652" fill="black"/>
<path d="M216.555 136.814C215.846 136.814 216.625 135.601 216.805 135.313C217.579 134.074 218.453 132.772 219.433 131.684C220.25 130.775 221.287 130.123 222.186 129.306C223.208 128.376 224.023 127.228 225.064 126.303C226.362 125.149 227.925 124.42 229.318 123.425C230.73 122.416 231.996 121.265 233.448 120.297C234.176 119.811 234.948 119.371 235.7 118.92C236.581 118.392 237.273 117.432 238.328 117.168C241.082 116.48 243.868 115.325 246.336 113.915C249.817 111.926 253.218 110.192 256.972 108.785C257.636 108.536 258.196 107.985 258.849 107.658C260.969 106.598 263.132 105.489 265.356 104.655C266.692 104.154 268.135 103.979 269.486 103.529C270.859 103.071 272.239 102.428 273.615 102.152C274.407 101.994 275.524 102.011 276.243 101.652" stroke="black" stroke-width="0.0254068"/>
<path d="M228.693 140.945C227.923 140.945 228.946 140.052 229.068 139.944C230.224 138.917 231.505 138.048 232.697 137.066C233.496 136.408 234.154 135.59 234.949 134.939C237.238 133.066 239.932 131.362 242.457 129.808C246.049 127.598 249.845 125.666 253.719 124.052C255.076 123.487 256.409 122.707 257.723 122.05C259.01 121.406 260.423 121.196 261.728 120.674C263.842 119.828 265.996 119.045 268.234 118.672C269.034 118.538 269.782 117.934 270.612 117.796C271.809 117.596 272.952 117.278 274.116 117.045C274.385 116.991 275.276 117.064 275.492 116.92C275.811 116.707 275.643 116.669 276.118 116.669" fill="black"/>
<path d="M228.693 140.945C227.923 140.945 228.946 140.052 229.068 139.944C230.224 138.917 231.505 138.048 232.697 137.066C233.496 136.408 234.154 135.59 234.949 134.939C237.238 133.066 239.932 131.362 242.457 129.808C246.049 127.598 249.845 125.666 253.719 124.052C255.076 123.487 256.409 122.707 257.723 122.05C259.01 121.406 260.423 121.196 261.728 120.674C263.842 119.828 265.996 119.045 268.234 118.672C269.034 118.538 269.782 117.934 270.612 117.796C271.809 117.596 272.952 117.278 274.116 117.045C274.385 116.991 275.276 117.064 275.492 116.92C275.811 116.707 275.643 116.669 276.118 116.669" stroke="black" stroke-width="0.0254068"/>
<path d="M217.556 124.051C217.556 123.498 217.493 123.358 218.056 122.8C222.999 117.897 228 113.053 233.072 108.285C234.185 107.238 235.599 106.567 236.826 105.657C240.445 102.972 244.333 100.842 248.463 99.0249C251.57 97.6577 254.684 96.9298 257.973 96.272C258.612 96.1442 259.326 96.3441 259.975 96.272C260.641 96.198 261.227 95.9799 261.852 95.7714C262.252 95.6383 263.255 95.6983 262.979 95.1458" fill="white"/>
<path d="M217.556 124.051C217.556 123.498 217.493 123.358 218.056 122.8C222.999 117.897 228 113.053 233.072 108.285C234.185 107.238 235.599 106.567 236.826 105.657C240.445 102.972 244.333 100.842 248.463 99.0249C251.57 97.6577 254.684 96.9298 257.973 96.272C258.612 96.1442 259.326 96.3441 259.975 96.272C260.641 96.198 261.227 95.9799 261.852 95.7714C262.252 95.6383 263.255 95.6983 262.979 95.1458" stroke="white" stroke-width="0.0254068"/>
<path d="M216.555 136.814C215.846 136.814 216.625 135.601 216.805 135.313C217.579 134.074 218.453 132.772 219.433 131.684C220.25 130.775 221.287 130.123 222.186 129.306C223.208 128.376 224.023 127.228 225.064 126.303C226.362 125.149 227.925 124.42 229.318 123.425C230.73 122.416 231.996 121.265 233.448 120.297C234.176 119.811 234.948 119.371 235.7 118.92C236.581 118.392 237.273 117.432 238.328 117.168C241.082 116.48 243.868 115.325 246.336 113.915C249.817 111.926 253.218 110.192 256.972 108.785C257.636 108.536 258.196 107.985 258.849 107.658C260.969 106.598 263.132 105.489 265.356 104.655C266.692 104.154 268.135 103.979 269.486 103.529C270.859 103.071 272.239 102.428 273.615 102.152C274.407 101.994 275.524 102.011 276.243 101.652" fill="white"/>
<path d="M216.555 136.814C215.846 136.814 216.625 135.601 216.805 135.313C217.579 134.074 218.453 132.772 219.433 131.684C220.25 130.775 221.287 130.123 222.186 129.306C223.208 128.376 224.023 127.228 225.064 126.303C226.362 125.149 227.925 124.42 229.318 123.425C230.73 122.416 231.996 121.265 233.448 120.297C234.176 119.811 234.948 119.371 235.7 118.92C236.581 118.392 237.273 117.432 238.328 117.168C241.082 116.48 243.868 115.325 246.336 113.915C249.817 111.926 253.218 110.192 256.972 108.785C257.636 108.536 258.196 107.985 258.849 107.658C260.969 106.598 263.132 105.489 265.356 104.655C266.692 104.154 268.135 103.979 269.486 103.529C270.859 103.071 272.239 102.428 273.615 102.152C274.407 101.994 275.524 102.011 276.243 101.652" stroke="white" stroke-width="0.0254068"/>
<path d="M228.693 140.945C227.923 140.945 228.946 140.052 229.068 139.944C230.224 138.917 231.505 138.048 232.697 137.066C233.496 136.408 234.154 135.59 234.949 134.939C237.238 133.066 239.932 131.362 242.457 129.808C246.049 127.598 249.845 125.666 253.719 124.052C255.076 123.487 256.409 122.707 257.723 122.05C259.01 121.406 260.423 121.196 261.728 120.674C263.842 119.828 265.996 119.045 268.234 118.672C269.034 118.538 269.782 117.934 270.612 117.796C271.809 117.596 272.952 117.278 274.116 117.045C274.385 116.991 275.276 117.064 275.492 116.92C275.811 116.707 275.643 116.669 276.118 116.669" fill="white"/>
<path d="M228.693 140.945C227.923 140.945 228.946 140.052 229.068 139.944C230.224 138.917 231.505 138.048 232.697 137.066C233.496 136.408 234.154 135.59 234.949 134.939C237.238 133.066 239.932 131.362 242.457 129.808C246.049 127.598 249.845 125.666 253.719 124.052C255.076 123.487 256.409 122.707 257.723 122.05C259.01 121.406 260.423 121.196 261.728 120.674C263.842 119.828 265.996 119.045 268.234 118.672C269.034 118.538 269.782 117.934 270.612 117.796C271.809 117.596 272.952 117.278 274.116 117.045C274.385 116.991 275.276 117.064 275.492 116.92C275.811 116.707 275.643 116.669 276.118 116.669" stroke="white" stroke-width="0.0254068"/>
<line x1="37" y1="314.5" x2="763" y2="314.5" stroke="white"/>
<path d="M475.595 103.757V130.559H511.034V97.8843L475.595 103.757ZM475.595 163.336L511.034 169.106V136.45H475.595V163.336ZM438.142 130.55H468.099V104.731L438.142 109.694V130.55ZM438.142 157.491L468.099 162.371V136.45H438.142V157.491Z" fill="white"/>
<path d="M730.544 127.99C727.807 133.999 726.498 136.686 722.983 141.996C718.072 149.412 711.138 158.666 702.565 158.729C694.94 158.793 692.972 153.796 682.624 153.878C672.275 153.927 670.119 158.82 662.485 158.743C653.913 158.666 647.349 150.328 642.434 142.926C628.689 122.163 627.238 97.8275 635.733 84.8793C641.743 75.698 651.253 70.3063 660.183 70.3063C669.277 70.3063 674.994 75.2623 682.514 75.2623C689.809 75.2623 694.254 70.2927 704.771 70.2927C712.726 70.2927 721.138 74.5906 727.148 82.0065C707.485 92.69 710.68 120.538 730.544 127.99ZM696.789 62.0055C700.615 57.1357 703.517 50.2645 702.465 43.2571C696.222 43.6792 688.921 47.6322 684.656 52.7515C680.793 57.4125 677.589 64.3382 678.838 71.037C685.649 71.2548 692.697 67.2292 696.789 62.0055Z" fill="white"/>
<path d="M520.835 477.367C519.34 480.677 518.625 482.157 516.705 485.082C514.022 489.167 510.235 494.265 505.552 494.3C501.387 494.335 500.312 491.582 494.66 491.627C489.007 491.655 487.83 494.35 483.66 494.307C478.977 494.265 475.392 489.672 472.707 485.595C465.2 474.157 464.407 460.752 469.047 453.62C472.33 448.562 477.525 445.592 482.402 445.592C487.37 445.592 490.492 448.322 494.6 448.322C498.585 448.322 501.012 445.585 506.757 445.585C511.102 445.585 515.697 447.952 518.98 452.037C508.24 457.922 509.985 473.262 520.835 477.367ZM502.397 441.02C504.487 438.337 506.072 434.552 505.497 430.692C502.087 430.925 498.1 433.102 495.77 435.922C493.66 438.49 491.91 442.305 492.592 445.995C496.312 446.115 500.162 443.897 502.397 441.02Z" fill="white"/>
<g clip-path="url(#clip0)">
<path d="M571.587 117C570.631 117 569.653 117.051 568.642 117.124C542.757 119.177 549.624 146.575 549.238 155.712C548.761 162.386 547.401 167.674 542.807 174.211C537.373 180.646 529.765 191.056 526.155 201.888C524.46 206.982 523.642 212.228 524.409 217.158C524.12 217.372 523.883 217.648 523.715 217.966C522.135 219.62 520.959 221.655 519.668 223.111C518.451 224.328 516.705 224.742 514.785 225.555C512.874 226.386 510.743 227.204 509.498 229.74C508.947 230.893 508.657 232.133 508.685 233.429C508.685 234.623 508.855 235.868 509.02 236.704C509.383 239.143 509.737 241.155 509.259 242.639C507.729 246.796 507.564 249.645 508.616 251.73C509.686 253.788 511.891 254.601 514.353 255.419C519.333 256.636 526.054 256.25 531.369 259.076C537.033 261.947 542.803 263.191 547.396 261.974C548.981 261.619 550.466 260.915 551.745 259.914C553.023 258.913 554.063 257.639 554.788 256.186C558.375 256.163 562.321 254.532 568.619 254.128C572.901 253.765 578.262 255.777 584.408 255.345C584.573 256.186 584.789 256.563 585.125 257.403V257.426C587.513 262.185 591.942 264.34 596.683 263.982C601.391 263.6 606.417 260.706 610.482 255.97C614.359 251.303 620.795 249.337 625.054 246.783C627.185 245.556 628.908 243.912 629.027 241.541C629.17 239.102 627.81 236.566 624.672 233.121V232.519L624.649 232.496C623.597 231.279 623.12 229.221 622.568 226.832C622.04 224.365 621.466 222.022 619.555 220.419C619.169 220.084 618.788 220.01 618.383 219.606C618.044 219.367 617.645 219.227 617.23 219.202C619.863 211.374 618.834 203.601 616.151 196.587C612.899 187.95 607.179 180.417 602.847 175.249C597.964 169.098 593.182 163.264 593.279 154.627C593.444 141.439 594.735 117.064 571.578 117.014L571.587 117ZM574.816 137.86H574.913C576.204 137.86 577.325 138.246 578.478 139.059C579.649 139.891 580.513 141.094 581.156 142.335C581.803 143.915 582.143 145.132 582.185 146.758C582.185 146.643 582.208 146.519 582.208 146.405V147.048C582.208 146.997 582.185 146.956 582.185 146.905L582.162 146.758C582.162 148.247 581.854 149.73 581.257 151.09C580.973 151.864 580.523 152.567 579.938 153.148C579.773 153.056 579.603 152.96 579.41 152.886C578.767 152.597 578.193 152.505 577.664 152.078C577.23 151.904 576.781 151.767 576.323 151.669C576.613 151.315 577.21 150.856 577.449 150.452C577.761 149.685 577.926 148.848 577.977 147.989V147.865C577.99 147.036 577.859 146.211 577.591 145.426C577.329 144.613 576.998 144.2 576.493 143.391C575.965 142.982 575.464 142.578 574.839 142.578H574.747C574.173 142.578 573.668 142.743 573.144 143.391C572.569 143.958 572.142 144.656 571.899 145.426C571.566 146.198 571.379 147.025 571.348 147.865V147.989C571.348 148.536 571.399 149.087 571.463 149.639C570.269 149.234 568.785 148.798 567.733 148.394C567.676 147.99 567.643 147.584 567.636 147.176V147.052C567.59 145.435 567.902 143.827 568.55 142.344C569.051 141.002 569.961 139.849 571.183 139.087C572.23 138.301 573.498 137.869 574.816 137.869V137.86ZM556.68 138.223H556.896C557.76 138.223 558.55 138.513 559.34 139.036C560.245 139.826 560.971 140.805 561.449 141.88C562 143.106 562.308 144.347 562.404 145.973V145.996C562.427 146.809 562.427 147.245 562.381 147.627V148.127L561.88 148.27C560.948 148.605 560.208 149.083 559.459 149.496C559.533 148.945 559.533 148.394 559.482 147.865V147.769C559.414 146.96 559.244 146.552 558.982 145.734C558.786 145.105 558.431 144.537 557.953 144.085C557.652 143.817 557.257 143.678 556.855 143.699H556.708C556.281 143.722 555.918 143.938 555.587 144.512C555.182 144.978 554.925 145.553 554.847 146.166C554.677 146.809 554.627 147.502 554.7 148.201V148.27C554.774 149.11 554.916 149.519 555.201 150.328C555.386 150.951 555.733 151.514 556.207 151.958C556.281 152.032 556.331 152.082 556.423 152.101C555.996 152.464 555.706 152.537 555.353 152.941C555.109 153.111 554.852 153.327 554.54 153.378C553.902 152.612 553.341 151.785 552.863 150.911C552.277 149.623 551.952 148.232 551.907 146.818C551.815 145.436 551.977 144.049 552.385 142.725C552.748 141.531 553.322 140.405 554.131 139.45C554.921 138.637 555.711 138.232 556.689 138.232L556.68 138.223ZM565.078 148.678C567.113 148.678 569.557 149.06 572.519 151.118C574.316 152.344 575.731 152.772 578.983 153.966C580.563 154.807 581.468 155.62 581.923 156.433V155.62C582.141 156.063 582.262 156.548 582.279 157.043C582.296 157.537 582.207 158.029 582.019 158.486C581.252 160.402 578.859 162.437 575.492 163.654V163.677C573.861 164.49 572.428 165.712 570.751 166.525C569.056 167.338 567.136 168.321 564.554 168.156C563.619 168.197 562.685 168.058 561.802 167.747C561.122 167.386 560.466 166.979 559.841 166.53C558.646 165.717 557.617 164.495 556.088 163.682V163.659H556.065C553.598 162.152 552.284 160.521 551.852 159.304C551.448 157.655 551.829 156.437 553.051 155.624C554.411 154.811 555.366 153.971 555.991 153.566C556.634 153.111 556.878 152.942 557.071 152.776H557.094V152.753C558.123 151.508 559.744 149.882 562.239 149.064C563.07 148.848 564.035 148.683 565.082 148.683L565.078 148.678ZM582.208 161.784C584.413 170.471 589.558 183.081 592.861 189.182C594.606 192.457 598.097 199.348 599.604 207.704C600.56 207.681 601.612 207.818 602.742 208.108C606.711 197.868 599.416 186.862 596.09 183.798C594.726 182.58 594.657 181.763 595.323 181.763C598.938 185.015 603.67 191.387 605.392 198.631C606.182 201.906 606.38 205.407 605.539 208.87C605.944 209.036 606.352 209.252 606.784 209.275C613.101 212.559 615.443 215.021 614.318 218.701V218.439C613.964 218.421 613.578 218.439 613.22 218.439H613.124C614.061 215.573 612.003 213.368 606.596 210.928C600.996 208.489 596.522 208.87 595.755 213.777C595.701 214.054 595.67 214.335 595.663 214.617C595.226 214.76 594.799 214.925 594.372 214.998C591.74 216.652 590.325 219.114 589.516 222.275C588.726 225.55 588.487 229.354 588.271 233.736C588.124 235.794 587.219 238.877 586.305 242.01C577.118 248.588 564.366 251.436 553.556 244.068C552.858 242.873 552.045 241.771 551.09 240.792C550.631 240.032 550.059 239.346 549.395 238.757C550.515 238.757 551.476 238.569 552.243 238.349C553.119 237.926 553.808 237.195 554.177 236.295C554.824 234.664 554.177 232.032 552.045 229.161C549.946 226.317 546.353 223.083 541.112 219.859C537.239 217.419 535.062 214.525 534.056 211.314C533.05 208.039 533.192 204.663 533.96 201.245C535.466 194.69 539.32 188.304 541.787 184.303C542.43 183.922 542.003 185.144 539.275 190.289C536.854 194.882 532.287 205.577 538.526 213.878C538.766 207.815 540.112 201.848 542.499 196.27C545.94 188.447 553.171 174.812 553.745 163.999C554.034 164.238 555.063 164.839 555.513 165.244C556.832 166.057 557.833 167.279 559.129 168.092C560.42 169.309 562.046 170.15 564.49 170.15C564.728 170.173 564.944 170.173 565.156 170.173C567.668 170.173 569.635 169.36 571.256 168.542C573.025 167.701 574.467 166.484 575.799 166.08H575.822C578.671 165.267 580.944 163.613 582.212 161.794L582.208 161.784ZM595.608 216.652C595.847 220.332 597.716 224.282 601.015 225.091C604.602 225.904 609.793 223.056 611.971 220.405L613.261 220.355C615.195 220.304 616.803 220.405 618.448 221.986L618.471 222.009C619.739 223.226 620.34 225.261 620.864 227.369C621.392 229.832 621.797 232.152 623.377 233.897C626.34 237.127 627.323 239.446 627.277 240.884C627.181 242.483 626.124 243.296 624.213 244.518C620.359 246.985 613.519 248.873 609.164 254.142C605.379 258.662 600.766 261.124 596.692 261.437C592.626 261.772 589.108 260.219 587.05 255.938L587.027 255.915C585.736 253.471 586.287 249.645 587.362 245.574C588.441 241.481 589.994 237.324 590.21 233.948C590.426 229.57 590.665 225.766 591.381 222.817C592.121 219.969 593.274 217.934 595.332 216.813L595.594 216.666L595.608 216.652ZM529.357 216.96H529.43C529.765 216.96 530.078 216.983 530.386 217.056C532.682 217.392 534.718 219.091 536.656 221.65L542.228 231.844L542.251 231.867C543.735 235.119 546.868 238.371 549.523 241.895C552.183 245.551 554.241 248.827 554.002 251.51V251.56C553.639 256.103 551.057 258.566 547.111 259.48C543.161 260.293 537.8 259.48 532.444 256.632C526.513 253.356 519.452 253.761 514.932 252.943C512.686 252.539 511.202 251.698 510.504 250.481C509.838 249.263 509.81 246.792 511.271 242.942V242.924C511.988 240.866 511.469 238.307 511.106 236.056C510.77 233.612 510.605 231.72 511.367 230.309C512.346 228.251 513.807 227.87 515.598 227.034C517.394 226.221 519.526 225.817 521.198 224.163H521.221V224.14C522.778 222.518 523.954 220.483 525.314 219.018C526.467 217.773 527.634 216.96 529.357 216.96ZM573.218 161.38C570.558 162.598 567.425 164.656 564.099 164.656C560.773 164.656 558.164 163.034 556.276 161.807C555.32 160.976 554.553 160.158 553.979 159.749C552.973 158.941 553.093 157.696 553.524 157.696C554.19 157.788 554.314 158.528 554.742 158.941C555.343 159.345 556.06 160.158 556.942 160.976C558.738 162.193 561.132 163.842 564.095 163.842C567.067 163.842 570.558 162.193 572.662 160.976C573.856 160.163 575.386 158.941 576.631 158.128C577.586 157.287 577.545 156.474 578.326 156.474C579.116 156.571 578.546 157.287 577.444 158.509C576.319 159.35 574.596 160.567 573.213 161.38H573.218ZM566.589 151.669V151.554C566.566 151.43 566.658 151.292 566.777 151.242C567.205 150.98 567.875 151.072 568.358 151.265C568.739 151.265 569.336 151.669 569.29 152.096C569.24 152.386 568.762 152.505 568.449 152.505C568.119 152.505 567.875 152.243 567.59 152.078C567.278 151.981 566.676 152.027 566.584 151.669H566.589ZM563.213 151.669C563.089 152.032 562.514 151.981 562.207 152.078C561.917 152.243 561.678 152.505 561.343 152.505C561.031 152.505 560.53 152.381 560.502 152.078C560.461 151.669 561.031 151.265 561.416 151.265C561.917 151.067 562.537 150.975 563.015 151.242C563.111 151.292 563.236 151.43 563.185 151.554V151.669H563.213Z" fill="white"/>
</g>
<path d="M635.936 479.254C635.936 480.807 637.205 482.076 638.765 482.076H641.999V490.071C641.999 492.096 643.626 493.75 645.625 493.75C647.63 493.75 649.251 492.103 649.251 490.071V482.069H654.895V490.064C654.895 492.09 656.522 493.743 658.521 493.743C660.527 493.743 662.147 492.096 662.147 490.064V482.069H665.381C666.941 482.069 668.21 480.801 668.21 479.247V453.003H635.936V479.254ZM659.65 439.403L662.632 435.087C662.804 434.834 662.764 434.496 662.532 434.33C662.3 434.17 661.968 434.25 661.795 434.502L658.7 438.991C656.662 438.188 654.391 437.743 652.007 437.743C649.623 437.743 647.352 438.188 645.313 438.991L642.218 434.509C642.046 434.257 641.714 434.17 641.481 434.336C641.249 434.496 641.209 434.828 641.382 435.093L644.363 439.41C639.622 441.614 636.302 445.791 635.877 450.672H668.15C667.712 445.785 664.385 441.608 659.65 439.403ZM645.193 446.21C644.84 446.21 644.495 446.105 644.201 445.909C643.907 445.712 643.678 445.433 643.543 445.107C643.408 444.781 643.372 444.421 643.441 444.075C643.51 443.728 643.68 443.41 643.93 443.16C644.18 442.911 644.498 442.74 644.845 442.671C645.191 442.603 645.551 442.638 645.877 442.773C646.203 442.908 646.482 443.137 646.679 443.431C646.875 443.725 646.98 444.07 646.98 444.423C646.978 444.897 646.79 445.35 646.455 445.685C646.12 446.02 645.667 446.209 645.193 446.21ZM659.032 446.21C658.679 446.21 658.334 446.105 658.04 445.909C657.746 445.712 657.517 445.433 657.382 445.107C657.247 444.781 657.212 444.421 657.28 444.075C657.349 443.728 657.519 443.41 657.769 443.16C658.019 442.911 658.337 442.74 658.684 442.671C659.03 442.603 659.39 442.638 659.716 442.773C660.042 442.908 660.321 443.137 660.518 443.431C660.714 443.725 660.819 444.07 660.819 444.423C660.818 444.897 660.629 445.35 660.294 445.685C659.959 446.02 659.506 446.209 659.032 446.21ZM673.868 452.897C671.862 452.897 670.242 454.544 670.242 456.576V470.946C670.242 472.971 671.869 474.625 673.868 474.625C675.873 474.625 677.493 472.978 677.493 470.946V456.569C677.5 454.537 675.88 452.897 673.868 452.897ZM630.132 452.897C628.127 452.897 626.507 454.544 626.507 456.576V470.946C626.507 472.971 628.134 474.625 630.132 474.625C632.138 474.625 633.758 472.978 633.758 470.946V456.569C633.758 454.537 632.131 452.897 630.132 452.897Z" fill="white"/>
<path d="M243.25 428.5L207.25 392.5V415H112.75V442H207.25V464.5L243.25 428.5Z" fill="#F7931A"/>
<path d="M124 527.5C116.557 527.5 110.5 521.092 110.5 513.217H117.25C117.25 516.891 120.278 519.888 124 519.888C127.722 519.888 130.75 516.891 130.75 513.217C130.75 509.543 127.722 506.555 124 506.555C116.557 506.555 110.5 500.151 110.5 492.276C110.5 484.408 116.557 478 124 478C131.443 478 137.5 484.408 137.5 492.279H130.75C130.75 488.604 127.722 485.612 124 485.612C120.278 485.612 117.25 488.604 117.25 492.279C117.25 495.953 120.278 498.945 124 498.945C131.443 498.945 137.5 505.349 137.5 513.219C137.5 521.092 131.443 527.5 124 527.5Z" fill="#F7931A"/>
<path d="M160 527.5C152.557 527.5 146.5 521.092 146.5 513.217V492.276C146.5 484.408 152.557 478 160 478C167.443 478 173.5 484.408 173.5 492.279V513.219C173.5 521.092 167.443 527.5 160 527.5ZM160 485.612C156.278 485.612 153.25 488.604 153.25 492.279V513.219C153.25 516.894 156.278 519.89 160 519.89C163.722 519.89 166.75 516.894 166.75 513.219V492.279C166.75 488.604 163.722 485.612 160 485.612Z" fill="#F7931A"/>
<path d="M196 527.5C188.557 527.5 182.5 521.092 182.5 513.217V492.276C182.5 484.408 188.557 478 196 478C203.443 478 209.5 484.408 209.5 492.279V513.219C209.5 521.092 203.443 527.5 196 527.5ZM196 485.612C192.278 485.612 189.25 488.604 189.25 492.279V513.219C189.25 516.894 192.278 519.89 196 519.89C199.722 519.89 202.75 516.894 202.75 513.219V492.279C202.75 488.604 199.722 485.612 196 485.612Z" fill="#F7931A"/>
<path d="M225.25 495.332L238.408 527.5H245.5V478H238.75V510.164L225.592 478H218.5V527.5H225.25V495.332Z" fill="#F7931A"/>
<path d="M249.667 450C248.694 450 247.762 450.386 247.074 451.074C246.386 451.762 246 452.694 246 453.667V468.333C246 469.306 246.386 470.238 247.074 470.926C247.762 471.614 248.694 472 249.667 472H271.667C272.639 472 273.572 471.614 274.259 470.926C274.947 470.238 275.333 469.306 275.333 468.333V453.667C275.333 452.694 274.947 451.762 274.259 451.074C273.572 450.386 272.639 450 271.667 450H249.667ZM255.708 457.324V466.5H253.524V457.324H250.407V455.5H258.833V457.322H255.708V457.324ZM261.935 459.185V466.5H259.994V455.502H262.21L265.345 462.641H265.417L268.552 455.502H270.75V466.5H268.785V459.185H268.68L266.077 465.123H264.66L262.042 459.181H261.935V459.185Z" fill="white"/>
<g clip-path="url(#clip1)">
<path d="M596.375 408.125C598.53 408.125 600.597 408.981 602.12 410.505C603.644 412.028 604.5 414.095 604.5 416.25V513.75C604.5 515.905 603.644 517.972 602.12 519.495C600.597 521.019 598.53 521.875 596.375 521.875H547.625C545.47 521.875 543.403 521.019 541.88 519.495C540.356 517.972 539.5 515.905 539.5 513.75V416.25C539.5 414.095 540.356 412.028 541.88 410.505C543.403 408.981 545.47 408.125 547.625 408.125H596.375ZM547.625 400C543.315 400 539.182 401.712 536.135 404.76C533.087 407.807 531.375 411.94 531.375 416.25V513.75C531.375 518.06 533.087 522.193 536.135 525.24C539.182 528.288 543.315 530 547.625 530H596.375C600.685 530 604.818 528.288 607.865 525.24C610.913 522.193 612.625 518.06 612.625 513.75V416.25C612.625 411.94 610.913 407.807 607.865 404.76C604.818 401.712 600.685 400 596.375 400H547.625Z" fill="#F8F8F8"/>
<path d="M572 513.75C574.155 513.75 576.222 512.894 577.745 511.37C579.269 509.847 580.125 507.78 580.125 505.625C580.125 503.47 579.269 501.403 577.745 499.88C576.222 498.356 574.155 497.5 572 497.5C569.845 497.5 567.778 498.356 566.255 499.88C564.731 501.403 563.875 503.47 563.875 505.625C563.875 507.78 564.731 509.847 566.255 511.37C567.778 512.894 569.845 513.75 572 513.75Z" fill="#F8F8F8"/>
</g>
<rect y="635" width="800" height="18" fill="url(#paint0_radial)"/>
<path d="M458.5 644.18C458.5 676.614 432.506 702.86 400.5 702.86C368.494 702.86 342.5 676.614 342.5 644.18C342.5 611.745 368.494 585.5 400.5 585.5C432.506 585.5 458.5 611.745 458.5 644.18Z" fill="#1D2026" stroke="#F7931A" stroke-width="5"/>
<g filter="url(#filter0_d)">
<path d="M404.266 669H397.727V625.652L384.614 630.469V624.562L403.247 617.566H404.266V669Z" fill="#F8F8F8"/>
</g>
<defs>
<filter id="filter0_d" x="380.614" y="617.566" width="27.6523" height="59.4336" filterUnits="userSpaceOnUse" color-interpolation-filters="sRGB">
<feFlood flood-opacity="0" result="BackgroundImageFix"/>
<feColorMatrix in="SourceAlpha" type="matrix" values="0 0 0 0 0 0 0 0 0 0 0 0 0 0 0 0 0 0 127 0" result="hardAlpha"/>
<feOffset dy="4"/>
<feGaussianBlur stdDeviation="2"/>
<feComposite in2="hardAlpha" operator="out"/>
<feColorMatrix type="matrix" values="0 0 0 0 0 0 0 0 0 0 0 0 0 0 0 0 0 0 0.25 0"/>
<feBlend mode="normal" in2="BackgroundImageFix" result="effect1_dropShadow"/>
<feBlend mode="normal" in="SourceGraphic" in2="effect1_dropShadow" result="shape"/>
</filter>
<radialGradient id="paint0_radial" cx="0" cy="0" r="1" gradientUnits="userSpaceOnUse" gradientTransform="translate(400 644) rotate(90) scale(9 400)">
<stop stop-color="#F7931A"/>
<stop offset="1" stop-color="#F7931A" stop-opacity="0"/>
</radialGradient>
<clipPath id="clip0">
<rect width="147" height="147" fill="white" transform="translate(495 117)"/>
</clipPath>
<clipPath id="clip1">
<rect width="130" height="130" fill="white" transform="translate(507 400)"/>
</clipPath>
</defs>
</svg>
