<svg width="800" height="743" viewBox="0 0 800 743" fill="none" xmlns="http://www.w3.org/2000/svg">
<rect width="800" height="743" fill="#1D2026"/>
<line x1="144.055" y1="336.674" x2="185.055" y2="217.674" stroke="#C4C4C4" stroke-width="2"/>
<line x1="232.006" y1="494.113" x2="200.006" y2="213.113" stroke="#C4C4C4" stroke-width="2"/>
<line x1="408.152" y1="384.47" x2="540.152" y2="173.47" stroke="#C4C4C4" stroke-width="2"/>
<line x1="359.226" y1="385.634" x2="214.226" y2="208.634" stroke="#C4C4C4" stroke-width="2"/>
<line x1="257.019" y1="495.808" x2="326.019" y2="142.808" stroke="#C4C4C4" stroke-width="2"/>
<path d="M570 454L584.434 429H555.566L570 454ZM570 186L555.566 211H584.434L570 186ZM572.5 431.5V208.5H567.5V431.5H572.5Z" fill="#C4C4C4"/>
<line x1="539.139" y1="466.508" x2="345.139" y2="137.508" stroke="#C4C4C4" stroke-width="2"/>
<line x1="383.019" y1="378.196" x2="335.019" y2="138.196" stroke="#C4C4C4" stroke-width="2"/>
<path d="M189 131.833C177.332 131.982 166.185 136.683 157.934 144.934C149.683 153.185 144.982 164.333 144.833 176C144.888 182.797 146.51 189.489 149.575 195.557C152.639 201.624 157.062 206.902 162.5 210.98V211.333H162.942C170.42 217.064 179.579 220.17 189 220.17C198.421 220.17 207.58 217.064 215.058 211.333H215.5V210.98C220.938 206.902 225.361 201.624 228.425 195.557C231.489 189.489 233.112 182.797 233.167 176C233.018 164.333 228.317 153.185 220.066 144.934C211.815 136.683 200.667 131.982 189 131.833ZM171.642 206.608C172.287 203.655 173.922 201.011 176.276 199.115C178.63 197.219 181.561 196.185 184.583 196.184H193.417C196.439 196.185 199.37 197.219 201.724 199.115C204.078 201.011 205.713 203.655 206.357 206.608C201.097 209.703 195.104 211.335 189 211.335C182.896 211.335 176.903 209.703 171.642 206.608ZM213.777 200.91C212.097 196.895 209.269 193.466 205.646 191.054C202.023 188.641 197.769 187.353 193.417 187.351H184.583C180.231 187.353 175.976 188.641 172.354 191.054C168.731 193.466 165.902 196.895 164.222 200.91C160.913 197.655 158.277 193.78 156.466 189.505C154.655 185.231 153.703 180.642 153.667 176C153.781 166.665 157.541 157.744 164.142 151.142C170.744 144.541 179.665 140.781 189 140.667C198.335 140.781 207.256 144.541 213.858 151.142C220.459 157.744 224.219 166.665 224.333 176C224.296 180.642 223.345 185.231 221.534 189.505C219.723 193.78 217.087 197.655 213.777 200.91Z" fill="#F7931A"/>
<path d="M189 149.5C186.665 149.446 184.343 149.865 182.175 150.734C180.007 151.603 178.038 152.902 176.387 154.553C174.735 156.205 173.436 158.174 172.567 160.342C171.699 162.51 171.279 164.832 171.333 167.167C171.279 169.502 171.699 171.823 172.567 173.991C173.436 176.159 174.735 178.129 176.387 179.78C178.038 181.431 180.007 182.731 182.175 183.599C184.343 184.468 186.665 184.888 189 184.833C191.335 184.888 193.657 184.468 195.825 183.599C197.993 182.731 199.962 181.431 201.613 179.78C203.265 178.129 204.564 176.159 205.433 173.991C206.301 171.823 206.721 169.502 206.667 167.167C206.721 164.832 206.301 162.51 205.433 160.342C204.564 158.174 203.265 156.205 201.613 154.553C199.962 152.902 197.993 151.603 195.825 150.734C193.657 149.865 191.335 149.446 189 149.5ZM189 176C187.825 176.057 186.651 175.867 185.554 175.443C184.456 175.02 183.459 174.371 182.628 173.539C181.796 172.707 181.147 171.711 180.723 170.613C180.299 169.516 180.11 168.342 180.167 167.167C180.11 165.992 180.299 164.818 180.723 163.72C181.147 162.623 181.796 161.626 182.628 160.794C183.459 159.962 184.456 159.314 185.554 158.89C186.651 158.466 187.825 158.277 189 158.333C190.175 158.277 191.349 158.466 192.446 158.89C193.544 159.314 194.54 159.962 195.372 160.794C196.204 161.626 196.853 162.623 197.277 163.72C197.701 164.818 197.89 165.992 197.833 167.167C197.89 168.342 197.701 169.516 197.277 170.613C196.853 171.711 196.204 172.707 195.372 173.539C194.54 174.371 193.544 175.02 192.446 175.443C191.349 175.867 190.175 176.057 189 176Z" fill="#F7931A"/>
<path d="M136.101 145H136.899C153.524 145 167 158.655 167 175.5C167 192.345 153.524 206 136.899 206H136.101C119.477 206 106 192.345 106 175.5C106 158.655 119.477 145 136.101 145Z" fill="#F8F8F8"/>
<path d="M136.126 146.936H136.874C152.443 146.936 165.064 159.724 165.064 175.5C165.064 191.275 152.443 204.063 136.874 204.063H136.126C120.557 204.063 107.937 191.275 107.937 175.5C107.937 159.724 120.557 146.936 136.126 146.936Z" fill="black" fill-opacity="0.88"/>
<path d="M152.956 171.136C153.722 166.456 149.818 163.941 144.481 162.262L146.212 155.923L141.983 154.962L140.298 161.134C139.188 160.881 138.046 160.642 136.912 160.406L138.61 154.194L134.385 153.232L132.652 159.569C131.732 159.378 130.829 159.189 129.953 158.99L129.958 158.97L124.128 157.641L123.003 161.762C123.003 161.762 126.14 162.418 126.073 162.459C127.786 162.849 128.096 163.883 128.043 164.703L126.071 171.925C126.189 171.952 126.342 171.992 126.511 172.054L126.065 171.952L123.299 182.069C123.09 182.543 122.559 183.256 121.362 182.985C121.404 183.041 118.289 182.285 118.289 182.285L116.191 186.703L121.693 187.955C122.717 188.189 123.72 188.434 124.706 188.665L122.956 195.078L127.179 196.039L128.913 189.696C130.065 189.981 131.184 190.245 132.28 190.494L130.554 196.807L134.781 197.769L136.531 191.37C143.739 192.615 149.161 192.112 151.44 186.163C153.279 181.371 151.35 178.607 147.557 176.803C150.319 176.22 152.4 174.561 152.955 171.136H152.956ZM143.296 183.498C141.988 188.29 133.151 185.701 130.284 185.05L132.605 176.556C135.471 177.209 144.659 178.501 143.297 183.498H143.296ZM144.602 171.066C143.41 175.425 136.054 173.211 133.666 172.668L135.771 164.964C138.158 165.507 145.845 166.52 144.602 171.066Z" fill="#F7931A" fill-opacity="0.49935"/>
<path d="M116.324 179.083C116.324 178.691 116.28 178.591 116.679 178.195C120.185 174.718 123.733 171.282 127.33 167.9C128.12 167.157 129.123 166.681 129.993 166.036C132.56 164.131 135.317 162.621 138.247 161.332C140.451 160.362 142.66 159.846 144.993 159.379C145.446 159.288 145.952 159.43 146.413 159.379C146.885 159.326 147.301 159.172 147.744 159.024C148.028 158.93 148.739 158.972 148.543 158.58" fill="black" fill-opacity="0.88"/>
<path d="M116.324 179.083C116.324 178.691 116.28 178.591 116.679 178.195C120.185 174.718 123.733 171.282 127.33 167.9C128.12 167.157 129.123 166.681 129.993 166.036C132.56 164.131 135.317 162.621 138.247 161.332C140.451 160.362 142.66 159.846 144.993 159.379C145.446 159.288 145.952 159.43 146.413 159.379C146.885 159.326 147.301 159.172 147.744 159.024C148.028 158.93 148.739 158.972 148.543 158.58" stroke="black" stroke-opacity="0.88" stroke-width="0.0254068"/>
<path d="M115.614 188.136C115.112 188.136 115.664 187.275 115.792 187.071C116.341 186.192 116.961 185.269 117.656 184.497C118.236 183.852 118.971 183.39 119.608 182.81C120.334 182.151 120.911 181.336 121.65 180.68C122.571 179.861 123.679 179.344 124.668 178.639C125.669 177.923 126.567 177.106 127.597 176.42C128.113 176.075 128.661 175.763 129.194 175.443C129.819 175.068 130.31 174.388 131.058 174.201C133.011 173.712 134.988 172.894 136.738 171.893C139.208 170.482 141.62 169.253 144.283 168.254C144.754 168.078 145.15 167.687 145.614 167.455C147.118 166.703 148.652 165.917 150.229 165.325C151.177 164.97 152.2 164.846 153.158 164.526C154.133 164.201 155.111 163.745 156.087 163.55C156.649 163.438 157.441 163.45 157.951 163.195" fill="black" fill-opacity="0.88"/>
<path d="M115.614 188.136C115.112 188.136 115.664 187.275 115.792 187.071C116.341 186.192 116.961 185.269 117.656 184.497C118.236 183.852 118.971 183.39 119.608 182.81C120.334 182.151 120.911 181.336 121.65 180.68C122.571 179.861 123.679 179.344 124.668 178.639C125.669 177.923 126.567 177.106 127.597 176.42C128.113 176.075 128.661 175.763 129.194 175.443C129.819 175.068 130.31 174.388 131.058 174.201C133.011 173.712 134.988 172.894 136.738 171.893C139.208 170.482 141.62 169.253 144.283 168.254C144.754 168.078 145.15 167.687 145.614 167.455C147.118 166.703 148.652 165.917 150.229 165.325C151.177 164.97 152.2 164.846 153.158 164.526C154.133 164.201 155.111 163.745 156.087 163.55C156.649 163.438 157.441 163.45 157.951 163.195" stroke="black" stroke-opacity="0.88" stroke-width="0.0254068"/>
<path d="M124.224 191.066C123.678 191.066 124.404 190.433 124.49 190.356C125.31 189.627 126.218 189.011 127.064 188.314C127.631 187.847 128.097 187.267 128.662 186.805C130.285 185.477 132.196 184.268 133.987 183.166C136.535 181.598 139.227 180.228 141.975 179.083C142.938 178.683 143.883 178.129 144.815 177.663C145.728 177.207 146.73 177.057 147.656 176.687C149.156 176.087 150.683 175.532 152.271 175.267C152.838 175.172 153.369 174.744 153.957 174.646C154.807 174.504 155.617 174.278 156.443 174.113C156.633 174.075 157.265 174.127 157.419 174.024C157.645 173.874 157.526 173.847 157.863 173.847" fill="black" fill-opacity="0.88"/>
<path d="M124.224 191.066C123.678 191.066 124.404 190.433 124.49 190.356C125.31 189.627 126.218 189.011 127.064 188.314C127.631 187.847 128.097 187.267 128.662 186.805C130.285 185.477 132.196 184.268 133.987 183.166C136.535 181.598 139.227 180.228 141.975 179.083C142.938 178.683 143.883 178.129 144.815 177.663C145.728 177.207 146.73 177.057 147.656 176.687C149.156 176.087 150.683 175.532 152.271 175.267C152.838 175.172 153.369 174.744 153.957 174.646C154.807 174.504 155.617 174.278 156.443 174.113C156.633 174.075 157.265 174.127 157.419 174.024C157.645 173.874 157.526 173.847 157.863 173.847" stroke="black" stroke-opacity="0.88" stroke-width="0.0254068"/>
<path d="M116.324 179.083C116.324 178.691 116.28 178.591 116.679 178.195C120.185 174.718 123.733 171.282 127.33 167.9C128.12 167.157 129.123 166.681 129.993 166.036C132.56 164.131 135.317 162.621 138.247 161.332C140.451 160.362 142.66 159.846 144.993 159.379C145.446 159.288 145.952 159.43 146.413 159.379C146.885 159.326 147.301 159.172 147.744 159.024C148.028 158.93 148.739 158.972 148.543 158.58" fill="white"/>
<path d="M116.324 179.083C116.324 178.691 116.28 178.591 116.679 178.195C120.185 174.718 123.733 171.282 127.33 167.9C128.12 167.157 129.123 166.681 129.993 166.036C132.56 164.131 135.317 162.621 138.247 161.332C140.451 160.362 142.66 159.846 144.993 159.379C145.446 159.288 145.952 159.43 146.413 159.379C146.885 159.326 147.301 159.172 147.744 159.024C148.028 158.93 148.739 158.972 148.543 158.58" stroke="white" stroke-width="0.0254068"/>
<path d="M115.614 188.136C115.112 188.136 115.664 187.275 115.792 187.071C116.341 186.192 116.961 185.269 117.656 184.497C118.236 183.852 118.971 183.39 119.608 182.81C120.334 182.151 120.911 181.336 121.65 180.68C122.571 179.861 123.679 179.344 124.668 178.639C125.669 177.923 126.567 177.106 127.597 176.42C128.113 176.075 128.661 175.763 129.194 175.443C129.819 175.068 130.31 174.388 131.058 174.201C133.011 173.712 134.988 172.894 136.738 171.893C139.208 170.482 141.62 169.253 144.283 168.254C144.754 168.078 145.15 167.687 145.614 167.455C147.118 166.703 148.652 165.917 150.229 165.325C151.177 164.97 152.2 164.846 153.158 164.526C154.133 164.201 155.111 163.745 156.087 163.55C156.649 163.438 157.441 163.45 157.951 163.195" fill="white"/>
<path d="M115.614 188.136C115.112 188.136 115.664 187.275 115.792 187.071C116.341 186.192 116.961 185.269 117.656 184.497C118.236 183.852 118.971 183.39 119.608 182.81C120.334 182.151 120.911 181.336 121.65 180.68C122.571 179.861 123.679 179.344 124.668 178.639C125.669 177.923 126.567 177.106 127.597 176.42C128.113 176.075 128.661 175.763 129.194 175.443C129.819 175.068 130.31 174.388 131.058 174.201C133.011 173.712 134.988 172.894 136.738 171.893C139.208 170.482 141.62 169.253 144.283 168.254C144.754 168.078 145.15 167.687 145.614 167.455C147.118 166.703 148.652 165.917 150.229 165.325C151.177 164.97 152.2 164.846 153.158 164.526C154.133 164.201 155.111 163.745 156.087 163.55C156.649 163.438 157.441 163.45 157.951 163.195" stroke="white" stroke-width="0.0254068"/>
<path d="M124.224 191.066C123.678 191.066 124.404 190.433 124.49 190.356C125.31 189.627 126.218 189.011 127.064 188.314C127.631 187.847 128.097 187.267 128.662 186.805C130.285 185.477 132.196 184.268 133.987 183.166C136.535 181.598 139.227 180.228 141.975 179.083C142.938 178.683 143.883 178.129 144.815 177.663C145.728 177.207 146.73 177.057 147.656 176.687C149.156 176.087 150.683 175.532 152.271 175.267C152.838 175.172 153.369 174.744 153.957 174.646C154.807 174.504 155.617 174.278 156.443 174.113C156.633 174.075 157.265 174.127 157.419 174.024C157.645 173.874 157.526 173.847 157.863 173.847" fill="white"/>
<path d="M124.224 191.066C123.678 191.066 124.404 190.433 124.49 190.356C125.31 189.627 126.218 189.011 127.064 188.314C127.631 187.847 128.097 187.267 128.662 186.805C130.285 185.477 132.196 184.268 133.987 183.166C136.535 181.598 139.227 180.228 141.975 179.083C142.938 178.683 143.883 178.129 144.815 177.663C145.728 177.207 146.73 177.057 147.656 176.687C149.156 176.087 150.683 175.532 152.271 175.267C152.838 175.172 153.369 174.744 153.957 174.646C154.807 174.504 155.617 174.278 156.443 174.113C156.633 174.075 157.265 174.127 157.419 174.024C157.645 173.874 157.526 173.847 157.863 173.847" stroke="white" stroke-width="0.0254068"/>
<path d="M336 54.8333C324.332 54.9821 313.185 59.6832 304.934 67.934C296.683 76.1848 291.982 87.3325 291.833 99C291.888 105.797 293.51 112.489 296.575 118.557C299.639 124.624 304.062 129.902 309.5 133.98V134.333H309.942C317.42 140.064 326.579 143.17 336 143.17C345.421 143.17 354.58 140.064 362.058 134.333H362.5V133.98C367.938 129.902 372.361 124.624 375.425 118.557C378.489 112.489 380.112 105.797 380.167 99C380.018 87.3325 375.317 76.1848 367.066 67.934C358.815 59.6832 347.667 54.9821 336 54.8333ZM318.642 129.608C319.287 126.655 320.922 124.011 323.276 122.115C325.63 120.219 328.561 119.185 331.583 119.184H340.417C343.439 119.185 346.37 120.219 348.724 122.115C351.078 124.011 352.713 126.655 353.357 129.608C348.097 132.703 342.104 134.335 336 134.335C329.896 134.335 323.903 132.703 318.642 129.608ZM360.777 123.91C359.097 119.895 356.269 116.466 352.646 114.054C349.023 111.641 344.769 110.353 340.417 110.351H331.583C327.231 110.353 322.976 111.641 319.354 114.054C315.731 116.466 312.902 119.895 311.222 123.91C307.913 120.655 305.277 116.78 303.466 112.505C301.655 108.231 300.703 103.642 300.667 99C300.781 89.6646 304.541 80.7439 311.142 74.1422C317.744 67.5406 326.665 63.7812 336 63.6667C345.335 63.7812 354.256 67.5406 360.858 74.1422C367.459 80.7439 371.219 89.6646 371.333 99C371.296 103.642 370.345 108.231 368.534 112.505C366.723 116.78 364.087 120.655 360.777 123.91Z" fill="#F7931A"/>
<path d="M336 72.5C333.665 72.4456 331.343 72.8654 329.175 73.734C327.007 74.6025 325.038 75.9019 323.387 77.5533C321.735 79.2048 320.436 81.1741 319.567 83.3421C318.699 85.5101 318.279 87.8318 318.333 90.1666C318.279 92.5015 318.699 94.8232 319.567 96.9912C320.436 99.1592 321.735 101.129 323.387 102.78C325.038 104.431 327.007 105.731 329.175 106.599C331.343 107.468 333.665 107.888 336 107.833C338.335 107.888 340.657 107.468 342.825 106.599C344.993 105.731 346.962 104.431 348.613 102.78C350.265 101.129 351.564 99.1592 352.433 96.9912C353.301 94.8232 353.721 92.5015 353.667 90.1666C353.721 87.8318 353.301 85.5101 352.433 83.3421C351.564 81.1741 350.265 79.2048 348.613 77.5533C346.962 75.9019 344.993 74.6025 342.825 73.734C340.657 72.8654 338.335 72.4456 336 72.5ZM336 99C334.825 99.0568 333.651 98.8672 332.554 98.4434C331.456 98.0196 330.459 97.3709 329.628 96.539C328.796 95.7072 328.147 94.7105 327.723 93.6131C327.299 92.5156 327.11 91.3417 327.167 90.1666C327.11 88.9916 327.299 87.8176 327.723 86.7202C328.147 85.6228 328.796 84.6261 329.628 83.7943C330.459 82.9624 331.456 82.3137 332.554 81.8899C333.651 81.4661 334.825 81.2765 336 81.3333C337.175 81.2765 338.349 81.4661 339.446 81.8899C340.544 82.3137 341.54 82.9624 342.372 83.7943C343.204 84.6261 343.853 85.6228 344.277 86.7202C344.701 87.8176 344.89 88.9916 344.833 90.1666C344.89 91.3417 344.701 92.5156 344.277 93.6131C343.853 94.7105 343.204 95.7072 342.372 96.539C341.54 97.3709 340.544 98.0196 339.446 98.4434C338.349 98.8672 337.175 99.0568 336 99Z" fill="#F7931A"/>
<path d="M278.101 66H278.899C295.524 66 309 79.6553 309 96.5C309 113.345 295.524 127 278.899 127H278.101C261.477 127 248 113.345 248 96.5C248 79.6553 261.477 66 278.101 66Z" fill="#F8F8F8"/>
<path d="M278.126 67.936H278.874C294.443 67.936 307.064 80.7243 307.064 96.4995C307.064 112.275 294.443 125.063 278.874 125.063H278.126C262.557 125.063 249.937 112.275 249.937 96.4995C249.937 80.7243 262.557 67.936 278.126 67.936Z" fill="black" fill-opacity="0.88"/>
<path d="M294.956 92.1358C295.722 87.4563 291.818 84.9407 286.481 83.2624L288.212 76.9234L283.983 75.9617L282.298 82.1337C281.188 81.881 280.046 81.6425 278.912 81.4062L280.61 75.1935L276.385 74.2319L274.652 80.5688C273.732 80.3775 272.829 80.1885 271.953 79.9896L271.958 79.9698L266.128 78.6411L265.003 82.7624C265.003 82.7624 268.14 83.4184 268.073 83.4591C269.786 83.8493 270.096 84.8835 270.043 85.7033L268.071 92.9249C268.189 92.9523 268.342 92.9919 268.511 93.0535L268.065 92.9522L265.299 103.069C265.09 103.543 264.559 104.256 263.362 103.985C263.404 104.041 260.289 103.285 260.289 103.285L258.191 107.703L263.693 108.955C264.717 109.189 265.72 109.434 266.706 109.665L264.956 116.078L269.179 117.039L270.913 110.696C272.065 110.981 273.184 111.245 274.28 111.494L272.554 117.807L276.781 118.769L278.531 112.37C285.739 113.615 291.161 113.112 293.44 107.163C295.279 102.371 293.35 99.6067 289.557 97.8033C292.319 97.2197 294.4 95.5614 294.955 92.1358H294.956ZM285.296 104.498C283.988 109.29 275.151 106.701 272.284 106.05L274.605 97.556C277.471 98.2088 286.659 99.5014 285.297 104.498H285.296ZM286.602 92.0665C285.41 96.4252 278.054 94.2106 275.666 93.6678L277.771 85.9637C280.158 86.5066 287.845 87.52 286.602 92.0665Z" fill="#F7931A" fill-opacity="0.49935"/>
<path d="M258.324 100.083C258.324 99.6907 258.28 99.5913 258.679 99.1954C262.185 95.7179 265.733 92.2821 269.33 88.8997C270.12 88.1573 271.123 87.6812 271.993 87.0357C274.56 85.131 277.317 83.6207 280.247 82.3316C282.451 81.3618 284.66 80.8455 286.993 80.3789C287.446 80.2883 287.952 80.4301 288.413 80.3789C288.885 80.3265 289.301 80.1717 289.744 80.0239C290.028 79.9295 290.739 79.972 290.543 79.5801" fill="black" fill-opacity="0.88"/>
<path d="M258.324 100.083C258.324 99.6907 258.28 99.5913 258.679 99.1954C262.185 95.7179 265.733 92.2821 269.33 88.8997C270.12 88.1573 271.123 87.6812 271.993 87.0357C274.56 85.131 277.317 83.6207 280.247 82.3316C282.451 81.3618 284.66 80.8455 286.993 80.3789C287.446 80.2883 287.952 80.4301 288.413 80.3789C288.885 80.3265 289.301 80.1717 289.744 80.0239C290.028 79.9295 290.739 79.972 290.543 79.5801" stroke="black" stroke-opacity="0.88" stroke-width="0.0254068"/>
<path d="M257.614 109.136C257.112 109.136 257.664 108.275 257.792 108.071C258.341 107.192 258.961 106.269 259.656 105.497C260.236 104.852 260.971 104.39 261.608 103.81C262.334 103.151 262.911 102.336 263.65 101.68C264.571 100.861 265.679 100.344 266.668 99.6385C267.669 98.923 268.567 98.1062 269.597 97.4198C270.113 97.0751 270.661 96.7635 271.194 96.4433C271.819 96.0685 272.31 95.3878 273.058 95.2008C275.011 94.7124 276.988 93.8936 278.738 92.893C281.208 91.4822 283.62 90.2528 286.283 89.2541C286.754 89.0776 287.15 88.687 287.614 88.4553C289.118 87.7034 290.652 86.9167 292.229 86.3251C293.177 85.9698 294.2 85.8458 295.158 85.5263C296.133 85.2015 297.111 84.7452 298.087 84.55C298.649 84.4376 299.441 84.4499 299.951 84.195" fill="black" fill-opacity="0.88"/>
<path d="M257.614 109.136C257.112 109.136 257.664 108.275 257.792 108.071C258.341 107.192 258.961 106.269 259.656 105.497C260.236 104.852 260.971 104.39 261.608 103.81C262.334 103.151 262.911 102.336 263.65 101.68C264.571 100.861 265.679 100.344 266.668 99.6385C267.669 98.923 268.567 98.1062 269.597 97.4198C270.113 97.0751 270.661 96.7635 271.194 96.4433C271.819 96.0685 272.31 95.3878 273.058 95.2008C275.011 94.7124 276.988 93.8936 278.738 92.893C281.208 91.4822 283.62 90.2528 286.283 89.2541C286.754 89.0776 287.15 88.687 287.614 88.4553C289.118 87.7034 290.652 86.9167 292.229 86.3251C293.177 85.9698 294.2 85.8458 295.158 85.5263C296.133 85.2015 297.111 84.7452 298.087 84.55C298.649 84.4376 299.441 84.4499 299.951 84.195" stroke="black" stroke-opacity="0.88" stroke-width="0.0254068"/>
<path d="M266.224 112.066C265.678 112.066 266.404 111.433 266.49 111.356C267.31 110.627 268.218 110.011 269.064 109.314C269.631 108.847 270.097 108.267 270.662 107.805C272.285 106.477 274.196 105.268 275.987 104.166C278.535 102.598 281.227 101.228 283.975 100.083C284.938 99.6825 285.883 99.1294 286.815 98.6634C287.728 98.2069 288.73 98.0573 289.656 97.6871C291.156 97.087 292.683 96.5317 294.271 96.267C294.838 96.1724 295.369 95.7438 295.957 95.6457C296.807 95.5042 297.617 95.2783 298.443 95.1131C298.633 95.075 299.265 95.1268 299.419 95.0243C299.645 94.8737 299.526 94.8469 299.863 94.8469" fill="black" fill-opacity="0.88"/>
<path d="M266.224 112.066C265.678 112.066 266.404 111.433 266.49 111.356C267.31 110.627 268.218 110.011 269.064 109.314C269.631 108.847 270.097 108.267 270.662 107.805C272.285 106.477 274.196 105.268 275.987 104.166C278.535 102.598 281.227 101.228 283.975 100.083C284.938 99.6825 285.883 99.1294 286.815 98.6634C287.728 98.2069 288.73 98.0573 289.656 97.6871C291.156 97.087 292.683 96.5317 294.271 96.267C294.838 96.1724 295.369 95.7438 295.957 95.6457C296.807 95.5042 297.617 95.2783 298.443 95.1131C298.633 95.075 299.265 95.1268 299.419 95.0243C299.645 94.8737 299.526 94.8469 299.863 94.8469" stroke="black" stroke-opacity="0.88" stroke-width="0.0254068"/>
<path d="M258.324 100.083C258.324 99.6907 258.28 99.5913 258.679 99.1954C262.185 95.7179 265.733 92.2821 269.33 88.8997C270.12 88.1573 271.123 87.6812 271.993 87.0357C274.56 85.131 277.317 83.6207 280.247 82.3316C282.451 81.3618 284.66 80.8455 286.993 80.3789C287.446 80.2883 287.952 80.4301 288.413 80.3789C288.885 80.3265 289.301 80.1717 289.744 80.0239C290.028 79.9295 290.739 79.972 290.543 79.5801" fill="white"/>
<path d="M258.324 100.083C258.324 99.6907 258.28 99.5913 258.679 99.1954C262.185 95.7179 265.733 92.2821 269.33 88.8997C270.12 88.1573 271.123 87.6812 271.993 87.0357C274.56 85.131 277.317 83.6207 280.247 82.3316C282.451 81.3618 284.66 80.8455 286.993 80.3789C287.446 80.2883 287.952 80.4301 288.413 80.3789C288.885 80.3265 289.301 80.1717 289.744 80.0239C290.028 79.9295 290.739 79.972 290.543 79.5801" stroke="white" stroke-width="0.0254068"/>
<path d="M257.614 109.136C257.112 109.136 257.664 108.275 257.792 108.071C258.341 107.192 258.961 106.269 259.656 105.497C260.236 104.852 260.971 104.39 261.608 103.81C262.334 103.151 262.911 102.336 263.65 101.68C264.571 100.861 265.679 100.344 266.668 99.6385C267.669 98.923 268.567 98.1062 269.597 97.4198C270.113 97.0751 270.661 96.7635 271.194 96.4433C271.819 96.0685 272.31 95.3878 273.058 95.2008C275.011 94.7124 276.988 93.8936 278.738 92.893C281.208 91.4822 283.62 90.2528 286.283 89.2541C286.754 89.0776 287.15 88.687 287.614 88.4553C289.118 87.7034 290.652 86.9167 292.229 86.3251C293.177 85.9698 294.2 85.8458 295.158 85.5263C296.133 85.2015 297.111 84.7452 298.087 84.55C298.649 84.4376 299.441 84.4499 299.951 84.195" fill="white"/>
<path d="M257.614 109.136C257.112 109.136 257.664 108.275 257.792 108.071C258.341 107.192 258.961 106.269 259.656 105.497C260.236 104.852 260.971 104.39 261.608 103.81C262.334 103.151 262.911 102.336 263.65 101.68C264.571 100.861 265.679 100.344 266.668 99.6385C267.669 98.923 268.567 98.1062 269.597 97.4198C270.113 97.0751 270.661 96.7635 271.194 96.4433C271.819 96.0685 272.31 95.3878 273.058 95.2008C275.011 94.7124 276.988 93.8936 278.738 92.893C281.208 91.4822 283.62 90.2528 286.283 89.2541C286.754 89.0776 287.15 88.687 287.614 88.4553C289.118 87.7034 290.652 86.9167 292.229 86.3251C293.177 85.9698 294.2 85.8458 295.158 85.5263C296.133 85.2015 297.111 84.7452 298.087 84.55C298.649 84.4376 299.441 84.4499 299.951 84.195" stroke="white" stroke-width="0.0254068"/>
<path d="M266.224 112.066C265.678 112.066 266.404 111.433 266.49 111.356C267.31 110.627 268.218 110.011 269.064 109.314C269.631 108.847 270.097 108.267 270.662 107.805C272.285 106.477 274.196 105.268 275.987 104.166C278.535 102.598 281.227 101.228 283.975 100.083C284.938 99.6825 285.883 99.1294 286.815 98.6634C287.728 98.2069 288.73 98.0573 289.656 97.6871C291.156 97.087 292.683 96.5317 294.271 96.267C294.838 96.1724 295.369 95.7438 295.957 95.6457C296.807 95.5042 297.617 95.2783 298.443 95.1131C298.633 95.075 299.265 95.1268 299.419 95.0243C299.645 94.8737 299.526 94.8469 299.863 94.8469" fill="white"/>
<path d="M266.224 112.066C265.678 112.066 266.404 111.433 266.49 111.356C267.31 110.627 268.218 110.011 269.064 109.314C269.631 108.847 270.097 108.267 270.662 107.805C272.285 106.477 274.196 105.268 275.987 104.166C278.535 102.598 281.227 101.228 283.975 100.083C284.938 99.6825 285.883 99.1294 286.815 98.6634C287.728 98.2069 288.73 98.0573 289.656 97.6871C291.156 97.087 292.683 96.5317 294.271 96.267C294.838 96.1724 295.369 95.7438 295.957 95.6457C296.807 95.5042 297.617 95.2783 298.443 95.1131C298.633 95.075 299.265 95.1268 299.419 95.0243C299.645 94.8737 299.526 94.8469 299.863 94.8469" stroke="white" stroke-width="0.0254068"/>
<path d="M570.053 74.1579C555.315 74.3458 541.233 80.284 530.811 90.7061C520.389 101.128 514.451 115.21 514.263 129.947C514.332 138.533 516.382 146.987 520.252 154.651C524.123 162.314 529.71 168.981 536.579 174.133V174.579H537.137C546.583 181.818 558.152 185.74 570.053 185.74C581.953 185.74 593.522 181.818 602.968 174.579H603.526V174.133C610.395 168.981 615.982 162.314 619.853 154.651C623.724 146.987 625.773 138.533 625.842 129.947C625.654 115.21 619.716 101.128 609.294 90.7061C598.872 80.284 584.791 74.3458 570.053 74.1579V74.1579ZM548.127 168.609C548.942 164.88 551.007 161.54 553.98 159.146C556.953 156.751 560.656 155.444 564.474 155.443H575.632C579.449 155.444 583.152 156.751 586.125 159.146C589.098 161.54 591.163 164.88 591.978 168.609C585.333 172.519 577.763 174.581 570.053 174.581C562.343 174.581 554.773 172.519 548.127 168.609V168.609ZM601.351 161.413C599.228 156.341 595.655 152.01 591.079 148.962C586.503 145.915 581.129 144.288 575.632 144.285H564.474C558.976 144.288 553.602 145.915 549.026 148.962C544.45 152.01 540.877 156.341 538.755 161.413C534.574 157.301 531.245 152.406 528.957 147.007C526.669 141.608 525.468 135.811 525.421 129.947C525.566 118.155 530.314 106.887 538.653 98.5481C546.992 90.2092 558.261 85.4605 570.053 85.3158C581.845 85.4605 593.113 90.2092 601.452 98.5481C609.791 106.887 614.54 118.155 614.684 129.947C614.638 135.811 613.436 141.608 611.148 147.007C608.86 152.406 605.531 157.301 601.351 161.413V161.413Z" fill="#F7931A"/>
<path d="M570.052 96.4737C567.103 96.405 564.17 96.9352 561.432 98.0324C558.693 99.1295 556.206 100.771 554.12 102.857C552.034 104.943 550.392 107.43 549.295 110.169C548.198 112.907 547.668 115.84 547.737 118.789C547.668 121.739 548.198 124.671 549.295 127.41C550.392 130.148 552.034 132.636 554.12 134.722C556.206 136.808 558.693 138.449 561.432 139.547C564.17 140.644 567.103 141.174 570.052 141.105C573.002 141.174 575.934 140.644 578.673 139.547C581.411 138.449 583.899 136.808 585.985 134.722C588.071 132.636 589.712 130.148 590.809 127.41C591.907 124.671 592.437 121.739 592.368 118.789C592.437 115.84 591.907 112.907 590.809 110.169C589.712 107.43 588.071 104.943 585.985 102.857C583.899 100.771 581.411 99.1295 578.673 98.0324C575.934 96.9352 573.002 96.405 570.052 96.4737V96.4737ZM570.052 129.947C568.568 130.019 567.085 129.78 565.699 129.244C564.313 128.709 563.054 127.89 562.003 126.839C560.952 125.788 560.133 124.529 559.598 123.143C559.062 121.757 558.823 120.274 558.895 118.789C558.823 117.305 559.062 115.822 559.598 114.436C560.133 113.05 560.952 111.791 562.003 110.74C563.054 109.689 564.313 108.87 565.699 108.335C567.085 107.799 568.568 107.56 570.052 107.632C571.537 107.56 573.02 107.799 574.406 108.335C575.792 108.87 577.051 109.689 578.102 110.74C579.153 111.791 579.972 113.05 580.507 114.436C581.043 115.822 581.282 117.305 581.21 118.789C581.282 120.274 581.043 121.757 580.507 123.143C579.972 124.529 579.153 125.788 578.102 126.839C577.051 127.89 575.792 128.709 574.406 129.244C573.02 129.78 571.537 130.019 570.052 129.947Z" fill="#F7931A"/>
<g clip-path="url(#clip0_8_1124)">
<path d="M505.022 90.5263H506.031C527.03 90.5263 544.053 107.775 544.053 129.053C544.053 150.33 527.03 167.579 506.031 167.579H505.022C484.023 167.579 467 150.33 467 129.053C467 107.775 484.023 90.5263 505.022 90.5263Z" fill="#F8F8F8"/>
<path d="M505.054 92.9718H505.999C525.664 92.9718 541.606 109.125 541.606 129.052C541.606 148.979 525.664 165.132 505.999 165.132H505.054C485.388 165.132 469.446 148.979 469.446 129.052C469.446 109.125 485.388 92.9718 505.054 92.9718Z" fill="black" fill-opacity="0.88"/>
<path d="M526.313 123.54C527.28 117.629 522.349 114.451 515.607 112.331L517.794 104.324L512.453 103.11L510.323 110.906C508.921 110.586 507.48 110.285 506.047 109.987L508.191 102.139L502.854 100.924L500.666 108.929C499.504 108.687 498.363 108.449 497.256 108.197L497.262 108.172L489.898 106.494L488.478 111.7C488.478 111.7 492.439 112.529 492.356 112.58C494.518 113.073 494.911 114.379 494.844 115.415L492.353 124.537C492.502 124.571 492.695 124.621 492.908 124.699L492.345 124.571L488.852 137.35C488.587 137.95 487.916 138.849 486.405 138.508C486.458 138.578 482.523 137.623 482.523 137.623L479.872 143.204L486.823 144.785C488.116 145.081 489.382 145.39 490.628 145.682L488.418 153.782L493.752 154.997L495.942 146.984C497.397 147.345 498.812 147.678 500.196 147.992L498.015 155.967L503.355 157.182L505.565 149.098C514.67 150.671 521.519 150.037 524.398 142.521C526.72 136.468 524.284 132.977 519.493 130.699C522.982 129.962 525.61 127.867 526.311 123.54H526.313ZM514.111 139.156C512.459 145.209 501.295 141.938 497.674 141.116L500.607 130.386C504.226 131.211 515.832 132.844 514.112 139.156H514.111ZM515.761 123.452C514.255 128.958 504.963 126.161 501.946 125.475L504.605 115.744C507.621 116.429 517.33 117.709 515.761 123.452Z" fill="#F7931A" fill-opacity="0.49935"/>
<path d="M480.041 133.578C480.041 133.083 479.986 132.957 480.49 132.457C484.918 128.065 489.399 123.725 493.944 119.452C494.941 118.515 496.208 117.913 497.307 117.098C500.55 114.692 504.033 112.784 507.733 111.156C510.517 109.931 513.307 109.279 516.254 108.689C516.826 108.575 517.466 108.754 518.048 108.689C518.644 108.623 519.169 108.427 519.73 108.241C520.087 108.121 520.986 108.175 520.739 107.68" fill="black" fill-opacity="0.88"/>
<path d="M480.041 133.578C480.041 133.083 479.986 132.957 480.49 132.457C484.918 128.065 489.399 123.725 493.944 119.452C494.941 118.515 496.208 117.913 497.307 117.098C500.55 114.692 504.033 112.784 507.733 111.156C510.517 109.931 513.307 109.279 516.254 108.689C516.826 108.575 517.466 108.754 518.048 108.689C518.644 108.623 519.169 108.427 519.73 108.241C520.087 108.121 520.986 108.175 520.739 107.68" stroke="black" stroke-opacity="0.88" stroke-width="0.0254068"/>
<path d="M479.145 145.013C478.51 145.013 479.207 143.926 479.369 143.668C480.063 142.558 480.846 141.392 481.723 140.417C482.456 139.603 483.384 139.019 484.19 138.287C485.106 137.454 485.836 136.425 486.768 135.596C487.932 134.562 489.332 133.909 490.58 133.017C491.845 132.113 492.979 131.082 494.28 130.214C494.933 129.779 495.624 129.385 496.298 128.981C497.087 128.508 497.707 127.648 498.652 127.412C501.12 126.795 503.616 125.76 505.828 124.496C508.946 122.714 511.993 121.161 515.357 119.9C515.952 119.677 516.453 119.184 517.039 118.891C518.938 117.941 520.876 116.947 522.869 116.2C524.066 115.751 525.358 115.595 526.569 115.191C527.799 114.781 529.035 114.204 530.268 113.958C530.978 113.816 531.979 113.831 532.623 113.509" fill="black" fill-opacity="0.88"/>
<path d="M479.145 145.013C478.51 145.013 479.207 143.926 479.369 143.668C480.063 142.558 480.846 141.392 481.723 140.417C482.456 139.603 483.384 139.019 484.19 138.287C485.106 137.454 485.836 136.425 486.768 135.596C487.932 134.562 489.332 133.909 490.58 133.017C491.845 132.113 492.979 131.082 494.28 130.214C494.933 129.779 495.624 129.385 496.298 128.981C497.087 128.508 497.707 127.648 498.652 127.412C501.12 126.795 503.616 125.76 505.828 124.496C508.946 122.714 511.993 121.161 515.357 119.9C515.952 119.677 516.453 119.184 517.039 118.891C518.938 117.941 520.876 116.947 522.869 116.2C524.066 115.751 525.358 115.595 526.569 115.191C527.799 114.781 529.035 114.204 530.268 113.958C530.978 113.816 531.979 113.831 532.623 113.509" stroke="black" stroke-opacity="0.88" stroke-width="0.0254068"/>
<path d="M490.02 148.714C489.331 148.714 490.247 147.915 490.356 147.818C491.392 146.897 492.539 146.119 493.607 145.239C494.324 144.649 494.913 143.916 495.626 143.333C497.676 141.656 500.09 140.128 502.352 138.736C505.571 136.756 508.972 135.025 512.442 133.579C513.658 133.073 514.853 132.374 516.03 131.785C517.183 131.209 518.449 131.02 519.618 130.552C521.513 129.794 523.442 129.093 525.448 128.758C526.164 128.639 526.834 128.097 527.578 127.974C528.651 127.795 529.674 127.509 530.717 127.301C530.958 127.253 531.756 127.318 531.95 127.189C532.236 126.998 532.085 126.965 532.511 126.965" fill="black" fill-opacity="0.88"/>
<path d="M490.02 148.714C489.331 148.714 490.247 147.915 490.356 147.818C491.392 146.897 492.539 146.119 493.607 145.239C494.324 144.649 494.913 143.916 495.626 143.333C497.676 141.656 500.09 140.128 502.352 138.736C505.571 136.756 508.972 135.025 512.442 133.579C513.658 133.073 514.853 132.374 516.03 131.785C517.183 131.209 518.449 131.02 519.618 130.552C521.513 129.794 523.442 129.093 525.448 128.758C526.164 128.639 526.834 128.097 527.578 127.974C528.651 127.795 529.674 127.509 530.717 127.301C530.958 127.253 531.756 127.318 531.95 127.189C532.236 126.998 532.085 126.965 532.511 126.965" stroke="black" stroke-opacity="0.88" stroke-width="0.0254068"/>
<path d="M480.041 133.578C480.041 133.083 479.986 132.957 480.49 132.457C484.918 128.065 489.399 123.725 493.944 119.452C494.941 118.515 496.208 117.913 497.307 117.098C500.55 114.692 504.033 112.784 507.733 111.156C510.517 109.931 513.307 109.279 516.254 108.689C516.826 108.575 517.466 108.754 518.048 108.689C518.644 108.623 519.169 108.427 519.73 108.241C520.087 108.121 520.986 108.175 520.739 107.68" fill="white"/>
<path d="M480.041 133.578C480.041 133.083 479.986 132.957 480.49 132.457C484.918 128.065 489.399 123.725 493.944 119.452C494.941 118.515 496.208 117.913 497.307 117.098C500.55 114.692 504.033 112.784 507.733 111.156C510.517 109.931 513.307 109.279 516.254 108.689C516.826 108.575 517.466 108.754 518.048 108.689C518.644 108.623 519.169 108.427 519.73 108.241C520.087 108.121 520.986 108.175 520.739 107.68" stroke="white" stroke-width="0.0254068"/>
<path d="M479.145 145.013C478.51 145.013 479.207 143.926 479.369 143.668C480.063 142.558 480.846 141.392 481.723 140.417C482.456 139.603 483.384 139.019 484.19 138.287C485.106 137.454 485.836 136.425 486.768 135.596C487.932 134.562 489.332 133.909 490.58 133.017C491.845 132.113 492.979 131.082 494.28 130.214C494.933 129.779 495.624 129.385 496.298 128.981C497.087 128.508 497.707 127.648 498.652 127.412C501.12 126.795 503.616 125.76 505.828 124.496C508.946 122.714 511.993 121.161 515.357 119.9C515.952 119.677 516.453 119.184 517.039 118.891C518.938 117.941 520.876 116.947 522.869 116.2C524.066 115.751 525.358 115.595 526.569 115.191C527.799 114.781 529.035 114.204 530.268 113.958C530.978 113.816 531.979 113.831 532.623 113.509" fill="white"/>
<path d="M479.145 145.013C478.51 145.013 479.207 143.926 479.369 143.668C480.063 142.558 480.846 141.392 481.723 140.417C482.456 139.603 483.384 139.019 484.19 138.287C485.106 137.454 485.836 136.425 486.768 135.596C487.932 134.562 489.332 133.909 490.58 133.017C491.845 132.113 492.979 131.082 494.28 130.214C494.933 129.779 495.624 129.385 496.298 128.981C497.087 128.508 497.707 127.648 498.652 127.412C501.12 126.795 503.616 125.76 505.828 124.496C508.946 122.714 511.993 121.161 515.357 119.9C515.952 119.677 516.453 119.184 517.039 118.891C518.938 117.941 520.876 116.947 522.869 116.2C524.066 115.751 525.358 115.595 526.569 115.191C527.799 114.781 529.035 114.204 530.268 113.958C530.978 113.816 531.979 113.831 532.623 113.509" stroke="white" stroke-width="0.0254068"/>
<path d="M490.02 148.714C489.331 148.714 490.247 147.915 490.356 147.818C491.392 146.897 492.539 146.119 493.607 145.239C494.324 144.649 494.913 143.916 495.626 143.333C497.676 141.656 500.09 140.128 502.352 138.736C505.571 136.756 508.972 135.025 512.442 133.579C513.658 133.073 514.853 132.374 516.03 131.785C517.183 131.209 518.449 131.02 519.618 130.552C521.513 129.794 523.442 129.093 525.448 128.758C526.164 128.639 526.834 128.097 527.578 127.974C528.651 127.795 529.674 127.509 530.717 127.301C530.958 127.253 531.756 127.318 531.95 127.189C532.236 126.998 532.085 126.965 532.511 126.965" fill="white"/>
<path d="M490.02 148.714C489.331 148.714 490.247 147.915 490.356 147.818C491.392 146.897 492.539 146.119 493.607 145.239C494.324 144.649 494.913 143.916 495.626 143.333C497.676 141.656 500.09 140.128 502.352 138.736C505.571 136.756 508.972 135.025 512.442 133.579C513.658 133.073 514.853 132.374 516.03 131.785C517.183 131.209 518.449 131.02 519.618 130.552C521.513 129.794 523.442 129.093 525.448 128.758C526.164 128.639 526.834 128.097 527.578 127.974C528.651 127.795 529.674 127.509 530.717 127.301C530.958 127.253 531.756 127.318 531.95 127.189C532.236 126.998 532.085 126.965 532.511 126.965" stroke="white" stroke-width="0.0254068"/>
</g>
<path d="M136 336.833C124.332 336.982 113.185 341.683 104.934 349.934C96.6831 358.185 91.982 369.333 91.8333 381C91.8878 387.797 93.5104 394.489 96.5746 400.557C99.6388 406.624 104.062 411.902 109.5 415.98V416.333H109.942C117.42 422.064 126.579 425.17 136 425.17C145.421 425.17 154.58 422.064 162.058 416.333H162.5V415.98C167.938 411.902 172.361 406.624 175.425 400.557C178.489 394.489 180.112 387.797 180.167 381C180.018 369.333 175.317 358.185 167.066 349.934C158.815 341.683 147.667 336.982 136 336.833ZM118.642 411.607C119.287 408.655 120.922 406.011 123.276 404.115C125.63 402.219 128.561 401.185 131.583 401.184H140.417C143.439 401.185 146.37 402.219 148.724 404.115C151.078 406.011 152.713 408.655 153.357 411.607C148.097 414.703 142.104 416.335 136 416.335C129.896 416.335 123.903 414.703 118.642 411.607ZM160.777 405.91C159.097 401.895 156.269 398.466 152.646 396.054C149.023 393.641 144.769 392.353 140.417 392.351H131.583C127.231 392.353 122.976 393.641 119.354 396.054C115.731 398.466 112.902 401.895 111.222 405.91C107.913 402.655 105.277 398.779 103.466 394.505C101.655 390.231 100.703 385.642 100.667 381C100.781 371.665 104.541 362.744 111.142 356.142C117.744 349.541 126.665 345.781 136 345.667C145.335 345.781 154.256 349.541 160.858 356.142C167.459 362.744 171.219 371.665 171.333 381C171.296 385.642 170.345 390.231 168.534 394.505C166.723 398.779 164.087 402.655 160.777 405.91Z" fill="#F8F8F8"/>
<path d="M136 354.5C133.665 354.446 131.343 354.865 129.175 355.734C127.007 356.603 125.038 357.902 123.387 359.553C121.735 361.205 120.436 363.174 119.567 365.342C118.699 367.51 118.279 369.832 118.333 372.167C118.279 374.502 118.699 376.823 119.567 378.991C120.436 381.159 121.735 383.129 123.387 384.78C125.038 386.431 127.007 387.731 129.175 388.599C131.343 389.468 133.665 389.888 136 389.833C138.335 389.888 140.657 389.468 142.825 388.599C144.993 387.731 146.962 386.431 148.613 384.78C150.265 383.129 151.564 381.159 152.433 378.991C153.301 376.823 153.721 374.502 153.667 372.167C153.721 369.832 153.301 367.51 152.433 365.342C151.564 363.174 150.265 361.205 148.613 359.553C146.962 357.902 144.993 356.603 142.825 355.734C140.657 354.865 138.335 354.446 136 354.5ZM136 381C134.825 381.057 133.651 380.867 132.554 380.443C131.456 380.02 130.459 379.371 129.628 378.539C128.796 377.707 128.147 376.711 127.723 375.613C127.299 374.516 127.11 373.342 127.167 372.167C127.11 370.992 127.299 369.818 127.723 368.72C128.147 367.623 128.796 366.626 129.628 365.794C130.459 364.962 131.456 364.314 132.554 363.89C133.651 363.466 134.825 363.277 136 363.333C137.175 363.277 138.349 363.466 139.446 363.89C140.544 364.314 141.54 364.962 142.372 365.794C143.204 366.626 143.853 367.623 144.277 368.72C144.701 369.818 144.89 370.992 144.833 372.167C144.89 373.342 144.701 374.516 144.277 375.613C143.853 376.711 143.204 377.707 142.372 378.539C141.54 379.371 140.544 380.02 139.446 380.443C138.349 380.867 137.175 381.057 136 381Z" fill="#F8F8F8"/>
<path d="M82.1006 348H82.8994C99.5235 348 113 361.655 113 378.5C113 395.345 99.5235 409 82.8994 409H82.1006C65.4765 409 52 395.345 52 378.5C52 361.655 65.4765 348 82.1006 348Z" fill="#F7931A"/>
<path d="M82.126 349.936H82.874C98.4426 349.936 111.064 362.724 111.064 378.5C111.064 394.275 98.4426 407.063 82.874 407.063H82.126C66.5574 407.063 53.9365 394.275 53.9365 378.5C53.9365 362.724 66.5574 349.936 82.126 349.936Z" fill="black"/>
<path d="M98.956 374.136C99.7217 369.456 95.8183 366.941 90.4808 365.262L92.2122 358.923L87.9835 357.962L86.2978 364.134C85.1878 363.881 84.0464 363.642 82.9122 363.406L84.6098 357.194L80.3848 356.232L78.6522 362.569C77.7325 362.378 76.8294 362.188 75.9529 361.99L75.9577 361.97L70.1277 360.641L69.0031 364.762C69.0031 364.762 72.1396 365.418 72.0734 365.459C73.7855 365.849 74.0961 366.883 74.0432 367.703L72.071 374.925C72.189 374.952 72.3418 374.992 72.5106 375.053L72.065 374.952L69.2993 385.069C69.0897 385.543 68.5588 386.256 67.362 385.985C67.4042 386.041 64.2893 385.285 64.2893 385.285L62.1907 389.703L67.6931 390.955C68.7166 391.189 69.7195 391.434 70.7057 391.665L68.9562 398.078L73.1788 399.039L74.9126 392.696C76.0647 392.981 77.1845 393.245 78.2803 393.494L76.5537 399.807L80.781 400.769L82.5305 394.37C89.739 395.615 95.1609 395.112 97.4401 389.163C99.2786 384.371 97.3498 381.607 93.557 379.803C96.3192 379.22 98.3997 377.561 98.9548 374.136H98.956ZM89.296 386.498C87.9884 391.29 79.1507 388.701 76.284 388.05L78.6053 379.556C81.4709 380.209 90.6589 381.501 89.2972 386.498H89.296ZM90.6024 374.066C89.4104 378.425 82.0537 376.211 79.6661 375.668L81.7708 367.964C84.1583 368.507 91.8449 369.52 90.6024 374.066Z" fill="#F7931A" fill-opacity="0.49935"/>
<path d="M62.3243 382.083C62.3243 381.691 62.2803 381.591 62.6793 381.195C66.185 377.718 69.7328 374.282 73.3302 370.9C74.1195 370.157 75.1227 369.681 75.9928 369.036C78.56 367.131 81.3173 365.621 84.2472 364.332C86.4511 363.362 88.6599 362.846 90.9927 362.379C91.4458 362.288 91.9521 362.43 92.4128 362.379C92.8848 362.326 93.3006 362.172 93.7441 362.024C94.0274 361.93 94.7388 361.972 94.543 361.58" fill="black"/>
<path d="M62.3243 382.083C62.3243 381.691 62.2803 381.591 62.6793 381.195C66.185 377.718 69.7328 374.282 73.3302 370.9C74.1195 370.157 75.1227 369.681 75.9928 369.036C78.56 367.131 81.3173 365.621 84.2472 364.332C86.4511 363.362 88.6599 362.846 90.9927 362.379C91.4458 362.288 91.9521 362.43 92.4128 362.379C92.8848 362.326 93.3006 362.172 93.7441 362.024C94.0274 361.93 94.7388 361.972 94.543 361.58" stroke="black" stroke-width="0.0254068"/>
<path d="M61.6144 391.136C61.1119 391.136 61.664 390.275 61.7919 390.071C62.3411 389.192 62.961 388.269 63.6558 387.497C64.2357 386.852 64.9708 386.39 65.6085 385.81C66.3339 385.151 66.9115 384.336 67.6499 383.68C68.5709 382.861 69.6793 382.344 70.6676 381.639C71.6693 380.923 72.5667 380.106 73.5966 379.42C74.1133 379.075 74.6606 378.763 75.1941 378.443C75.8191 378.068 76.3097 377.388 77.058 377.201C79.0115 376.712 80.9877 375.894 82.7385 374.893C85.2076 373.482 87.6197 372.253 90.2828 371.254C90.7536 371.078 91.1505 370.687 91.6141 370.455C93.1179 369.703 94.6521 368.917 96.2295 368.325C97.1769 367.97 98.2001 367.846 99.1585 367.526C100.133 367.201 101.111 366.745 102.087 366.55C102.649 366.438 103.441 366.45 103.951 366.195" fill="black"/>
<path d="M61.6144 391.136C61.1119 391.136 61.664 390.275 61.7919 390.071C62.3411 389.192 62.961 388.269 63.6558 387.497C64.2357 386.852 64.9708 386.39 65.6085 385.81C66.3339 385.151 66.9115 384.336 67.6499 383.68C68.5709 382.861 69.6793 382.344 70.6676 381.639C71.6693 380.923 72.5667 380.106 73.5966 379.42C74.1133 379.075 74.6606 378.763 75.1941 378.443C75.8191 378.068 76.3097 377.388 77.058 377.201C79.0115 376.712 80.9877 375.894 82.7385 374.893C85.2076 373.482 87.6197 372.253 90.2828 371.254C90.7536 371.078 91.1505 370.687 91.6141 370.455C93.1179 369.703 94.6521 368.917 96.2295 368.325C97.1769 367.97 98.2001 367.846 99.1585 367.526C100.133 367.201 101.111 366.745 102.087 366.55C102.649 366.438 103.441 366.45 103.951 366.195" stroke="black" stroke-width="0.0254068"/>
<path d="M70.2239 394.066C69.6783 394.066 70.4037 393.433 70.4903 393.356C71.31 392.627 72.2185 392.011 73.0641 391.314C73.6311 390.847 74.0976 390.267 74.6618 389.805C76.285 388.477 78.1962 387.268 79.9872 386.166C82.5351 384.598 85.2276 383.229 87.9752 382.084C88.9377 381.683 89.8834 381.129 90.8154 380.663C91.7284 380.207 92.7301 380.057 93.6557 379.687C95.1557 379.087 96.683 378.532 98.271 378.267C98.8385 378.172 99.3687 377.744 99.9575 377.646C100.807 377.504 101.617 377.278 102.443 377.113C102.633 377.075 103.265 377.127 103.419 377.024C103.645 376.874 103.526 376.847 103.863 376.847" fill="black"/>
<path d="M70.2239 394.066C69.6783 394.066 70.4037 393.433 70.4903 393.356C71.31 392.627 72.2185 392.011 73.0641 391.314C73.6311 390.847 74.0976 390.267 74.6618 389.805C76.285 388.477 78.1962 387.268 79.9872 386.166C82.5351 384.598 85.2276 383.229 87.9752 382.084C88.9377 381.683 89.8834 381.129 90.8154 380.663C91.7284 380.207 92.7301 380.057 93.6557 379.687C95.1557 379.087 96.683 378.532 98.271 378.267C98.8385 378.172 99.3687 377.744 99.9575 377.646C100.807 377.504 101.617 377.278 102.443 377.113C102.633 377.075 103.265 377.127 103.419 377.024C103.645 376.874 103.526 376.847 103.863 376.847" stroke="black" stroke-width="0.0254068"/>
<path d="M62.3243 382.083C62.3243 381.691 62.2803 381.591 62.6793 381.195C66.185 377.718 69.7328 374.282 73.3302 370.9C74.1195 370.157 75.1227 369.681 75.9928 369.036C78.56 367.131 81.3173 365.621 84.2472 364.332C86.4511 363.362 88.6599 362.846 90.9927 362.379C91.4458 362.288 91.9521 362.43 92.4128 362.379C92.8848 362.326 93.3006 362.172 93.7441 362.024C94.0274 361.93 94.7388 361.972 94.543 361.58" fill="white"/>
<path d="M62.3243 382.083C62.3243 381.691 62.2803 381.591 62.6793 381.195C66.185 377.718 69.7328 374.282 73.3302 370.9C74.1195 370.157 75.1227 369.681 75.9928 369.036C78.56 367.131 81.3173 365.621 84.2472 364.332C86.4511 363.362 88.6599 362.846 90.9927 362.379C91.4458 362.288 91.9521 362.43 92.4128 362.379C92.8848 362.326 93.3006 362.172 93.7441 362.024C94.0274 361.93 94.7388 361.972 94.543 361.58" stroke="white" stroke-width="0.0254068"/>
<path d="M61.6144 391.136C61.1119 391.136 61.664 390.275 61.7919 390.071C62.3411 389.192 62.961 388.269 63.6558 387.497C64.2357 386.852 64.9708 386.39 65.6085 385.81C66.3339 385.151 66.9115 384.336 67.6499 383.68C68.5709 382.861 69.6793 382.344 70.6676 381.639C71.6693 380.923 72.5667 380.106 73.5966 379.42C74.1133 379.075 74.6606 378.763 75.1941 378.443C75.8191 378.068 76.3097 377.388 77.058 377.201C79.0115 376.712 80.9877 375.894 82.7385 374.893C85.2076 373.482 87.6197 372.253 90.2828 371.254C90.7536 371.078 91.1505 370.687 91.6141 370.455C93.1179 369.703 94.6521 368.917 96.2295 368.325C97.1769 367.97 98.2001 367.846 99.1585 367.526C100.133 367.201 101.111 366.745 102.087 366.55C102.649 366.438 103.441 366.45 103.951 366.195" fill="white"/>
<path d="M61.6144 391.136C61.1119 391.136 61.664 390.275 61.7919 390.071C62.3411 389.192 62.961 388.269 63.6558 387.497C64.2357 386.852 64.9708 386.39 65.6085 385.81C66.3339 385.151 66.9115 384.336 67.6499 383.68C68.5709 382.861 69.6793 382.344 70.6676 381.639C71.6693 380.923 72.5667 380.106 73.5966 379.42C74.1133 379.075 74.6606 378.763 75.1941 378.443C75.8191 378.068 76.3097 377.388 77.058 377.201C79.0115 376.712 80.9877 375.894 82.7385 374.893C85.2076 373.482 87.6197 372.253 90.2828 371.254C90.7536 371.078 91.1505 370.687 91.6141 370.455C93.1179 369.703 94.6521 368.917 96.2295 368.325C97.1769 367.97 98.2001 367.846 99.1585 367.526C100.133 367.201 101.111 366.745 102.087 366.55C102.649 366.438 103.441 366.45 103.951 366.195" stroke="white" stroke-width="0.0254068"/>
<path d="M70.2239 394.066C69.6783 394.066 70.4037 393.433 70.4903 393.356C71.31 392.627 72.2185 392.011 73.0641 391.314C73.6311 390.847 74.0976 390.267 74.6618 389.805C76.285 388.477 78.1962 387.268 79.9872 386.166C82.5351 384.598 85.2276 383.229 87.9752 382.084C88.9377 381.683 89.8834 381.129 90.8154 380.663C91.7284 380.207 92.7301 380.057 93.6557 379.687C95.1557 379.087 96.683 378.532 98.271 378.267C98.8385 378.172 99.3687 377.744 99.9575 377.646C100.807 377.504 101.617 377.278 102.443 377.113C102.633 377.075 103.265 377.127 103.419 377.024C103.645 376.874 103.526 376.847 103.863 376.847" fill="white"/>
<path d="M70.2239 394.066C69.6783 394.066 70.4037 393.433 70.4903 393.356C71.31 392.627 72.2185 392.011 73.0641 391.314C73.6311 390.847 74.0976 390.267 74.6618 389.805C76.285 388.477 78.1962 387.268 79.9872 386.166C82.5351 384.598 85.2276 383.229 87.9752 382.084C88.9377 381.683 89.8834 381.129 90.8154 380.663C91.7284 380.207 92.7301 380.057 93.6557 379.687C95.1557 379.087 96.683 378.532 98.271 378.267C98.8385 378.172 99.3687 377.744 99.9575 377.646C100.807 377.504 101.617 377.278 102.443 377.113C102.633 377.075 103.265 377.127 103.419 377.024C103.645 376.874 103.526 376.847 103.863 376.847" stroke="white" stroke-width="0.0254068"/>
<path d="M387 374.833C375.332 374.982 364.185 379.683 355.934 387.934C347.683 396.185 342.982 407.333 342.833 419C342.888 425.797 344.51 432.489 347.575 438.557C350.639 444.624 355.062 449.902 360.5 453.98V454.333H360.942C368.42 460.064 377.579 463.17 387 463.17C396.421 463.17 405.58 460.064 413.058 454.333H413.5V453.98C418.938 449.902 423.361 444.624 426.425 438.557C429.489 432.489 431.112 425.797 431.167 419C431.018 407.333 426.317 396.185 418.066 387.934C409.815 379.683 398.667 374.982 387 374.833ZM369.642 449.607C370.287 446.655 371.922 444.011 374.276 442.115C376.63 440.219 379.561 439.185 382.583 439.184H391.417C394.439 439.185 397.37 440.219 399.724 442.115C402.078 444.011 403.713 446.655 404.357 449.607C399.097 452.703 393.104 454.335 387 454.335C380.896 454.335 374.903 452.703 369.642 449.607ZM411.777 443.91C410.097 439.895 407.269 436.466 403.646 434.054C400.023 431.641 395.769 430.353 391.417 430.351H382.583C378.231 430.353 373.976 431.641 370.354 434.054C366.731 436.466 363.902 439.895 362.222 443.91C358.913 440.655 356.277 436.779 354.466 432.505C352.655 428.231 351.703 423.642 351.667 419C351.781 409.665 355.541 400.744 362.142 394.142C368.744 387.541 377.665 383.781 387 383.667C396.335 383.781 405.256 387.541 411.858 394.142C418.459 400.744 422.219 409.665 422.333 419C422.296 423.642 421.345 428.231 419.534 432.505C417.723 436.779 415.087 440.655 411.777 443.91Z" fill="#F8F8F8"/>
<path d="M387 392.5C384.665 392.446 382.343 392.865 380.175 393.734C378.007 394.603 376.038 395.902 374.387 397.553C372.735 399.205 371.436 401.174 370.567 403.342C369.699 405.51 369.279 407.832 369.333 410.167C369.279 412.502 369.699 414.823 370.567 416.991C371.436 419.159 372.735 421.129 374.387 422.78C376.038 424.431 378.007 425.731 380.175 426.599C382.343 427.468 384.665 427.888 387 427.833C389.335 427.888 391.657 427.468 393.825 426.599C395.993 425.731 397.962 424.431 399.613 422.78C401.265 421.129 402.564 419.159 403.433 416.991C404.301 414.823 404.721 412.502 404.667 410.167C404.721 407.832 404.301 405.51 403.433 403.342C402.564 401.174 401.265 399.205 399.613 397.553C397.962 395.902 395.993 394.603 393.825 393.734C391.657 392.865 389.335 392.446 387 392.5ZM387 419C385.825 419.057 384.651 418.867 383.554 418.443C382.456 418.02 381.459 417.371 380.628 416.539C379.796 415.707 379.147 414.711 378.723 413.613C378.299 412.516 378.11 411.342 378.167 410.167C378.11 408.992 378.299 407.818 378.723 406.72C379.147 405.623 379.796 404.626 380.628 403.794C381.459 402.962 382.456 402.314 383.554 401.89C384.651 401.466 385.825 401.277 387 401.333C388.175 401.277 389.349 401.466 390.446 401.89C391.544 402.314 392.54 402.962 393.372 403.794C394.204 404.626 394.853 405.623 395.277 406.72C395.701 407.818 395.89 408.992 395.833 410.167C395.89 411.342 395.701 412.516 395.277 413.613C394.853 414.711 394.204 415.707 393.372 416.539C392.54 417.371 391.544 418.02 390.446 418.443C389.349 418.867 388.175 419.057 387 419Z" fill="#F8F8F8"/>
<path d="M333.101 388H333.899C350.524 388 364 401.655 364 418.5C364 435.345 350.524 449 333.899 449H333.101C316.477 449 303 435.345 303 418.5C303 401.655 316.477 388 333.101 388Z" fill="#F7931A"/>
<path d="M333.126 389.936H333.874C349.443 389.936 362.064 402.724 362.064 418.5C362.064 434.275 349.443 447.063 333.874 447.063H333.126C317.557 447.063 304.937 434.275 304.937 418.5C304.937 402.724 317.557 389.936 333.126 389.936Z" fill="black"/>
<path d="M349.956 414.136C350.722 409.456 346.818 406.941 341.481 405.262L343.212 398.923L338.983 397.962L337.298 404.134C336.188 403.881 335.046 403.642 333.912 403.406L335.61 397.194L331.385 396.232L329.652 402.569C328.732 402.378 327.829 402.188 326.953 401.99L326.958 401.97L321.128 400.641L320.003 404.762C320.003 404.762 323.14 405.418 323.073 405.459C324.786 405.849 325.096 406.883 325.043 407.703L323.071 414.925C323.189 414.952 323.342 414.992 323.511 415.053L323.065 414.952L320.299 425.069C320.09 425.543 319.559 426.256 318.362 425.985C318.404 426.041 315.289 425.285 315.289 425.285L313.191 429.703L318.693 430.955C319.717 431.189 320.72 431.434 321.706 431.665L319.956 438.078L324.179 439.039L325.913 432.696C327.065 432.981 328.184 433.245 329.28 433.494L327.554 439.807L331.781 440.769L333.531 434.37C340.739 435.615 346.161 435.112 348.44 429.163C350.279 424.371 348.35 421.607 344.557 419.803C347.319 419.22 349.4 417.561 349.955 414.136H349.956ZM340.296 426.498C338.988 431.29 330.151 428.701 327.284 428.05L329.605 419.556C332.471 420.209 341.659 421.501 340.297 426.498H340.296ZM341.602 414.066C340.41 418.425 333.054 416.211 330.666 415.668L332.771 407.964C335.158 408.507 342.845 409.52 341.602 414.066Z" fill="#F7931A" fill-opacity="0.49935"/>
<path d="M313.324 422.083C313.324 421.691 313.28 421.591 313.679 421.195C317.185 417.718 320.733 414.282 324.33 410.9C325.12 410.157 326.123 409.681 326.993 409.036C329.56 407.131 332.317 405.621 335.247 404.332C337.451 403.362 339.66 402.846 341.993 402.379C342.446 402.288 342.952 402.43 343.413 402.379C343.885 402.326 344.301 402.172 344.744 402.024C345.028 401.93 345.739 401.972 345.543 401.58" fill="black"/>
<path d="M313.324 422.083C313.324 421.691 313.28 421.591 313.679 421.195C317.185 417.718 320.733 414.282 324.33 410.9C325.12 410.157 326.123 409.681 326.993 409.036C329.56 407.131 332.317 405.621 335.247 404.332C337.451 403.362 339.66 402.846 341.993 402.379C342.446 402.288 342.952 402.43 343.413 402.379C343.885 402.326 344.301 402.172 344.744 402.024C345.028 401.93 345.739 401.972 345.543 401.58" stroke="black" stroke-width="0.0254068"/>
<path d="M312.614 431.136C312.112 431.136 312.664 430.275 312.792 430.071C313.341 429.192 313.961 428.269 314.656 427.497C315.236 426.852 315.971 426.39 316.608 425.81C317.334 425.151 317.911 424.336 318.65 423.68C319.571 422.861 320.679 422.344 321.668 421.639C322.669 420.923 323.567 420.106 324.597 419.42C325.113 419.075 325.661 418.763 326.194 418.443C326.819 418.068 327.31 417.388 328.058 417.201C330.011 416.712 331.988 415.894 333.738 414.893C336.208 413.482 338.62 412.253 341.283 411.254C341.754 411.078 342.15 410.687 342.614 410.455C344.118 409.703 345.652 408.917 347.229 408.325C348.177 407.97 349.2 407.846 350.158 407.526C351.133 407.201 352.111 406.745 353.087 406.55C353.649 406.438 354.441 406.45 354.951 406.195" fill="black"/>
<path d="M312.614 431.136C312.112 431.136 312.664 430.275 312.792 430.071C313.341 429.192 313.961 428.269 314.656 427.497C315.236 426.852 315.971 426.39 316.608 425.81C317.334 425.151 317.911 424.336 318.65 423.68C319.571 422.861 320.679 422.344 321.668 421.639C322.669 420.923 323.567 420.106 324.597 419.42C325.113 419.075 325.661 418.763 326.194 418.443C326.819 418.068 327.31 417.388 328.058 417.201C330.011 416.712 331.988 415.894 333.738 414.893C336.208 413.482 338.62 412.253 341.283 411.254C341.754 411.078 342.15 410.687 342.614 410.455C344.118 409.703 345.652 408.917 347.229 408.325C348.177 407.97 349.2 407.846 350.158 407.526C351.133 407.201 352.111 406.745 353.087 406.55C353.649 406.438 354.441 406.45 354.951 406.195" stroke="black" stroke-width="0.0254068"/>
<path d="M321.224 434.066C320.678 434.066 321.404 433.433 321.49 433.356C322.31 432.627 323.218 432.011 324.064 431.314C324.631 430.847 325.097 430.267 325.662 429.805C327.285 428.477 329.196 427.268 330.987 426.166C333.535 424.598 336.227 423.229 338.975 422.084C339.938 421.683 340.883 421.129 341.815 420.663C342.728 420.207 343.73 420.057 344.656 419.687C346.156 419.087 347.683 418.532 349.271 418.267C349.838 418.172 350.369 417.744 350.957 417.646C351.807 417.504 352.617 417.278 353.443 417.113C353.633 417.075 354.265 417.127 354.419 417.024C354.645 416.874 354.526 416.847 354.863 416.847" fill="black"/>
<path d="M321.224 434.066C320.678 434.066 321.404 433.433 321.49 433.356C322.31 432.627 323.218 432.011 324.064 431.314C324.631 430.847 325.097 430.267 325.662 429.805C327.285 428.477 329.196 427.268 330.987 426.166C333.535 424.598 336.227 423.229 338.975 422.084C339.938 421.683 340.883 421.129 341.815 420.663C342.728 420.207 343.73 420.057 344.656 419.687C346.156 419.087 347.683 418.532 349.271 418.267C349.838 418.172 350.369 417.744 350.957 417.646C351.807 417.504 352.617 417.278 353.443 417.113C353.633 417.075 354.265 417.127 354.419 417.024C354.645 416.874 354.526 416.847 354.863 416.847" stroke="black" stroke-width="0.0254068"/>
<path d="M313.324 422.083C313.324 421.691 313.28 421.591 313.679 421.195C317.185 417.718 320.733 414.282 324.33 410.9C325.12 410.157 326.123 409.681 326.993 409.036C329.56 407.131 332.317 405.621 335.247 404.332C337.451 403.362 339.66 402.846 341.993 402.379C342.446 402.288 342.952 402.43 343.413 402.379C343.885 402.326 344.301 402.172 344.744 402.024C345.028 401.93 345.739 401.972 345.543 401.58" fill="white"/>
<path d="M313.324 422.083C313.324 421.691 313.28 421.591 313.679 421.195C317.185 417.718 320.733 414.282 324.33 410.9C325.12 410.157 326.123 409.681 326.993 409.036C329.56 407.131 332.317 405.621 335.247 404.332C337.451 403.362 339.66 402.846 341.993 402.379C342.446 402.288 342.952 402.43 343.413 402.379C343.885 402.326 344.301 402.172 344.744 402.024C345.028 401.93 345.739 401.972 345.543 401.58" stroke="white" stroke-width="0.0254068"/>
<path d="M312.614 431.136C312.112 431.136 312.664 430.275 312.792 430.071C313.341 429.192 313.961 428.269 314.656 427.497C315.236 426.852 315.971 426.39 316.608 425.81C317.334 425.151 317.911 424.336 318.65 423.68C319.571 422.861 320.679 422.344 321.668 421.639C322.669 420.923 323.567 420.106 324.597 419.42C325.113 419.075 325.661 418.763 326.194 418.443C326.819 418.068 327.31 417.388 328.058 417.201C330.011 416.712 331.988 415.894 333.738 414.893C336.208 413.482 338.62 412.253 341.283 411.254C341.754 411.078 342.15 410.687 342.614 410.455C344.118 409.703 345.652 408.917 347.229 408.325C348.177 407.97 349.2 407.846 350.158 407.526C351.133 407.201 352.111 406.745 353.087 406.55C353.649 406.438 354.441 406.45 354.951 406.195" fill="white"/>
<path d="M312.614 431.136C312.112 431.136 312.664 430.275 312.792 430.071C313.341 429.192 313.961 428.269 314.656 427.497C315.236 426.852 315.971 426.39 316.608 425.81C317.334 425.151 317.911 424.336 318.65 423.68C319.571 422.861 320.679 422.344 321.668 421.639C322.669 420.923 323.567 420.106 324.597 419.42C325.113 419.075 325.661 418.763 326.194 418.443C326.819 418.068 327.31 417.388 328.058 417.201C330.011 416.712 331.988 415.894 333.738 414.893C336.208 413.482 338.62 412.253 341.283 411.254C341.754 411.078 342.15 410.687 342.614 410.455C344.118 409.703 345.652 408.917 347.229 408.325C348.177 407.97 349.2 407.846 350.158 407.526C351.133 407.201 352.111 406.745 353.087 406.55C353.649 406.438 354.441 406.45 354.951 406.195" stroke="white" stroke-width="0.0254068"/>
<path d="M321.224 434.066C320.678 434.066 321.404 433.433 321.49 433.356C322.31 432.627 323.218 432.011 324.064 431.314C324.631 430.847 325.097 430.267 325.662 429.805C327.285 428.477 329.196 427.268 330.987 426.166C333.535 424.598 336.227 423.229 338.975 422.084C339.938 421.683 340.883 421.129 341.815 420.663C342.728 420.207 343.73 420.057 344.656 419.687C346.156 419.087 347.683 418.532 349.271 418.267C349.838 418.172 350.369 417.744 350.957 417.646C351.807 417.504 352.617 417.278 353.443 417.113C353.633 417.075 354.265 417.127 354.419 417.024C354.645 416.874 354.526 416.847 354.863 416.847" fill="white"/>
<path d="M321.224 434.066C320.678 434.066 321.404 433.433 321.49 433.356C322.31 432.627 323.218 432.011 324.064 431.314C324.631 430.847 325.097 430.267 325.662 429.805C327.285 428.477 329.196 427.268 330.987 426.166C333.535 424.598 336.227 423.229 338.975 422.084C339.938 421.683 340.883 421.129 341.815 420.663C342.728 420.207 343.73 420.057 344.656 419.687C346.156 419.087 347.683 418.532 349.271 418.267C349.838 418.172 350.369 417.744 350.957 417.646C351.807 417.504 352.617 417.278 353.443 417.113C353.633 417.075 354.265 417.127 354.419 417.024C354.645 416.874 354.526 416.847 354.863 416.847" stroke="white" stroke-width="0.0254068"/>
<path d="M239 489.833C227.332 489.982 216.185 494.683 207.934 502.934C199.683 511.185 194.982 522.333 194.833 534C194.888 540.797 196.51 547.489 199.575 553.557C202.639 559.624 207.062 564.902 212.5 568.98V569.333H212.942C220.42 575.064 229.579 578.17 239 578.17C248.421 578.17 257.58 575.064 265.058 569.333H265.5V568.98C270.938 564.902 275.361 559.624 278.425 553.557C281.489 547.489 283.112 540.797 283.167 534C283.018 522.333 278.317 511.185 270.066 502.934C261.815 494.683 250.667 489.982 239 489.833ZM221.642 564.607C222.287 561.655 223.922 559.011 226.276 557.115C228.63 555.219 231.561 554.185 234.583 554.184H243.417C246.439 554.185 249.37 555.219 251.724 557.115C254.078 559.011 255.713 561.655 256.357 564.607C251.097 567.703 245.104 569.335 239 569.335C232.896 569.335 226.903 567.703 221.642 564.607ZM263.777 558.91C262.097 554.895 259.269 551.466 255.646 549.054C252.023 546.641 247.769 545.353 243.417 545.351H234.583C230.231 545.353 225.976 546.641 222.354 549.054C218.731 551.466 215.902 554.895 214.222 558.91C210.913 555.655 208.277 551.779 206.466 547.505C204.655 543.231 203.703 538.642 203.667 534C203.781 524.665 207.541 515.744 214.142 509.142C220.744 502.541 229.665 498.781 239 498.667C248.335 498.781 257.256 502.541 263.858 509.142C270.459 515.744 274.219 524.665 274.333 534C274.296 538.642 273.345 543.231 271.534 547.505C269.723 551.779 267.087 555.655 263.777 558.91Z" fill="#F8F8F8"/>
<path d="M239 507.5C236.665 507.446 234.343 507.865 232.175 508.734C230.007 509.603 228.038 510.902 226.387 512.553C224.735 514.205 223.436 516.174 222.567 518.342C221.699 520.51 221.279 522.832 221.333 525.167C221.279 527.502 221.699 529.823 222.567 531.991C223.436 534.159 224.735 536.129 226.387 537.78C228.038 539.431 230.007 540.731 232.175 541.599C234.343 542.468 236.665 542.888 239 542.833C241.335 542.888 243.657 542.468 245.825 541.599C247.993 540.731 249.962 539.431 251.613 537.78C253.265 536.129 254.564 534.159 255.433 531.991C256.301 529.823 256.721 527.502 256.667 525.167C256.721 522.832 256.301 520.51 255.433 518.342C254.564 516.174 253.265 514.205 251.613 512.553C249.962 510.902 247.993 509.603 245.825 508.734C243.657 507.865 241.335 507.446 239 507.5ZM239 534C237.825 534.057 236.651 533.867 235.554 533.443C234.456 533.02 233.459 532.371 232.628 531.539C231.796 530.707 231.147 529.711 230.723 528.613C230.299 527.516 230.11 526.342 230.167 525.167C230.11 523.992 230.299 522.818 230.723 521.72C231.147 520.623 231.796 519.626 232.628 518.794C233.459 517.962 234.456 517.314 235.554 516.89C236.651 516.466 237.825 516.277 239 516.333C240.175 516.277 241.349 516.466 242.446 516.89C243.544 517.314 244.54 517.962 245.372 518.794C246.204 519.626 246.853 520.623 247.277 521.72C247.701 522.818 247.89 523.992 247.833 525.167C247.89 526.342 247.701 527.516 247.277 528.613C246.853 529.711 246.204 530.707 245.372 531.539C244.54 532.371 243.544 533.02 242.446 533.443C241.349 533.867 240.175 534.057 239 534Z" fill="#F8F8F8"/>
<path d="M184.101 500H184.899C201.524 500 215 513.655 215 530.5C215 547.345 201.524 561 184.899 561H184.101C167.477 561 154 547.345 154 530.5C154 513.655 167.477 500 184.101 500Z" fill="#F7931A"/>
<path d="M184.126 501.936H184.874C200.443 501.936 213.064 514.724 213.064 530.5C213.064 546.275 200.443 559.063 184.874 559.063H184.126C168.557 559.063 155.937 546.275 155.937 530.5C155.937 514.724 168.557 501.936 184.126 501.936Z" fill="black"/>
<path d="M200.956 526.136C201.722 521.456 197.818 518.941 192.481 517.262L194.212 510.923L189.983 509.962L188.298 516.134C187.188 515.881 186.046 515.642 184.912 515.406L186.61 509.194L182.385 508.232L180.652 514.569C179.732 514.378 178.829 514.188 177.953 513.99L177.958 513.97L172.128 512.641L171.003 516.762C171.003 516.762 174.14 517.418 174.073 517.459C175.786 517.849 176.096 518.883 176.043 519.703L174.071 526.925C174.189 526.952 174.342 526.992 174.511 527.053L174.065 526.952L171.299 537.069C171.09 537.543 170.559 538.256 169.362 537.985C169.404 538.041 166.289 537.285 166.289 537.285L164.191 541.703L169.693 542.955C170.717 543.189 171.72 543.434 172.706 543.665L170.956 550.078L175.179 551.039L176.913 544.696C178.065 544.981 179.184 545.245 180.28 545.494L178.554 551.807L182.781 552.769L184.531 546.37C191.739 547.615 197.161 547.112 199.44 541.163C201.279 536.371 199.35 533.607 195.557 531.803C198.319 531.22 200.4 529.561 200.955 526.136H200.956ZM191.296 538.498C189.988 543.29 181.151 540.701 178.284 540.05L180.605 531.556C183.471 532.209 192.659 533.501 191.297 538.498H191.296ZM192.602 526.066C191.41 530.425 184.054 528.211 181.666 527.668L183.771 519.964C186.158 520.507 193.845 521.52 192.602 526.066Z" fill="#F7931A" fill-opacity="0.49935"/>
<path d="M164.324 534.083C164.324 533.691 164.28 533.591 164.679 533.195C168.185 529.718 171.733 526.282 175.33 522.9C176.12 522.157 177.123 521.681 177.993 521.036C180.56 519.131 183.317 517.621 186.247 516.332C188.451 515.362 190.66 514.846 192.993 514.379C193.446 514.288 193.952 514.43 194.413 514.379C194.885 514.326 195.301 514.172 195.744 514.024C196.028 513.93 196.739 513.972 196.543 513.58" fill="black"/>
<path d="M164.324 534.083C164.324 533.691 164.28 533.591 164.679 533.195C168.185 529.718 171.733 526.282 175.33 522.9C176.12 522.157 177.123 521.681 177.993 521.036C180.56 519.131 183.317 517.621 186.247 516.332C188.451 515.362 190.66 514.846 192.993 514.379C193.446 514.288 193.952 514.43 194.413 514.379C194.885 514.326 195.301 514.172 195.744 514.024C196.028 513.93 196.739 513.972 196.543 513.58" stroke="black" stroke-width="0.0254068"/>
<path d="M163.614 543.136C163.112 543.136 163.664 542.275 163.792 542.071C164.341 541.192 164.961 540.269 165.656 539.497C166.236 538.852 166.971 538.39 167.608 537.81C168.334 537.151 168.911 536.336 169.65 535.68C170.571 534.861 171.679 534.344 172.668 533.639C173.669 532.923 174.567 532.106 175.597 531.42C176.113 531.075 176.661 530.763 177.194 530.443C177.819 530.068 178.31 529.388 179.058 529.201C181.011 528.712 182.988 527.894 184.738 526.893C187.208 525.482 189.62 524.253 192.283 523.254C192.754 523.078 193.15 522.687 193.614 522.455C195.118 521.703 196.652 520.917 198.229 520.325C199.177 519.97 200.2 519.846 201.158 519.526C202.133 519.201 203.111 518.745 204.087 518.55C204.649 518.438 205.441 518.45 205.951 518.195" fill="black"/>
<path d="M163.614 543.136C163.112 543.136 163.664 542.275 163.792 542.071C164.341 541.192 164.961 540.269 165.656 539.497C166.236 538.852 166.971 538.39 167.608 537.81C168.334 537.151 168.911 536.336 169.65 535.68C170.571 534.861 171.679 534.344 172.668 533.639C173.669 532.923 174.567 532.106 175.597 531.42C176.113 531.075 176.661 530.763 177.194 530.443C177.819 530.068 178.31 529.388 179.058 529.201C181.011 528.712 182.988 527.894 184.738 526.893C187.208 525.482 189.62 524.253 192.283 523.254C192.754 523.078 193.15 522.687 193.614 522.455C195.118 521.703 196.652 520.917 198.229 520.325C199.177 519.97 200.2 519.846 201.158 519.526C202.133 519.201 203.111 518.745 204.087 518.55C204.649 518.438 205.441 518.45 205.951 518.195" stroke="black" stroke-width="0.0254068"/>
<path d="M172.224 546.066C171.678 546.066 172.404 545.433 172.49 545.356C173.31 544.627 174.218 544.011 175.064 543.314C175.631 542.847 176.097 542.267 176.662 541.805C178.285 540.477 180.196 539.268 181.987 538.166C184.535 536.598 187.227 535.229 189.975 534.084C190.938 533.683 191.883 533.129 192.815 532.663C193.728 532.207 194.73 532.057 195.656 531.687C197.156 531.087 198.683 530.532 200.271 530.267C200.838 530.172 201.369 529.744 201.957 529.646C202.807 529.504 203.617 529.278 204.443 529.113C204.633 529.075 205.265 529.127 205.419 529.024C205.645 528.874 205.526 528.847 205.863 528.847" fill="black"/>
<path d="M172.224 546.066C171.678 546.066 172.404 545.433 172.49 545.356C173.31 544.627 174.218 544.011 175.064 543.314C175.631 542.847 176.097 542.267 176.662 541.805C178.285 540.477 180.196 539.268 181.987 538.166C184.535 536.598 187.227 535.229 189.975 534.084C190.938 533.683 191.883 533.129 192.815 532.663C193.728 532.207 194.73 532.057 195.656 531.687C197.156 531.087 198.683 530.532 200.271 530.267C200.838 530.172 201.369 529.744 201.957 529.646C202.807 529.504 203.617 529.278 204.443 529.113C204.633 529.075 205.265 529.127 205.419 529.024C205.645 528.874 205.526 528.847 205.863 528.847" stroke="black" stroke-width="0.0254068"/>
<path d="M164.324 534.083C164.324 533.691 164.28 533.591 164.679 533.195C168.185 529.718 171.733 526.282 175.33 522.9C176.12 522.157 177.123 521.681 177.993 521.036C180.56 519.131 183.317 517.621 186.247 516.332C188.451 515.362 190.66 514.846 192.993 514.379C193.446 514.288 193.952 514.43 194.413 514.379C194.885 514.326 195.301 514.172 195.744 514.024C196.028 513.93 196.739 513.972 196.543 513.58" fill="white"/>
<path d="M164.324 534.083C164.324 533.691 164.28 533.591 164.679 533.195C168.185 529.718 171.733 526.282 175.33 522.9C176.12 522.157 177.123 521.681 177.993 521.036C180.56 519.131 183.317 517.621 186.247 516.332C188.451 515.362 190.66 514.846 192.993 514.379C193.446 514.288 193.952 514.43 194.413 514.379C194.885 514.326 195.301 514.172 195.744 514.024C196.028 513.93 196.739 513.972 196.543 513.58" stroke="white" stroke-width="0.0254068"/>
<path d="M163.614 543.136C163.112 543.136 163.664 542.275 163.792 542.071C164.341 541.192 164.961 540.269 165.656 539.497C166.236 538.852 166.971 538.39 167.608 537.81C168.334 537.151 168.911 536.336 169.65 535.68C170.571 534.861 171.679 534.344 172.668 533.639C173.669 532.923 174.567 532.106 175.597 531.42C176.113 531.075 176.661 530.763 177.194 530.443C177.819 530.068 178.31 529.388 179.058 529.201C181.011 528.712 182.988 527.894 184.738 526.893C187.208 525.482 189.62 524.253 192.283 523.254C192.754 523.078 193.15 522.687 193.614 522.455C195.118 521.703 196.652 520.917 198.229 520.325C199.177 519.97 200.2 519.846 201.158 519.526C202.133 519.201 203.111 518.745 204.087 518.55C204.649 518.438 205.441 518.45 205.951 518.195" fill="white"/>
<path d="M163.614 543.136C163.112 543.136 163.664 542.275 163.792 542.071C164.341 541.192 164.961 540.269 165.656 539.497C166.236 538.852 166.971 538.39 167.608 537.81C168.334 537.151 168.911 536.336 169.65 535.68C170.571 534.861 171.679 534.344 172.668 533.639C173.669 532.923 174.567 532.106 175.597 531.42C176.113 531.075 176.661 530.763 177.194 530.443C177.819 530.068 178.31 529.388 179.058 529.201C181.011 528.712 182.988 527.894 184.738 526.893C187.208 525.482 189.62 524.253 192.283 523.254C192.754 523.078 193.15 522.687 193.614 522.455C195.118 521.703 196.652 520.917 198.229 520.325C199.177 519.97 200.2 519.846 201.158 519.526C202.133 519.201 203.111 518.745 204.087 518.55C204.649 518.438 205.441 518.45 205.951 518.195" stroke="white" stroke-width="0.0254068"/>
<path d="M172.224 546.066C171.678 546.066 172.404 545.433 172.49 545.356C173.31 544.627 174.218 544.011 175.064 543.314C175.631 542.847 176.097 542.267 176.662 541.805C178.285 540.477 180.196 539.268 181.987 538.166C184.535 536.598 187.227 535.229 189.975 534.084C190.938 533.683 191.883 533.129 192.815 532.663C193.728 532.207 194.73 532.057 195.656 531.687C197.156 531.087 198.683 530.532 200.271 530.267C200.838 530.172 201.369 529.744 201.957 529.646C202.807 529.504 203.617 529.278 204.443 529.113C204.633 529.075 205.265 529.127 205.419 529.024C205.645 528.874 205.526 528.847 205.863 528.847" fill="white"/>
<path d="M172.224 546.066C171.678 546.066 172.404 545.433 172.49 545.356C173.31 544.627 174.218 544.011 175.064 543.314C175.631 542.847 176.097 542.267 176.662 541.805C178.285 540.477 180.196 539.268 181.987 538.166C184.535 536.598 187.227 535.229 189.975 534.084C190.938 533.683 191.883 533.129 192.815 532.663C193.728 532.207 194.73 532.057 195.656 531.687C197.156 531.087 198.683 530.532 200.271 530.267C200.838 530.172 201.369 529.744 201.957 529.646C202.807 529.504 203.617 529.278 204.443 529.113C204.633 529.075 205.265 529.127 205.419 529.024C205.645 528.874 205.526 528.847 205.863 528.847" stroke="white" stroke-width="0.0254068"/>
<path d="M570.053 453.947C555.315 454.135 541.233 460.073 530.811 470.496C520.389 480.918 514.451 494.999 514.263 509.737C514.332 518.322 516.382 526.776 520.252 534.44C524.123 542.104 529.71 548.771 536.579 553.922V554.368H537.137C546.583 561.607 558.152 565.53 570.053 565.53C581.953 565.53 593.522 561.607 602.968 554.368H603.526V553.922C610.395 548.771 615.982 542.104 619.853 534.44C623.724 526.776 625.773 518.322 625.842 509.737C625.654 494.999 619.716 480.918 609.294 470.496C598.872 460.073 584.791 454.135 570.053 453.947V453.947ZM548.127 548.399C548.942 544.669 551.007 541.33 553.98 538.935C556.953 536.54 560.656 535.234 564.474 535.233H575.632C579.449 535.234 583.152 536.54 586.125 538.935C589.098 541.33 591.163 544.669 591.978 548.399C585.333 552.309 577.763 554.37 570.053 554.37C562.343 554.37 554.773 552.309 548.127 548.399V548.399ZM601.351 541.202C599.228 536.131 595.655 531.799 591.079 528.752C586.503 525.705 581.129 524.077 575.632 524.075H564.474C558.976 524.077 553.602 525.705 549.026 528.752C544.45 531.799 540.877 536.131 538.755 541.202C534.574 537.09 531.245 532.195 528.957 526.796C526.669 521.397 525.468 515.6 525.421 509.737C525.566 497.945 530.314 486.676 538.653 478.338C546.992 469.999 558.261 465.25 570.053 465.105C581.845 465.25 593.113 469.999 601.452 478.338C609.791 486.676 614.54 497.945 614.684 509.737C614.638 515.6 613.436 521.397 611.148 526.796C608.86 532.195 605.531 537.09 601.351 541.202V541.202Z" fill="#F8F8F8"/>
<path d="M570.052 476.263C567.103 476.194 564.17 476.725 561.432 477.822C558.693 478.919 556.206 480.56 554.12 482.646C552.034 484.732 550.392 487.22 549.295 489.958C548.198 492.697 547.668 495.63 547.737 498.579C547.668 501.528 548.198 504.461 549.295 507.199C550.392 509.938 552.034 512.425 554.12 514.512C556.206 516.598 558.693 518.239 561.432 519.336C564.17 520.433 567.103 520.963 570.052 520.895C573.002 520.963 575.934 520.433 578.673 519.336C581.411 518.239 583.899 516.598 585.985 514.512C588.071 512.425 589.712 509.938 590.81 507.199C591.907 504.461 592.437 501.528 592.368 498.579C592.437 495.63 591.907 492.697 590.81 489.958C589.712 487.22 588.071 484.732 585.985 482.646C583.899 480.56 581.411 478.919 578.673 477.822C575.934 476.725 573.002 476.194 570.052 476.263V476.263ZM570.052 509.737C568.568 509.809 567.085 509.569 565.699 509.034C564.313 508.498 563.054 507.679 562.003 506.628C560.952 505.577 560.133 504.319 559.598 502.932C559.062 501.546 558.823 500.063 558.895 498.579C558.823 497.095 559.062 495.612 559.598 494.226C560.133 492.839 560.952 491.58 562.003 490.53C563.054 489.479 564.313 488.659 565.699 488.124C567.085 487.589 568.568 487.349 570.052 487.421C571.537 487.349 573.02 487.589 574.406 488.124C575.792 488.659 577.051 489.479 578.102 490.53C579.153 491.58 579.972 492.839 580.507 494.226C581.043 495.612 581.282 497.095 581.21 498.579C581.282 500.063 581.043 501.546 580.507 502.932C579.972 504.319 579.153 505.577 578.102 506.628C577.051 507.679 575.792 508.498 574.406 509.034C573.02 509.569 571.537 509.809 570.052 509.737Z" fill="#F8F8F8"/>
<g clip-path="url(#clip1_8_1124)">
<path d="M505.022 473H506.031C527.03 473 544.053 490.249 544.053 511.526C544.053 532.804 527.03 550.053 506.031 550.053H505.022C484.023 550.053 467 532.804 467 511.526C467 490.249 484.023 473 505.022 473Z" fill="#F7931A"/>
<path d="M505.054 475.445H505.999C525.664 475.445 541.606 491.599 541.606 511.526C541.606 531.452 525.664 547.606 505.999 547.606H505.054C485.388 547.606 469.446 531.452 469.446 511.526C469.446 491.599 485.388 475.445 505.054 475.445Z" fill="black"/>
<path d="M526.313 506.014C527.28 500.103 522.35 496.925 515.607 494.805L517.795 486.798L512.453 485.583L510.324 493.379C508.922 493.06 507.48 492.759 506.047 492.46L508.191 484.613L502.855 483.398L500.666 491.403C499.504 491.161 498.364 490.922 497.256 490.671L497.262 490.646L489.898 488.968L488.478 494.174C488.478 494.174 492.44 495.002 492.356 495.054C494.519 495.546 494.911 496.853 494.844 497.888L492.353 507.01C492.502 507.045 492.695 507.095 492.908 507.173L492.345 507.045L488.852 519.824C488.587 520.423 487.917 521.323 486.405 520.981C486.458 521.052 482.523 520.097 482.523 520.097L479.873 525.678L486.823 527.259C488.116 527.555 489.383 527.864 490.628 528.156L488.418 536.256L493.752 537.471L495.942 529.458C497.398 529.819 498.812 530.152 500.196 530.466L498.015 538.441L503.355 539.656L505.565 531.572C514.67 533.145 521.519 532.51 524.398 524.995C526.72 518.942 524.284 515.451 519.493 513.173C522.982 512.435 525.61 510.341 526.311 506.014H526.313ZM514.111 521.63C512.459 527.682 501.296 524.412 497.675 523.59L500.607 512.86C504.227 513.685 515.832 515.318 514.112 521.63H514.111ZM515.761 505.926C514.255 511.432 504.963 508.634 501.947 507.949L504.605 498.217C507.621 498.903 517.331 500.183 515.761 505.926Z" fill="#F7931A" fill-opacity="0.49935"/>
<path d="M480.041 516.052C480.041 515.557 479.986 515.431 480.49 514.931C484.918 510.538 489.399 506.198 493.944 501.926C494.941 500.988 496.208 500.387 497.307 499.571C500.55 497.165 504.033 495.258 507.733 493.629C510.517 492.404 513.307 491.752 516.254 491.163C516.826 491.048 517.466 491.228 518.048 491.163C518.644 491.097 519.169 490.901 519.73 490.714C520.087 490.595 520.986 490.649 520.739 490.154" fill="black"/>
<path d="M480.041 516.052C480.041 515.557 479.986 515.431 480.49 514.931C484.918 510.538 489.399 506.198 493.944 501.926C494.941 500.988 496.208 500.387 497.307 499.571C500.55 497.165 504.033 495.258 507.733 493.629C510.517 492.404 513.307 491.752 516.254 491.163C516.826 491.048 517.466 491.228 518.048 491.163C518.644 491.097 519.169 490.901 519.73 490.714C520.087 490.595 520.986 490.649 520.739 490.154" stroke="black" stroke-width="0.0254068"/>
<path d="M479.145 527.487C478.51 527.487 479.207 526.4 479.369 526.142C480.063 525.032 480.846 523.866 481.723 522.89C482.456 522.077 483.384 521.492 484.19 520.76C485.106 519.927 485.836 518.899 486.768 518.07C487.932 517.035 489.332 516.383 490.58 515.491C491.845 514.587 492.979 513.555 494.28 512.688C494.933 512.253 495.624 511.859 496.298 511.455C497.087 510.981 497.707 510.121 498.652 509.885C501.12 509.268 503.616 508.234 505.828 506.97C508.946 505.188 511.993 503.635 515.357 502.374C515.952 502.151 516.453 501.657 517.039 501.365C518.938 500.415 520.876 499.421 522.869 498.674C524.066 498.225 525.358 498.068 526.569 497.665C527.799 497.255 529.035 496.678 530.268 496.432C530.978 496.29 531.979 496.305 532.623 495.983" fill="black"/>
<path d="M479.145 527.487C478.51 527.487 479.207 526.4 479.369 526.142C480.063 525.032 480.846 523.866 481.723 522.89C482.456 522.077 483.384 521.492 484.19 520.76C485.106 519.927 485.836 518.899 486.768 518.07C487.932 517.035 489.332 516.383 490.58 515.491C491.845 514.587 492.979 513.555 494.28 512.688C494.933 512.253 495.624 511.859 496.298 511.455C497.087 510.981 497.707 510.121 498.652 509.885C501.12 509.268 503.616 508.234 505.828 506.97C508.946 505.188 511.993 503.635 515.357 502.374C515.952 502.151 516.453 501.657 517.039 501.365C518.938 500.415 520.876 499.421 522.869 498.674C524.066 498.225 525.358 498.068 526.569 497.665C527.799 497.255 529.035 496.678 530.268 496.432C530.978 496.29 531.979 496.305 532.623 495.983" stroke="black" stroke-width="0.0254068"/>
<path d="M490.02 531.188C489.331 531.188 490.247 530.388 490.356 530.291C491.392 529.371 492.539 528.592 493.607 527.713C494.324 527.123 494.913 526.39 495.626 525.807C497.676 524.129 500.09 522.602 502.352 521.21C505.571 519.23 508.972 517.499 512.442 516.053C513.658 515.546 514.853 514.848 516.03 514.259C517.183 513.682 518.449 513.493 519.618 513.026C521.513 512.268 523.442 511.566 525.448 511.232C526.164 511.112 526.834 510.571 527.578 510.447C528.651 510.268 529.674 509.983 530.717 509.774C530.958 509.726 531.756 509.792 531.95 509.662C532.236 509.472 532.085 509.438 532.511 509.438" fill="black"/>
<path d="M490.02 531.188C489.331 531.188 490.247 530.388 490.356 530.291C491.392 529.371 492.539 528.592 493.607 527.713C494.324 527.123 494.913 526.39 495.626 525.807C497.676 524.129 500.09 522.602 502.352 521.21C505.571 519.23 508.972 517.499 512.442 516.053C513.658 515.546 514.853 514.848 516.03 514.259C517.183 513.682 518.449 513.493 519.618 513.026C521.513 512.268 523.442 511.566 525.448 511.232C526.164 511.112 526.834 510.571 527.578 510.447C528.651 510.268 529.674 509.983 530.717 509.774C530.958 509.726 531.756 509.792 531.95 509.662C532.236 509.472 532.085 509.438 532.511 509.438" stroke="black" stroke-width="0.0254068"/>
<path d="M480.041 516.052C480.041 515.557 479.986 515.431 480.49 514.931C484.918 510.538 489.399 506.198 493.944 501.926C494.941 500.988 496.208 500.387 497.307 499.571C500.55 497.165 504.033 495.258 507.733 493.629C510.517 492.404 513.307 491.752 516.254 491.163C516.826 491.048 517.466 491.228 518.048 491.163C518.644 491.097 519.169 490.901 519.73 490.714C520.087 490.595 520.986 490.649 520.739 490.154" fill="white"/>
<path d="M480.041 516.052C480.041 515.557 479.986 515.431 480.49 514.931C484.918 510.538 489.399 506.198 493.944 501.926C494.941 500.988 496.208 500.387 497.307 499.571C500.55 497.165 504.033 495.258 507.733 493.629C510.517 492.404 513.307 491.752 516.254 491.163C516.826 491.048 517.466 491.228 518.048 491.163C518.644 491.097 519.169 490.901 519.73 490.714C520.087 490.595 520.986 490.649 520.739 490.154" stroke="white" stroke-width="0.0254068"/>
<path d="M479.145 527.487C478.51 527.487 479.207 526.4 479.369 526.142C480.063 525.032 480.846 523.866 481.723 522.89C482.456 522.077 483.384 521.492 484.19 520.76C485.106 519.927 485.836 518.899 486.768 518.07C487.932 517.035 489.332 516.383 490.58 515.491C491.845 514.587 492.979 513.555 494.28 512.688C494.933 512.253 495.624 511.859 496.298 511.455C497.087 510.981 497.707 510.121 498.652 509.885C501.12 509.268 503.616 508.234 505.828 506.97C508.946 505.188 511.993 503.635 515.357 502.374C515.952 502.151 516.453 501.657 517.039 501.365C518.938 500.415 520.876 499.421 522.869 498.674C524.066 498.225 525.358 498.068 526.569 497.665C527.799 497.255 529.035 496.678 530.268 496.432C530.978 496.29 531.979 496.305 532.623 495.983" fill="white"/>
<path d="M479.145 527.487C478.51 527.487 479.207 526.4 479.369 526.142C480.063 525.032 480.846 523.866 481.723 522.89C482.456 522.077 483.384 521.492 484.19 520.76C485.106 519.927 485.836 518.899 486.768 518.07C487.932 517.035 489.332 516.383 490.58 515.491C491.845 514.587 492.979 513.555 494.28 512.688C494.933 512.253 495.624 511.859 496.298 511.455C497.087 510.981 497.707 510.121 498.652 509.885C501.12 509.268 503.616 508.234 505.828 506.97C508.946 505.188 511.993 503.635 515.357 502.374C515.952 502.151 516.453 501.657 517.039 501.365C518.938 500.415 520.876 499.421 522.869 498.674C524.066 498.225 525.358 498.068 526.569 497.665C527.799 497.255 529.035 496.678 530.268 496.432C530.978 496.29 531.979 496.305 532.623 495.983" stroke="white" stroke-width="0.0254068"/>
<path d="M490.02 531.188C489.331 531.188 490.247 530.388 490.356 530.291C491.392 529.371 492.539 528.592 493.607 527.713C494.324 527.123 494.913 526.39 495.626 525.807C497.676 524.129 500.09 522.602 502.352 521.21C505.571 519.23 508.972 517.499 512.442 516.053C513.658 515.546 514.853 514.848 516.03 514.259C517.183 513.682 518.449 513.493 519.618 513.026C521.513 512.268 523.442 511.566 525.448 511.232C526.164 511.112 526.834 510.571 527.578 510.447C528.651 510.268 529.674 509.983 530.717 509.774C530.958 509.726 531.756 509.792 531.95 509.662C532.236 509.472 532.085 509.438 532.511 509.438" fill="white"/>
<path d="M490.02 531.188C489.331 531.188 490.247 530.388 490.356 530.291C491.392 529.371 492.539 528.592 493.607 527.713C494.324 527.123 494.913 526.39 495.626 525.807C497.676 524.129 500.09 522.602 502.352 521.21C505.571 519.23 508.972 517.499 512.442 516.053C513.658 515.546 514.853 514.848 516.03 514.259C517.183 513.682 518.449 513.493 519.618 513.026C521.513 512.268 523.442 511.566 525.448 511.232C526.164 511.112 526.834 510.571 527.578 510.447C528.651 510.268 529.674 509.983 530.717 509.774C530.958 509.726 531.756 509.792 531.95 509.662C532.236 509.472 532.085 509.438 532.511 509.438" stroke="white" stroke-width="0.0254068"/>
</g>
<rect y="635" width="800" height="18" fill="url(#paint0_radial_8_1124)"/>
<path d="M458.5 644.18C458.5 676.614 432.506 702.86 400.5 702.86C368.494 702.86 342.5 676.614 342.5 644.18C342.5 611.745 368.494 585.5 400.5 585.5C432.506 585.5 458.5 611.745 458.5 644.18Z" fill="#1D2026" stroke="#F7931A" stroke-width="5"/>
<g filter="url(#filter0_d_8_1124)">
<path d="M392.348 640.242H397.235C400.305 640.195 402.72 639.387 404.477 637.816C406.235 636.246 407.114 634.125 407.114 631.453C407.114 625.453 404.126 622.453 398.149 622.453C395.337 622.453 393.087 623.262 391.399 624.879C389.735 626.473 388.903 628.594 388.903 631.242H382.399C382.399 627.188 383.876 623.824 386.829 621.152C389.805 618.457 393.579 617.109 398.149 617.109C402.977 617.109 406.762 618.387 409.505 620.941C412.247 623.496 413.618 627.047 413.618 631.594C413.618 633.82 412.891 635.977 411.438 638.062C410.009 640.148 408.052 641.707 405.567 642.738C408.38 643.629 410.548 645.105 412.071 647.168C413.618 649.23 414.391 651.75 414.391 654.727C414.391 659.32 412.891 662.965 409.891 665.66C406.891 668.355 402.989 669.703 398.184 669.703C393.38 669.703 389.466 668.402 386.442 665.801C383.442 663.199 381.942 659.766 381.942 655.5H388.481C388.481 658.195 389.36 660.352 391.118 661.969C392.876 663.586 395.231 664.395 398.184 664.395C401.325 664.395 403.727 663.574 405.391 661.934C407.055 660.293 407.887 657.938 407.887 654.867C407.887 651.891 406.973 649.605 405.145 648.012C403.317 646.418 400.68 645.598 397.235 645.551H392.348V640.242Z" fill="#F8F8F8"/>
</g>
<path d="M658.25 280.25V242H716.062C719.907 242 723 245.009 723 248.75V379.25C723 382.991 719.907 386 716.062 386H618.938C615.093 386 612 382.991 612 379.25V287H651.312C655.128 287 658.25 283.962 658.25 280.25ZM704.5 262.25C704.5 261.007 703.465 260 702.188 260H679.062C677.785 260 676.75 261.007 676.75 262.25V266.75C676.75 267.993 677.785 269 679.062 269H702.188C703.465 269 704.5 267.993 704.5 266.75V262.25ZM704.5 280.25C704.5 279.007 703.465 278 702.188 278H679.062C677.785 278 676.75 279.007 676.75 280.25V284.75C676.75 285.993 677.785 287 679.062 287H702.188C703.465 287 704.5 285.993 704.5 284.75V280.25ZM648.766 350H635.125C632.57 350 630.5 352.014 630.5 354.5C630.5 356.986 632.57 359 635.125 359H648.766C653.521 359 657.805 356.429 659.935 352.289C660.788 350.624 662.274 350.456 662.875 350.456C663.476 350.456 664.962 350.622 665.771 352.197L667.989 356.511C668.372 357.258 668.963 357.887 669.694 358.326C670.424 358.765 671.266 358.998 672.125 358.997C672.235 358.997 672.342 358.992 672.455 358.983C674.319 358.857 675.923 357.647 676.51 355.92L681.375 341.728L684.442 350.695C686.145 355.662 690.911 359 696.294 359H699.875C702.43 359 704.5 356.986 704.5 354.5C704.5 352.014 702.43 350 699.875 350H696.294C694.897 350 693.66 349.134 693.218 347.846L687.96 332.478C687.006 329.719 684.364 327.863 681.375 327.863C678.386 327.863 675.744 329.716 674.793 332.478L670.781 344.189C665.066 339.636 655.157 341.461 651.703 348.172C651.119 349.314 649.98 350 648.766 350ZM614.023 271.531L642.323 243.969C643.623 242.703 645.387 242 647.237 242H649V278H612V276.284C612 274.512 612.723 272.797 614.023 271.531Z" fill="#F8F8F8"/>
<rect x="621.336" y="312.446" width="94.4019" height="55.4245" fill="#F8F8F8"/>
<rect x="623.93" y="339.381" width="16.0794" height="8.80576" rx="4" fill="#1D2026"/>
<rect x="623.93" y="307.784" width="23.8598" height="8.80576" rx="4" fill="#1D2026"/>
<path d="M654.627 423.755C654.629 420.108 656.072 416.61 658.638 414.031C661.204 411.452 664.684 410.002 668.313 410C675.827 410 682 415.92 682 423.545C681.998 427.192 680.555 430.69 677.989 433.269C675.423 435.848 671.943 437.298 668.313 437.3C667.204 437.3 666.109 437.14 665.07 436.872C665.046 437.55 664.76 438.193 664.274 438.664C663.787 439.136 663.138 439.399 662.463 439.4H658.806V443.075C658.806 444.524 657.636 445.7 656.194 445.7H652.537V448.325C652.537 449.3 652.152 450.234 651.466 450.924C650.781 451.613 649.85 452 648.881 452H643.657C642.687 452 641.757 451.613 641.071 450.924C640.385 450.234 640 449.3 640 448.325V443.764C640 442.231 640.606 440.763 641.684 439.681L654.71 426.586C654.774 426.518 654.82 426.437 654.846 426.348C654.871 426.258 654.875 426.164 654.857 426.073C654.713 425.309 654.636 424.533 654.627 423.755ZM674.06 420.395C674.06 419.699 673.785 419.031 673.295 418.539C672.805 418.047 672.14 417.77 671.448 417.77C670.755 417.77 670.091 418.047 669.601 418.539C669.111 419.031 668.836 419.699 668.836 420.395C668.836 421.091 669.111 421.759 669.601 422.251C670.091 422.743 670.755 423.02 671.448 423.02C672.14 423.02 672.805 422.743 673.295 422.251C673.785 421.759 674.06 421.091 674.06 420.395Z" fill="white"/>
<path d="M661.279 194.427C661.281 190.867 662.689 187.453 665.194 184.935C667.699 182.418 671.096 181.002 674.639 181C681.974 181 688 186.779 688 194.222C687.998 197.783 686.59 201.197 684.084 203.715C681.579 206.232 678.182 207.648 674.639 207.65C673.556 207.65 672.487 207.494 671.474 207.232C671.449 207.894 671.171 208.521 670.696 208.982C670.221 209.442 669.587 209.699 668.928 209.7H665.358V213.287C665.358 214.702 664.216 215.85 662.808 215.85H659.239V218.412C659.239 219.364 658.863 220.276 658.193 220.949C657.524 221.622 656.616 222 655.669 222H650.57C649.623 222 648.715 221.622 648.046 220.949C647.376 220.276 647 219.364 647 218.412V213.96C647 212.463 647.592 211.03 648.644 209.975L661.36 197.191C661.422 197.125 661.468 197.045 661.492 196.958C661.517 196.871 661.521 196.779 661.503 196.691C661.363 195.944 661.288 195.187 661.279 194.427ZM680.249 191.147C680.249 190.468 679.98 189.816 679.502 189.336C679.024 188.855 678.375 188.585 677.699 188.585C677.023 188.585 676.374 188.855 675.896 189.336C675.418 189.816 675.149 190.468 675.149 191.147C675.149 191.827 675.418 192.479 675.896 192.959C676.374 193.44 677.023 193.71 677.699 193.71C678.375 193.71 679.024 193.44 679.502 192.959C679.98 192.479 680.249 191.827 680.249 191.147Z" fill="#F7931A"/>
<defs>
<filter id="filter0_d_8_1124" x="377.942" y="617.109" width="40.4492" height="60.5938" filterUnits="userSpaceOnUse" color-interpolation-filters="sRGB">
<feFlood flood-opacity="0" result="BackgroundImageFix"/>
<feColorMatrix in="SourceAlpha" type="matrix" values="0 0 0 0 0 0 0 0 0 0 0 0 0 0 0 0 0 0 127 0" result="hardAlpha"/>
<feOffset dy="4"/>
<feGaussianBlur stdDeviation="2"/>
<feComposite in2="hardAlpha" operator="out"/>
<feColorMatrix type="matrix" values="0 0 0 0 0 0 0 0 0 0 0 0 0 0 0 0 0 0 0.25 0"/>
<feBlend mode="normal" in2="BackgroundImageFix" result="effect1_dropShadow_8_1124"/>
<feBlend mode="normal" in="SourceGraphic" in2="effect1_dropShadow_8_1124" result="shape"/>
</filter>
<radialGradient id="paint0_radial_8_1124" cx="0" cy="0" r="1" gradientUnits="userSpaceOnUse" gradientTransform="translate(400 644) rotate(90) scale(9 400)">
<stop stop-color="#F7931A"/>
<stop offset="1" stop-color="#F7931A" stop-opacity="0"/>
</radialGradient>
<clipPath id="clip0_8_1124">
<rect width="77.0526" height="77.0526" fill="white" transform="translate(467 90.5263)"/>
</clipPath>
<clipPath id="clip1_8_1124">
<rect width="77.0526" height="77.0526" fill="white" transform="translate(467 473)"/>
</clipPath>
</defs>
</svg>
