<svg width="800" height="743" viewBox="0 0 800 743" fill="none" xmlns="http://www.w3.org/2000/svg">
<rect width="800" height="743" fill="#1D2026"/>
<rect x="42.5" y="38.5" width="714" height="335" rx="8.5" stroke="#F7931A" stroke-width="3"/>
<g filter="url(#filter0_d_8_1140)">
<rect x="113" y="432" width="275" height="122" rx="17" fill="white"/>
<rect x="115" y="434" width="271" height="118" rx="15" stroke="#699765" stroke-width="4"/>
</g>
<path d="M203.589 515V473.055H218.282C223.371 473.055 227.232 474.034 229.863 475.993C232.494 477.933 233.81 480.785 233.81 484.549C233.81 486.604 233.281 488.419 232.225 489.994C231.169 491.55 229.7 492.693 227.817 493.422C229.968 493.96 231.659 495.045 232.888 496.678C234.136 498.31 234.76 500.308 234.76 502.67C234.76 506.703 233.473 509.757 230.9 511.831C228.326 513.905 224.658 514.962 219.895 515H203.589ZM212.232 496.735V508.057H219.636C221.672 508.057 223.256 507.577 224.389 506.617C225.542 505.637 226.118 504.293 226.118 502.583C226.118 498.742 224.13 496.793 220.154 496.735H212.232ZM212.232 490.628H218.627C222.987 490.551 225.167 488.813 225.167 485.414C225.167 483.512 224.61 482.149 223.496 481.323C222.401 480.478 220.663 480.055 218.282 480.055H212.232V490.628ZM259.392 511.831C257.337 514.328 254.494 515.576 250.864 515.576C247.522 515.576 244.968 514.616 243.201 512.695C241.453 510.775 240.56 507.961 240.522 504.254V483.829H248.848V503.966C248.848 507.212 250.326 508.835 253.284 508.835C256.107 508.835 258.047 507.855 259.104 505.896V483.829H267.458V515H259.622L259.392 511.831ZM285.377 503.217L291.139 483.829H300.069L287.538 519.84L286.846 521.482C284.983 525.554 281.91 527.589 277.627 527.589C276.417 527.589 275.188 527.407 273.94 527.042V520.733L275.208 520.762C276.782 520.762 277.954 520.522 278.722 520.042C279.51 519.561 280.124 518.764 280.566 517.65L281.545 515.086L270.627 483.829H279.586L285.377 503.217Z" fill="#699765"/>
<g filter="url(#filter1_f_8_1140)">
<rect x="411" y="432" width="275" height="122" rx="17" fill="#C4C4C4"/>
<path d="M518.722 496.303C513.978 494.94 510.521 493.269 508.351 491.291C506.2 489.293 505.125 486.835 505.125 483.916C505.125 480.612 506.44 477.885 509.071 475.734C511.722 473.564 515.16 472.479 519.385 472.479C522.266 472.479 524.83 473.035 527.077 474.149C529.343 475.263 531.091 476.8 532.32 478.759C533.568 480.718 534.192 482.859 534.192 485.183H528.632C528.632 482.648 527.826 480.66 526.212 479.22C524.599 477.76 522.323 477.03 519.385 477.03C516.658 477.03 514.526 477.635 512.989 478.845C511.472 480.036 510.713 481.697 510.713 483.829C510.713 485.538 511.434 486.988 512.874 488.179C514.334 489.351 516.802 490.426 520.278 491.406C523.773 492.385 526.5 493.47 528.459 494.661C530.438 495.833 531.897 497.206 532.838 498.781C533.799 500.356 534.279 502.209 534.279 504.341C534.279 507.74 532.954 510.467 530.303 512.522C527.653 514.558 524.109 515.576 519.673 515.576C516.792 515.576 514.103 515.029 511.606 513.934C509.11 512.82 507.18 511.303 505.816 509.382C504.472 507.462 503.799 505.282 503.799 502.843H509.359C509.359 505.378 510.291 507.385 512.154 508.864C514.036 510.323 516.542 511.053 519.673 511.053C522.592 511.053 524.83 510.458 526.385 509.267C527.941 508.076 528.719 506.453 528.719 504.398C528.719 502.343 527.999 500.759 526.558 499.645C525.118 498.512 522.506 497.398 518.722 496.303ZM553.494 515.576C549.269 515.576 545.831 514.193 543.181 511.428C540.53 508.643 539.205 504.927 539.205 500.279V499.299C539.205 496.207 539.791 493.451 540.962 491.031C542.153 488.592 543.805 486.691 545.917 485.327C548.049 483.944 550.354 483.253 552.832 483.253C556.884 483.253 560.034 484.588 562.281 487.257C564.528 489.927 565.651 493.749 565.651 498.723V500.941H544.535C544.611 504.014 545.505 506.501 547.214 508.403C548.942 510.285 551.132 511.226 553.782 511.226C555.664 511.226 557.258 510.842 558.564 510.074C559.87 509.306 561.013 508.288 561.993 507.02L565.248 509.555C562.636 513.569 558.718 515.576 553.494 515.576ZM552.832 487.632C550.681 487.632 548.875 488.419 547.416 489.994C545.956 491.55 545.053 493.739 544.708 496.562H560.322V496.159C560.168 493.451 559.438 491.358 558.132 489.879C556.826 488.381 555.059 487.632 552.832 487.632ZM577.636 515H572.306V470.75H577.636V515ZM591.982 515H586.653V470.75H591.982V515Z" fill="#B34F4F"/>
</g>
<path d="M119.799 97.4077C119.799 100.263 119.337 102.748 118.413 104.861C117.489 106.961 116.208 108.648 114.571 109.921L119.652 113.911L115.642 117.459L109.133 112.231C108.391 112.357 107.621 112.42 106.823 112.42C104.29 112.42 102.029 111.811 100.042 110.593C98.0539 109.375 96.5142 107.64 95.4224 105.386C94.3306 103.119 93.7777 100.515 93.7637 97.5757V96.064C93.7637 93.0545 94.3026 90.409 95.3804 88.1274C96.4722 85.8319 98.0049 84.0752 99.9785 82.8574C101.966 81.6257 104.234 81.0098 106.781 81.0098C109.329 81.0098 111.589 81.6257 113.563 82.8574C115.551 84.0752 117.083 85.8319 118.161 88.1274C119.253 90.409 119.799 93.0475 119.799 96.043V97.4077ZM113.416 96.022C113.416 92.8166 112.842 90.381 111.694 88.7153C110.547 87.0496 108.909 86.2168 106.781 86.2168C104.668 86.2168 103.037 87.0426 101.889 88.6943C100.741 90.332 100.16 92.7396 100.146 95.917V97.4077C100.146 100.529 100.72 102.951 101.868 104.672C103.016 106.394 104.668 107.255 106.823 107.255C108.937 107.255 110.561 106.429 111.694 104.777C112.828 103.112 113.402 100.69 113.416 97.5127V96.022ZM137.625 109.69C136.127 111.51 134.055 112.42 131.41 112.42C128.974 112.42 127.112 111.72 125.825 110.32C124.551 108.921 123.9 106.87 123.872 104.168V89.2822H129.94V103.958C129.94 106.324 131.018 107.507 133.173 107.507C135.231 107.507 136.645 106.793 137.415 105.365V89.2822H143.503V112H137.792L137.625 109.69ZM161.245 112C160.965 111.454 160.762 110.775 160.636 109.963C159.167 111.601 157.256 112.42 154.904 112.42C152.679 112.42 150.831 111.776 149.361 110.488C147.906 109.201 147.178 107.577 147.178 105.617C147.178 103.21 148.067 101.362 149.844 100.074C151.636 98.7865 154.218 98.1356 157.592 98.1216H160.384V96.8198C160.384 95.77 160.111 94.9302 159.565 94.3003C159.034 93.6704 158.187 93.3555 157.025 93.3555C156.003 93.3555 155.198 93.6004 154.61 94.0903C154.036 94.5802 153.75 95.2521 153.75 96.106H147.682C147.682 94.7902 148.088 93.5724 148.899 92.4526C149.711 91.3328 150.859 90.458 152.343 89.8281C153.826 89.1842 155.492 88.8623 157.34 88.8623C160.139 88.8623 162.358 89.5692 163.996 90.9829C165.647 92.3826 166.473 94.3563 166.473 96.9038V106.751C166.487 108.907 166.788 110.537 167.376 111.643V112H161.245ZM156.227 107.78C157.123 107.78 157.949 107.584 158.705 107.192C159.46 106.786 160.02 106.247 160.384 105.575V101.67H158.117C155.079 101.67 153.463 102.72 153.267 104.819L153.246 105.176C153.246 105.932 153.512 106.555 154.043 107.045C154.575 107.535 155.303 107.78 156.227 107.78ZM176.719 89.2822L176.908 91.9067C178.532 89.8771 180.708 88.8623 183.438 88.8623C185.846 88.8623 187.637 89.5692 188.813 90.9829C189.989 92.3966 190.591 94.5103 190.619 97.3237V112H184.551V97.4707C184.551 96.1829 184.271 95.2521 183.711 94.6782C183.151 94.0903 182.22 93.7964 180.918 93.7964C179.211 93.7964 177.93 94.5243 177.076 95.98V112H171.008V89.2822H176.719ZM202.502 83.6973V89.2822H206.387V93.7334H202.502V105.071C202.502 105.911 202.663 106.513 202.985 106.877C203.307 107.241 203.923 107.423 204.833 107.423C205.505 107.423 206.1 107.374 206.618 107.276V111.874C205.428 112.238 204.203 112.42 202.943 112.42C198.688 112.42 196.519 110.271 196.435 105.974V93.7334H193.117V89.2822H196.435V83.6973H202.502ZM216.171 112H210.082V89.2822H216.171V112ZM209.725 83.4033C209.725 82.4935 210.026 81.7446 210.628 81.1567C211.244 80.5688 212.077 80.2749 213.126 80.2749C214.162 80.2749 214.988 80.5688 215.604 81.1567C216.22 81.7446 216.528 82.4935 216.528 83.4033C216.528 84.3271 216.213 85.083 215.583 85.6709C214.967 86.2588 214.148 86.5527 213.126 86.5527C212.105 86.5527 211.279 86.2588 210.649 85.6709C210.033 85.083 209.725 84.3271 209.725 83.4033ZM228.454 83.6973V89.2822H232.338V93.7334H228.454V105.071C228.454 105.911 228.615 106.513 228.937 106.877C229.258 107.241 229.874 107.423 230.784 107.423C231.456 107.423 232.051 107.374 232.569 107.276V111.874C231.379 112.238 230.154 112.42 228.895 112.42C224.639 112.42 222.47 110.271 222.386 105.974V93.7334H219.068V89.2822H222.386V83.6973H228.454ZM244.201 103.413L248.4 89.2822H254.909L245.775 115.527L245.271 116.724C243.914 119.692 241.674 121.175 238.553 121.175C237.671 121.175 236.775 121.042 235.865 120.776V116.178L236.789 116.199C237.937 116.199 238.791 116.024 239.351 115.674C239.924 115.324 240.372 114.743 240.694 113.932L241.408 112.063L233.451 89.2822H239.98L244.201 103.413Z" fill="#F7931A"/>
<path d="M487.885 104.126C487.885 102.839 487.43 101.754 486.52 100.872C485.624 99.9902 484.105 99.1924 481.964 98.4785C478.982 97.5687 476.806 96.3859 475.434 94.9302C474.076 93.4604 473.397 91.5988 473.397 89.3452C473.397 87.0496 474.062 85.167 475.392 83.6973C476.736 82.2275 478.576 81.3527 480.914 81.0728V76.4746H484.042V81.0938C486.394 81.4157 488.221 82.4025 489.522 84.0542C490.838 85.7059 491.496 87.9665 491.496 90.8359H487.633C487.633 88.8623 487.164 87.2946 486.226 86.1328C485.288 84.971 484.021 84.3901 482.426 84.3901C480.76 84.3901 479.486 84.8241 478.604 85.6919C477.723 86.5457 477.282 87.7425 477.282 89.2822C477.282 90.71 477.744 91.8507 478.667 92.7046C479.605 93.5444 481.138 94.3143 483.266 95.0142C485.407 95.7 487.073 96.4629 488.263 97.3027C489.466 98.1286 490.348 99.0944 490.908 100.2C491.482 101.306 491.769 102.601 491.769 104.084C491.769 106.45 491.055 108.354 489.627 109.795C488.214 111.237 486.226 112.091 483.665 112.357V116.367H480.557V112.357C477.954 112.119 475.91 111.195 474.426 109.585C472.957 107.962 472.222 105.764 472.222 102.993H476.106C476.106 104.938 476.617 106.436 477.639 107.486C478.66 108.536 480.109 109.061 481.985 109.061C483.819 109.061 485.26 108.62 486.31 107.738C487.36 106.856 487.885 105.652 487.885 104.126ZM512.996 101.733H517.237V104.903H512.996V112H509.091V104.903H495.17V102.615L508.86 81.4297H512.996V101.733ZM499.58 101.733H509.091V86.7417L508.629 87.5815L499.58 101.733ZM540.774 112H520.744V109.208L531.326 97.4497C532.893 95.672 533.971 94.2303 534.559 93.1245C535.161 92.0047 535.462 90.8499 535.462 89.6602C535.462 88.0645 534.979 86.7557 534.013 85.7339C533.047 84.7121 531.76 84.2012 530.15 84.2012C528.218 84.2012 526.714 84.7541 525.636 85.8599C524.572 86.9517 524.04 88.4774 524.04 90.437H520.156C520.156 87.6235 521.059 85.349 522.864 83.6133C524.684 81.8776 527.112 81.0098 530.15 81.0098C532.991 81.0098 535.238 81.7586 536.89 83.2563C538.541 84.7401 539.367 86.7207 539.367 89.1982C539.367 92.2077 537.45 95.791 533.614 99.9482L525.426 108.83H540.774V112ZM545.162 118.089L542.958 116.577C544.273 114.743 544.959 112.854 545.015 110.908V107.402H548.815V110.446C548.815 111.86 548.465 113.274 547.766 114.688C547.08 116.101 546.212 117.235 545.162 118.089ZM566.095 112H562.19V86.1118L554.358 88.9883V85.4609L565.486 81.2827H566.095V112ZM583.123 94.8252H586.042C587.875 94.7972 589.317 94.3143 590.367 93.3765C591.417 92.4386 591.941 91.1719 591.941 89.5762C591.941 85.9928 590.157 84.2012 586.587 84.2012C584.908 84.2012 583.564 84.6841 582.556 85.6499C581.562 86.6017 581.065 87.8685 581.065 89.4502H577.181C577.181 87.0286 578.063 85.02 579.827 83.4243C581.604 81.8146 583.858 81.0098 586.587 81.0098C589.471 81.0098 591.731 81.7726 593.369 83.2983C595.007 84.8241 595.826 86.9447 595.826 89.6602C595.826 90.9899 595.392 92.2777 594.524 93.5234C593.67 94.7692 592.501 95.7 591.018 96.3159C592.697 96.8478 593.992 97.7297 594.902 98.9614C595.826 100.193 596.288 101.698 596.288 103.476C596.288 106.219 595.392 108.396 593.6 110.005C591.808 111.615 589.478 112.42 586.608 112.42C583.739 112.42 581.401 111.643 579.596 110.089C577.804 108.536 576.908 106.485 576.908 103.938H580.813C580.813 105.547 581.338 106.835 582.388 107.801C583.438 108.767 584.845 109.25 586.608 109.25C588.484 109.25 589.919 108.76 590.913 107.78C591.906 106.8 592.403 105.393 592.403 103.56C592.403 101.782 591.857 100.417 590.766 99.4653C589.674 98.5135 588.099 98.0236 586.042 97.9956H583.123V94.8252ZM607.269 94.8252H610.187C612.021 94.7972 613.462 94.3143 614.512 93.3765C615.562 92.4386 616.087 91.1719 616.087 89.5762C616.087 85.9928 614.302 84.2012 610.733 84.2012C609.053 84.2012 607.709 84.6841 606.702 85.6499C605.708 86.6017 605.211 87.8685 605.211 89.4502H601.327C601.327 87.0286 602.208 85.02 603.972 83.4243C605.75 81.8146 608.003 81.0098 610.733 81.0098C613.616 81.0098 615.877 81.7726 617.515 83.2983C619.152 84.8241 619.971 86.9447 619.971 89.6602C619.971 90.9899 619.537 92.2777 618.669 93.5234C617.816 94.7692 616.647 95.7 615.163 96.3159C616.843 96.8478 618.138 97.7297 619.047 98.9614C619.971 100.193 620.433 101.698 620.433 103.476C620.433 106.219 619.537 108.396 617.746 110.005C615.954 111.615 613.623 112.42 610.754 112.42C607.884 112.42 605.547 111.643 603.741 110.089C601.95 108.536 601.054 106.485 601.054 103.938H604.959C604.959 105.547 605.484 106.835 606.534 107.801C607.583 108.767 608.99 109.25 610.754 109.25C612.63 109.25 614.064 108.76 615.058 107.78C616.052 106.8 616.549 105.393 616.549 103.56C616.549 101.782 616.003 100.417 614.911 99.4653C613.819 98.5135 612.245 98.0236 610.187 97.9956H607.269V94.8252ZM645.502 83.6133L632.842 112H628.769L641.387 84.6211H624.842V81.4297H645.502V83.6133ZM650.395 109.963C650.395 109.292 650.59 108.732 650.982 108.284C651.388 107.836 651.99 107.612 652.788 107.612C653.586 107.612 654.188 107.836 654.594 108.284C655.014 108.732 655.224 109.292 655.224 109.963C655.224 110.607 655.014 111.146 654.594 111.58C654.188 112.014 653.586 112.231 652.788 112.231C651.99 112.231 651.388 112.014 650.982 111.58C650.59 111.146 650.395 110.607 650.395 109.963ZM680.419 98.9614C680.419 103.511 679.642 106.891 678.088 109.103C676.535 111.314 674.106 112.42 670.803 112.42C667.541 112.42 665.127 111.342 663.559 109.187C661.991 107.017 661.18 103.784 661.124 99.4863V94.3003C661.124 89.8071 661.9 86.4688 663.454 84.2852C665.008 82.1016 667.443 81.0098 670.761 81.0098C674.05 81.0098 676.472 82.0666 678.025 84.1802C679.579 86.2798 680.377 89.5272 680.419 93.9224V98.9614ZM676.535 93.6494C676.535 90.36 676.073 87.9665 675.149 86.4688C674.225 84.957 672.762 84.2012 670.761 84.2012C668.773 84.2012 667.324 84.95 666.415 86.4478C665.505 87.9455 665.036 90.248 665.008 93.3555V99.5703C665.008 102.874 665.484 105.316 666.436 106.898C667.401 108.466 668.857 109.25 670.803 109.25C672.72 109.25 674.141 108.508 675.065 107.024C676.003 105.54 676.493 103.203 676.535 100.011V93.6494ZM704.564 98.9614C704.564 103.511 703.788 106.891 702.234 109.103C700.68 111.314 698.252 112.42 694.948 112.42C691.687 112.42 689.272 111.342 687.705 109.187C686.137 107.017 685.325 103.784 685.269 99.4863V94.3003C685.269 89.8071 686.046 86.4688 687.6 84.2852C689.153 82.1016 691.589 81.0098 694.906 81.0098C698.196 81.0098 700.617 82.0666 702.171 84.1802C703.725 86.2798 704.522 89.5272 704.564 93.9224V98.9614ZM700.68 93.6494C700.68 90.36 700.218 87.9665 699.294 86.4688C698.371 84.957 696.908 84.2012 694.906 84.2012C692.919 84.2012 691.47 84.95 690.56 86.4478C689.65 87.9455 689.181 90.248 689.153 93.3555V99.5703C689.153 102.874 689.629 105.316 690.581 106.898C691.547 108.466 693.003 109.25 694.948 109.25C696.866 109.25 698.287 108.508 699.21 107.024C700.148 105.54 700.638 103.203 700.68 100.011V93.6494Z" fill="white"/>
<path d="M101.028 222.94H114.403V228H94.7295V197.43H101.028V222.94ZM128.092 228.42C124.761 228.42 122.045 227.398 119.946 225.354C117.86 223.311 116.817 220.588 116.817 217.187V216.599C116.817 214.318 117.258 212.281 118.14 210.489C119.022 208.684 120.268 207.298 121.877 206.332C123.501 205.352 125.349 204.862 127.42 204.862C130.528 204.862 132.97 205.842 134.748 207.802C136.54 209.761 137.436 212.54 137.436 216.137V218.615H122.969C123.165 220.098 123.753 221.288 124.733 222.184C125.727 223.08 126.979 223.528 128.491 223.528C130.829 223.528 132.655 222.681 133.971 220.987L136.953 224.326C136.043 225.613 134.811 226.621 133.257 227.349C131.704 228.063 129.982 228.42 128.092 228.42ZM127.399 209.775C126.196 209.775 125.216 210.181 124.46 210.993C123.718 211.805 123.242 212.967 123.032 214.479H131.473V213.996C131.445 212.652 131.081 211.616 130.381 210.888C129.681 210.146 128.687 209.775 127.399 209.775ZM149.109 220.588L153.33 205.282H159.67L152.007 228H146.212L138.548 205.282H144.889L149.109 220.588ZM172.52 228.42C169.189 228.42 166.473 227.398 164.374 225.354C162.288 223.311 161.245 220.588 161.245 217.187V216.599C161.245 214.318 161.686 212.281 162.568 210.489C163.45 208.684 164.695 207.298 166.305 206.332C167.929 205.352 169.777 204.862 171.848 204.862C174.956 204.862 177.398 205.842 179.176 207.802C180.967 209.761 181.863 212.54 181.863 216.137V218.615H167.397C167.593 220.098 168.181 221.288 169.161 222.184C170.154 223.08 171.407 223.528 172.919 223.528C175.257 223.528 177.083 222.681 178.399 220.987L181.38 224.326C180.471 225.613 179.239 226.621 177.685 227.349C176.131 228.063 174.41 228.42 172.52 228.42ZM171.827 209.775C170.623 209.775 169.644 210.181 168.888 210.993C168.146 211.805 167.67 212.967 167.46 214.479H175.9V213.996C175.872 212.652 175.508 211.616 174.809 210.888C174.109 210.146 173.115 209.775 171.827 209.775ZM198.093 210.972C197.267 210.86 196.54 210.804 195.91 210.804C193.614 210.804 192.109 211.581 191.396 213.135V228H185.328V205.282H191.06L191.228 207.991C192.445 205.905 194.132 204.862 196.288 204.862C196.959 204.862 197.589 204.953 198.177 205.135L198.093 210.972ZM213.567 228C213.287 227.454 213.084 226.775 212.958 225.963C211.489 227.601 209.578 228.42 207.227 228.42C205.001 228.42 203.153 227.776 201.684 226.488C200.228 225.201 199.5 223.577 199.5 221.617C199.5 219.21 200.389 217.362 202.167 216.074C203.958 214.786 206.541 214.136 209.914 214.122H212.707V212.82C212.707 211.77 212.434 210.93 211.888 210.3C211.356 209.67 210.509 209.355 209.347 209.355C208.325 209.355 207.521 209.6 206.933 210.09C206.359 210.58 206.072 211.252 206.072 212.106H200.004C200.004 210.79 200.41 209.572 201.222 208.453C202.034 207.333 203.181 206.458 204.665 205.828C206.149 205.184 207.814 204.862 209.662 204.862C212.462 204.862 214.68 205.569 216.318 206.983C217.97 208.383 218.795 210.356 218.795 212.904V222.751C218.809 224.907 219.11 226.537 219.698 227.643V228H213.567ZM208.549 223.78C209.445 223.78 210.271 223.584 211.027 223.192C211.783 222.786 212.343 222.247 212.707 221.575V217.67H210.439C207.402 217.67 205.785 218.72 205.589 220.819L205.568 221.176C205.568 221.932 205.834 222.555 206.366 223.045C206.898 223.535 207.625 223.78 208.549 223.78ZM222.575 216.473C222.575 212.988 223.401 210.181 225.052 208.054C226.718 205.926 228.958 204.862 231.771 204.862C234.263 204.862 236.201 205.716 237.587 207.424L237.839 205.282H243.34V227.244C243.34 229.232 242.885 230.96 241.975 232.43C241.079 233.9 239.812 235.02 238.175 235.79C236.537 236.559 234.619 236.944 232.422 236.944C230.756 236.944 229.132 236.608 227.551 235.937C225.969 235.279 224.772 234.425 223.96 233.375L226.648 229.68C228.16 231.373 229.993 232.22 232.149 232.22C233.759 232.22 235.011 231.786 235.907 230.918C236.803 230.065 237.251 228.847 237.251 227.265V226.047C235.851 227.629 234.011 228.42 231.729 228.42C229 228.42 226.788 227.356 225.094 225.229C223.415 223.087 222.575 220.252 222.575 216.725V216.473ZM228.643 216.914C228.643 218.972 229.056 220.588 229.881 221.764C230.707 222.926 231.841 223.507 233.283 223.507C235.13 223.507 236.453 222.814 237.251 221.428V211.875C236.439 210.489 235.13 209.796 233.325 209.796C231.869 209.796 230.721 210.391 229.881 211.581C229.056 212.771 228.643 214.549 228.643 216.914ZM258.478 228.42C255.147 228.42 252.431 227.398 250.332 225.354C248.246 223.311 247.203 220.588 247.203 217.187V216.599C247.203 214.318 247.644 212.281 248.526 210.489C249.408 208.684 250.653 207.298 252.263 206.332C253.887 205.352 255.735 204.862 257.806 204.862C260.914 204.862 263.356 205.842 265.134 207.802C266.925 209.761 267.821 212.54 267.821 216.137V218.615H253.355C253.551 220.098 254.139 221.288 255.119 222.184C256.112 223.08 257.365 223.528 258.877 223.528C261.215 223.528 263.041 222.681 264.357 220.987L267.338 224.326C266.429 225.613 265.197 226.621 263.643 227.349C262.089 228.063 260.368 228.42 258.478 228.42ZM257.785 209.775C256.581 209.775 255.602 210.181 254.846 210.993C254.104 211.805 253.628 212.967 253.418 214.479H261.858V213.996C261.83 212.652 261.466 211.616 260.767 210.888C260.067 210.146 259.073 209.775 257.785 209.775Z" fill="#F7931A"/>
<path d="M652.683 228H648.778V202.112L640.946 204.988V201.461L652.074 197.283H652.683V228ZM683.232 214.961C683.232 219.511 682.456 222.891 680.902 225.103C679.348 227.314 676.92 228.42 673.616 228.42C670.355 228.42 667.94 227.342 666.373 225.187C664.805 223.017 663.993 219.784 663.937 215.486V210.3C663.937 205.807 664.714 202.469 666.268 200.285C667.821 198.102 670.257 197.01 673.574 197.01C676.864 197.01 679.285 198.067 680.839 200.18C682.393 202.28 683.19 205.527 683.232 209.922V214.961ZM679.348 209.649C679.348 206.36 678.886 203.966 677.962 202.469C677.039 200.957 675.576 200.201 673.574 200.201C671.587 200.201 670.138 200.95 669.228 202.448C668.318 203.945 667.849 206.248 667.821 209.355V215.57C667.821 218.874 668.297 221.316 669.249 222.898C670.215 224.466 671.671 225.25 673.616 225.25C675.534 225.25 676.955 224.508 677.878 223.024C678.816 221.54 679.306 219.203 679.348 216.011V209.649ZM696.229 213.576L701.268 205.282H705.803L698.371 216.515L706.034 228H701.541L696.292 219.497L691.043 228H686.529L694.192 216.515L686.76 205.282H691.253L696.229 213.576Z" fill="white"/>
<path d="M102.96 313.43L110.812 335.602L118.623 313.43H126.896V344H120.576V335.644L121.206 321.219L112.954 344H108.629L100.398 321.24L101.028 335.644V344H94.7295V313.43H102.96ZM145.162 344C144.882 343.454 144.679 342.775 144.553 341.963C143.083 343.601 141.173 344.42 138.821 344.42C136.596 344.42 134.748 343.776 133.278 342.488C131.823 341.201 131.095 339.577 131.095 337.617C131.095 335.21 131.984 333.362 133.761 332.074C135.553 330.786 138.135 330.136 141.509 330.122H144.301V328.82C144.301 327.77 144.028 326.93 143.482 326.3C142.951 325.67 142.104 325.355 140.942 325.355C139.92 325.355 139.115 325.6 138.527 326.09C137.953 326.58 137.667 327.252 137.667 328.106H131.599C131.599 326.79 132.005 325.572 132.816 324.453C133.628 323.333 134.776 322.458 136.26 321.828C137.743 321.184 139.409 320.862 141.257 320.862C144.056 320.862 146.275 321.569 147.913 322.983C149.564 324.383 150.39 326.356 150.39 328.904V338.751C150.404 340.907 150.705 342.537 151.293 343.643V344H145.162ZM140.144 339.78C141.04 339.78 141.866 339.584 142.622 339.192C143.377 338.786 143.937 338.247 144.301 337.575V333.67H142.034C138.996 333.67 137.38 334.72 137.184 336.819L137.163 337.176C137.163 337.932 137.429 338.555 137.96 339.045C138.492 339.535 139.22 339.78 140.144 339.78ZM167.817 326.972C166.991 326.86 166.263 326.804 165.633 326.804C163.338 326.804 161.833 327.581 161.119 329.135V344H155.051V321.282H160.783L160.951 323.991C162.169 321.905 163.856 320.862 166.011 320.862C166.683 320.862 167.313 320.953 167.901 321.135L167.817 326.972ZM169.455 332.473C169.455 328.988 170.28 326.181 171.932 324.054C173.598 321.926 175.837 320.862 178.651 320.862C181.142 320.862 183.081 321.716 184.467 323.424L184.719 321.282H190.22V343.244C190.22 345.232 189.765 346.96 188.855 348.43C187.959 349.9 186.692 351.02 185.055 351.79C183.417 352.559 181.499 352.944 179.302 352.944C177.636 352.944 176.012 352.608 174.431 351.937C172.849 351.279 171.652 350.425 170.84 349.375L173.528 345.68C175.04 347.373 176.873 348.22 179.029 348.22C180.639 348.22 181.891 347.786 182.787 346.918C183.683 346.065 184.131 344.847 184.131 343.265V342.047C182.731 343.629 180.89 344.42 178.609 344.42C175.879 344.42 173.668 343.356 171.974 341.229C170.294 339.087 169.455 336.252 169.455 332.725V332.473ZM175.522 332.914C175.522 334.972 175.935 336.588 176.761 337.764C177.587 338.926 178.721 339.507 180.163 339.507C182.01 339.507 183.333 338.814 184.131 337.428V327.875C183.319 326.489 182.01 325.796 180.205 325.796C178.749 325.796 177.601 326.391 176.761 327.581C175.935 328.771 175.522 330.549 175.522 332.914ZM201.306 344H195.217V321.282H201.306V344ZM194.86 315.403C194.86 314.493 195.161 313.745 195.763 313.157C196.379 312.569 197.211 312.275 198.261 312.275C199.297 312.275 200.123 312.569 200.739 313.157C201.355 313.745 201.663 314.493 201.663 315.403C201.663 316.327 201.348 317.083 200.718 317.671C200.102 318.259 199.283 318.553 198.261 318.553C197.239 318.553 196.414 318.259 195.784 317.671C195.168 317.083 194.86 316.327 194.86 315.403ZM211.909 321.282L212.098 323.907C213.721 321.877 215.898 320.862 218.627 320.862C221.035 320.862 222.827 321.569 224.002 322.983C225.178 324.397 225.78 326.51 225.808 329.324V344H219.74V329.471C219.74 328.183 219.46 327.252 218.9 326.678C218.34 326.09 217.41 325.796 216.108 325.796C214.4 325.796 213.119 326.524 212.266 327.98V344H206.198V321.282H211.909Z" fill="#F7931A"/>
<path d="M596.079 348.214V344H592.123V313.298H596.079V308.955H598.831V313.298H599.175C600.15 313.298 601.038 313.341 601.841 313.427V308.955H604.593V313.857C606.399 314.316 607.761 315.118 608.678 316.265C609.624 317.383 610.097 318.931 610.097 320.909C610.097 322.715 609.653 324.22 608.764 325.424C607.904 326.599 606.643 327.359 604.98 327.703V327.918C606.127 328.119 607.144 328.491 608.033 329.036C608.95 329.581 609.667 330.355 610.183 331.358C610.728 332.361 611 333.666 611 335.271C611 337.507 610.427 339.342 609.28 340.775C608.162 342.18 606.6 343.126 604.593 343.613V348.214H601.841V344C601.64 344 601.425 344 601.196 344H598.831V348.214H596.079ZM599.949 326.37C602.3 326.37 603.905 325.954 604.765 325.123C605.654 324.263 606.098 323.002 606.098 321.339C606.098 319.648 605.553 318.444 604.464 317.727C603.403 316.982 601.698 316.609 599.347 316.609H595.993V326.37H599.949ZM595.993 329.595V340.732H600.465C602.844 340.732 604.507 340.202 605.453 339.141C606.399 338.08 606.872 336.69 606.872 334.97C606.872 333.365 606.385 332.075 605.41 331.1C604.435 330.097 602.687 329.595 600.164 329.595H595.993ZM644.936 330.961C644.936 335.511 644.159 338.891 642.605 341.103C641.051 343.314 638.623 344.42 635.319 344.42C632.058 344.42 629.643 343.342 628.076 341.187C626.508 339.017 625.696 335.784 625.64 331.486V326.3C625.64 321.807 626.417 318.469 627.971 316.285C629.524 314.102 631.96 313.01 635.277 313.01C638.567 313.01 640.988 314.067 642.542 316.18C644.096 318.28 644.894 321.527 644.936 325.922V330.961ZM641.051 325.649C641.051 322.36 640.589 319.966 639.666 318.469C638.742 316.957 637.279 316.201 635.277 316.201C633.29 316.201 631.841 316.95 630.931 318.448C630.021 319.945 629.552 322.248 629.524 325.355V331.57C629.524 334.874 630 337.316 630.952 338.898C631.918 340.466 633.374 341.25 635.319 341.25C637.237 341.25 638.658 340.508 639.582 339.024C640.519 337.54 641.009 335.203 641.051 332.011V325.649ZM650.395 341.963C650.395 341.292 650.59 340.732 650.982 340.284C651.388 339.836 651.99 339.612 652.788 339.612C653.586 339.612 654.188 339.836 654.594 340.284C655.014 340.732 655.224 341.292 655.224 341.963C655.224 342.607 655.014 343.146 654.594 343.58C654.188 344.014 653.586 344.231 652.788 344.231C651.99 344.231 651.388 344.014 650.982 343.58C650.59 343.146 650.395 342.607 650.395 341.963ZM680.419 330.961C680.419 335.511 679.642 338.891 678.088 341.103C676.535 343.314 674.106 344.42 670.803 344.42C667.541 344.42 665.127 343.342 663.559 341.187C661.991 339.017 661.18 335.784 661.124 331.486V326.3C661.124 321.807 661.9 318.469 663.454 316.285C665.008 314.102 667.443 313.01 670.761 313.01C674.05 313.01 676.472 314.067 678.025 316.18C679.579 318.28 680.377 321.527 680.419 325.922V330.961ZM676.535 325.649C676.535 322.36 676.073 319.966 675.149 318.469C674.225 316.957 672.762 316.201 670.761 316.201C668.773 316.201 667.324 316.95 666.415 318.448C665.505 319.945 665.036 322.248 665.008 325.355V331.57C665.008 334.874 665.484 337.316 666.436 338.898C667.401 340.466 668.857 341.25 670.803 341.25C672.72 341.25 674.141 340.508 675.065 339.024C676.003 337.54 676.493 335.203 676.535 332.011V325.649ZM698.161 344H694.255V318.112L686.424 320.988V317.461L697.552 313.283H698.161V344Z" fill="white"/>
<rect y="635" width="800" height="18" fill="url(#paint0_radial_8_1140)"/>
<path d="M458.5 644.18C458.5 676.614 432.506 702.86 400.5 702.86C368.494 702.86 342.5 676.614 342.5 644.18C342.5 611.745 368.494 585.5 400.5 585.5C432.506 585.5 458.5 611.745 458.5 644.18Z" fill="#1D2026" stroke="#F7931A" stroke-width="5"/>
<g filter="url(#filter2_d_8_1140)">
<path d="M416.43 669H382.891V664.324L400.61 644.637C403.235 641.66 405.04 639.246 406.024 637.395C407.032 635.52 407.536 633.586 407.536 631.594C407.536 628.922 406.727 626.73 405.11 625.02C403.493 623.309 401.337 622.453 398.641 622.453C395.407 622.453 392.887 623.379 391.083 625.23C389.302 627.059 388.411 629.613 388.411 632.895H381.907C381.907 628.184 383.419 624.375 386.442 621.469C389.489 618.562 393.555 617.109 398.641 617.109C403.399 617.109 407.161 618.363 409.927 620.871C412.692 623.355 414.075 626.672 414.075 630.82C414.075 635.859 410.864 641.859 404.442 648.82L390.731 663.691H416.43V669Z" fill="#F8F8F8"/>
</g>
<defs>
<filter id="filter0_d_8_1140" x="109" y="432" width="283" height="130" filterUnits="userSpaceOnUse" color-interpolation-filters="sRGB">
<feFlood flood-opacity="0" result="BackgroundImageFix"/>
<feColorMatrix in="SourceAlpha" type="matrix" values="0 0 0 0 0 0 0 0 0 0 0 0 0 0 0 0 0 0 127 0" result="hardAlpha"/>
<feOffset dy="4"/>
<feGaussianBlur stdDeviation="2"/>
<feComposite in2="hardAlpha" operator="out"/>
<feColorMatrix type="matrix" values="0 0 0 0 0 0 0 0 0 0 0 0 0 0 0 0 0 0 0.25 0"/>
<feBlend mode="normal" in2="BackgroundImageFix" result="effect1_dropShadow_8_1140"/>
<feBlend mode="normal" in="SourceGraphic" in2="effect1_dropShadow_8_1140" result="shape"/>
</filter>
<filter id="filter1_f_8_1140" x="407" y="428" width="283" height="130" filterUnits="userSpaceOnUse" color-interpolation-filters="sRGB">
<feFlood flood-opacity="0" result="BackgroundImageFix"/>
<feBlend mode="normal" in="SourceGraphic" in2="BackgroundImageFix" result="shape"/>
<feGaussianBlur stdDeviation="2" result="effect1_foregroundBlur_8_1140"/>
</filter>
<filter id="filter2_d_8_1140" x="377.907" y="617.109" width="42.5234" height="59.8906" filterUnits="userSpaceOnUse" color-interpolation-filters="sRGB">
<feFlood flood-opacity="0" result="BackgroundImageFix"/>
<feColorMatrix in="SourceAlpha" type="matrix" values="0 0 0 0 0 0 0 0 0 0 0 0 0 0 0 0 0 0 127 0" result="hardAlpha"/>
<feOffset dy="4"/>
<feGaussianBlur stdDeviation="2"/>
<feComposite in2="hardAlpha" operator="out"/>
<feColorMatrix type="matrix" values="0 0 0 0 0 0 0 0 0 0 0 0 0 0 0 0 0 0 0.25 0"/>
<feBlend mode="normal" in2="BackgroundImageFix" result="effect1_dropShadow_8_1140"/>
<feBlend mode="normal" in="SourceGraphic" in2="effect1_dropShadow_8_1140" result="shape"/>
</filter>
<radialGradient id="paint0_radial_8_1140" cx="0" cy="0" r="1" gradientUnits="userSpaceOnUse" gradientTransform="translate(400 644) rotate(90) scale(9 400)">
<stop stop-color="#F7931A"/>
<stop offset="1" stop-color="#F7931A" stop-opacity="0"/>
</radialGradient>
</defs>
</svg>
